%TF.GenerationSoftware,KiCad,Pcbnew,(6.0.7)*%
%TF.CreationDate,2022-08-28T16:32:12+02:00*%
%TF.ProjectId,filter,66696c74-6572-42e6-9b69-6361645f7063,rev?*%
%TF.SameCoordinates,Original*%
%TF.FileFunction,Copper,L2,Bot*%
%TF.FilePolarity,Positive*%
%FSLAX46Y46*%
G04 Gerber Fmt 4.6, Leading zero omitted, Abs format (unit mm)*
G04 Created by KiCad (PCBNEW (6.0.7)) date 2022-08-28 16:32:12*
%MOMM*%
%LPD*%
G01*
G04 APERTURE LIST*
%TA.AperFunction,ComponentPad*%
%ADD10O,1.600000X1.600000*%
%TD*%
%TA.AperFunction,ComponentPad*%
%ADD11R,1.600000X1.600000*%
%TD*%
%TA.AperFunction,WasherPad*%
%ADD12C,4.000000*%
%TD*%
%TA.AperFunction,ComponentPad*%
%ADD13C,1.800000*%
%TD*%
%TA.AperFunction,ComponentPad*%
%ADD14C,1.600000*%
%TD*%
%TA.AperFunction,ComponentPad*%
%ADD15R,1.930000X1.830000*%
%TD*%
%TA.AperFunction,ComponentPad*%
%ADD16C,2.130000*%
%TD*%
%TA.AperFunction,ComponentPad*%
%ADD17O,1.050000X1.500000*%
%TD*%
%TA.AperFunction,ComponentPad*%
%ADD18R,1.050000X1.500000*%
%TD*%
%TA.AperFunction,ComponentPad*%
%ADD19O,1.700000X1.700000*%
%TD*%
%TA.AperFunction,ComponentPad*%
%ADD20R,1.700000X1.700000*%
%TD*%
%TA.AperFunction,ComponentPad*%
%ADD21C,1.440000*%
%TD*%
%TA.AperFunction,Conductor*%
%ADD22C,0.250000*%
%TD*%
G04 APERTURE END LIST*
D10*
X144874245Y-77149368D03*
X144874245Y-74609368D03*
X144874245Y-72069368D03*
X144874245Y-69529368D03*
X144874245Y-66989368D03*
X144874245Y-64449368D03*
X144874245Y-61909368D03*
X137254245Y-61909368D03*
X137254245Y-64449368D03*
X137254245Y-66989368D03*
X137254245Y-69529368D03*
X137254245Y-72069368D03*
X137254245Y-74609368D03*
D11*
X137254245Y-77149368D03*
D12*
X150540000Y-119130000D03*
X159340000Y-119130000D03*
D13*
X157440000Y-126130000D03*
X154940000Y-126130000D03*
X152440000Y-126130000D03*
D10*
X116840000Y-64200000D03*
D14*
X116840000Y-69280000D03*
D10*
X158858077Y-72858635D03*
D14*
X151238077Y-72858635D03*
D12*
X150540000Y-55630000D03*
X159340000Y-55630000D03*
D13*
X157440000Y-62630000D03*
X154940000Y-62630000D03*
X152440000Y-62630000D03*
D10*
X134174436Y-110518109D03*
D14*
X126554436Y-110518109D03*
D10*
X149860000Y-83250000D03*
D14*
X149860000Y-90870000D03*
D12*
X131400000Y-55630000D03*
X122600000Y-55630000D03*
D13*
X129500000Y-62630000D03*
X127000000Y-62630000D03*
X124500000Y-62630000D03*
D10*
X128270000Y-71820000D03*
D14*
X120650000Y-71820000D03*
D10*
X165100000Y-60390000D03*
D14*
X165100000Y-68010000D03*
D10*
X140970000Y-50230000D03*
D14*
X140970000Y-57850000D03*
D10*
X160020000Y-83250000D03*
D14*
X160020000Y-90870000D03*
D10*
X128270000Y-66740000D03*
D14*
X120650000Y-66740000D03*
D15*
X160020000Y-145480000D03*
D16*
X160020000Y-134080000D03*
X160020000Y-142380000D03*
D10*
X137160000Y-51500000D03*
D14*
X137160000Y-56580000D03*
D10*
X161698385Y-105026821D03*
D14*
X161698385Y-110106821D03*
D10*
X132080000Y-90870000D03*
D14*
X132080000Y-83250000D03*
D10*
X128255709Y-102378654D03*
D14*
X128255709Y-94758654D03*
D10*
X124012500Y-77609507D03*
D14*
X131632500Y-77609507D03*
X144780000Y-128970000D03*
D10*
X144780000Y-121350000D03*
X163160436Y-128350509D03*
D14*
X163160436Y-120730509D03*
D10*
X157654806Y-68989162D03*
D14*
X152574806Y-68989162D03*
X137160000Y-128970000D03*
D10*
X137160000Y-121350000D03*
D12*
X131400000Y-119130000D03*
X122600000Y-119130000D03*
D13*
X129500000Y-126130000D03*
X127000000Y-126130000D03*
X124500000Y-126130000D03*
D14*
X151130000Y-130240000D03*
D10*
X158750000Y-130240000D03*
X132080000Y-94680000D03*
D14*
X132080000Y-102300000D03*
D15*
X147320000Y-145480000D03*
D16*
X147320000Y-134080000D03*
X147320000Y-142380000D03*
D15*
X134620000Y-145480000D03*
D16*
X134620000Y-134080000D03*
X134620000Y-142380000D03*
D12*
X136606702Y-86110000D03*
X145406702Y-86110000D03*
D13*
X143506702Y-93110000D03*
X141006702Y-93110000D03*
X138506702Y-93110000D03*
D14*
X140983490Y-128894692D03*
D10*
X140983490Y-121274692D03*
X157480000Y-109920000D03*
D14*
X149860000Y-109920000D03*
D10*
X116840000Y-80710000D03*
D14*
X116840000Y-73090000D03*
D10*
X165100000Y-57850000D03*
D14*
X165100000Y-50230000D03*
D10*
X154940000Y-83250000D03*
D14*
X154940000Y-90870000D03*
D10*
X144780000Y-56580000D03*
D14*
X144780000Y-51500000D03*
D10*
X132080000Y-69280000D03*
D14*
X132080000Y-74360000D03*
X116840000Y-52770000D03*
D10*
X116840000Y-60390000D03*
X162560000Y-93410000D03*
D14*
X162560000Y-101030000D03*
D15*
X121920000Y-145480000D03*
D16*
X121920000Y-134080000D03*
X121920000Y-142380000D03*
D17*
X162560000Y-71820000D03*
X163830000Y-71820000D03*
D18*
X165100000Y-71820000D03*
D19*
X120655000Y-103585000D03*
X123195000Y-103585000D03*
X120655000Y-101045000D03*
X123195000Y-101045000D03*
X120655000Y-98505000D03*
X123195000Y-98505000D03*
X120655000Y-95965000D03*
X123195000Y-95965000D03*
X120655000Y-93425000D03*
X123195000Y-93425000D03*
X120655000Y-90885000D03*
X123195000Y-90885000D03*
X120655000Y-88345000D03*
X123195000Y-88345000D03*
X120655000Y-85805000D03*
D20*
X123195000Y-85805000D03*
D10*
X137502602Y-98256647D03*
X137502602Y-100796647D03*
X137502602Y-103336647D03*
X137502602Y-105876647D03*
X137502602Y-108416647D03*
X137502602Y-110956647D03*
X137502602Y-113496647D03*
X137502602Y-116036647D03*
X145122602Y-116036647D03*
X145122602Y-113496647D03*
X145122602Y-110956647D03*
X145122602Y-108416647D03*
X145122602Y-105876647D03*
X145122602Y-103336647D03*
X145122602Y-100796647D03*
D11*
X145122602Y-98256647D03*
D21*
X152400000Y-79440000D03*
X154940000Y-76900000D03*
X157480000Y-79440000D03*
D17*
X165100000Y-76900000D03*
X163830000Y-76900000D03*
D18*
X162560000Y-76900000D03*
D22*
X128255709Y-94758654D02*
X128255709Y-85104291D01*
X128255709Y-85104291D02*
X130110000Y-83250000D01*
X130110000Y-83250000D02*
X132080000Y-83250000D01*
X152400000Y-61651857D02*
X153475135Y-60576722D01*
X153475135Y-60576722D02*
X159098407Y-60576722D01*
X152400000Y-62590000D02*
X152400000Y-61651857D01*
X159098407Y-60576722D02*
X160020000Y-61498315D01*
X160020000Y-61498315D02*
X160020000Y-81280000D01*
X164650000Y-85910000D02*
X164650000Y-102300000D01*
X160020000Y-81280000D02*
X164650000Y-85910000D01*
X137502602Y-110956647D02*
X141790000Y-106669249D01*
X141790000Y-106669249D02*
X141790000Y-94826702D01*
X141790000Y-94826702D02*
X143506702Y-93110000D01*
X137160000Y-114911647D02*
X142151647Y-114911647D01*
X142151647Y-114911647D02*
X142240000Y-115000000D01*
X134174436Y-110518109D02*
X134174436Y-111926083D01*
X134174436Y-111926083D02*
X137160000Y-114911647D01*
X142240000Y-104840000D02*
X143743353Y-103336647D01*
X142240000Y-115000000D02*
X142240000Y-104840000D01*
X124460000Y-97220000D02*
X124460000Y-87060000D01*
X124460000Y-87060000D02*
X123205000Y-85805000D01*
X127000000Y-99760000D02*
X124460000Y-97220000D01*
X139250000Y-93853298D02*
X139250000Y-99760000D01*
X138506702Y-93110000D02*
X139250000Y-93853298D01*
X139250000Y-99760000D02*
X139161647Y-99671647D01*
X127088353Y-99671647D02*
X127000000Y-99760000D01*
X139161647Y-99671647D02*
X127088353Y-99671647D01*
X137160000Y-128970000D02*
X134620000Y-126430000D01*
X132080000Y-112460000D02*
X132080000Y-107380000D01*
X134620000Y-126430000D02*
X134620000Y-115000000D01*
X134620000Y-115000000D02*
X132080000Y-112460000D01*
X132080000Y-107380000D02*
X134998353Y-104461647D01*
X137968593Y-104461647D02*
X139700000Y-102730240D01*
X134998353Y-104461647D02*
X137968593Y-104461647D01*
X139700000Y-102730240D02*
X139700000Y-94416702D01*
X139700000Y-94416702D02*
X141006702Y-93110000D01*
X165100000Y-57850000D02*
X165100000Y-56580000D01*
X165100000Y-56580000D02*
X160020000Y-51500000D01*
X160020000Y-51500000D02*
X158895000Y-52625000D01*
X119380000Y-61660000D02*
X116840000Y-61660000D01*
X158895000Y-52625000D02*
X120795000Y-52625000D01*
X120795000Y-52625000D02*
X119380000Y-54040000D01*
X119380000Y-54040000D02*
X119380000Y-61660000D01*
X116840000Y-61660000D02*
X115031924Y-63468076D01*
X115031924Y-63468076D02*
X115031924Y-71281924D01*
X115031924Y-71281924D02*
X116840000Y-73090000D01*
X116840000Y-69280000D02*
X116840000Y-66740000D01*
X116840000Y-66740000D02*
X124460000Y-59120000D01*
X152400000Y-89600000D02*
X152400000Y-97650240D01*
X124460000Y-59120000D02*
X129540000Y-59120000D01*
X129540000Y-69280000D02*
X133744368Y-73484368D01*
X129540000Y-59120000D02*
X130725000Y-60305000D01*
X130725000Y-60305000D02*
X130725000Y-63137412D01*
X130725000Y-63137412D02*
X129662412Y-64200000D01*
X129662412Y-64200000D02*
X129540000Y-64200000D01*
X129540000Y-64200000D02*
X129540000Y-69280000D01*
X133744368Y-73484368D02*
X138824368Y-73484368D01*
X138824368Y-73484368D02*
X142240000Y-76900000D01*
X142240000Y-76900000D02*
X142240000Y-81980000D01*
X142240000Y-81980000D02*
X147320000Y-81980000D01*
X147320000Y-81980000D02*
X147920790Y-82580790D01*
X147320000Y-102730240D02*
X147320000Y-107380000D01*
X147920790Y-82580790D02*
X147920790Y-85120790D01*
X147920790Y-85120790D02*
X152400000Y-89600000D01*
X152400000Y-97650240D02*
X147320000Y-102730240D01*
X147320000Y-107380000D02*
X146283353Y-108416647D01*
X146283353Y-108416647D02*
X145122602Y-108416647D01*
X116840000Y-73090000D02*
X116840000Y-76900000D01*
X116840000Y-76900000D02*
X119380000Y-79440000D01*
X119380000Y-79440000D02*
X119380000Y-89610000D01*
X119380000Y-89610000D02*
X120655000Y-90885000D01*
X116840000Y-118470000D02*
X116840000Y-94680000D01*
X116840000Y-94680000D02*
X116860000Y-94680000D01*
X124500000Y-126130000D02*
X116840000Y-118470000D01*
X116860000Y-94680000D02*
X120655000Y-90885000D01*
X132080000Y-102300000D02*
X136465955Y-102300000D01*
X136465955Y-102300000D02*
X137502602Y-103336647D01*
X143743353Y-103336647D02*
X145122602Y-103336647D01*
X132080000Y-69280000D02*
X132080000Y-61660000D01*
X132080000Y-61660000D02*
X137160000Y-56580000D01*
X138430000Y-90870000D02*
X137160000Y-92140000D01*
X149860000Y-90870000D02*
X138430000Y-90870000D01*
X137160000Y-92140000D02*
X137160000Y-97914045D01*
X165100000Y-71595000D02*
X160470000Y-66965000D01*
X150310000Y-61210000D02*
X150310000Y-71538110D01*
X150310000Y-71538110D02*
X149860000Y-71988110D01*
X160470000Y-66965000D02*
X160470000Y-61311919D01*
X149860000Y-71988110D02*
X149860000Y-83250000D01*
X160470000Y-61311919D02*
X158728081Y-59570000D01*
X158728081Y-59570000D02*
X151950000Y-59570000D01*
X151950000Y-59570000D02*
X150310000Y-61210000D01*
X165100000Y-68010000D02*
X165100000Y-64200000D01*
X160020000Y-59120000D02*
X149860000Y-59120000D01*
X165100000Y-64200000D02*
X160020000Y-59120000D01*
X149860000Y-59120000D02*
X149860000Y-62003613D01*
X149860000Y-62003613D02*
X144874245Y-66989368D01*
X164650000Y-102300000D02*
X164650000Y-117540000D01*
X164650000Y-117540000D02*
X163160436Y-119029564D01*
X163160436Y-119029564D02*
X163160436Y-120730509D01*
X164425206Y-102300000D02*
X161698385Y-105026821D01*
X164650000Y-102300000D02*
X164425206Y-102300000D01*
X116840000Y-73090000D02*
X127000000Y-62930000D01*
X165100000Y-122620000D02*
X165100000Y-79440000D01*
X165100000Y-79440000D02*
X163830000Y-78170000D01*
X148590000Y-121350000D02*
X149860000Y-122620000D01*
X144780000Y-121350000D02*
X148590000Y-121350000D01*
X149860000Y-122620000D02*
X165100000Y-122620000D01*
X163830000Y-78170000D02*
X163830000Y-76900000D01*
X152440000Y-126130000D02*
X152440000Y-142900000D01*
X152440000Y-142900000D02*
X149860000Y-145480000D01*
X149860000Y-145480000D02*
X147320000Y-145480000D01*
M02*
