%TF.GenerationSoftware,KiCad,Pcbnew,(6.0.7)*%
%TF.CreationDate,2022-08-28T16:32:13+02:00*%
%TF.ProjectId,filter,66696c74-6572-42e6-9b69-6361645f7063,rev?*%
%TF.SameCoordinates,Original*%
%TF.FileFunction,Soldermask,Bot*%
%TF.FilePolarity,Negative*%
%FSLAX46Y46*%
G04 Gerber Fmt 4.6, Leading zero omitted, Abs format (unit mm)*
G04 Created by KiCad (PCBNEW (6.0.7)) date 2022-08-28 16:32:13*
%MOMM*%
%LPD*%
G01*
G04 APERTURE LIST*
%ADD10O,1.600000X1.600000*%
%ADD11R,1.600000X1.600000*%
%ADD12C,4.000000*%
%ADD13C,1.800000*%
%ADD14C,1.600000*%
%ADD15R,1.930000X1.830000*%
%ADD16C,2.130000*%
%ADD17O,1.050000X1.500000*%
%ADD18R,1.050000X1.500000*%
%ADD19O,1.700000X1.700000*%
%ADD20R,1.700000X1.700000*%
%ADD21C,1.440000*%
G04 APERTURE END LIST*
D10*
X144874245Y-77149368D03*
X144874245Y-74609368D03*
X144874245Y-72069368D03*
X144874245Y-69529368D03*
X144874245Y-66989368D03*
X144874245Y-64449368D03*
X144874245Y-61909368D03*
X137254245Y-61909368D03*
X137254245Y-64449368D03*
X137254245Y-66989368D03*
X137254245Y-69529368D03*
X137254245Y-72069368D03*
X137254245Y-74609368D03*
D11*
X137254245Y-77149368D03*
D12*
X150540000Y-119130000D03*
X159340000Y-119130000D03*
D13*
X157440000Y-126130000D03*
X154940000Y-126130000D03*
X152440000Y-126130000D03*
D10*
X116840000Y-64200000D03*
D14*
X116840000Y-69280000D03*
D10*
X158858077Y-72858635D03*
D14*
X151238077Y-72858635D03*
D12*
X150540000Y-55630000D03*
X159340000Y-55630000D03*
D13*
X157440000Y-62630000D03*
X154940000Y-62630000D03*
X152440000Y-62630000D03*
D10*
X134174436Y-110518109D03*
D14*
X126554436Y-110518109D03*
D10*
X149860000Y-83250000D03*
D14*
X149860000Y-90870000D03*
D12*
X131400000Y-55630000D03*
X122600000Y-55630000D03*
D13*
X129500000Y-62630000D03*
X127000000Y-62630000D03*
X124500000Y-62630000D03*
D10*
X128270000Y-71820000D03*
D14*
X120650000Y-71820000D03*
D10*
X165100000Y-60390000D03*
D14*
X165100000Y-68010000D03*
D10*
X140970000Y-50230000D03*
D14*
X140970000Y-57850000D03*
D10*
X160020000Y-83250000D03*
D14*
X160020000Y-90870000D03*
D10*
X128270000Y-66740000D03*
D14*
X120650000Y-66740000D03*
D15*
X160020000Y-145480000D03*
D16*
X160020000Y-134080000D03*
X160020000Y-142380000D03*
D10*
X137160000Y-51500000D03*
D14*
X137160000Y-56580000D03*
D10*
X161698385Y-105026821D03*
D14*
X161698385Y-110106821D03*
D10*
X132080000Y-90870000D03*
D14*
X132080000Y-83250000D03*
D10*
X128255709Y-102378654D03*
D14*
X128255709Y-94758654D03*
D10*
X124012500Y-77609507D03*
D14*
X131632500Y-77609507D03*
X144780000Y-128970000D03*
D10*
X144780000Y-121350000D03*
X163160436Y-128350509D03*
D14*
X163160436Y-120730509D03*
D10*
X157654806Y-68989162D03*
D14*
X152574806Y-68989162D03*
X137160000Y-128970000D03*
D10*
X137160000Y-121350000D03*
D12*
X131400000Y-119130000D03*
X122600000Y-119130000D03*
D13*
X129500000Y-126130000D03*
X127000000Y-126130000D03*
X124500000Y-126130000D03*
D14*
X151130000Y-130240000D03*
D10*
X158750000Y-130240000D03*
X132080000Y-94680000D03*
D14*
X132080000Y-102300000D03*
D15*
X147320000Y-145480000D03*
D16*
X147320000Y-134080000D03*
X147320000Y-142380000D03*
D15*
X134620000Y-145480000D03*
D16*
X134620000Y-134080000D03*
X134620000Y-142380000D03*
D12*
X136606702Y-86110000D03*
X145406702Y-86110000D03*
D13*
X143506702Y-93110000D03*
X141006702Y-93110000D03*
X138506702Y-93110000D03*
D14*
X140983490Y-128894692D03*
D10*
X140983490Y-121274692D03*
X157480000Y-109920000D03*
D14*
X149860000Y-109920000D03*
D10*
X116840000Y-80710000D03*
D14*
X116840000Y-73090000D03*
D10*
X165100000Y-57850000D03*
D14*
X165100000Y-50230000D03*
D10*
X154940000Y-83250000D03*
D14*
X154940000Y-90870000D03*
D10*
X144780000Y-56580000D03*
D14*
X144780000Y-51500000D03*
D10*
X132080000Y-69280000D03*
D14*
X132080000Y-74360000D03*
X116840000Y-52770000D03*
D10*
X116840000Y-60390000D03*
X162560000Y-93410000D03*
D14*
X162560000Y-101030000D03*
D15*
X121920000Y-145480000D03*
D16*
X121920000Y-134080000D03*
X121920000Y-142380000D03*
D17*
X162560000Y-71820000D03*
X163830000Y-71820000D03*
D18*
X165100000Y-71820000D03*
D19*
X120655000Y-103585000D03*
X123195000Y-103585000D03*
X120655000Y-101045000D03*
X123195000Y-101045000D03*
X120655000Y-98505000D03*
X123195000Y-98505000D03*
X120655000Y-95965000D03*
X123195000Y-95965000D03*
X120655000Y-93425000D03*
X123195000Y-93425000D03*
X120655000Y-90885000D03*
X123195000Y-90885000D03*
X120655000Y-88345000D03*
X123195000Y-88345000D03*
X120655000Y-85805000D03*
D20*
X123195000Y-85805000D03*
D10*
X137502602Y-98256647D03*
X137502602Y-100796647D03*
X137502602Y-103336647D03*
X137502602Y-105876647D03*
X137502602Y-108416647D03*
X137502602Y-110956647D03*
X137502602Y-113496647D03*
X137502602Y-116036647D03*
X145122602Y-116036647D03*
X145122602Y-113496647D03*
X145122602Y-110956647D03*
X145122602Y-108416647D03*
X145122602Y-105876647D03*
X145122602Y-103336647D03*
X145122602Y-100796647D03*
D11*
X145122602Y-98256647D03*
D21*
X152400000Y-79440000D03*
X154940000Y-76900000D03*
X157480000Y-79440000D03*
D17*
X165100000Y-76900000D03*
X163830000Y-76900000D03*
D18*
X162560000Y-76900000D03*
M02*
