%TF.GenerationSoftware,KiCad,Pcbnew,(6.0.7)*%
%TF.CreationDate,2022-08-28T16:35:01+02:00*%
%TF.ProjectId,filter,66696c74-6572-42e6-9b69-6361645f7063,rev?*%
%TF.SameCoordinates,Original*%
%TF.FileFunction,Drillmap*%
%TF.FilePolarity,Positive*%
%FSLAX45Y45*%
G04 Gerber Fmt 4.5, Leading zero omitted, Abs format (unit mm)*
G04 Created by KiCad (PCBNEW (6.0.7)) date 2022-08-28 16:35:01*
%MOMM*%
%LPD*%
G01*
G04 APERTURE LIST*
%ADD10C,0.100000*%
%ADD11C,0.200000*%
G04 APERTURE END LIST*
D10*
X11430000Y-4826000D02*
X16764000Y-4826000D01*
X16764000Y-4826000D02*
X16764000Y-14732000D01*
X16764000Y-14732000D02*
X11430000Y-14732000D01*
X11430000Y-14732000D02*
X11430000Y-4826000D01*
D11*
X12160000Y-5463000D02*
X12360000Y-5663000D01*
X12360000Y-5463000D02*
X12160000Y-5663000D01*
X12160000Y-11813000D02*
X12360000Y-12013000D01*
X12360000Y-11813000D02*
X12160000Y-12013000D01*
X13040000Y-5463000D02*
X13240000Y-5663000D01*
X13240000Y-5463000D02*
X13040000Y-5663000D01*
X13040000Y-11813000D02*
X13240000Y-12013000D01*
X13240000Y-11813000D02*
X13040000Y-12013000D01*
X13560670Y-8511000D02*
X13760670Y-8711000D01*
X13760670Y-8511000D02*
X13560670Y-8711000D01*
X14440670Y-8511000D02*
X14640670Y-8711000D01*
X14640670Y-8511000D02*
X14440670Y-8711000D01*
X14954000Y-5463000D02*
X15154000Y-5663000D01*
X15154000Y-5463000D02*
X14954000Y-5663000D01*
X14954000Y-11813000D02*
X15154000Y-12013000D01*
X15154000Y-11813000D02*
X14954000Y-12013000D01*
X15834000Y-5463000D02*
X16034000Y-5663000D01*
X16034000Y-5463000D02*
X15834000Y-5663000D01*
X15834000Y-11813000D02*
X16034000Y-12013000D01*
X16034000Y-11813000D02*
X15834000Y-12013000D01*
X11682619Y-15047476D02*
X11682619Y-14847476D01*
X11730238Y-14847476D01*
X11758809Y-14857000D01*
X11777857Y-14876048D01*
X11787381Y-14895095D01*
X11796905Y-14933190D01*
X11796905Y-14961762D01*
X11787381Y-14999857D01*
X11777857Y-15018905D01*
X11758809Y-15037952D01*
X11730238Y-15047476D01*
X11682619Y-15047476D01*
X11882619Y-15047476D02*
X11882619Y-14914143D01*
X11882619Y-14952238D02*
X11892143Y-14933190D01*
X11901667Y-14923667D01*
X11920714Y-14914143D01*
X11939762Y-14914143D01*
X12006428Y-15047476D02*
X12006428Y-14914143D01*
X12006428Y-14847476D02*
X11996905Y-14857000D01*
X12006428Y-14866524D01*
X12015952Y-14857000D01*
X12006428Y-14847476D01*
X12006428Y-14866524D01*
X12130238Y-15047476D02*
X12111190Y-15037952D01*
X12101667Y-15018905D01*
X12101667Y-14847476D01*
X12235000Y-15047476D02*
X12215952Y-15037952D01*
X12206428Y-15018905D01*
X12206428Y-14847476D01*
X12463571Y-15047476D02*
X12463571Y-14847476D01*
X12530238Y-14990333D01*
X12596905Y-14847476D01*
X12596905Y-15047476D01*
X12777857Y-15047476D02*
X12777857Y-14942714D01*
X12768333Y-14923667D01*
X12749286Y-14914143D01*
X12711190Y-14914143D01*
X12692143Y-14923667D01*
X12777857Y-15037952D02*
X12758809Y-15047476D01*
X12711190Y-15047476D01*
X12692143Y-15037952D01*
X12682619Y-15018905D01*
X12682619Y-14999857D01*
X12692143Y-14980809D01*
X12711190Y-14971286D01*
X12758809Y-14971286D01*
X12777857Y-14961762D01*
X12873095Y-14914143D02*
X12873095Y-15114143D01*
X12873095Y-14923667D02*
X12892143Y-14914143D01*
X12930238Y-14914143D01*
X12949286Y-14923667D01*
X12958809Y-14933190D01*
X12968333Y-14952238D01*
X12968333Y-15009381D01*
X12958809Y-15028428D01*
X12949286Y-15037952D01*
X12930238Y-15047476D01*
X12892143Y-15047476D01*
X12873095Y-15037952D01*
X13054048Y-15028428D02*
X13063571Y-15037952D01*
X13054048Y-15047476D01*
X13044524Y-15037952D01*
X13054048Y-15028428D01*
X13054048Y-15047476D01*
X13054048Y-14923667D02*
X13063571Y-14933190D01*
X13054048Y-14942714D01*
X13044524Y-14933190D01*
X13054048Y-14923667D01*
X13054048Y-14942714D01*
X11225000Y-15277000D02*
X11425000Y-15477000D01*
X11425000Y-15277000D02*
X11225000Y-15477000D01*
X11673095Y-15286524D02*
X11682619Y-15277000D01*
X11701667Y-15267476D01*
X11749286Y-15267476D01*
X11768333Y-15277000D01*
X11777857Y-15286524D01*
X11787381Y-15305571D01*
X11787381Y-15324619D01*
X11777857Y-15353190D01*
X11663571Y-15467476D01*
X11787381Y-15467476D01*
X11873095Y-15448428D02*
X11882619Y-15457952D01*
X11873095Y-15467476D01*
X11863571Y-15457952D01*
X11873095Y-15448428D01*
X11873095Y-15467476D01*
X12006428Y-15267476D02*
X12025476Y-15267476D01*
X12044524Y-15277000D01*
X12054048Y-15286524D01*
X12063571Y-15305571D01*
X12073095Y-15343667D01*
X12073095Y-15391286D01*
X12063571Y-15429381D01*
X12054048Y-15448428D01*
X12044524Y-15457952D01*
X12025476Y-15467476D01*
X12006428Y-15467476D01*
X11987381Y-15457952D01*
X11977857Y-15448428D01*
X11968333Y-15429381D01*
X11958809Y-15391286D01*
X11958809Y-15343667D01*
X11968333Y-15305571D01*
X11977857Y-15286524D01*
X11987381Y-15277000D01*
X12006428Y-15267476D01*
X12196905Y-15267476D02*
X12215952Y-15267476D01*
X12235000Y-15277000D01*
X12244524Y-15286524D01*
X12254048Y-15305571D01*
X12263571Y-15343667D01*
X12263571Y-15391286D01*
X12254048Y-15429381D01*
X12244524Y-15448428D01*
X12235000Y-15457952D01*
X12215952Y-15467476D01*
X12196905Y-15467476D01*
X12177857Y-15457952D01*
X12168333Y-15448428D01*
X12158809Y-15429381D01*
X12149286Y-15391286D01*
X12149286Y-15343667D01*
X12158809Y-15305571D01*
X12168333Y-15286524D01*
X12177857Y-15277000D01*
X12196905Y-15267476D01*
X12387381Y-15267476D02*
X12406428Y-15267476D01*
X12425476Y-15277000D01*
X12435000Y-15286524D01*
X12444524Y-15305571D01*
X12454048Y-15343667D01*
X12454048Y-15391286D01*
X12444524Y-15429381D01*
X12435000Y-15448428D01*
X12425476Y-15457952D01*
X12406428Y-15467476D01*
X12387381Y-15467476D01*
X12368333Y-15457952D01*
X12358809Y-15448428D01*
X12349286Y-15429381D01*
X12339762Y-15391286D01*
X12339762Y-15343667D01*
X12349286Y-15305571D01*
X12358809Y-15286524D01*
X12368333Y-15277000D01*
X12387381Y-15267476D01*
X12539762Y-15467476D02*
X12539762Y-15334143D01*
X12539762Y-15353190D02*
X12549286Y-15343667D01*
X12568333Y-15334143D01*
X12596905Y-15334143D01*
X12615952Y-15343667D01*
X12625476Y-15362714D01*
X12625476Y-15467476D01*
X12625476Y-15362714D02*
X12635000Y-15343667D01*
X12654048Y-15334143D01*
X12682619Y-15334143D01*
X12701667Y-15343667D01*
X12711190Y-15362714D01*
X12711190Y-15467476D01*
X12806428Y-15467476D02*
X12806428Y-15334143D01*
X12806428Y-15353190D02*
X12815952Y-15343667D01*
X12835000Y-15334143D01*
X12863571Y-15334143D01*
X12882619Y-15343667D01*
X12892143Y-15362714D01*
X12892143Y-15467476D01*
X12892143Y-15362714D02*
X12901667Y-15343667D01*
X12920714Y-15334143D01*
X12949286Y-15334143D01*
X12968333Y-15343667D01*
X12977857Y-15362714D01*
X12977857Y-15467476D01*
X13368333Y-15257952D02*
X13196905Y-15515095D01*
X13625476Y-15267476D02*
X13644524Y-15267476D01*
X13663571Y-15277000D01*
X13673095Y-15286524D01*
X13682619Y-15305571D01*
X13692143Y-15343667D01*
X13692143Y-15391286D01*
X13682619Y-15429381D01*
X13673095Y-15448428D01*
X13663571Y-15457952D01*
X13644524Y-15467476D01*
X13625476Y-15467476D01*
X13606428Y-15457952D01*
X13596905Y-15448428D01*
X13587381Y-15429381D01*
X13577857Y-15391286D01*
X13577857Y-15343667D01*
X13587381Y-15305571D01*
X13596905Y-15286524D01*
X13606428Y-15277000D01*
X13625476Y-15267476D01*
X13777857Y-15448428D02*
X13787381Y-15457952D01*
X13777857Y-15467476D01*
X13768333Y-15457952D01*
X13777857Y-15448428D01*
X13777857Y-15467476D01*
X13911190Y-15267476D02*
X13930238Y-15267476D01*
X13949286Y-15277000D01*
X13958809Y-15286524D01*
X13968333Y-15305571D01*
X13977857Y-15343667D01*
X13977857Y-15391286D01*
X13968333Y-15429381D01*
X13958809Y-15448428D01*
X13949286Y-15457952D01*
X13930238Y-15467476D01*
X13911190Y-15467476D01*
X13892143Y-15457952D01*
X13882619Y-15448428D01*
X13873095Y-15429381D01*
X13863571Y-15391286D01*
X13863571Y-15343667D01*
X13873095Y-15305571D01*
X13882619Y-15286524D01*
X13892143Y-15277000D01*
X13911190Y-15267476D01*
X14044524Y-15267476D02*
X14177857Y-15267476D01*
X14092143Y-15467476D01*
X14282619Y-15353190D02*
X14263571Y-15343667D01*
X14254048Y-15334143D01*
X14244524Y-15315095D01*
X14244524Y-15305571D01*
X14254048Y-15286524D01*
X14263571Y-15277000D01*
X14282619Y-15267476D01*
X14320714Y-15267476D01*
X14339762Y-15277000D01*
X14349286Y-15286524D01*
X14358809Y-15305571D01*
X14358809Y-15315095D01*
X14349286Y-15334143D01*
X14339762Y-15343667D01*
X14320714Y-15353190D01*
X14282619Y-15353190D01*
X14263571Y-15362714D01*
X14254048Y-15372238D01*
X14244524Y-15391286D01*
X14244524Y-15429381D01*
X14254048Y-15448428D01*
X14263571Y-15457952D01*
X14282619Y-15467476D01*
X14320714Y-15467476D01*
X14339762Y-15457952D01*
X14349286Y-15448428D01*
X14358809Y-15429381D01*
X14358809Y-15391286D01*
X14349286Y-15372238D01*
X14339762Y-15362714D01*
X14320714Y-15353190D01*
X14425476Y-15267476D02*
X14558809Y-15267476D01*
X14473095Y-15467476D01*
X14625476Y-15267476D02*
X14625476Y-15305571D01*
X14701667Y-15267476D02*
X14701667Y-15305571D01*
X14996905Y-15543667D02*
X14987381Y-15534143D01*
X14968333Y-15505571D01*
X14958809Y-15486524D01*
X14949286Y-15457952D01*
X14939762Y-15410333D01*
X14939762Y-15372238D01*
X14949286Y-15324619D01*
X14958809Y-15296048D01*
X14968333Y-15277000D01*
X14987381Y-15248428D01*
X14996905Y-15238905D01*
X15177857Y-15467476D02*
X15063571Y-15467476D01*
X15120714Y-15467476D02*
X15120714Y-15267476D01*
X15101667Y-15296048D01*
X15082619Y-15315095D01*
X15063571Y-15324619D01*
X15301667Y-15267476D02*
X15320714Y-15267476D01*
X15339762Y-15277000D01*
X15349286Y-15286524D01*
X15358809Y-15305571D01*
X15368333Y-15343667D01*
X15368333Y-15391286D01*
X15358809Y-15429381D01*
X15349286Y-15448428D01*
X15339762Y-15457952D01*
X15320714Y-15467476D01*
X15301667Y-15467476D01*
X15282619Y-15457952D01*
X15273095Y-15448428D01*
X15263571Y-15429381D01*
X15254048Y-15391286D01*
X15254048Y-15343667D01*
X15263571Y-15305571D01*
X15273095Y-15286524D01*
X15282619Y-15277000D01*
X15301667Y-15267476D01*
X15606428Y-15467476D02*
X15606428Y-15267476D01*
X15692143Y-15467476D02*
X15692143Y-15362714D01*
X15682619Y-15343667D01*
X15663571Y-15334143D01*
X15635000Y-15334143D01*
X15615952Y-15343667D01*
X15606428Y-15353190D01*
X15815952Y-15467476D02*
X15796905Y-15457952D01*
X15787381Y-15448428D01*
X15777857Y-15429381D01*
X15777857Y-15372238D01*
X15787381Y-15353190D01*
X15796905Y-15343667D01*
X15815952Y-15334143D01*
X15844524Y-15334143D01*
X15863571Y-15343667D01*
X15873095Y-15353190D01*
X15882619Y-15372238D01*
X15882619Y-15429381D01*
X15873095Y-15448428D01*
X15863571Y-15457952D01*
X15844524Y-15467476D01*
X15815952Y-15467476D01*
X15996905Y-15467476D02*
X15977857Y-15457952D01*
X15968333Y-15438905D01*
X15968333Y-15267476D01*
X16149286Y-15457952D02*
X16130238Y-15467476D01*
X16092143Y-15467476D01*
X16073095Y-15457952D01*
X16063571Y-15438905D01*
X16063571Y-15362714D01*
X16073095Y-15343667D01*
X16092143Y-15334143D01*
X16130238Y-15334143D01*
X16149286Y-15343667D01*
X16158809Y-15362714D01*
X16158809Y-15381762D01*
X16063571Y-15400809D01*
X16235000Y-15457952D02*
X16254048Y-15467476D01*
X16292143Y-15467476D01*
X16311190Y-15457952D01*
X16320714Y-15438905D01*
X16320714Y-15429381D01*
X16311190Y-15410333D01*
X16292143Y-15400809D01*
X16263571Y-15400809D01*
X16244524Y-15391286D01*
X16235000Y-15372238D01*
X16235000Y-15362714D01*
X16244524Y-15343667D01*
X16263571Y-15334143D01*
X16292143Y-15334143D01*
X16311190Y-15343667D01*
X16387381Y-15543667D02*
X16396905Y-15534143D01*
X16415952Y-15505571D01*
X16425476Y-15486524D01*
X16435000Y-15457952D01*
X16444524Y-15410333D01*
X16444524Y-15372238D01*
X16435000Y-15324619D01*
X16425476Y-15296048D01*
X16415952Y-15277000D01*
X16396905Y-15248428D01*
X16387381Y-15238905D01*
X16749286Y-15543667D02*
X16739762Y-15534143D01*
X16720714Y-15505571D01*
X16711190Y-15486524D01*
X16701667Y-15457952D01*
X16692143Y-15410333D01*
X16692143Y-15372238D01*
X16701667Y-15324619D01*
X16711190Y-15296048D01*
X16720714Y-15277000D01*
X16739762Y-15248428D01*
X16749286Y-15238905D01*
X16825476Y-15334143D02*
X16825476Y-15467476D01*
X16825476Y-15353190D02*
X16835000Y-15343667D01*
X16854048Y-15334143D01*
X16882619Y-15334143D01*
X16901667Y-15343667D01*
X16911190Y-15362714D01*
X16911190Y-15467476D01*
X17035000Y-15467476D02*
X17015952Y-15457952D01*
X17006429Y-15448428D01*
X16996905Y-15429381D01*
X16996905Y-15372238D01*
X17006429Y-15353190D01*
X17015952Y-15343667D01*
X17035000Y-15334143D01*
X17063571Y-15334143D01*
X17082619Y-15343667D01*
X17092143Y-15353190D01*
X17101667Y-15372238D01*
X17101667Y-15429381D01*
X17092143Y-15448428D01*
X17082619Y-15457952D01*
X17063571Y-15467476D01*
X17035000Y-15467476D01*
X17158810Y-15334143D02*
X17235000Y-15334143D01*
X17187381Y-15267476D02*
X17187381Y-15438905D01*
X17196905Y-15457952D01*
X17215952Y-15467476D01*
X17235000Y-15467476D01*
X17454048Y-15334143D02*
X17454048Y-15534143D01*
X17454048Y-15343667D02*
X17473095Y-15334143D01*
X17511190Y-15334143D01*
X17530238Y-15343667D01*
X17539762Y-15353190D01*
X17549286Y-15372238D01*
X17549286Y-15429381D01*
X17539762Y-15448428D01*
X17530238Y-15457952D01*
X17511190Y-15467476D01*
X17473095Y-15467476D01*
X17454048Y-15457952D01*
X17663571Y-15467476D02*
X17644524Y-15457952D01*
X17635000Y-15438905D01*
X17635000Y-15267476D01*
X17825476Y-15467476D02*
X17825476Y-15362714D01*
X17815952Y-15343667D01*
X17796905Y-15334143D01*
X17758810Y-15334143D01*
X17739762Y-15343667D01*
X17825476Y-15457952D02*
X17806429Y-15467476D01*
X17758810Y-15467476D01*
X17739762Y-15457952D01*
X17730238Y-15438905D01*
X17730238Y-15419857D01*
X17739762Y-15400809D01*
X17758810Y-15391286D01*
X17806429Y-15391286D01*
X17825476Y-15381762D01*
X17892143Y-15334143D02*
X17968333Y-15334143D01*
X17920714Y-15267476D02*
X17920714Y-15438905D01*
X17930238Y-15457952D01*
X17949286Y-15467476D01*
X17968333Y-15467476D01*
X18111190Y-15457952D02*
X18092143Y-15467476D01*
X18054048Y-15467476D01*
X18035000Y-15457952D01*
X18025476Y-15438905D01*
X18025476Y-15362714D01*
X18035000Y-15343667D01*
X18054048Y-15334143D01*
X18092143Y-15334143D01*
X18111190Y-15343667D01*
X18120714Y-15362714D01*
X18120714Y-15381762D01*
X18025476Y-15400809D01*
X18292143Y-15467476D02*
X18292143Y-15267476D01*
X18292143Y-15457952D02*
X18273095Y-15467476D01*
X18235000Y-15467476D01*
X18215952Y-15457952D01*
X18206429Y-15448428D01*
X18196905Y-15429381D01*
X18196905Y-15372238D01*
X18206429Y-15353190D01*
X18215952Y-15343667D01*
X18235000Y-15334143D01*
X18273095Y-15334143D01*
X18292143Y-15343667D01*
X18368333Y-15543667D02*
X18377857Y-15534143D01*
X18396905Y-15505571D01*
X18406429Y-15486524D01*
X18415952Y-15457952D01*
X18425476Y-15410333D01*
X18425476Y-15372238D01*
X18415952Y-15324619D01*
X18406429Y-15296048D01*
X18396905Y-15277000D01*
X18377857Y-15248428D01*
X18368333Y-15238905D01*
M02*
