%TF.GenerationSoftware,KiCad,Pcbnew,(6.0.7)*%
%TF.CreationDate,2022-08-28T16:35:01+02:00*%
%TF.ProjectId,filter,66696c74-6572-42e6-9b69-6361645f7063,rev?*%
%TF.SameCoordinates,Original*%
%TF.FileFunction,Drillmap*%
%TF.FilePolarity,Positive*%
%FSLAX45Y45*%
G04 Gerber Fmt 4.5, Leading zero omitted, Abs format (unit mm)*
G04 Created by KiCad (PCBNEW (6.0.7)) date 2022-08-28 16:35:01*
%MOMM*%
%LPD*%
G01*
G04 APERTURE LIST*
%ADD10C,0.100000*%
%ADD11C,0.200000*%
%ADD12C,0.075000*%
%ADD13C,0.080000*%
%ADD14C,0.122000*%
%ADD15C,0.142000*%
%ADD16C,0.143000*%
G04 APERTURE END LIST*
D10*
X11430000Y-4826000D02*
X16764000Y-4826000D01*
X16764000Y-4826000D02*
X16764000Y-14732000D01*
X16764000Y-14732000D02*
X11430000Y-14732000D01*
X11430000Y-14732000D02*
X11430000Y-4826000D01*
D11*
D12*
X16218500Y-7144500D02*
X16293500Y-7219500D01*
X16293500Y-7144500D02*
X16218500Y-7219500D01*
X16218500Y-7652500D02*
X16293500Y-7727500D01*
X16293500Y-7652500D02*
X16218500Y-7727500D01*
X16345500Y-7144500D02*
X16420500Y-7219500D01*
X16420500Y-7144500D02*
X16345500Y-7219500D01*
X16345500Y-7652500D02*
X16420500Y-7727500D01*
X16420500Y-7652500D02*
X16345500Y-7727500D01*
X16472500Y-7144500D02*
X16547500Y-7219500D01*
X16547500Y-7144500D02*
X16472500Y-7219500D01*
X16472500Y-7652500D02*
X16547500Y-7727500D01*
X16547500Y-7652500D02*
X16472500Y-7727500D01*
D13*
X11724000Y-5277000D02*
G75*
G03*
X11724000Y-5277000I-40000J0D01*
G01*
X11724000Y-6039000D02*
G75*
G03*
X11724000Y-6039000I-40000J0D01*
G01*
X11724000Y-6420000D02*
G75*
G03*
X11724000Y-6420000I-40000J0D01*
G01*
X11724000Y-6928000D02*
G75*
G03*
X11724000Y-6928000I-40000J0D01*
G01*
X11724000Y-7309000D02*
G75*
G03*
X11724000Y-7309000I-40000J0D01*
G01*
X11724000Y-8071000D02*
G75*
G03*
X11724000Y-8071000I-40000J0D01*
G01*
X12105000Y-6674000D02*
G75*
G03*
X12105000Y-6674000I-40000J0D01*
G01*
X12105000Y-7182000D02*
G75*
G03*
X12105000Y-7182000I-40000J0D01*
G01*
X12441250Y-7760951D02*
G75*
G03*
X12441250Y-7760951I-40000J0D01*
G01*
X12695444Y-11051811D02*
G75*
G03*
X12695444Y-11051811I-40000J0D01*
G01*
X12865571Y-9475865D02*
G75*
G03*
X12865571Y-9475865I-40000J0D01*
G01*
X12865571Y-10237865D02*
G75*
G03*
X12865571Y-10237865I-40000J0D01*
G01*
X12867000Y-6674000D02*
G75*
G03*
X12867000Y-6674000I-40000J0D01*
G01*
X12867000Y-7182000D02*
G75*
G03*
X12867000Y-7182000I-40000J0D01*
G01*
X13203250Y-7760951D02*
G75*
G03*
X13203250Y-7760951I-40000J0D01*
G01*
X13248000Y-6928000D02*
G75*
G03*
X13248000Y-6928000I-40000J0D01*
G01*
X13248000Y-7436000D02*
G75*
G03*
X13248000Y-7436000I-40000J0D01*
G01*
X13248000Y-8325000D02*
G75*
G03*
X13248000Y-8325000I-40000J0D01*
G01*
X13248000Y-9087000D02*
G75*
G03*
X13248000Y-9087000I-40000J0D01*
G01*
X13248000Y-9468000D02*
G75*
G03*
X13248000Y-9468000I-40000J0D01*
G01*
X13248000Y-10230000D02*
G75*
G03*
X13248000Y-10230000I-40000J0D01*
G01*
X13457444Y-11051811D02*
G75*
G03*
X13457444Y-11051811I-40000J0D01*
G01*
X13756000Y-5150000D02*
G75*
G03*
X13756000Y-5150000I-40000J0D01*
G01*
X13756000Y-5658000D02*
G75*
G03*
X13756000Y-5658000I-40000J0D01*
G01*
X13756000Y-12135000D02*
G75*
G03*
X13756000Y-12135000I-40000J0D01*
G01*
X13756000Y-12897000D02*
G75*
G03*
X13756000Y-12897000I-40000J0D01*
G01*
X13765424Y-6190937D02*
G75*
G03*
X13765424Y-6190937I-40000J0D01*
G01*
X13765424Y-6444937D02*
G75*
G03*
X13765424Y-6444937I-40000J0D01*
G01*
X13765424Y-6698937D02*
G75*
G03*
X13765424Y-6698937I-40000J0D01*
G01*
X13765424Y-6952937D02*
G75*
G03*
X13765424Y-6952937I-40000J0D01*
G01*
X13765424Y-7206937D02*
G75*
G03*
X13765424Y-7206937I-40000J0D01*
G01*
X13765424Y-7460937D02*
G75*
G03*
X13765424Y-7460937I-40000J0D01*
G01*
X13765424Y-7714937D02*
G75*
G03*
X13765424Y-7714937I-40000J0D01*
G01*
X13790260Y-9825665D02*
G75*
G03*
X13790260Y-9825665I-40000J0D01*
G01*
X13790260Y-10079665D02*
G75*
G03*
X13790260Y-10079665I-40000J0D01*
G01*
X13790260Y-10333665D02*
G75*
G03*
X13790260Y-10333665I-40000J0D01*
G01*
X13790260Y-10587665D02*
G75*
G03*
X13790260Y-10587665I-40000J0D01*
G01*
X13790260Y-10841665D02*
G75*
G03*
X13790260Y-10841665I-40000J0D01*
G01*
X13790260Y-11095665D02*
G75*
G03*
X13790260Y-11095665I-40000J0D01*
G01*
X13790260Y-11349665D02*
G75*
G03*
X13790260Y-11349665I-40000J0D01*
G01*
X13790260Y-11603665D02*
G75*
G03*
X13790260Y-11603665I-40000J0D01*
G01*
X14137000Y-5023000D02*
G75*
G03*
X14137000Y-5023000I-40000J0D01*
G01*
X14137000Y-5785000D02*
G75*
G03*
X14137000Y-5785000I-40000J0D01*
G01*
X14138349Y-12127469D02*
G75*
G03*
X14138349Y-12127469I-40000J0D01*
G01*
X14138349Y-12889469D02*
G75*
G03*
X14138349Y-12889469I-40000J0D01*
G01*
X14518000Y-5150000D02*
G75*
G03*
X14518000Y-5150000I-40000J0D01*
G01*
X14518000Y-5658000D02*
G75*
G03*
X14518000Y-5658000I-40000J0D01*
G01*
X14518000Y-12135000D02*
G75*
G03*
X14518000Y-12135000I-40000J0D01*
G01*
X14518000Y-12897000D02*
G75*
G03*
X14518000Y-12897000I-40000J0D01*
G01*
X14527424Y-6190937D02*
G75*
G03*
X14527424Y-6190937I-40000J0D01*
G01*
X14527424Y-6444937D02*
G75*
G03*
X14527424Y-6444937I-40000J0D01*
G01*
X14527424Y-6698937D02*
G75*
G03*
X14527424Y-6698937I-40000J0D01*
G01*
X14527424Y-6952937D02*
G75*
G03*
X14527424Y-6952937I-40000J0D01*
G01*
X14527424Y-7206937D02*
G75*
G03*
X14527424Y-7206937I-40000J0D01*
G01*
X14527424Y-7460937D02*
G75*
G03*
X14527424Y-7460937I-40000J0D01*
G01*
X14527424Y-7714937D02*
G75*
G03*
X14527424Y-7714937I-40000J0D01*
G01*
X14552260Y-9825665D02*
G75*
G03*
X14552260Y-9825665I-40000J0D01*
G01*
X14552260Y-10079665D02*
G75*
G03*
X14552260Y-10079665I-40000J0D01*
G01*
X14552260Y-10333665D02*
G75*
G03*
X14552260Y-10333665I-40000J0D01*
G01*
X14552260Y-10587665D02*
G75*
G03*
X14552260Y-10587665I-40000J0D01*
G01*
X14552260Y-10841665D02*
G75*
G03*
X14552260Y-10841665I-40000J0D01*
G01*
X14552260Y-11095665D02*
G75*
G03*
X14552260Y-11095665I-40000J0D01*
G01*
X14552260Y-11349665D02*
G75*
G03*
X14552260Y-11349665I-40000J0D01*
G01*
X14552260Y-11603665D02*
G75*
G03*
X14552260Y-11603665I-40000J0D01*
G01*
X15026000Y-8325000D02*
G75*
G03*
X15026000Y-8325000I-40000J0D01*
G01*
X15026000Y-9087000D02*
G75*
G03*
X15026000Y-9087000I-40000J0D01*
G01*
X15026000Y-10992000D02*
G75*
G03*
X15026000Y-10992000I-40000J0D01*
G01*
X15153000Y-13024000D02*
G75*
G03*
X15153000Y-13024000I-40000J0D01*
G01*
X15163808Y-7285863D02*
G75*
G03*
X15163808Y-7285863I-40000J0D01*
G01*
X15280000Y-7944000D02*
G75*
G03*
X15280000Y-7944000I-40000J0D01*
G01*
X15297481Y-6898916D02*
G75*
G03*
X15297481Y-6898916I-40000J0D01*
G01*
X15534000Y-7690000D02*
G75*
G03*
X15534000Y-7690000I-40000J0D01*
G01*
X15534000Y-8325000D02*
G75*
G03*
X15534000Y-8325000I-40000J0D01*
G01*
X15534000Y-9087000D02*
G75*
G03*
X15534000Y-9087000I-40000J0D01*
G01*
X15788000Y-7944000D02*
G75*
G03*
X15788000Y-7944000I-40000J0D01*
G01*
X15788000Y-10992000D02*
G75*
G03*
X15788000Y-10992000I-40000J0D01*
G01*
X15805481Y-6898916D02*
G75*
G03*
X15805481Y-6898916I-40000J0D01*
G01*
X15915000Y-13024000D02*
G75*
G03*
X15915000Y-13024000I-40000J0D01*
G01*
X15925808Y-7285863D02*
G75*
G03*
X15925808Y-7285863I-40000J0D01*
G01*
X16042000Y-8325000D02*
G75*
G03*
X16042000Y-8325000I-40000J0D01*
G01*
X16042000Y-9087000D02*
G75*
G03*
X16042000Y-9087000I-40000J0D01*
G01*
X16209838Y-10502682D02*
G75*
G03*
X16209838Y-10502682I-40000J0D01*
G01*
X16209838Y-11010682D02*
G75*
G03*
X16209838Y-11010682I-40000J0D01*
G01*
X16296000Y-9341000D02*
G75*
G03*
X16296000Y-9341000I-40000J0D01*
G01*
X16296000Y-10103000D02*
G75*
G03*
X16296000Y-10103000I-40000J0D01*
G01*
X16356044Y-12073051D02*
G75*
G03*
X16356044Y-12073051I-40000J0D01*
G01*
X16356044Y-12835051D02*
G75*
G03*
X16356044Y-12835051I-40000J0D01*
G01*
X16550000Y-5023000D02*
G75*
G03*
X16550000Y-5023000I-40000J0D01*
G01*
X16550000Y-5785000D02*
G75*
G03*
X16550000Y-5785000I-40000J0D01*
G01*
X16550000Y-6039000D02*
G75*
G03*
X16550000Y-6039000I-40000J0D01*
G01*
X16550000Y-6801000D02*
G75*
G03*
X16550000Y-6801000I-40000J0D01*
G01*
D10*
X12065500Y-8530500D02*
X12065500Y-8630500D01*
X12015500Y-8580500D02*
X12115500Y-8580500D01*
X12065500Y-8784500D02*
X12065500Y-8884500D01*
X12015500Y-8834500D02*
X12115500Y-8834500D01*
X12065500Y-9038500D02*
X12065500Y-9138500D01*
X12015500Y-9088500D02*
X12115500Y-9088500D01*
X12065500Y-9292500D02*
X12065500Y-9392500D01*
X12015500Y-9342500D02*
X12115500Y-9342500D01*
X12065500Y-9546500D02*
X12065500Y-9646500D01*
X12015500Y-9596500D02*
X12115500Y-9596500D01*
X12065500Y-9800500D02*
X12065500Y-9900500D01*
X12015500Y-9850500D02*
X12115500Y-9850500D01*
X12065500Y-10054500D02*
X12065500Y-10154500D01*
X12015500Y-10104500D02*
X12115500Y-10104500D01*
X12065500Y-10308500D02*
X12065500Y-10408500D01*
X12015500Y-10358500D02*
X12115500Y-10358500D01*
X12319500Y-8530500D02*
X12319500Y-8630500D01*
X12269500Y-8580500D02*
X12369500Y-8580500D01*
X12319500Y-8784500D02*
X12319500Y-8884500D01*
X12269500Y-8834500D02*
X12369500Y-8834500D01*
X12319500Y-9038500D02*
X12319500Y-9138500D01*
X12269500Y-9088500D02*
X12369500Y-9088500D01*
X12319500Y-9292500D02*
X12319500Y-9392500D01*
X12269500Y-9342500D02*
X12369500Y-9342500D01*
X12319500Y-9546500D02*
X12319500Y-9646500D01*
X12269500Y-9596500D02*
X12369500Y-9596500D01*
X12319500Y-9800500D02*
X12319500Y-9900500D01*
X12269500Y-9850500D02*
X12369500Y-9850500D01*
X12319500Y-10054500D02*
X12319500Y-10154500D01*
X12269500Y-10104500D02*
X12369500Y-10104500D01*
X12319500Y-10308500D02*
X12319500Y-10408500D01*
X12269500Y-10358500D02*
X12369500Y-10358500D01*
X12450000Y-6213000D02*
X12450000Y-6313000D01*
X12400000Y-6263000D02*
X12500000Y-6263000D01*
X12450000Y-12563000D02*
X12450000Y-12663000D01*
X12400000Y-12613000D02*
X12500000Y-12613000D01*
X12700000Y-6213000D02*
X12700000Y-6313000D01*
X12650000Y-6263000D02*
X12750000Y-6263000D01*
X12700000Y-12563000D02*
X12700000Y-12663000D01*
X12650000Y-12613000D02*
X12750000Y-12613000D01*
X12950000Y-6213000D02*
X12950000Y-6313000D01*
X12900000Y-6263000D02*
X13000000Y-6263000D01*
X12950000Y-12563000D02*
X12950000Y-12663000D01*
X12900000Y-12613000D02*
X13000000Y-12613000D01*
X13850670Y-9261000D02*
X13850670Y-9361000D01*
X13800670Y-9311000D02*
X13900670Y-9311000D01*
X14100670Y-9261000D02*
X14100670Y-9361000D01*
X14050670Y-9311000D02*
X14150670Y-9311000D01*
X14350670Y-9261000D02*
X14350670Y-9361000D01*
X14300670Y-9311000D02*
X14400670Y-9311000D01*
X15244000Y-6213000D02*
X15244000Y-6313000D01*
X15194000Y-6263000D02*
X15294000Y-6263000D01*
X15244000Y-12563000D02*
X15244000Y-12663000D01*
X15194000Y-12613000D02*
X15294000Y-12613000D01*
X15494000Y-6213000D02*
X15494000Y-6313000D01*
X15444000Y-6263000D02*
X15544000Y-6263000D01*
X15494000Y-12563000D02*
X15494000Y-12663000D01*
X15444000Y-12613000D02*
X15544000Y-12613000D01*
X15744000Y-6213000D02*
X15744000Y-6313000D01*
X15694000Y-6263000D02*
X15794000Y-6263000D01*
X15744000Y-12563000D02*
X15744000Y-12663000D01*
X15694000Y-12613000D02*
X15794000Y-12613000D01*
D14*
X12235134Y-14591134D02*
X12235134Y-14504866D01*
X12148866Y-14504866D01*
X12148866Y-14591134D01*
X12235134Y-14591134D01*
X13505134Y-14591134D02*
X13505134Y-14504866D01*
X13418866Y-14504866D01*
X13418866Y-14591134D01*
X13505134Y-14591134D01*
X14775134Y-14591134D02*
X14775134Y-14504866D01*
X14688866Y-14504866D01*
X14688866Y-14591134D01*
X14775134Y-14591134D01*
X16045134Y-14591134D02*
X16045134Y-14504866D01*
X15958866Y-14504866D01*
X15958866Y-14591134D01*
X16045134Y-14591134D01*
D15*
X12192000Y-14309000D02*
X12263000Y-14238000D01*
X12192000Y-14167000D01*
X12121000Y-14238000D01*
X12192000Y-14309000D01*
X13462000Y-14309000D02*
X13533000Y-14238000D01*
X13462000Y-14167000D01*
X13391000Y-14238000D01*
X13462000Y-14309000D01*
X14732000Y-14309000D02*
X14803000Y-14238000D01*
X14732000Y-14167000D01*
X14661000Y-14238000D01*
X14732000Y-14309000D01*
X16002000Y-14309000D02*
X16073000Y-14238000D01*
X16002000Y-14167000D01*
X15931000Y-14238000D01*
X16002000Y-14309000D01*
D16*
X12120500Y-13336500D02*
X12263500Y-13479500D01*
X12263500Y-13336500D02*
X12120500Y-13479500D01*
X12263500Y-13408000D02*
G75*
G03*
X12263500Y-13408000I-71500J0D01*
G01*
X13390500Y-13336500D02*
X13533500Y-13479500D01*
X13533500Y-13336500D02*
X13390500Y-13479500D01*
X13533500Y-13408000D02*
G75*
G03*
X13533500Y-13408000I-71500J0D01*
G01*
X14660500Y-13336500D02*
X14803500Y-13479500D01*
X14803500Y-13336500D02*
X14660500Y-13479500D01*
X14803500Y-13408000D02*
G75*
G03*
X14803500Y-13408000I-71500J0D01*
G01*
X15930500Y-13336500D02*
X16073500Y-13479500D01*
X16073500Y-13336500D02*
X15930500Y-13479500D01*
X16073500Y-13408000D02*
G75*
G03*
X16073500Y-13408000I-71500J0D01*
G01*
D11*
X11682619Y-15047476D02*
X11682619Y-14847476D01*
X11730238Y-14847476D01*
X11758809Y-14857000D01*
X11777857Y-14876048D01*
X11787381Y-14895095D01*
X11796905Y-14933190D01*
X11796905Y-14961762D01*
X11787381Y-14999857D01*
X11777857Y-15018905D01*
X11758809Y-15037952D01*
X11730238Y-15047476D01*
X11682619Y-15047476D01*
X11882619Y-15047476D02*
X11882619Y-14914143D01*
X11882619Y-14952238D02*
X11892143Y-14933190D01*
X11901667Y-14923667D01*
X11920714Y-14914143D01*
X11939762Y-14914143D01*
X12006428Y-15047476D02*
X12006428Y-14914143D01*
X12006428Y-14847476D02*
X11996905Y-14857000D01*
X12006428Y-14866524D01*
X12015952Y-14857000D01*
X12006428Y-14847476D01*
X12006428Y-14866524D01*
X12130238Y-15047476D02*
X12111190Y-15037952D01*
X12101667Y-15018905D01*
X12101667Y-14847476D01*
X12235000Y-15047476D02*
X12215952Y-15037952D01*
X12206428Y-15018905D01*
X12206428Y-14847476D01*
X12463571Y-15047476D02*
X12463571Y-14847476D01*
X12530238Y-14990333D01*
X12596905Y-14847476D01*
X12596905Y-15047476D01*
X12777857Y-15047476D02*
X12777857Y-14942714D01*
X12768333Y-14923667D01*
X12749286Y-14914143D01*
X12711190Y-14914143D01*
X12692143Y-14923667D01*
X12777857Y-15037952D02*
X12758809Y-15047476D01*
X12711190Y-15047476D01*
X12692143Y-15037952D01*
X12682619Y-15018905D01*
X12682619Y-14999857D01*
X12692143Y-14980809D01*
X12711190Y-14971286D01*
X12758809Y-14971286D01*
X12777857Y-14961762D01*
X12873095Y-14914143D02*
X12873095Y-15114143D01*
X12873095Y-14923667D02*
X12892143Y-14914143D01*
X12930238Y-14914143D01*
X12949286Y-14923667D01*
X12958809Y-14933190D01*
X12968333Y-14952238D01*
X12968333Y-15009381D01*
X12958809Y-15028428D01*
X12949286Y-15037952D01*
X12930238Y-15047476D01*
X12892143Y-15047476D01*
X12873095Y-15037952D01*
X13054048Y-15028428D02*
X13063571Y-15037952D01*
X13054048Y-15047476D01*
X13044524Y-15037952D01*
X13054048Y-15028428D01*
X13054048Y-15047476D01*
X13054048Y-14923667D02*
X13063571Y-14933190D01*
X13054048Y-14942714D01*
X13044524Y-14933190D01*
X13054048Y-14923667D01*
X13054048Y-14942714D01*
D12*
X11350000Y-15339500D02*
X11425000Y-15414500D01*
X11425000Y-15339500D02*
X11350000Y-15414500D01*
D11*
X11720714Y-15267476D02*
X11739762Y-15267476D01*
X11758809Y-15277000D01*
X11768333Y-15286524D01*
X11777857Y-15305571D01*
X11787381Y-15343667D01*
X11787381Y-15391286D01*
X11777857Y-15429381D01*
X11768333Y-15448428D01*
X11758809Y-15457952D01*
X11739762Y-15467476D01*
X11720714Y-15467476D01*
X11701667Y-15457952D01*
X11692143Y-15448428D01*
X11682619Y-15429381D01*
X11673095Y-15391286D01*
X11673095Y-15343667D01*
X11682619Y-15305571D01*
X11692143Y-15286524D01*
X11701667Y-15277000D01*
X11720714Y-15267476D01*
X11873095Y-15448428D02*
X11882619Y-15457952D01*
X11873095Y-15467476D01*
X11863571Y-15457952D01*
X11873095Y-15448428D01*
X11873095Y-15467476D01*
X11949286Y-15267476D02*
X12082619Y-15267476D01*
X11996905Y-15467476D01*
X12254048Y-15267476D02*
X12158809Y-15267476D01*
X12149286Y-15362714D01*
X12158809Y-15353190D01*
X12177857Y-15343667D01*
X12225476Y-15343667D01*
X12244524Y-15353190D01*
X12254048Y-15362714D01*
X12263571Y-15381762D01*
X12263571Y-15429381D01*
X12254048Y-15448428D01*
X12244524Y-15457952D01*
X12225476Y-15467476D01*
X12177857Y-15467476D01*
X12158809Y-15457952D01*
X12149286Y-15448428D01*
X12387381Y-15267476D02*
X12406428Y-15267476D01*
X12425476Y-15277000D01*
X12435000Y-15286524D01*
X12444524Y-15305571D01*
X12454048Y-15343667D01*
X12454048Y-15391286D01*
X12444524Y-15429381D01*
X12435000Y-15448428D01*
X12425476Y-15457952D01*
X12406428Y-15467476D01*
X12387381Y-15467476D01*
X12368333Y-15457952D01*
X12358809Y-15448428D01*
X12349286Y-15429381D01*
X12339762Y-15391286D01*
X12339762Y-15343667D01*
X12349286Y-15305571D01*
X12358809Y-15286524D01*
X12368333Y-15277000D01*
X12387381Y-15267476D01*
X12539762Y-15467476D02*
X12539762Y-15334143D01*
X12539762Y-15353190D02*
X12549286Y-15343667D01*
X12568333Y-15334143D01*
X12596905Y-15334143D01*
X12615952Y-15343667D01*
X12625476Y-15362714D01*
X12625476Y-15467476D01*
X12625476Y-15362714D02*
X12635000Y-15343667D01*
X12654048Y-15334143D01*
X12682619Y-15334143D01*
X12701667Y-15343667D01*
X12711190Y-15362714D01*
X12711190Y-15467476D01*
X12806428Y-15467476D02*
X12806428Y-15334143D01*
X12806428Y-15353190D02*
X12815952Y-15343667D01*
X12835000Y-15334143D01*
X12863571Y-15334143D01*
X12882619Y-15343667D01*
X12892143Y-15362714D01*
X12892143Y-15467476D01*
X12892143Y-15362714D02*
X12901667Y-15343667D01*
X12920714Y-15334143D01*
X12949286Y-15334143D01*
X12968333Y-15343667D01*
X12977857Y-15362714D01*
X12977857Y-15467476D01*
X13368333Y-15257952D02*
X13196905Y-15515095D01*
X13625476Y-15267476D02*
X13644524Y-15267476D01*
X13663571Y-15277000D01*
X13673095Y-15286524D01*
X13682619Y-15305571D01*
X13692143Y-15343667D01*
X13692143Y-15391286D01*
X13682619Y-15429381D01*
X13673095Y-15448428D01*
X13663571Y-15457952D01*
X13644524Y-15467476D01*
X13625476Y-15467476D01*
X13606428Y-15457952D01*
X13596905Y-15448428D01*
X13587381Y-15429381D01*
X13577857Y-15391286D01*
X13577857Y-15343667D01*
X13587381Y-15305571D01*
X13596905Y-15286524D01*
X13606428Y-15277000D01*
X13625476Y-15267476D01*
X13777857Y-15448428D02*
X13787381Y-15457952D01*
X13777857Y-15467476D01*
X13768333Y-15457952D01*
X13777857Y-15448428D01*
X13777857Y-15467476D01*
X13911190Y-15267476D02*
X13930238Y-15267476D01*
X13949286Y-15277000D01*
X13958809Y-15286524D01*
X13968333Y-15305571D01*
X13977857Y-15343667D01*
X13977857Y-15391286D01*
X13968333Y-15429381D01*
X13958809Y-15448428D01*
X13949286Y-15457952D01*
X13930238Y-15467476D01*
X13911190Y-15467476D01*
X13892143Y-15457952D01*
X13882619Y-15448428D01*
X13873095Y-15429381D01*
X13863571Y-15391286D01*
X13863571Y-15343667D01*
X13873095Y-15305571D01*
X13882619Y-15286524D01*
X13892143Y-15277000D01*
X13911190Y-15267476D01*
X14054048Y-15286524D02*
X14063571Y-15277000D01*
X14082619Y-15267476D01*
X14130238Y-15267476D01*
X14149286Y-15277000D01*
X14158809Y-15286524D01*
X14168333Y-15305571D01*
X14168333Y-15324619D01*
X14158809Y-15353190D01*
X14044524Y-15467476D01*
X14168333Y-15467476D01*
X14263571Y-15467476D02*
X14301667Y-15467476D01*
X14320714Y-15457952D01*
X14330238Y-15448428D01*
X14349286Y-15419857D01*
X14358809Y-15381762D01*
X14358809Y-15305571D01*
X14349286Y-15286524D01*
X14339762Y-15277000D01*
X14320714Y-15267476D01*
X14282619Y-15267476D01*
X14263571Y-15277000D01*
X14254048Y-15286524D01*
X14244524Y-15305571D01*
X14244524Y-15353190D01*
X14254048Y-15372238D01*
X14263571Y-15381762D01*
X14282619Y-15391286D01*
X14320714Y-15391286D01*
X14339762Y-15381762D01*
X14349286Y-15372238D01*
X14358809Y-15353190D01*
X14539762Y-15267476D02*
X14444524Y-15267476D01*
X14435000Y-15362714D01*
X14444524Y-15353190D01*
X14463571Y-15343667D01*
X14511190Y-15343667D01*
X14530238Y-15353190D01*
X14539762Y-15362714D01*
X14549286Y-15381762D01*
X14549286Y-15429381D01*
X14539762Y-15448428D01*
X14530238Y-15457952D01*
X14511190Y-15467476D01*
X14463571Y-15467476D01*
X14444524Y-15457952D01*
X14435000Y-15448428D01*
X14625476Y-15267476D02*
X14625476Y-15305571D01*
X14701667Y-15267476D02*
X14701667Y-15305571D01*
X14996905Y-15543667D02*
X14987381Y-15534143D01*
X14968333Y-15505571D01*
X14958809Y-15486524D01*
X14949286Y-15457952D01*
X14939762Y-15410333D01*
X14939762Y-15372238D01*
X14949286Y-15324619D01*
X14958809Y-15296048D01*
X14968333Y-15277000D01*
X14987381Y-15248428D01*
X14996905Y-15238905D01*
X15158809Y-15267476D02*
X15120714Y-15267476D01*
X15101667Y-15277000D01*
X15092143Y-15286524D01*
X15073095Y-15315095D01*
X15063571Y-15353190D01*
X15063571Y-15429381D01*
X15073095Y-15448428D01*
X15082619Y-15457952D01*
X15101667Y-15467476D01*
X15139762Y-15467476D01*
X15158809Y-15457952D01*
X15168333Y-15448428D01*
X15177857Y-15429381D01*
X15177857Y-15381762D01*
X15168333Y-15362714D01*
X15158809Y-15353190D01*
X15139762Y-15343667D01*
X15101667Y-15343667D01*
X15082619Y-15353190D01*
X15073095Y-15362714D01*
X15063571Y-15381762D01*
X15415952Y-15467476D02*
X15415952Y-15267476D01*
X15501667Y-15467476D02*
X15501667Y-15362714D01*
X15492143Y-15343667D01*
X15473095Y-15334143D01*
X15444524Y-15334143D01*
X15425476Y-15343667D01*
X15415952Y-15353190D01*
X15625476Y-15467476D02*
X15606428Y-15457952D01*
X15596905Y-15448428D01*
X15587381Y-15429381D01*
X15587381Y-15372238D01*
X15596905Y-15353190D01*
X15606428Y-15343667D01*
X15625476Y-15334143D01*
X15654048Y-15334143D01*
X15673095Y-15343667D01*
X15682619Y-15353190D01*
X15692143Y-15372238D01*
X15692143Y-15429381D01*
X15682619Y-15448428D01*
X15673095Y-15457952D01*
X15654048Y-15467476D01*
X15625476Y-15467476D01*
X15806428Y-15467476D02*
X15787381Y-15457952D01*
X15777857Y-15438905D01*
X15777857Y-15267476D01*
X15958809Y-15457952D02*
X15939762Y-15467476D01*
X15901667Y-15467476D01*
X15882619Y-15457952D01*
X15873095Y-15438905D01*
X15873095Y-15362714D01*
X15882619Y-15343667D01*
X15901667Y-15334143D01*
X15939762Y-15334143D01*
X15958809Y-15343667D01*
X15968333Y-15362714D01*
X15968333Y-15381762D01*
X15873095Y-15400809D01*
X16044524Y-15457952D02*
X16063571Y-15467476D01*
X16101667Y-15467476D01*
X16120714Y-15457952D01*
X16130238Y-15438905D01*
X16130238Y-15429381D01*
X16120714Y-15410333D01*
X16101667Y-15400809D01*
X16073095Y-15400809D01*
X16054048Y-15391286D01*
X16044524Y-15372238D01*
X16044524Y-15362714D01*
X16054048Y-15343667D01*
X16073095Y-15334143D01*
X16101667Y-15334143D01*
X16120714Y-15343667D01*
X16196905Y-15543667D02*
X16206428Y-15534143D01*
X16225476Y-15505571D01*
X16235000Y-15486524D01*
X16244524Y-15457952D01*
X16254048Y-15410333D01*
X16254048Y-15372238D01*
X16244524Y-15324619D01*
X16235000Y-15296048D01*
X16225476Y-15277000D01*
X16206428Y-15248428D01*
X16196905Y-15238905D01*
D13*
X11425000Y-15641000D02*
G75*
G03*
X11425000Y-15641000I-40000J0D01*
G01*
D11*
X11720714Y-15531476D02*
X11739762Y-15531476D01*
X11758809Y-15541000D01*
X11768333Y-15550524D01*
X11777857Y-15569571D01*
X11787381Y-15607667D01*
X11787381Y-15655286D01*
X11777857Y-15693381D01*
X11768333Y-15712428D01*
X11758809Y-15721952D01*
X11739762Y-15731476D01*
X11720714Y-15731476D01*
X11701667Y-15721952D01*
X11692143Y-15712428D01*
X11682619Y-15693381D01*
X11673095Y-15655286D01*
X11673095Y-15607667D01*
X11682619Y-15569571D01*
X11692143Y-15550524D01*
X11701667Y-15541000D01*
X11720714Y-15531476D01*
X11873095Y-15712428D02*
X11882619Y-15721952D01*
X11873095Y-15731476D01*
X11863571Y-15721952D01*
X11873095Y-15712428D01*
X11873095Y-15731476D01*
X11996905Y-15617190D02*
X11977857Y-15607667D01*
X11968333Y-15598143D01*
X11958809Y-15579095D01*
X11958809Y-15569571D01*
X11968333Y-15550524D01*
X11977857Y-15541000D01*
X11996905Y-15531476D01*
X12035000Y-15531476D01*
X12054048Y-15541000D01*
X12063571Y-15550524D01*
X12073095Y-15569571D01*
X12073095Y-15579095D01*
X12063571Y-15598143D01*
X12054048Y-15607667D01*
X12035000Y-15617190D01*
X11996905Y-15617190D01*
X11977857Y-15626714D01*
X11968333Y-15636238D01*
X11958809Y-15655286D01*
X11958809Y-15693381D01*
X11968333Y-15712428D01*
X11977857Y-15721952D01*
X11996905Y-15731476D01*
X12035000Y-15731476D01*
X12054048Y-15721952D01*
X12063571Y-15712428D01*
X12073095Y-15693381D01*
X12073095Y-15655286D01*
X12063571Y-15636238D01*
X12054048Y-15626714D01*
X12035000Y-15617190D01*
X12196905Y-15531476D02*
X12215952Y-15531476D01*
X12235000Y-15541000D01*
X12244524Y-15550524D01*
X12254048Y-15569571D01*
X12263571Y-15607667D01*
X12263571Y-15655286D01*
X12254048Y-15693381D01*
X12244524Y-15712428D01*
X12235000Y-15721952D01*
X12215952Y-15731476D01*
X12196905Y-15731476D01*
X12177857Y-15721952D01*
X12168333Y-15712428D01*
X12158809Y-15693381D01*
X12149286Y-15655286D01*
X12149286Y-15607667D01*
X12158809Y-15569571D01*
X12168333Y-15550524D01*
X12177857Y-15541000D01*
X12196905Y-15531476D01*
X12387381Y-15531476D02*
X12406428Y-15531476D01*
X12425476Y-15541000D01*
X12435000Y-15550524D01*
X12444524Y-15569571D01*
X12454048Y-15607667D01*
X12454048Y-15655286D01*
X12444524Y-15693381D01*
X12435000Y-15712428D01*
X12425476Y-15721952D01*
X12406428Y-15731476D01*
X12387381Y-15731476D01*
X12368333Y-15721952D01*
X12358809Y-15712428D01*
X12349286Y-15693381D01*
X12339762Y-15655286D01*
X12339762Y-15607667D01*
X12349286Y-15569571D01*
X12358809Y-15550524D01*
X12368333Y-15541000D01*
X12387381Y-15531476D01*
X12539762Y-15731476D02*
X12539762Y-15598143D01*
X12539762Y-15617190D02*
X12549286Y-15607667D01*
X12568333Y-15598143D01*
X12596905Y-15598143D01*
X12615952Y-15607667D01*
X12625476Y-15626714D01*
X12625476Y-15731476D01*
X12625476Y-15626714D02*
X12635000Y-15607667D01*
X12654048Y-15598143D01*
X12682619Y-15598143D01*
X12701667Y-15607667D01*
X12711190Y-15626714D01*
X12711190Y-15731476D01*
X12806428Y-15731476D02*
X12806428Y-15598143D01*
X12806428Y-15617190D02*
X12815952Y-15607667D01*
X12835000Y-15598143D01*
X12863571Y-15598143D01*
X12882619Y-15607667D01*
X12892143Y-15626714D01*
X12892143Y-15731476D01*
X12892143Y-15626714D02*
X12901667Y-15607667D01*
X12920714Y-15598143D01*
X12949286Y-15598143D01*
X12968333Y-15607667D01*
X12977857Y-15626714D01*
X12977857Y-15731476D01*
X13368333Y-15521952D02*
X13196905Y-15779095D01*
X13625476Y-15531476D02*
X13644524Y-15531476D01*
X13663571Y-15541000D01*
X13673095Y-15550524D01*
X13682619Y-15569571D01*
X13692143Y-15607667D01*
X13692143Y-15655286D01*
X13682619Y-15693381D01*
X13673095Y-15712428D01*
X13663571Y-15721952D01*
X13644524Y-15731476D01*
X13625476Y-15731476D01*
X13606428Y-15721952D01*
X13596905Y-15712428D01*
X13587381Y-15693381D01*
X13577857Y-15655286D01*
X13577857Y-15607667D01*
X13587381Y-15569571D01*
X13596905Y-15550524D01*
X13606428Y-15541000D01*
X13625476Y-15531476D01*
X13777857Y-15712428D02*
X13787381Y-15721952D01*
X13777857Y-15731476D01*
X13768333Y-15721952D01*
X13777857Y-15712428D01*
X13777857Y-15731476D01*
X13911190Y-15531476D02*
X13930238Y-15531476D01*
X13949286Y-15541000D01*
X13958809Y-15550524D01*
X13968333Y-15569571D01*
X13977857Y-15607667D01*
X13977857Y-15655286D01*
X13968333Y-15693381D01*
X13958809Y-15712428D01*
X13949286Y-15721952D01*
X13930238Y-15731476D01*
X13911190Y-15731476D01*
X13892143Y-15721952D01*
X13882619Y-15712428D01*
X13873095Y-15693381D01*
X13863571Y-15655286D01*
X13863571Y-15607667D01*
X13873095Y-15569571D01*
X13882619Y-15550524D01*
X13892143Y-15541000D01*
X13911190Y-15531476D01*
X14044524Y-15531476D02*
X14168333Y-15531476D01*
X14101667Y-15607667D01*
X14130238Y-15607667D01*
X14149286Y-15617190D01*
X14158809Y-15626714D01*
X14168333Y-15645762D01*
X14168333Y-15693381D01*
X14158809Y-15712428D01*
X14149286Y-15721952D01*
X14130238Y-15731476D01*
X14073095Y-15731476D01*
X14054048Y-15721952D01*
X14044524Y-15712428D01*
X14358809Y-15731476D02*
X14244524Y-15731476D01*
X14301667Y-15731476D02*
X14301667Y-15531476D01*
X14282619Y-15560048D01*
X14263571Y-15579095D01*
X14244524Y-15588619D01*
X14539762Y-15531476D02*
X14444524Y-15531476D01*
X14435000Y-15626714D01*
X14444524Y-15617190D01*
X14463571Y-15607667D01*
X14511190Y-15607667D01*
X14530238Y-15617190D01*
X14539762Y-15626714D01*
X14549286Y-15645762D01*
X14549286Y-15693381D01*
X14539762Y-15712428D01*
X14530238Y-15721952D01*
X14511190Y-15731476D01*
X14463571Y-15731476D01*
X14444524Y-15721952D01*
X14435000Y-15712428D01*
X14625476Y-15531476D02*
X14625476Y-15569571D01*
X14701667Y-15531476D02*
X14701667Y-15569571D01*
X14996905Y-15807667D02*
X14987381Y-15798143D01*
X14968333Y-15769571D01*
X14958809Y-15750524D01*
X14949286Y-15721952D01*
X14939762Y-15674333D01*
X14939762Y-15636238D01*
X14949286Y-15588619D01*
X14958809Y-15560048D01*
X14968333Y-15541000D01*
X14987381Y-15512428D01*
X14996905Y-15502905D01*
X15082619Y-15731476D02*
X15120714Y-15731476D01*
X15139762Y-15721952D01*
X15149286Y-15712428D01*
X15168333Y-15683857D01*
X15177857Y-15645762D01*
X15177857Y-15569571D01*
X15168333Y-15550524D01*
X15158809Y-15541000D01*
X15139762Y-15531476D01*
X15101667Y-15531476D01*
X15082619Y-15541000D01*
X15073095Y-15550524D01*
X15063571Y-15569571D01*
X15063571Y-15617190D01*
X15073095Y-15636238D01*
X15082619Y-15645762D01*
X15101667Y-15655286D01*
X15139762Y-15655286D01*
X15158809Y-15645762D01*
X15168333Y-15636238D01*
X15177857Y-15617190D01*
X15368333Y-15731476D02*
X15254048Y-15731476D01*
X15311190Y-15731476D02*
X15311190Y-15531476D01*
X15292143Y-15560048D01*
X15273095Y-15579095D01*
X15254048Y-15588619D01*
X15606428Y-15731476D02*
X15606428Y-15531476D01*
X15692143Y-15731476D02*
X15692143Y-15626714D01*
X15682619Y-15607667D01*
X15663571Y-15598143D01*
X15635000Y-15598143D01*
X15615952Y-15607667D01*
X15606428Y-15617190D01*
X15815952Y-15731476D02*
X15796905Y-15721952D01*
X15787381Y-15712428D01*
X15777857Y-15693381D01*
X15777857Y-15636238D01*
X15787381Y-15617190D01*
X15796905Y-15607667D01*
X15815952Y-15598143D01*
X15844524Y-15598143D01*
X15863571Y-15607667D01*
X15873095Y-15617190D01*
X15882619Y-15636238D01*
X15882619Y-15693381D01*
X15873095Y-15712428D01*
X15863571Y-15721952D01*
X15844524Y-15731476D01*
X15815952Y-15731476D01*
X15996905Y-15731476D02*
X15977857Y-15721952D01*
X15968333Y-15702905D01*
X15968333Y-15531476D01*
X16149286Y-15721952D02*
X16130238Y-15731476D01*
X16092143Y-15731476D01*
X16073095Y-15721952D01*
X16063571Y-15702905D01*
X16063571Y-15626714D01*
X16073095Y-15607667D01*
X16092143Y-15598143D01*
X16130238Y-15598143D01*
X16149286Y-15607667D01*
X16158809Y-15626714D01*
X16158809Y-15645762D01*
X16063571Y-15664809D01*
X16235000Y-15721952D02*
X16254048Y-15731476D01*
X16292143Y-15731476D01*
X16311190Y-15721952D01*
X16320714Y-15702905D01*
X16320714Y-15693381D01*
X16311190Y-15674333D01*
X16292143Y-15664809D01*
X16263571Y-15664809D01*
X16244524Y-15655286D01*
X16235000Y-15636238D01*
X16235000Y-15626714D01*
X16244524Y-15607667D01*
X16263571Y-15598143D01*
X16292143Y-15598143D01*
X16311190Y-15607667D01*
X16387381Y-15807667D02*
X16396905Y-15798143D01*
X16415952Y-15769571D01*
X16425476Y-15750524D01*
X16435000Y-15721952D01*
X16444524Y-15674333D01*
X16444524Y-15636238D01*
X16435000Y-15588619D01*
X16425476Y-15560048D01*
X16415952Y-15541000D01*
X16396905Y-15512428D01*
X16387381Y-15502905D01*
D10*
X11375000Y-15855000D02*
X11375000Y-15955000D01*
X11325000Y-15905000D02*
X11425000Y-15905000D01*
D11*
X11787381Y-15995476D02*
X11673095Y-15995476D01*
X11730238Y-15995476D02*
X11730238Y-15795476D01*
X11711190Y-15824048D01*
X11692143Y-15843095D01*
X11673095Y-15852619D01*
X11873095Y-15976428D02*
X11882619Y-15985952D01*
X11873095Y-15995476D01*
X11863571Y-15985952D01*
X11873095Y-15976428D01*
X11873095Y-15995476D01*
X12006428Y-15795476D02*
X12025476Y-15795476D01*
X12044524Y-15805000D01*
X12054048Y-15814524D01*
X12063571Y-15833571D01*
X12073095Y-15871667D01*
X12073095Y-15919286D01*
X12063571Y-15957381D01*
X12054048Y-15976428D01*
X12044524Y-15985952D01*
X12025476Y-15995476D01*
X12006428Y-15995476D01*
X11987381Y-15985952D01*
X11977857Y-15976428D01*
X11968333Y-15957381D01*
X11958809Y-15919286D01*
X11958809Y-15871667D01*
X11968333Y-15833571D01*
X11977857Y-15814524D01*
X11987381Y-15805000D01*
X12006428Y-15795476D01*
X12196905Y-15795476D02*
X12215952Y-15795476D01*
X12235000Y-15805000D01*
X12244524Y-15814524D01*
X12254048Y-15833571D01*
X12263571Y-15871667D01*
X12263571Y-15919286D01*
X12254048Y-15957381D01*
X12244524Y-15976428D01*
X12235000Y-15985952D01*
X12215952Y-15995476D01*
X12196905Y-15995476D01*
X12177857Y-15985952D01*
X12168333Y-15976428D01*
X12158809Y-15957381D01*
X12149286Y-15919286D01*
X12149286Y-15871667D01*
X12158809Y-15833571D01*
X12168333Y-15814524D01*
X12177857Y-15805000D01*
X12196905Y-15795476D01*
X12387381Y-15795476D02*
X12406428Y-15795476D01*
X12425476Y-15805000D01*
X12435000Y-15814524D01*
X12444524Y-15833571D01*
X12454048Y-15871667D01*
X12454048Y-15919286D01*
X12444524Y-15957381D01*
X12435000Y-15976428D01*
X12425476Y-15985952D01*
X12406428Y-15995476D01*
X12387381Y-15995476D01*
X12368333Y-15985952D01*
X12358809Y-15976428D01*
X12349286Y-15957381D01*
X12339762Y-15919286D01*
X12339762Y-15871667D01*
X12349286Y-15833571D01*
X12358809Y-15814524D01*
X12368333Y-15805000D01*
X12387381Y-15795476D01*
X12539762Y-15995476D02*
X12539762Y-15862143D01*
X12539762Y-15881190D02*
X12549286Y-15871667D01*
X12568333Y-15862143D01*
X12596905Y-15862143D01*
X12615952Y-15871667D01*
X12625476Y-15890714D01*
X12625476Y-15995476D01*
X12625476Y-15890714D02*
X12635000Y-15871667D01*
X12654048Y-15862143D01*
X12682619Y-15862143D01*
X12701667Y-15871667D01*
X12711190Y-15890714D01*
X12711190Y-15995476D01*
X12806428Y-15995476D02*
X12806428Y-15862143D01*
X12806428Y-15881190D02*
X12815952Y-15871667D01*
X12835000Y-15862143D01*
X12863571Y-15862143D01*
X12882619Y-15871667D01*
X12892143Y-15890714D01*
X12892143Y-15995476D01*
X12892143Y-15890714D02*
X12901667Y-15871667D01*
X12920714Y-15862143D01*
X12949286Y-15862143D01*
X12968333Y-15871667D01*
X12977857Y-15890714D01*
X12977857Y-15995476D01*
X13368333Y-15785952D02*
X13196905Y-16043095D01*
X13625476Y-15795476D02*
X13644524Y-15795476D01*
X13663571Y-15805000D01*
X13673095Y-15814524D01*
X13682619Y-15833571D01*
X13692143Y-15871667D01*
X13692143Y-15919286D01*
X13682619Y-15957381D01*
X13673095Y-15976428D01*
X13663571Y-15985952D01*
X13644524Y-15995476D01*
X13625476Y-15995476D01*
X13606428Y-15985952D01*
X13596905Y-15976428D01*
X13587381Y-15957381D01*
X13577857Y-15919286D01*
X13577857Y-15871667D01*
X13587381Y-15833571D01*
X13596905Y-15814524D01*
X13606428Y-15805000D01*
X13625476Y-15795476D01*
X13777857Y-15976428D02*
X13787381Y-15985952D01*
X13777857Y-15995476D01*
X13768333Y-15985952D01*
X13777857Y-15976428D01*
X13777857Y-15995476D01*
X13911190Y-15795476D02*
X13930238Y-15795476D01*
X13949286Y-15805000D01*
X13958809Y-15814524D01*
X13968333Y-15833571D01*
X13977857Y-15871667D01*
X13977857Y-15919286D01*
X13968333Y-15957381D01*
X13958809Y-15976428D01*
X13949286Y-15985952D01*
X13930238Y-15995476D01*
X13911190Y-15995476D01*
X13892143Y-15985952D01*
X13882619Y-15976428D01*
X13873095Y-15957381D01*
X13863571Y-15919286D01*
X13863571Y-15871667D01*
X13873095Y-15833571D01*
X13882619Y-15814524D01*
X13892143Y-15805000D01*
X13911190Y-15795476D01*
X14044524Y-15795476D02*
X14168333Y-15795476D01*
X14101667Y-15871667D01*
X14130238Y-15871667D01*
X14149286Y-15881190D01*
X14158809Y-15890714D01*
X14168333Y-15909762D01*
X14168333Y-15957381D01*
X14158809Y-15976428D01*
X14149286Y-15985952D01*
X14130238Y-15995476D01*
X14073095Y-15995476D01*
X14054048Y-15985952D01*
X14044524Y-15976428D01*
X14263571Y-15995476D02*
X14301667Y-15995476D01*
X14320714Y-15985952D01*
X14330238Y-15976428D01*
X14349286Y-15947857D01*
X14358809Y-15909762D01*
X14358809Y-15833571D01*
X14349286Y-15814524D01*
X14339762Y-15805000D01*
X14320714Y-15795476D01*
X14282619Y-15795476D01*
X14263571Y-15805000D01*
X14254048Y-15814524D01*
X14244524Y-15833571D01*
X14244524Y-15881190D01*
X14254048Y-15900238D01*
X14263571Y-15909762D01*
X14282619Y-15919286D01*
X14320714Y-15919286D01*
X14339762Y-15909762D01*
X14349286Y-15900238D01*
X14358809Y-15881190D01*
X14530238Y-15862143D02*
X14530238Y-15995476D01*
X14482619Y-15785952D02*
X14435000Y-15928809D01*
X14558809Y-15928809D01*
X14625476Y-15795476D02*
X14625476Y-15833571D01*
X14701667Y-15795476D02*
X14701667Y-15833571D01*
X14996905Y-16071667D02*
X14987381Y-16062143D01*
X14968333Y-16033571D01*
X14958809Y-16014524D01*
X14949286Y-15985952D01*
X14939762Y-15938333D01*
X14939762Y-15900238D01*
X14949286Y-15852619D01*
X14958809Y-15824048D01*
X14968333Y-15805000D01*
X14987381Y-15776428D01*
X14996905Y-15766905D01*
X15054048Y-15795476D02*
X15177857Y-15795476D01*
X15111190Y-15871667D01*
X15139762Y-15871667D01*
X15158809Y-15881190D01*
X15168333Y-15890714D01*
X15177857Y-15909762D01*
X15177857Y-15957381D01*
X15168333Y-15976428D01*
X15158809Y-15985952D01*
X15139762Y-15995476D01*
X15082619Y-15995476D01*
X15063571Y-15985952D01*
X15054048Y-15976428D01*
X15368333Y-15995476D02*
X15254048Y-15995476D01*
X15311190Y-15995476D02*
X15311190Y-15795476D01*
X15292143Y-15824048D01*
X15273095Y-15843095D01*
X15254048Y-15852619D01*
X15606428Y-15995476D02*
X15606428Y-15795476D01*
X15692143Y-15995476D02*
X15692143Y-15890714D01*
X15682619Y-15871667D01*
X15663571Y-15862143D01*
X15635000Y-15862143D01*
X15615952Y-15871667D01*
X15606428Y-15881190D01*
X15815952Y-15995476D02*
X15796905Y-15985952D01*
X15787381Y-15976428D01*
X15777857Y-15957381D01*
X15777857Y-15900238D01*
X15787381Y-15881190D01*
X15796905Y-15871667D01*
X15815952Y-15862143D01*
X15844524Y-15862143D01*
X15863571Y-15871667D01*
X15873095Y-15881190D01*
X15882619Y-15900238D01*
X15882619Y-15957381D01*
X15873095Y-15976428D01*
X15863571Y-15985952D01*
X15844524Y-15995476D01*
X15815952Y-15995476D01*
X15996905Y-15995476D02*
X15977857Y-15985952D01*
X15968333Y-15966905D01*
X15968333Y-15795476D01*
X16149286Y-15985952D02*
X16130238Y-15995476D01*
X16092143Y-15995476D01*
X16073095Y-15985952D01*
X16063571Y-15966905D01*
X16063571Y-15890714D01*
X16073095Y-15871667D01*
X16092143Y-15862143D01*
X16130238Y-15862143D01*
X16149286Y-15871667D01*
X16158809Y-15890714D01*
X16158809Y-15909762D01*
X16063571Y-15928809D01*
X16235000Y-15985952D02*
X16254048Y-15995476D01*
X16292143Y-15995476D01*
X16311190Y-15985952D01*
X16320714Y-15966905D01*
X16320714Y-15957381D01*
X16311190Y-15938333D01*
X16292143Y-15928809D01*
X16263571Y-15928809D01*
X16244524Y-15919286D01*
X16235000Y-15900238D01*
X16235000Y-15890714D01*
X16244524Y-15871667D01*
X16263571Y-15862143D01*
X16292143Y-15862143D01*
X16311190Y-15871667D01*
X16387381Y-16071667D02*
X16396905Y-16062143D01*
X16415952Y-16033571D01*
X16425476Y-16014524D01*
X16435000Y-15985952D01*
X16444524Y-15938333D01*
X16444524Y-15900238D01*
X16435000Y-15852619D01*
X16425476Y-15824048D01*
X16415952Y-15805000D01*
X16396905Y-15776428D01*
X16387381Y-15766905D01*
D14*
X11407134Y-16212134D02*
X11407134Y-16125866D01*
X11320866Y-16125866D01*
X11320866Y-16212134D01*
X11407134Y-16212134D01*
D11*
X11787381Y-16259476D02*
X11673095Y-16259476D01*
X11730238Y-16259476D02*
X11730238Y-16059476D01*
X11711190Y-16088048D01*
X11692143Y-16107095D01*
X11673095Y-16116619D01*
X11873095Y-16240428D02*
X11882619Y-16249952D01*
X11873095Y-16259476D01*
X11863571Y-16249952D01*
X11873095Y-16240428D01*
X11873095Y-16259476D01*
X11958809Y-16078524D02*
X11968333Y-16069000D01*
X11987381Y-16059476D01*
X12035000Y-16059476D01*
X12054048Y-16069000D01*
X12063571Y-16078524D01*
X12073095Y-16097571D01*
X12073095Y-16116619D01*
X12063571Y-16145190D01*
X11949286Y-16259476D01*
X12073095Y-16259476D01*
X12149286Y-16078524D02*
X12158809Y-16069000D01*
X12177857Y-16059476D01*
X12225476Y-16059476D01*
X12244524Y-16069000D01*
X12254048Y-16078524D01*
X12263571Y-16097571D01*
X12263571Y-16116619D01*
X12254048Y-16145190D01*
X12139762Y-16259476D01*
X12263571Y-16259476D01*
X12387381Y-16059476D02*
X12406428Y-16059476D01*
X12425476Y-16069000D01*
X12435000Y-16078524D01*
X12444524Y-16097571D01*
X12454048Y-16135667D01*
X12454048Y-16183286D01*
X12444524Y-16221381D01*
X12435000Y-16240428D01*
X12425476Y-16249952D01*
X12406428Y-16259476D01*
X12387381Y-16259476D01*
X12368333Y-16249952D01*
X12358809Y-16240428D01*
X12349286Y-16221381D01*
X12339762Y-16183286D01*
X12339762Y-16135667D01*
X12349286Y-16097571D01*
X12358809Y-16078524D01*
X12368333Y-16069000D01*
X12387381Y-16059476D01*
X12539762Y-16259476D02*
X12539762Y-16126143D01*
X12539762Y-16145190D02*
X12549286Y-16135667D01*
X12568333Y-16126143D01*
X12596905Y-16126143D01*
X12615952Y-16135667D01*
X12625476Y-16154714D01*
X12625476Y-16259476D01*
X12625476Y-16154714D02*
X12635000Y-16135667D01*
X12654048Y-16126143D01*
X12682619Y-16126143D01*
X12701667Y-16135667D01*
X12711190Y-16154714D01*
X12711190Y-16259476D01*
X12806428Y-16259476D02*
X12806428Y-16126143D01*
X12806428Y-16145190D02*
X12815952Y-16135667D01*
X12835000Y-16126143D01*
X12863571Y-16126143D01*
X12882619Y-16135667D01*
X12892143Y-16154714D01*
X12892143Y-16259476D01*
X12892143Y-16154714D02*
X12901667Y-16135667D01*
X12920714Y-16126143D01*
X12949286Y-16126143D01*
X12968333Y-16135667D01*
X12977857Y-16154714D01*
X12977857Y-16259476D01*
X13368333Y-16049952D02*
X13196905Y-16307095D01*
X13625476Y-16059476D02*
X13644524Y-16059476D01*
X13663571Y-16069000D01*
X13673095Y-16078524D01*
X13682619Y-16097571D01*
X13692143Y-16135667D01*
X13692143Y-16183286D01*
X13682619Y-16221381D01*
X13673095Y-16240428D01*
X13663571Y-16249952D01*
X13644524Y-16259476D01*
X13625476Y-16259476D01*
X13606428Y-16249952D01*
X13596905Y-16240428D01*
X13587381Y-16221381D01*
X13577857Y-16183286D01*
X13577857Y-16135667D01*
X13587381Y-16097571D01*
X13596905Y-16078524D01*
X13606428Y-16069000D01*
X13625476Y-16059476D01*
X13777857Y-16240428D02*
X13787381Y-16249952D01*
X13777857Y-16259476D01*
X13768333Y-16249952D01*
X13777857Y-16240428D01*
X13777857Y-16259476D01*
X13911190Y-16059476D02*
X13930238Y-16059476D01*
X13949286Y-16069000D01*
X13958809Y-16078524D01*
X13968333Y-16097571D01*
X13977857Y-16135667D01*
X13977857Y-16183286D01*
X13968333Y-16221381D01*
X13958809Y-16240428D01*
X13949286Y-16249952D01*
X13930238Y-16259476D01*
X13911190Y-16259476D01*
X13892143Y-16249952D01*
X13882619Y-16240428D01*
X13873095Y-16221381D01*
X13863571Y-16183286D01*
X13863571Y-16135667D01*
X13873095Y-16097571D01*
X13882619Y-16078524D01*
X13892143Y-16069000D01*
X13911190Y-16059476D01*
X14149286Y-16126143D02*
X14149286Y-16259476D01*
X14101667Y-16049952D02*
X14054048Y-16192809D01*
X14177857Y-16192809D01*
X14282619Y-16145190D02*
X14263571Y-16135667D01*
X14254048Y-16126143D01*
X14244524Y-16107095D01*
X14244524Y-16097571D01*
X14254048Y-16078524D01*
X14263571Y-16069000D01*
X14282619Y-16059476D01*
X14320714Y-16059476D01*
X14339762Y-16069000D01*
X14349286Y-16078524D01*
X14358809Y-16097571D01*
X14358809Y-16107095D01*
X14349286Y-16126143D01*
X14339762Y-16135667D01*
X14320714Y-16145190D01*
X14282619Y-16145190D01*
X14263571Y-16154714D01*
X14254048Y-16164238D01*
X14244524Y-16183286D01*
X14244524Y-16221381D01*
X14254048Y-16240428D01*
X14263571Y-16249952D01*
X14282619Y-16259476D01*
X14320714Y-16259476D01*
X14339762Y-16249952D01*
X14349286Y-16240428D01*
X14358809Y-16221381D01*
X14358809Y-16183286D01*
X14349286Y-16164238D01*
X14339762Y-16154714D01*
X14320714Y-16145190D01*
X14482619Y-16059476D02*
X14501667Y-16059476D01*
X14520714Y-16069000D01*
X14530238Y-16078524D01*
X14539762Y-16097571D01*
X14549286Y-16135667D01*
X14549286Y-16183286D01*
X14539762Y-16221381D01*
X14530238Y-16240428D01*
X14520714Y-16249952D01*
X14501667Y-16259476D01*
X14482619Y-16259476D01*
X14463571Y-16249952D01*
X14454048Y-16240428D01*
X14444524Y-16221381D01*
X14435000Y-16183286D01*
X14435000Y-16135667D01*
X14444524Y-16097571D01*
X14454048Y-16078524D01*
X14463571Y-16069000D01*
X14482619Y-16059476D01*
X14625476Y-16059476D02*
X14625476Y-16097571D01*
X14701667Y-16059476D02*
X14701667Y-16097571D01*
X14996905Y-16335667D02*
X14987381Y-16326143D01*
X14968333Y-16297571D01*
X14958809Y-16278524D01*
X14949286Y-16249952D01*
X14939762Y-16202333D01*
X14939762Y-16164238D01*
X14949286Y-16116619D01*
X14958809Y-16088048D01*
X14968333Y-16069000D01*
X14987381Y-16040428D01*
X14996905Y-16030905D01*
X15158809Y-16126143D02*
X15158809Y-16259476D01*
X15111190Y-16049952D02*
X15063571Y-16192809D01*
X15187381Y-16192809D01*
X15415952Y-16259476D02*
X15415952Y-16059476D01*
X15501667Y-16259476D02*
X15501667Y-16154714D01*
X15492143Y-16135667D01*
X15473095Y-16126143D01*
X15444524Y-16126143D01*
X15425476Y-16135667D01*
X15415952Y-16145190D01*
X15625476Y-16259476D02*
X15606428Y-16249952D01*
X15596905Y-16240428D01*
X15587381Y-16221381D01*
X15587381Y-16164238D01*
X15596905Y-16145190D01*
X15606428Y-16135667D01*
X15625476Y-16126143D01*
X15654048Y-16126143D01*
X15673095Y-16135667D01*
X15682619Y-16145190D01*
X15692143Y-16164238D01*
X15692143Y-16221381D01*
X15682619Y-16240428D01*
X15673095Y-16249952D01*
X15654048Y-16259476D01*
X15625476Y-16259476D01*
X15806428Y-16259476D02*
X15787381Y-16249952D01*
X15777857Y-16230905D01*
X15777857Y-16059476D01*
X15958809Y-16249952D02*
X15939762Y-16259476D01*
X15901667Y-16259476D01*
X15882619Y-16249952D01*
X15873095Y-16230905D01*
X15873095Y-16154714D01*
X15882619Y-16135667D01*
X15901667Y-16126143D01*
X15939762Y-16126143D01*
X15958809Y-16135667D01*
X15968333Y-16154714D01*
X15968333Y-16173762D01*
X15873095Y-16192809D01*
X16044524Y-16249952D02*
X16063571Y-16259476D01*
X16101667Y-16259476D01*
X16120714Y-16249952D01*
X16130238Y-16230905D01*
X16130238Y-16221381D01*
X16120714Y-16202333D01*
X16101667Y-16192809D01*
X16073095Y-16192809D01*
X16054048Y-16183286D01*
X16044524Y-16164238D01*
X16044524Y-16154714D01*
X16054048Y-16135667D01*
X16073095Y-16126143D01*
X16101667Y-16126143D01*
X16120714Y-16135667D01*
X16196905Y-16335667D02*
X16206428Y-16326143D01*
X16225476Y-16297571D01*
X16235000Y-16278524D01*
X16244524Y-16249952D01*
X16254048Y-16202333D01*
X16254048Y-16164238D01*
X16244524Y-16116619D01*
X16235000Y-16088048D01*
X16225476Y-16069000D01*
X16206428Y-16040428D01*
X16196905Y-16030905D01*
D15*
X11354000Y-16504000D02*
X11425000Y-16433000D01*
X11354000Y-16362000D01*
X11283000Y-16433000D01*
X11354000Y-16504000D01*
D11*
X11787381Y-16523476D02*
X11673095Y-16523476D01*
X11730238Y-16523476D02*
X11730238Y-16323476D01*
X11711190Y-16352048D01*
X11692143Y-16371095D01*
X11673095Y-16380619D01*
X11873095Y-16504428D02*
X11882619Y-16513952D01*
X11873095Y-16523476D01*
X11863571Y-16513952D01*
X11873095Y-16504428D01*
X11873095Y-16523476D01*
X12054048Y-16390143D02*
X12054048Y-16523476D01*
X12006428Y-16313952D02*
X11958809Y-16456809D01*
X12082619Y-16456809D01*
X12149286Y-16342524D02*
X12158809Y-16333000D01*
X12177857Y-16323476D01*
X12225476Y-16323476D01*
X12244524Y-16333000D01*
X12254048Y-16342524D01*
X12263571Y-16361571D01*
X12263571Y-16380619D01*
X12254048Y-16409190D01*
X12139762Y-16523476D01*
X12263571Y-16523476D01*
X12387381Y-16323476D02*
X12406428Y-16323476D01*
X12425476Y-16333000D01*
X12435000Y-16342524D01*
X12444524Y-16361571D01*
X12454048Y-16399667D01*
X12454048Y-16447286D01*
X12444524Y-16485381D01*
X12435000Y-16504428D01*
X12425476Y-16513952D01*
X12406428Y-16523476D01*
X12387381Y-16523476D01*
X12368333Y-16513952D01*
X12358809Y-16504428D01*
X12349286Y-16485381D01*
X12339762Y-16447286D01*
X12339762Y-16399667D01*
X12349286Y-16361571D01*
X12358809Y-16342524D01*
X12368333Y-16333000D01*
X12387381Y-16323476D01*
X12539762Y-16523476D02*
X12539762Y-16390143D01*
X12539762Y-16409190D02*
X12549286Y-16399667D01*
X12568333Y-16390143D01*
X12596905Y-16390143D01*
X12615952Y-16399667D01*
X12625476Y-16418714D01*
X12625476Y-16523476D01*
X12625476Y-16418714D02*
X12635000Y-16399667D01*
X12654048Y-16390143D01*
X12682619Y-16390143D01*
X12701667Y-16399667D01*
X12711190Y-16418714D01*
X12711190Y-16523476D01*
X12806428Y-16523476D02*
X12806428Y-16390143D01*
X12806428Y-16409190D02*
X12815952Y-16399667D01*
X12835000Y-16390143D01*
X12863571Y-16390143D01*
X12882619Y-16399667D01*
X12892143Y-16418714D01*
X12892143Y-16523476D01*
X12892143Y-16418714D02*
X12901667Y-16399667D01*
X12920714Y-16390143D01*
X12949286Y-16390143D01*
X12968333Y-16399667D01*
X12977857Y-16418714D01*
X12977857Y-16523476D01*
X13368333Y-16313952D02*
X13196905Y-16571095D01*
X13625476Y-16323476D02*
X13644524Y-16323476D01*
X13663571Y-16333000D01*
X13673095Y-16342524D01*
X13682619Y-16361571D01*
X13692143Y-16399667D01*
X13692143Y-16447286D01*
X13682619Y-16485381D01*
X13673095Y-16504428D01*
X13663571Y-16513952D01*
X13644524Y-16523476D01*
X13625476Y-16523476D01*
X13606428Y-16513952D01*
X13596905Y-16504428D01*
X13587381Y-16485381D01*
X13577857Y-16447286D01*
X13577857Y-16399667D01*
X13587381Y-16361571D01*
X13596905Y-16342524D01*
X13606428Y-16333000D01*
X13625476Y-16323476D01*
X13777857Y-16504428D02*
X13787381Y-16513952D01*
X13777857Y-16523476D01*
X13768333Y-16513952D01*
X13777857Y-16504428D01*
X13777857Y-16523476D01*
X13911190Y-16323476D02*
X13930238Y-16323476D01*
X13949286Y-16333000D01*
X13958809Y-16342524D01*
X13968333Y-16361571D01*
X13977857Y-16399667D01*
X13977857Y-16447286D01*
X13968333Y-16485381D01*
X13958809Y-16504428D01*
X13949286Y-16513952D01*
X13930238Y-16523476D01*
X13911190Y-16523476D01*
X13892143Y-16513952D01*
X13882619Y-16504428D01*
X13873095Y-16485381D01*
X13863571Y-16447286D01*
X13863571Y-16399667D01*
X13873095Y-16361571D01*
X13882619Y-16342524D01*
X13892143Y-16333000D01*
X13911190Y-16323476D01*
X14158809Y-16323476D02*
X14063571Y-16323476D01*
X14054048Y-16418714D01*
X14063571Y-16409190D01*
X14082619Y-16399667D01*
X14130238Y-16399667D01*
X14149286Y-16409190D01*
X14158809Y-16418714D01*
X14168333Y-16437762D01*
X14168333Y-16485381D01*
X14158809Y-16504428D01*
X14149286Y-16513952D01*
X14130238Y-16523476D01*
X14082619Y-16523476D01*
X14063571Y-16513952D01*
X14054048Y-16504428D01*
X14349286Y-16323476D02*
X14254048Y-16323476D01*
X14244524Y-16418714D01*
X14254048Y-16409190D01*
X14273095Y-16399667D01*
X14320714Y-16399667D01*
X14339762Y-16409190D01*
X14349286Y-16418714D01*
X14358809Y-16437762D01*
X14358809Y-16485381D01*
X14349286Y-16504428D01*
X14339762Y-16513952D01*
X14320714Y-16523476D01*
X14273095Y-16523476D01*
X14254048Y-16513952D01*
X14244524Y-16504428D01*
X14454048Y-16523476D02*
X14492143Y-16523476D01*
X14511190Y-16513952D01*
X14520714Y-16504428D01*
X14539762Y-16475857D01*
X14549286Y-16437762D01*
X14549286Y-16361571D01*
X14539762Y-16342524D01*
X14530238Y-16333000D01*
X14511190Y-16323476D01*
X14473095Y-16323476D01*
X14454048Y-16333000D01*
X14444524Y-16342524D01*
X14435000Y-16361571D01*
X14435000Y-16409190D01*
X14444524Y-16428238D01*
X14454048Y-16437762D01*
X14473095Y-16447286D01*
X14511190Y-16447286D01*
X14530238Y-16437762D01*
X14539762Y-16428238D01*
X14549286Y-16409190D01*
X14625476Y-16323476D02*
X14625476Y-16361571D01*
X14701667Y-16323476D02*
X14701667Y-16361571D01*
X14996905Y-16599667D02*
X14987381Y-16590143D01*
X14968333Y-16561571D01*
X14958809Y-16542524D01*
X14949286Y-16513952D01*
X14939762Y-16466333D01*
X14939762Y-16428238D01*
X14949286Y-16380619D01*
X14958809Y-16352048D01*
X14968333Y-16333000D01*
X14987381Y-16304428D01*
X14996905Y-16294905D01*
X15158809Y-16390143D02*
X15158809Y-16523476D01*
X15111190Y-16313952D02*
X15063571Y-16456809D01*
X15187381Y-16456809D01*
X15415952Y-16523476D02*
X15415952Y-16323476D01*
X15501667Y-16523476D02*
X15501667Y-16418714D01*
X15492143Y-16399667D01*
X15473095Y-16390143D01*
X15444524Y-16390143D01*
X15425476Y-16399667D01*
X15415952Y-16409190D01*
X15625476Y-16523476D02*
X15606428Y-16513952D01*
X15596905Y-16504428D01*
X15587381Y-16485381D01*
X15587381Y-16428238D01*
X15596905Y-16409190D01*
X15606428Y-16399667D01*
X15625476Y-16390143D01*
X15654048Y-16390143D01*
X15673095Y-16399667D01*
X15682619Y-16409190D01*
X15692143Y-16428238D01*
X15692143Y-16485381D01*
X15682619Y-16504428D01*
X15673095Y-16513952D01*
X15654048Y-16523476D01*
X15625476Y-16523476D01*
X15806428Y-16523476D02*
X15787381Y-16513952D01*
X15777857Y-16494905D01*
X15777857Y-16323476D01*
X15958809Y-16513952D02*
X15939762Y-16523476D01*
X15901667Y-16523476D01*
X15882619Y-16513952D01*
X15873095Y-16494905D01*
X15873095Y-16418714D01*
X15882619Y-16399667D01*
X15901667Y-16390143D01*
X15939762Y-16390143D01*
X15958809Y-16399667D01*
X15968333Y-16418714D01*
X15968333Y-16437762D01*
X15873095Y-16456809D01*
X16044524Y-16513952D02*
X16063571Y-16523476D01*
X16101667Y-16523476D01*
X16120714Y-16513952D01*
X16130238Y-16494905D01*
X16130238Y-16485381D01*
X16120714Y-16466333D01*
X16101667Y-16456809D01*
X16073095Y-16456809D01*
X16054048Y-16447286D01*
X16044524Y-16428238D01*
X16044524Y-16418714D01*
X16054048Y-16399667D01*
X16073095Y-16390143D01*
X16101667Y-16390143D01*
X16120714Y-16399667D01*
X16196905Y-16599667D02*
X16206428Y-16590143D01*
X16225476Y-16561571D01*
X16235000Y-16542524D01*
X16244524Y-16513952D01*
X16254048Y-16466333D01*
X16254048Y-16428238D01*
X16244524Y-16380619D01*
X16235000Y-16352048D01*
X16225476Y-16333000D01*
X16206428Y-16304428D01*
X16196905Y-16294905D01*
D16*
X11282000Y-16625500D02*
X11425000Y-16768500D01*
X11425000Y-16625500D02*
X11282000Y-16768500D01*
X11425000Y-16697000D02*
G75*
G03*
X11425000Y-16697000I-71500J0D01*
G01*
D11*
X11787381Y-16787476D02*
X11673095Y-16787476D01*
X11730238Y-16787476D02*
X11730238Y-16587476D01*
X11711190Y-16616048D01*
X11692143Y-16635095D01*
X11673095Y-16644619D01*
X11873095Y-16768428D02*
X11882619Y-16777952D01*
X11873095Y-16787476D01*
X11863571Y-16777952D01*
X11873095Y-16768428D01*
X11873095Y-16787476D01*
X12054048Y-16654143D02*
X12054048Y-16787476D01*
X12006428Y-16577952D02*
X11958809Y-16720809D01*
X12082619Y-16720809D01*
X12139762Y-16587476D02*
X12263571Y-16587476D01*
X12196905Y-16663667D01*
X12225476Y-16663667D01*
X12244524Y-16673190D01*
X12254048Y-16682714D01*
X12263571Y-16701762D01*
X12263571Y-16749381D01*
X12254048Y-16768428D01*
X12244524Y-16777952D01*
X12225476Y-16787476D01*
X12168333Y-16787476D01*
X12149286Y-16777952D01*
X12139762Y-16768428D01*
X12387381Y-16587476D02*
X12406428Y-16587476D01*
X12425476Y-16597000D01*
X12435000Y-16606524D01*
X12444524Y-16625571D01*
X12454048Y-16663667D01*
X12454048Y-16711286D01*
X12444524Y-16749381D01*
X12435000Y-16768428D01*
X12425476Y-16777952D01*
X12406428Y-16787476D01*
X12387381Y-16787476D01*
X12368333Y-16777952D01*
X12358809Y-16768428D01*
X12349286Y-16749381D01*
X12339762Y-16711286D01*
X12339762Y-16663667D01*
X12349286Y-16625571D01*
X12358809Y-16606524D01*
X12368333Y-16597000D01*
X12387381Y-16587476D01*
X12539762Y-16787476D02*
X12539762Y-16654143D01*
X12539762Y-16673190D02*
X12549286Y-16663667D01*
X12568333Y-16654143D01*
X12596905Y-16654143D01*
X12615952Y-16663667D01*
X12625476Y-16682714D01*
X12625476Y-16787476D01*
X12625476Y-16682714D02*
X12635000Y-16663667D01*
X12654048Y-16654143D01*
X12682619Y-16654143D01*
X12701667Y-16663667D01*
X12711190Y-16682714D01*
X12711190Y-16787476D01*
X12806428Y-16787476D02*
X12806428Y-16654143D01*
X12806428Y-16673190D02*
X12815952Y-16663667D01*
X12835000Y-16654143D01*
X12863571Y-16654143D01*
X12882619Y-16663667D01*
X12892143Y-16682714D01*
X12892143Y-16787476D01*
X12892143Y-16682714D02*
X12901667Y-16663667D01*
X12920714Y-16654143D01*
X12949286Y-16654143D01*
X12968333Y-16663667D01*
X12977857Y-16682714D01*
X12977857Y-16787476D01*
X13368333Y-16577952D02*
X13196905Y-16835095D01*
X13625476Y-16587476D02*
X13644524Y-16587476D01*
X13663571Y-16597000D01*
X13673095Y-16606524D01*
X13682619Y-16625571D01*
X13692143Y-16663667D01*
X13692143Y-16711286D01*
X13682619Y-16749381D01*
X13673095Y-16768428D01*
X13663571Y-16777952D01*
X13644524Y-16787476D01*
X13625476Y-16787476D01*
X13606428Y-16777952D01*
X13596905Y-16768428D01*
X13587381Y-16749381D01*
X13577857Y-16711286D01*
X13577857Y-16663667D01*
X13587381Y-16625571D01*
X13596905Y-16606524D01*
X13606428Y-16597000D01*
X13625476Y-16587476D01*
X13777857Y-16768428D02*
X13787381Y-16777952D01*
X13777857Y-16787476D01*
X13768333Y-16777952D01*
X13777857Y-16768428D01*
X13777857Y-16787476D01*
X13911190Y-16587476D02*
X13930238Y-16587476D01*
X13949286Y-16597000D01*
X13958809Y-16606524D01*
X13968333Y-16625571D01*
X13977857Y-16663667D01*
X13977857Y-16711286D01*
X13968333Y-16749381D01*
X13958809Y-16768428D01*
X13949286Y-16777952D01*
X13930238Y-16787476D01*
X13911190Y-16787476D01*
X13892143Y-16777952D01*
X13882619Y-16768428D01*
X13873095Y-16749381D01*
X13863571Y-16711286D01*
X13863571Y-16663667D01*
X13873095Y-16625571D01*
X13882619Y-16606524D01*
X13892143Y-16597000D01*
X13911190Y-16587476D01*
X14158809Y-16587476D02*
X14063571Y-16587476D01*
X14054048Y-16682714D01*
X14063571Y-16673190D01*
X14082619Y-16663667D01*
X14130238Y-16663667D01*
X14149286Y-16673190D01*
X14158809Y-16682714D01*
X14168333Y-16701762D01*
X14168333Y-16749381D01*
X14158809Y-16768428D01*
X14149286Y-16777952D01*
X14130238Y-16787476D01*
X14082619Y-16787476D01*
X14063571Y-16777952D01*
X14054048Y-16768428D01*
X14339762Y-16587476D02*
X14301667Y-16587476D01*
X14282619Y-16597000D01*
X14273095Y-16606524D01*
X14254048Y-16635095D01*
X14244524Y-16673190D01*
X14244524Y-16749381D01*
X14254048Y-16768428D01*
X14263571Y-16777952D01*
X14282619Y-16787476D01*
X14320714Y-16787476D01*
X14339762Y-16777952D01*
X14349286Y-16768428D01*
X14358809Y-16749381D01*
X14358809Y-16701762D01*
X14349286Y-16682714D01*
X14339762Y-16673190D01*
X14320714Y-16663667D01*
X14282619Y-16663667D01*
X14263571Y-16673190D01*
X14254048Y-16682714D01*
X14244524Y-16701762D01*
X14425476Y-16587476D02*
X14549286Y-16587476D01*
X14482619Y-16663667D01*
X14511190Y-16663667D01*
X14530238Y-16673190D01*
X14539762Y-16682714D01*
X14549286Y-16701762D01*
X14549286Y-16749381D01*
X14539762Y-16768428D01*
X14530238Y-16777952D01*
X14511190Y-16787476D01*
X14454048Y-16787476D01*
X14435000Y-16777952D01*
X14425476Y-16768428D01*
X14625476Y-16587476D02*
X14625476Y-16625571D01*
X14701667Y-16587476D02*
X14701667Y-16625571D01*
X14996905Y-16863667D02*
X14987381Y-16854143D01*
X14968333Y-16825571D01*
X14958809Y-16806524D01*
X14949286Y-16777952D01*
X14939762Y-16730333D01*
X14939762Y-16692238D01*
X14949286Y-16644619D01*
X14958809Y-16616048D01*
X14968333Y-16597000D01*
X14987381Y-16568428D01*
X14996905Y-16558905D01*
X15158809Y-16654143D02*
X15158809Y-16787476D01*
X15111190Y-16577952D02*
X15063571Y-16720809D01*
X15187381Y-16720809D01*
X15415952Y-16787476D02*
X15415952Y-16587476D01*
X15501667Y-16787476D02*
X15501667Y-16682714D01*
X15492143Y-16663667D01*
X15473095Y-16654143D01*
X15444524Y-16654143D01*
X15425476Y-16663667D01*
X15415952Y-16673190D01*
X15625476Y-16787476D02*
X15606428Y-16777952D01*
X15596905Y-16768428D01*
X15587381Y-16749381D01*
X15587381Y-16692238D01*
X15596905Y-16673190D01*
X15606428Y-16663667D01*
X15625476Y-16654143D01*
X15654048Y-16654143D01*
X15673095Y-16663667D01*
X15682619Y-16673190D01*
X15692143Y-16692238D01*
X15692143Y-16749381D01*
X15682619Y-16768428D01*
X15673095Y-16777952D01*
X15654048Y-16787476D01*
X15625476Y-16787476D01*
X15806428Y-16787476D02*
X15787381Y-16777952D01*
X15777857Y-16758905D01*
X15777857Y-16587476D01*
X15958809Y-16777952D02*
X15939762Y-16787476D01*
X15901667Y-16787476D01*
X15882619Y-16777952D01*
X15873095Y-16758905D01*
X15873095Y-16682714D01*
X15882619Y-16663667D01*
X15901667Y-16654143D01*
X15939762Y-16654143D01*
X15958809Y-16663667D01*
X15968333Y-16682714D01*
X15968333Y-16701762D01*
X15873095Y-16720809D01*
X16044524Y-16777952D02*
X16063571Y-16787476D01*
X16101667Y-16787476D01*
X16120714Y-16777952D01*
X16130238Y-16758905D01*
X16130238Y-16749381D01*
X16120714Y-16730333D01*
X16101667Y-16720809D01*
X16073095Y-16720809D01*
X16054048Y-16711286D01*
X16044524Y-16692238D01*
X16044524Y-16682714D01*
X16054048Y-16663667D01*
X16073095Y-16654143D01*
X16101667Y-16654143D01*
X16120714Y-16663667D01*
X16196905Y-16863667D02*
X16206428Y-16854143D01*
X16225476Y-16825571D01*
X16235000Y-16806524D01*
X16244524Y-16777952D01*
X16254048Y-16730333D01*
X16254048Y-16692238D01*
X16244524Y-16644619D01*
X16235000Y-16616048D01*
X16225476Y-16597000D01*
X16206428Y-16568428D01*
X16196905Y-16558905D01*
M02*
