M48
; DRILL file {KiCad (6.0.7)} date Sun 28 Aug 2022 04:33:28 PM CEST
; FORMAT={-:-/ absolute / metric / decimal}
; #@! TF.CreationDate,2022-08-28T16:33:28+02:00
; #@! TF.GenerationSoftware,Kicad,Pcbnew,(6.0.7)
; #@! TF.FileFunction,Plated,1,2,PTH
FMAT,2
METRIC
; #@! TA.AperFunction,Plated,PTH,ComponentDrill
T1C0.750
; #@! TA.AperFunction,Plated,PTH,ComponentDrill
T2C0.800
; #@! TA.AperFunction,Plated,PTH,ComponentDrill
T3C1.000
; #@! TA.AperFunction,Plated,PTH,ComponentDrill
T4C1.220
; #@! TA.AperFunction,Plated,PTH,ComponentDrill
T5C1.420
; #@! TA.AperFunction,Plated,PTH,ComponentDrill
T6C1.430
%
G90
G05
T1
X162.56Y-71.82
X162.56Y-76.9
X163.83Y-71.82
X163.83Y-76.9
X165.1Y-71.82
X165.1Y-76.9
T2
X116.84Y-52.77
X116.84Y-60.39
X116.84Y-64.2
X116.84Y-69.28
X116.84Y-73.09
X116.84Y-80.71
X120.65Y-66.74
X120.65Y-71.82
X124.012Y-77.61
X126.554Y-110.518
X128.256Y-94.759
X128.256Y-102.379
X128.27Y-66.74
X128.27Y-71.82
X131.632Y-77.61
X132.08Y-69.28
X132.08Y-74.36
X132.08Y-83.25
X132.08Y-90.87
X132.08Y-94.68
X132.08Y-102.3
X134.174Y-110.518
X137.16Y-51.5
X137.16Y-56.58
X137.16Y-121.35
X137.16Y-128.97
X137.254Y-61.909
X137.254Y-64.449
X137.254Y-66.989
X137.254Y-69.529
X137.254Y-72.069
X137.254Y-74.609
X137.254Y-77.149
X137.503Y-98.257
X137.503Y-100.797
X137.503Y-103.337
X137.503Y-105.877
X137.503Y-108.417
X137.503Y-110.957
X137.503Y-113.497
X137.503Y-116.037
X140.97Y-50.23
X140.97Y-57.85
X140.983Y-121.275
X140.983Y-128.895
X144.78Y-51.5
X144.78Y-56.58
X144.78Y-121.35
X144.78Y-128.97
X144.874Y-61.909
X144.874Y-64.449
X144.874Y-66.989
X144.874Y-69.529
X144.874Y-72.069
X144.874Y-74.609
X144.874Y-77.149
X145.123Y-98.257
X145.123Y-100.797
X145.123Y-103.337
X145.123Y-105.877
X145.123Y-108.417
X145.123Y-110.957
X145.123Y-113.497
X145.123Y-116.037
X149.86Y-83.25
X149.86Y-90.87
X149.86Y-109.92
X151.13Y-130.24
X151.238Y-72.859
X152.4Y-79.44
X152.575Y-68.989
X154.94Y-76.9
X154.94Y-83.25
X154.94Y-90.87
X157.48Y-79.44
X157.48Y-109.92
X157.655Y-68.989
X158.75Y-130.24
X158.858Y-72.859
X160.02Y-83.25
X160.02Y-90.87
X161.698Y-105.027
X161.698Y-110.107
X162.56Y-93.41
X162.56Y-101.03
X163.16Y-120.731
X163.16Y-128.351
X165.1Y-50.23
X165.1Y-57.85
X165.1Y-60.39
X165.1Y-68.01
T3
X120.655Y-85.805
X120.655Y-88.345
X120.655Y-90.885
X120.655Y-93.425
X120.655Y-95.965
X120.655Y-98.505
X120.655Y-101.045
X120.655Y-103.585
X123.195Y-85.805
X123.195Y-88.345
X123.195Y-90.885
X123.195Y-93.425
X123.195Y-95.965
X123.195Y-98.505
X123.195Y-101.045
X123.195Y-103.585
X124.5Y-62.63
X124.5Y-126.13
X127.0Y-62.63
X127.0Y-126.13
X129.5Y-62.63
X129.5Y-126.13
X138.507Y-93.11
X141.007Y-93.11
X143.507Y-93.11
X152.44Y-62.63
X152.44Y-126.13
X154.94Y-62.63
X154.94Y-126.13
X157.44Y-62.63
X157.44Y-126.13
T4
X121.92Y-145.48
X134.62Y-145.48
X147.32Y-145.48
X160.02Y-145.48
T5
X121.92Y-142.38
X134.62Y-142.38
X147.32Y-142.38
X160.02Y-142.38
T6
X121.92Y-134.08
X134.62Y-134.08
X147.32Y-134.08
X160.02Y-134.08
T0
M30
