G04 #@! TF.GenerationSoftware,KiCad,Pcbnew,(6.0.9)*
G04 #@! TF.CreationDate,2022-12-13T22:51:57+01:00*
G04 #@! TF.ProjectId,filter-face,66696c74-6572-42d6-9661-63652e6b6963,rev?*
G04 #@! TF.SameCoordinates,Original*
G04 #@! TF.FileFunction,Copper,L1,Top*
G04 #@! TF.FilePolarity,Positive*
%FSLAX46Y46*%
G04 Gerber Fmt 4.6, Leading zero omitted, Abs format (unit mm)*
G04 Created by KiCad (PCBNEW (6.0.9)) date 2022-12-13 22:51:57*
%MOMM*%
%LPD*%
G01*
G04 APERTURE LIST*
G04 #@! TA.AperFunction,NonConductor*
%ADD10C,4.104997*%
G04 #@! TD*
G04 #@! TA.AperFunction,NonConductor*
%ADD11C,2.100000*%
G04 #@! TD*
G04 #@! TA.AperFunction,EtchedComponent*
%ADD12C,0.010000*%
G04 #@! TD*
G04 #@! TA.AperFunction,ViaPad*
%ADD13C,0.800000*%
G04 #@! TD*
G04 #@! TA.AperFunction,Conductor*
%ADD14C,0.200000*%
G04 #@! TD*
G04 #@! TA.AperFunction,Conductor*
%ADD15C,0.250000*%
G04 #@! TD*
G04 APERTURE END LIST*
D10*
X38752498Y-105400000D02*
G75*
G03*
X38752498Y-105400000I-2052498J0D01*
G01*
X38752498Y-41900000D02*
G75*
G03*
X38752498Y-41900000I-2052498J0D01*
G01*
X66652498Y-41900000D02*
G75*
G03*
X66652498Y-41900000I-2052498J0D01*
G01*
X52752498Y-72400000D02*
G75*
G03*
X52752498Y-72400000I-2052498J0D01*
G01*
X66652498Y-105400000D02*
G75*
G03*
X66652498Y-105400000I-2052498J0D01*
G01*
X59052498Y-125800000D02*
G75*
G03*
X59052498Y-125800000I-2052498J0D01*
G01*
X46352498Y-125800000D02*
G75*
G03*
X46352498Y-125800000I-2052498J0D01*
G01*
X33652498Y-125800000D02*
G75*
G03*
X33652498Y-125800000I-2052498J0D01*
G01*
D11*
X28550000Y-145500000D02*
G75*
G03*
X28550000Y-145500000I-1050000J0D01*
G01*
X74250000Y-145500000D02*
G75*
G03*
X74250000Y-145500000I-1050000J0D01*
G01*
X74250000Y-23300000D02*
G75*
G03*
X74250000Y-23300000I-1050000J0D01*
G01*
X28550000Y-23000000D02*
G75*
G03*
X28550000Y-23000000I-1050000J0D01*
G01*
G36*
X36709317Y-95592329D02*
G01*
X36749693Y-95608614D01*
X36825314Y-95640244D01*
X36933790Y-95686185D01*
X37072731Y-95745400D01*
X37239746Y-95816855D01*
X37432446Y-95899514D01*
X37648442Y-95992343D01*
X37885342Y-96094305D01*
X38140758Y-96204367D01*
X38412299Y-96321492D01*
X38697575Y-96444645D01*
X38994197Y-96572792D01*
X39299774Y-96704897D01*
X39611917Y-96839924D01*
X39928235Y-96976840D01*
X40246340Y-97114607D01*
X40563840Y-97252192D01*
X40878346Y-97388559D01*
X41187468Y-97522673D01*
X41488816Y-97653498D01*
X41780000Y-97780000D01*
X42058631Y-97901143D01*
X42322317Y-98015892D01*
X42568671Y-98123212D01*
X42795300Y-98222068D01*
X42999817Y-98311424D01*
X43179829Y-98390245D01*
X43332949Y-98457496D01*
X43456785Y-98512142D01*
X43548949Y-98553148D01*
X43607049Y-98579478D01*
X43628696Y-98590098D01*
X43635807Y-98602329D01*
X43661022Y-98650493D01*
X43703336Y-98733315D01*
X43761807Y-98848905D01*
X43835492Y-98995372D01*
X43923449Y-99170827D01*
X44024736Y-99373378D01*
X44138409Y-99601136D01*
X44263527Y-99852211D01*
X44399146Y-100124712D01*
X44544326Y-100416749D01*
X44698122Y-100726432D01*
X44859593Y-101051870D01*
X45027796Y-101391174D01*
X45201789Y-101742453D01*
X45380628Y-102103817D01*
X47107380Y-105594322D01*
X45376614Y-109094638D01*
X45372288Y-109103386D01*
X45149387Y-109553988D01*
X44944477Y-109967807D01*
X44756945Y-110346057D01*
X44586179Y-110689953D01*
X44431564Y-111000708D01*
X44292488Y-111279537D01*
X44168337Y-111527655D01*
X44058497Y-111746276D01*
X43962356Y-111936614D01*
X43879300Y-112099884D01*
X43808716Y-112237299D01*
X43749991Y-112350075D01*
X43702510Y-112439425D01*
X43665661Y-112506564D01*
X43638830Y-112552707D01*
X43621405Y-112579067D01*
X43612771Y-112586859D01*
X43608698Y-112585352D01*
X43572703Y-112567230D01*
X43505468Y-112530667D01*
X43410571Y-112477741D01*
X43291589Y-112410529D01*
X43152101Y-112331110D01*
X42995684Y-112241561D01*
X42825915Y-112143960D01*
X42646372Y-112040386D01*
X42460633Y-111932915D01*
X42272275Y-111823626D01*
X42084877Y-111714596D01*
X41902015Y-111607904D01*
X41727268Y-111505627D01*
X41564213Y-111409843D01*
X41416427Y-111322630D01*
X41287489Y-111246066D01*
X41180976Y-111182228D01*
X41100466Y-111133195D01*
X41049537Y-111101044D01*
X41031765Y-111087854D01*
X41038657Y-111071190D01*
X41062632Y-111018154D01*
X41102808Y-110930920D01*
X41158168Y-110811651D01*
X41227700Y-110662510D01*
X41310388Y-110485662D01*
X41405217Y-110283270D01*
X41511172Y-110057498D01*
X41627240Y-109810508D01*
X41752405Y-109544465D01*
X41885653Y-109261533D01*
X42025969Y-108963874D01*
X42172337Y-108653652D01*
X42323745Y-108333031D01*
X43615725Y-105598311D01*
X43577870Y-105514277D01*
X43570920Y-105499262D01*
X43546078Y-105446243D01*
X43504917Y-105358716D01*
X43448505Y-105238944D01*
X43377910Y-105089190D01*
X43294202Y-104911717D01*
X43198447Y-104708790D01*
X43091714Y-104482670D01*
X42975071Y-104235621D01*
X42849587Y-103969907D01*
X42716329Y-103687791D01*
X42576367Y-103391535D01*
X42430767Y-103083404D01*
X42280598Y-102765660D01*
X41021182Y-100101076D01*
X38859353Y-99353107D01*
X36697523Y-98605137D01*
X34107436Y-99103509D01*
X33793088Y-99164013D01*
X33479821Y-99224346D01*
X33180658Y-99282002D01*
X32898096Y-99336496D01*
X32634631Y-99387346D01*
X32392761Y-99434069D01*
X32174983Y-99476182D01*
X31983794Y-99513203D01*
X31821691Y-99544648D01*
X31691173Y-99570034D01*
X31594735Y-99588879D01*
X31534875Y-99600700D01*
X31514091Y-99605013D01*
X31506297Y-99618279D01*
X31478474Y-99666206D01*
X31431543Y-99747244D01*
X31366613Y-99859471D01*
X31284795Y-100000963D01*
X31187203Y-100169797D01*
X31074945Y-100364050D01*
X30949133Y-100581800D01*
X30810879Y-100821122D01*
X30661294Y-101080094D01*
X30501488Y-101356792D01*
X30332573Y-101649295D01*
X30155660Y-101955677D01*
X29971860Y-102274017D01*
X29782284Y-102602392D01*
X28053735Y-105596640D01*
X28914978Y-109079392D01*
X28926102Y-109124373D01*
X29018642Y-109498439D01*
X29108440Y-109861172D01*
X29194965Y-110210446D01*
X29277689Y-110544135D01*
X29356084Y-110860113D01*
X29429619Y-111156253D01*
X29497766Y-111430429D01*
X29559997Y-111680516D01*
X29615781Y-111904388D01*
X29664590Y-112099917D01*
X29705894Y-112264978D01*
X29739166Y-112397445D01*
X29763876Y-112495191D01*
X29779494Y-112556092D01*
X29785493Y-112578019D01*
X29787025Y-112581306D01*
X29776945Y-112593894D01*
X29774513Y-112591007D01*
X29755841Y-112558277D01*
X29720297Y-112491172D01*
X29669189Y-112392285D01*
X29603824Y-112264211D01*
X29525509Y-112109542D01*
X29435550Y-111930871D01*
X29335255Y-111730793D01*
X29225931Y-111511900D01*
X29108885Y-111276786D01*
X28985424Y-111028045D01*
X28856855Y-110768269D01*
X28831865Y-110717705D01*
X28675402Y-110401192D01*
X28506570Y-110059746D01*
X28328824Y-109700354D01*
X28145624Y-109330004D01*
X27960426Y-108955684D01*
X27776687Y-108584381D01*
X27597866Y-108223084D01*
X27427420Y-107878779D01*
X27268806Y-107558455D01*
X27125482Y-107269098D01*
X26296379Y-105595553D01*
X28023878Y-102104466D01*
X28157929Y-101833648D01*
X28333305Y-101479604D01*
X28503134Y-101137051D01*
X28666473Y-100807881D01*
X28822380Y-100493982D01*
X28969910Y-100197246D01*
X29108122Y-99919563D01*
X29236073Y-99662823D01*
X29352819Y-99428917D01*
X29457418Y-99219734D01*
X29548926Y-99037164D01*
X29626401Y-98883099D01*
X29688901Y-98759429D01*
X29735481Y-98668043D01*
X29765199Y-98610833D01*
X29777112Y-98589688D01*
X29783199Y-98586403D01*
X29823327Y-98567778D01*
X29898714Y-98533966D01*
X30006968Y-98486002D01*
X30145701Y-98424920D01*
X30312523Y-98351755D01*
X30505044Y-98267543D01*
X30720875Y-98173317D01*
X30957627Y-98070113D01*
X31212910Y-97958966D01*
X31484334Y-97840910D01*
X31769510Y-97716980D01*
X32066049Y-97588212D01*
X32371560Y-97455639D01*
X32683656Y-97320296D01*
X32999945Y-97183219D01*
X33318038Y-97045443D01*
X33635547Y-96908001D01*
X33950081Y-96771930D01*
X34259251Y-96638263D01*
X34560667Y-96508036D01*
X34851940Y-96382282D01*
X35130681Y-96262039D01*
X35394500Y-96148339D01*
X35641007Y-96042218D01*
X35867813Y-95944710D01*
X36072529Y-95856851D01*
X36252764Y-95779675D01*
X36406130Y-95714218D01*
X36530237Y-95661513D01*
X36622695Y-95622596D01*
X36681116Y-95598501D01*
X36703108Y-95590264D01*
X36709317Y-95592329D01*
G37*
D12*
X36709317Y-95592329D02*
X36749693Y-95608614D01*
X36825314Y-95640244D01*
X36933790Y-95686185D01*
X37072731Y-95745400D01*
X37239746Y-95816855D01*
X37432446Y-95899514D01*
X37648442Y-95992343D01*
X37885342Y-96094305D01*
X38140758Y-96204367D01*
X38412299Y-96321492D01*
X38697575Y-96444645D01*
X38994197Y-96572792D01*
X39299774Y-96704897D01*
X39611917Y-96839924D01*
X39928235Y-96976840D01*
X40246340Y-97114607D01*
X40563840Y-97252192D01*
X40878346Y-97388559D01*
X41187468Y-97522673D01*
X41488816Y-97653498D01*
X41780000Y-97780000D01*
X42058631Y-97901143D01*
X42322317Y-98015892D01*
X42568671Y-98123212D01*
X42795300Y-98222068D01*
X42999817Y-98311424D01*
X43179829Y-98390245D01*
X43332949Y-98457496D01*
X43456785Y-98512142D01*
X43548949Y-98553148D01*
X43607049Y-98579478D01*
X43628696Y-98590098D01*
X43635807Y-98602329D01*
X43661022Y-98650493D01*
X43703336Y-98733315D01*
X43761807Y-98848905D01*
X43835492Y-98995372D01*
X43923449Y-99170827D01*
X44024736Y-99373378D01*
X44138409Y-99601136D01*
X44263527Y-99852211D01*
X44399146Y-100124712D01*
X44544326Y-100416749D01*
X44698122Y-100726432D01*
X44859593Y-101051870D01*
X45027796Y-101391174D01*
X45201789Y-101742453D01*
X45380628Y-102103817D01*
X47107380Y-105594322D01*
X45376614Y-109094638D01*
X45372288Y-109103386D01*
X45149387Y-109553988D01*
X44944477Y-109967807D01*
X44756945Y-110346057D01*
X44586179Y-110689953D01*
X44431564Y-111000708D01*
X44292488Y-111279537D01*
X44168337Y-111527655D01*
X44058497Y-111746276D01*
X43962356Y-111936614D01*
X43879300Y-112099884D01*
X43808716Y-112237299D01*
X43749991Y-112350075D01*
X43702510Y-112439425D01*
X43665661Y-112506564D01*
X43638830Y-112552707D01*
X43621405Y-112579067D01*
X43612771Y-112586859D01*
X43608698Y-112585352D01*
X43572703Y-112567230D01*
X43505468Y-112530667D01*
X43410571Y-112477741D01*
X43291589Y-112410529D01*
X43152101Y-112331110D01*
X42995684Y-112241561D01*
X42825915Y-112143960D01*
X42646372Y-112040386D01*
X42460633Y-111932915D01*
X42272275Y-111823626D01*
X42084877Y-111714596D01*
X41902015Y-111607904D01*
X41727268Y-111505627D01*
X41564213Y-111409843D01*
X41416427Y-111322630D01*
X41287489Y-111246066D01*
X41180976Y-111182228D01*
X41100466Y-111133195D01*
X41049537Y-111101044D01*
X41031765Y-111087854D01*
X41038657Y-111071190D01*
X41062632Y-111018154D01*
X41102808Y-110930920D01*
X41158168Y-110811651D01*
X41227700Y-110662510D01*
X41310388Y-110485662D01*
X41405217Y-110283270D01*
X41511172Y-110057498D01*
X41627240Y-109810508D01*
X41752405Y-109544465D01*
X41885653Y-109261533D01*
X42025969Y-108963874D01*
X42172337Y-108653652D01*
X42323745Y-108333031D01*
X43615725Y-105598311D01*
X43577870Y-105514277D01*
X43570920Y-105499262D01*
X43546078Y-105446243D01*
X43504917Y-105358716D01*
X43448505Y-105238944D01*
X43377910Y-105089190D01*
X43294202Y-104911717D01*
X43198447Y-104708790D01*
X43091714Y-104482670D01*
X42975071Y-104235621D01*
X42849587Y-103969907D01*
X42716329Y-103687791D01*
X42576367Y-103391535D01*
X42430767Y-103083404D01*
X42280598Y-102765660D01*
X41021182Y-100101076D01*
X38859353Y-99353107D01*
X36697523Y-98605137D01*
X34107436Y-99103509D01*
X33793088Y-99164013D01*
X33479821Y-99224346D01*
X33180658Y-99282002D01*
X32898096Y-99336496D01*
X32634631Y-99387346D01*
X32392761Y-99434069D01*
X32174983Y-99476182D01*
X31983794Y-99513203D01*
X31821691Y-99544648D01*
X31691173Y-99570034D01*
X31594735Y-99588879D01*
X31534875Y-99600700D01*
X31514091Y-99605013D01*
X31506297Y-99618279D01*
X31478474Y-99666206D01*
X31431543Y-99747244D01*
X31366613Y-99859471D01*
X31284795Y-100000963D01*
X31187203Y-100169797D01*
X31074945Y-100364050D01*
X30949133Y-100581800D01*
X30810879Y-100821122D01*
X30661294Y-101080094D01*
X30501488Y-101356792D01*
X30332573Y-101649295D01*
X30155660Y-101955677D01*
X29971860Y-102274017D01*
X29782284Y-102602392D01*
X28053735Y-105596640D01*
X28914978Y-109079392D01*
X28926102Y-109124373D01*
X29018642Y-109498439D01*
X29108440Y-109861172D01*
X29194965Y-110210446D01*
X29277689Y-110544135D01*
X29356084Y-110860113D01*
X29429619Y-111156253D01*
X29497766Y-111430429D01*
X29559997Y-111680516D01*
X29615781Y-111904388D01*
X29664590Y-112099917D01*
X29705894Y-112264978D01*
X29739166Y-112397445D01*
X29763876Y-112495191D01*
X29779494Y-112556092D01*
X29785493Y-112578019D01*
X29787025Y-112581306D01*
X29776945Y-112593894D01*
X29774513Y-112591007D01*
X29755841Y-112558277D01*
X29720297Y-112491172D01*
X29669189Y-112392285D01*
X29603824Y-112264211D01*
X29525509Y-112109542D01*
X29435550Y-111930871D01*
X29335255Y-111730793D01*
X29225931Y-111511900D01*
X29108885Y-111276786D01*
X28985424Y-111028045D01*
X28856855Y-110768269D01*
X28831865Y-110717705D01*
X28675402Y-110401192D01*
X28506570Y-110059746D01*
X28328824Y-109700354D01*
X28145624Y-109330004D01*
X27960426Y-108955684D01*
X27776687Y-108584381D01*
X27597866Y-108223084D01*
X27427420Y-107878779D01*
X27268806Y-107558455D01*
X27125482Y-107269098D01*
X26296379Y-105595553D01*
X28023878Y-102104466D01*
X28157929Y-101833648D01*
X28333305Y-101479604D01*
X28503134Y-101137051D01*
X28666473Y-100807881D01*
X28822380Y-100493982D01*
X28969910Y-100197246D01*
X29108122Y-99919563D01*
X29236073Y-99662823D01*
X29352819Y-99428917D01*
X29457418Y-99219734D01*
X29548926Y-99037164D01*
X29626401Y-98883099D01*
X29688901Y-98759429D01*
X29735481Y-98668043D01*
X29765199Y-98610833D01*
X29777112Y-98589688D01*
X29783199Y-98586403D01*
X29823327Y-98567778D01*
X29898714Y-98533966D01*
X30006968Y-98486002D01*
X30145701Y-98424920D01*
X30312523Y-98351755D01*
X30505044Y-98267543D01*
X30720875Y-98173317D01*
X30957627Y-98070113D01*
X31212910Y-97958966D01*
X31484334Y-97840910D01*
X31769510Y-97716980D01*
X32066049Y-97588212D01*
X32371560Y-97455639D01*
X32683656Y-97320296D01*
X32999945Y-97183219D01*
X33318038Y-97045443D01*
X33635547Y-96908001D01*
X33950081Y-96771930D01*
X34259251Y-96638263D01*
X34560667Y-96508036D01*
X34851940Y-96382282D01*
X35130681Y-96262039D01*
X35394500Y-96148339D01*
X35641007Y-96042218D01*
X35867813Y-95944710D01*
X36072529Y-95856851D01*
X36252764Y-95779675D01*
X36406130Y-95714218D01*
X36530237Y-95661513D01*
X36622695Y-95622596D01*
X36681116Y-95598501D01*
X36703108Y-95590264D01*
X36709317Y-95592329D01*
G36*
X55905559Y-59625786D02*
G01*
X56352551Y-59819404D01*
X56789356Y-60008712D01*
X57214382Y-60193016D01*
X57626037Y-60371622D01*
X58022731Y-60543836D01*
X58402870Y-60708966D01*
X58764864Y-60866317D01*
X59107122Y-61015196D01*
X59428050Y-61154910D01*
X59726059Y-61284764D01*
X59999555Y-61404066D01*
X60246948Y-61512122D01*
X60466646Y-61608238D01*
X60657058Y-61691721D01*
X60816591Y-61761877D01*
X60943654Y-61818013D01*
X61036656Y-61859435D01*
X61094004Y-61885450D01*
X61114108Y-61895364D01*
X61114117Y-61895383D01*
X61123851Y-61915501D01*
X61151611Y-61972023D01*
X61196636Y-62063411D01*
X61258169Y-62188131D01*
X61335449Y-62344648D01*
X61427717Y-62531426D01*
X61534215Y-62746930D01*
X61654183Y-62989626D01*
X61786861Y-63257977D01*
X61931492Y-63550449D01*
X62087314Y-63865506D01*
X62253570Y-64201613D01*
X62429500Y-64557235D01*
X62614345Y-64930837D01*
X62807345Y-65320884D01*
X63007742Y-65725839D01*
X63214776Y-66144169D01*
X63427688Y-66574338D01*
X63645719Y-67014810D01*
X63710659Y-67145995D01*
X66301721Y-72380167D01*
X65999226Y-72998100D01*
X65942294Y-73114171D01*
X65870129Y-73260920D01*
X65783678Y-73436435D01*
X65683887Y-73638806D01*
X65571703Y-73866123D01*
X65448073Y-74116476D01*
X65313943Y-74387955D01*
X65170259Y-74678648D01*
X65017968Y-74986646D01*
X64858016Y-75310039D01*
X64691351Y-75646916D01*
X64518919Y-75995367D01*
X64341666Y-76353481D01*
X64160538Y-76719349D01*
X63976483Y-77091060D01*
X63790447Y-77466704D01*
X63603377Y-77844370D01*
X63416218Y-78222148D01*
X63229918Y-78598129D01*
X63045424Y-78970400D01*
X62863681Y-79337053D01*
X62685636Y-79696178D01*
X62512236Y-80045862D01*
X62344427Y-80384198D01*
X62183156Y-80709273D01*
X62029370Y-81019178D01*
X61884014Y-81312003D01*
X61748037Y-81585837D01*
X61622383Y-81838770D01*
X61508000Y-82068891D01*
X61405834Y-82274291D01*
X61316832Y-82453060D01*
X61241940Y-82603285D01*
X61182105Y-82723059D01*
X61138274Y-82810469D01*
X61111392Y-82863607D01*
X61102443Y-82880584D01*
X61083346Y-82871539D01*
X61030471Y-82843040D01*
X60946729Y-82796750D01*
X60835030Y-82734333D01*
X60698286Y-82657452D01*
X60539408Y-82567771D01*
X60361308Y-82466952D01*
X60166897Y-82356658D01*
X59959087Y-82238554D01*
X59740788Y-82114303D01*
X59514912Y-81985567D01*
X59284371Y-81854010D01*
X59052076Y-81721295D01*
X58820937Y-81589086D01*
X58593867Y-81459045D01*
X58373776Y-81332837D01*
X58163577Y-81212124D01*
X57966180Y-81098569D01*
X57784496Y-80993837D01*
X57621438Y-80899590D01*
X57479916Y-80817491D01*
X57362842Y-80749204D01*
X57273127Y-80696392D01*
X57213682Y-80660719D01*
X57187585Y-80643977D01*
X57195985Y-80624735D01*
X57221656Y-80568969D01*
X57263776Y-80478426D01*
X57321522Y-80354853D01*
X57394073Y-80199999D01*
X57480606Y-80015610D01*
X57580298Y-79803433D01*
X57692327Y-79565218D01*
X57815870Y-79302709D01*
X57950106Y-79017657D01*
X58094212Y-78711806D01*
X58247365Y-78386906D01*
X58408743Y-78044704D01*
X58577523Y-77686946D01*
X58752884Y-77315381D01*
X58934002Y-76931755D01*
X59120056Y-76537817D01*
X59130484Y-76515741D01*
X59320862Y-76112466D01*
X59505611Y-75720601D01*
X59683944Y-75341836D01*
X59855074Y-74977859D01*
X60018215Y-74630358D01*
X60172581Y-74301022D01*
X60317383Y-73991540D01*
X60451836Y-73703598D01*
X60575154Y-73438888D01*
X60686548Y-73199095D01*
X60785233Y-72985910D01*
X60870423Y-72801021D01*
X60941329Y-72646116D01*
X60997166Y-72522883D01*
X61037147Y-72433011D01*
X61060485Y-72378189D01*
X61066613Y-72360222D01*
X61056950Y-72339361D01*
X61030235Y-72282381D01*
X60987479Y-72191424D01*
X60929694Y-72068631D01*
X60857889Y-71916146D01*
X60773076Y-71736110D01*
X60676266Y-71530667D01*
X60568468Y-71301958D01*
X60450695Y-71052126D01*
X60323956Y-70783314D01*
X60189263Y-70497663D01*
X60047625Y-70197316D01*
X59900055Y-69884416D01*
X59747563Y-69561105D01*
X59591160Y-69229525D01*
X59431855Y-68891819D01*
X59270661Y-68550129D01*
X59108588Y-68206598D01*
X58946646Y-67863367D01*
X58785847Y-67522580D01*
X58627201Y-67186379D01*
X58471719Y-66856905D01*
X58320412Y-66536302D01*
X58174291Y-66226712D01*
X58034366Y-65930277D01*
X57901648Y-65649140D01*
X57777147Y-65385443D01*
X57661876Y-65141328D01*
X57556844Y-64918939D01*
X57463062Y-64720416D01*
X57381541Y-64547903D01*
X57313292Y-64403543D01*
X57259325Y-64289476D01*
X57220652Y-64207847D01*
X57198283Y-64160797D01*
X57192827Y-64149513D01*
X57172847Y-64142151D01*
X57114969Y-64121671D01*
X57021297Y-64088807D01*
X56893937Y-64044290D01*
X56734994Y-63988852D01*
X56546573Y-63923225D01*
X56330780Y-63848141D01*
X56089721Y-63764332D01*
X55825499Y-63672530D01*
X55540221Y-63573467D01*
X55235992Y-63467875D01*
X54914917Y-63356486D01*
X54579102Y-63240032D01*
X54230651Y-63119245D01*
X53945829Y-63020549D01*
X50701780Y-61896604D01*
X46818280Y-62644039D01*
X46419499Y-62720833D01*
X46031844Y-62795568D01*
X45657363Y-62867846D01*
X45298103Y-62937268D01*
X44956111Y-63003438D01*
X44633433Y-63065955D01*
X44332118Y-63124422D01*
X44054211Y-63178441D01*
X43801759Y-63227614D01*
X43576811Y-63271541D01*
X43381412Y-63309826D01*
X43217610Y-63342070D01*
X43087452Y-63367874D01*
X42992984Y-63386841D01*
X42936254Y-63398572D01*
X42919183Y-63402586D01*
X42907080Y-63421839D01*
X42874976Y-63475847D01*
X42823979Y-63562693D01*
X42755194Y-63680460D01*
X42669727Y-63827231D01*
X42568686Y-64001088D01*
X42453174Y-64200116D01*
X42324300Y-64422395D01*
X42183169Y-64666011D01*
X42030888Y-64929045D01*
X41868561Y-65209580D01*
X41697296Y-65505699D01*
X41518199Y-65815485D01*
X41332376Y-66137022D01*
X41140932Y-66468391D01*
X40944975Y-66807676D01*
X40745610Y-67152960D01*
X40543943Y-67502325D01*
X40341081Y-67853855D01*
X40138130Y-68205632D01*
X39936195Y-68555740D01*
X39736383Y-68902260D01*
X39539801Y-69243277D01*
X39347553Y-69576873D01*
X39160748Y-69901131D01*
X38980489Y-70214133D01*
X38807885Y-70513964D01*
X38644040Y-70798704D01*
X38490061Y-71066439D01*
X38347055Y-71315250D01*
X38216127Y-71543220D01*
X38098383Y-71748432D01*
X37994929Y-71928969D01*
X37906873Y-72082914D01*
X37835319Y-72208351D01*
X37781375Y-72303361D01*
X37746145Y-72366028D01*
X37730737Y-72394434D01*
X37730111Y-72395947D01*
X37735127Y-72417862D01*
X37749891Y-72479137D01*
X37773974Y-72578036D01*
X37806949Y-72712828D01*
X37848390Y-72881778D01*
X37897869Y-73083153D01*
X37954958Y-73315219D01*
X38019230Y-73576243D01*
X38090258Y-73864492D01*
X38167614Y-74178231D01*
X38250871Y-74515727D01*
X38339601Y-74875248D01*
X38433378Y-75255058D01*
X38531774Y-75653425D01*
X38634362Y-76068616D01*
X38740713Y-76498896D01*
X38850402Y-76942532D01*
X38963000Y-77397791D01*
X39022250Y-77637295D01*
X39136157Y-78097874D01*
X39247330Y-78547728D01*
X39355341Y-78985125D01*
X39459767Y-79408330D01*
X39560181Y-79815612D01*
X39656159Y-80205235D01*
X39747275Y-80575467D01*
X39833104Y-80924574D01*
X39913221Y-81250823D01*
X39987201Y-81552481D01*
X40054618Y-81827813D01*
X40115047Y-82075087D01*
X40168062Y-82292570D01*
X40213239Y-82478527D01*
X40250153Y-82631226D01*
X40278377Y-82748933D01*
X40297487Y-82829914D01*
X40307058Y-82872436D01*
X40308125Y-82878770D01*
X40298338Y-82861648D01*
X40270553Y-82808096D01*
X40225528Y-82719636D01*
X40164020Y-82597788D01*
X40086786Y-82444074D01*
X39994584Y-82260017D01*
X39888172Y-82047137D01*
X39768306Y-81806956D01*
X39635745Y-81540996D01*
X39491245Y-81250779D01*
X39335565Y-80937825D01*
X39169461Y-80603657D01*
X38993692Y-80249795D01*
X38809014Y-79877763D01*
X38616186Y-79489080D01*
X38415964Y-79085269D01*
X38209107Y-78667852D01*
X37996371Y-78238349D01*
X37778514Y-77798283D01*
X37708945Y-77657708D01*
X37489477Y-77214149D01*
X37274912Y-76780383D01*
X37066007Y-76357948D01*
X36863521Y-75948383D01*
X36668213Y-75553224D01*
X36480842Y-75174010D01*
X36302165Y-74812279D01*
X36132943Y-74469569D01*
X35973932Y-74147416D01*
X35825893Y-73847360D01*
X35689584Y-73570937D01*
X35565763Y-73319687D01*
X35455189Y-73095145D01*
X35358620Y-72898851D01*
X35276816Y-72732343D01*
X35210536Y-72597157D01*
X35160536Y-72494832D01*
X35127578Y-72426906D01*
X35112418Y-72394916D01*
X35111454Y-72392554D01*
X35120341Y-72371681D01*
X35147280Y-72314418D01*
X35191515Y-72222302D01*
X35252290Y-72096869D01*
X35328850Y-71939654D01*
X35420439Y-71752195D01*
X35526301Y-71536028D01*
X35645680Y-71292689D01*
X35777821Y-71023714D01*
X35921968Y-70730640D01*
X36077364Y-70415003D01*
X36243256Y-70078340D01*
X36418886Y-69722185D01*
X36603498Y-69348077D01*
X36796338Y-68957551D01*
X36996649Y-68552143D01*
X37203676Y-68133390D01*
X37416663Y-67702828D01*
X37634854Y-67261994D01*
X37704371Y-67121594D01*
X40301861Y-61875989D01*
X45502171Y-59624309D01*
X50702480Y-57372628D01*
X55905559Y-59625786D01*
G37*
X55905559Y-59625786D02*
X56352551Y-59819404D01*
X56789356Y-60008712D01*
X57214382Y-60193016D01*
X57626037Y-60371622D01*
X58022731Y-60543836D01*
X58402870Y-60708966D01*
X58764864Y-60866317D01*
X59107122Y-61015196D01*
X59428050Y-61154910D01*
X59726059Y-61284764D01*
X59999555Y-61404066D01*
X60246948Y-61512122D01*
X60466646Y-61608238D01*
X60657058Y-61691721D01*
X60816591Y-61761877D01*
X60943654Y-61818013D01*
X61036656Y-61859435D01*
X61094004Y-61885450D01*
X61114108Y-61895364D01*
X61114117Y-61895383D01*
X61123851Y-61915501D01*
X61151611Y-61972023D01*
X61196636Y-62063411D01*
X61258169Y-62188131D01*
X61335449Y-62344648D01*
X61427717Y-62531426D01*
X61534215Y-62746930D01*
X61654183Y-62989626D01*
X61786861Y-63257977D01*
X61931492Y-63550449D01*
X62087314Y-63865506D01*
X62253570Y-64201613D01*
X62429500Y-64557235D01*
X62614345Y-64930837D01*
X62807345Y-65320884D01*
X63007742Y-65725839D01*
X63214776Y-66144169D01*
X63427688Y-66574338D01*
X63645719Y-67014810D01*
X63710659Y-67145995D01*
X66301721Y-72380167D01*
X65999226Y-72998100D01*
X65942294Y-73114171D01*
X65870129Y-73260920D01*
X65783678Y-73436435D01*
X65683887Y-73638806D01*
X65571703Y-73866123D01*
X65448073Y-74116476D01*
X65313943Y-74387955D01*
X65170259Y-74678648D01*
X65017968Y-74986646D01*
X64858016Y-75310039D01*
X64691351Y-75646916D01*
X64518919Y-75995367D01*
X64341666Y-76353481D01*
X64160538Y-76719349D01*
X63976483Y-77091060D01*
X63790447Y-77466704D01*
X63603377Y-77844370D01*
X63416218Y-78222148D01*
X63229918Y-78598129D01*
X63045424Y-78970400D01*
X62863681Y-79337053D01*
X62685636Y-79696178D01*
X62512236Y-80045862D01*
X62344427Y-80384198D01*
X62183156Y-80709273D01*
X62029370Y-81019178D01*
X61884014Y-81312003D01*
X61748037Y-81585837D01*
X61622383Y-81838770D01*
X61508000Y-82068891D01*
X61405834Y-82274291D01*
X61316832Y-82453060D01*
X61241940Y-82603285D01*
X61182105Y-82723059D01*
X61138274Y-82810469D01*
X61111392Y-82863607D01*
X61102443Y-82880584D01*
X61083346Y-82871539D01*
X61030471Y-82843040D01*
X60946729Y-82796750D01*
X60835030Y-82734333D01*
X60698286Y-82657452D01*
X60539408Y-82567771D01*
X60361308Y-82466952D01*
X60166897Y-82356658D01*
X59959087Y-82238554D01*
X59740788Y-82114303D01*
X59514912Y-81985567D01*
X59284371Y-81854010D01*
X59052076Y-81721295D01*
X58820937Y-81589086D01*
X58593867Y-81459045D01*
X58373776Y-81332837D01*
X58163577Y-81212124D01*
X57966180Y-81098569D01*
X57784496Y-80993837D01*
X57621438Y-80899590D01*
X57479916Y-80817491D01*
X57362842Y-80749204D01*
X57273127Y-80696392D01*
X57213682Y-80660719D01*
X57187585Y-80643977D01*
X57195985Y-80624735D01*
X57221656Y-80568969D01*
X57263776Y-80478426D01*
X57321522Y-80354853D01*
X57394073Y-80199999D01*
X57480606Y-80015610D01*
X57580298Y-79803433D01*
X57692327Y-79565218D01*
X57815870Y-79302709D01*
X57950106Y-79017657D01*
X58094212Y-78711806D01*
X58247365Y-78386906D01*
X58408743Y-78044704D01*
X58577523Y-77686946D01*
X58752884Y-77315381D01*
X58934002Y-76931755D01*
X59120056Y-76537817D01*
X59130484Y-76515741D01*
X59320862Y-76112466D01*
X59505611Y-75720601D01*
X59683944Y-75341836D01*
X59855074Y-74977859D01*
X60018215Y-74630358D01*
X60172581Y-74301022D01*
X60317383Y-73991540D01*
X60451836Y-73703598D01*
X60575154Y-73438888D01*
X60686548Y-73199095D01*
X60785233Y-72985910D01*
X60870423Y-72801021D01*
X60941329Y-72646116D01*
X60997166Y-72522883D01*
X61037147Y-72433011D01*
X61060485Y-72378189D01*
X61066613Y-72360222D01*
X61056950Y-72339361D01*
X61030235Y-72282381D01*
X60987479Y-72191424D01*
X60929694Y-72068631D01*
X60857889Y-71916146D01*
X60773076Y-71736110D01*
X60676266Y-71530667D01*
X60568468Y-71301958D01*
X60450695Y-71052126D01*
X60323956Y-70783314D01*
X60189263Y-70497663D01*
X60047625Y-70197316D01*
X59900055Y-69884416D01*
X59747563Y-69561105D01*
X59591160Y-69229525D01*
X59431855Y-68891819D01*
X59270661Y-68550129D01*
X59108588Y-68206598D01*
X58946646Y-67863367D01*
X58785847Y-67522580D01*
X58627201Y-67186379D01*
X58471719Y-66856905D01*
X58320412Y-66536302D01*
X58174291Y-66226712D01*
X58034366Y-65930277D01*
X57901648Y-65649140D01*
X57777147Y-65385443D01*
X57661876Y-65141328D01*
X57556844Y-64918939D01*
X57463062Y-64720416D01*
X57381541Y-64547903D01*
X57313292Y-64403543D01*
X57259325Y-64289476D01*
X57220652Y-64207847D01*
X57198283Y-64160797D01*
X57192827Y-64149513D01*
X57172847Y-64142151D01*
X57114969Y-64121671D01*
X57021297Y-64088807D01*
X56893937Y-64044290D01*
X56734994Y-63988852D01*
X56546573Y-63923225D01*
X56330780Y-63848141D01*
X56089721Y-63764332D01*
X55825499Y-63672530D01*
X55540221Y-63573467D01*
X55235992Y-63467875D01*
X54914917Y-63356486D01*
X54579102Y-63240032D01*
X54230651Y-63119245D01*
X53945829Y-63020549D01*
X50701780Y-61896604D01*
X46818280Y-62644039D01*
X46419499Y-62720833D01*
X46031844Y-62795568D01*
X45657363Y-62867846D01*
X45298103Y-62937268D01*
X44956111Y-63003438D01*
X44633433Y-63065955D01*
X44332118Y-63124422D01*
X44054211Y-63178441D01*
X43801759Y-63227614D01*
X43576811Y-63271541D01*
X43381412Y-63309826D01*
X43217610Y-63342070D01*
X43087452Y-63367874D01*
X42992984Y-63386841D01*
X42936254Y-63398572D01*
X42919183Y-63402586D01*
X42907080Y-63421839D01*
X42874976Y-63475847D01*
X42823979Y-63562693D01*
X42755194Y-63680460D01*
X42669727Y-63827231D01*
X42568686Y-64001088D01*
X42453174Y-64200116D01*
X42324300Y-64422395D01*
X42183169Y-64666011D01*
X42030888Y-64929045D01*
X41868561Y-65209580D01*
X41697296Y-65505699D01*
X41518199Y-65815485D01*
X41332376Y-66137022D01*
X41140932Y-66468391D01*
X40944975Y-66807676D01*
X40745610Y-67152960D01*
X40543943Y-67502325D01*
X40341081Y-67853855D01*
X40138130Y-68205632D01*
X39936195Y-68555740D01*
X39736383Y-68902260D01*
X39539801Y-69243277D01*
X39347553Y-69576873D01*
X39160748Y-69901131D01*
X38980489Y-70214133D01*
X38807885Y-70513964D01*
X38644040Y-70798704D01*
X38490061Y-71066439D01*
X38347055Y-71315250D01*
X38216127Y-71543220D01*
X38098383Y-71748432D01*
X37994929Y-71928969D01*
X37906873Y-72082914D01*
X37835319Y-72208351D01*
X37781375Y-72303361D01*
X37746145Y-72366028D01*
X37730737Y-72394434D01*
X37730111Y-72395947D01*
X37735127Y-72417862D01*
X37749891Y-72479137D01*
X37773974Y-72578036D01*
X37806949Y-72712828D01*
X37848390Y-72881778D01*
X37897869Y-73083153D01*
X37954958Y-73315219D01*
X38019230Y-73576243D01*
X38090258Y-73864492D01*
X38167614Y-74178231D01*
X38250871Y-74515727D01*
X38339601Y-74875248D01*
X38433378Y-75255058D01*
X38531774Y-75653425D01*
X38634362Y-76068616D01*
X38740713Y-76498896D01*
X38850402Y-76942532D01*
X38963000Y-77397791D01*
X39022250Y-77637295D01*
X39136157Y-78097874D01*
X39247330Y-78547728D01*
X39355341Y-78985125D01*
X39459767Y-79408330D01*
X39560181Y-79815612D01*
X39656159Y-80205235D01*
X39747275Y-80575467D01*
X39833104Y-80924574D01*
X39913221Y-81250823D01*
X39987201Y-81552481D01*
X40054618Y-81827813D01*
X40115047Y-82075087D01*
X40168062Y-82292570D01*
X40213239Y-82478527D01*
X40250153Y-82631226D01*
X40278377Y-82748933D01*
X40297487Y-82829914D01*
X40307058Y-82872436D01*
X40308125Y-82878770D01*
X40298338Y-82861648D01*
X40270553Y-82808096D01*
X40225528Y-82719636D01*
X40164020Y-82597788D01*
X40086786Y-82444074D01*
X39994584Y-82260017D01*
X39888172Y-82047137D01*
X39768306Y-81806956D01*
X39635745Y-81540996D01*
X39491245Y-81250779D01*
X39335565Y-80937825D01*
X39169461Y-80603657D01*
X38993692Y-80249795D01*
X38809014Y-79877763D01*
X38616186Y-79489080D01*
X38415964Y-79085269D01*
X38209107Y-78667852D01*
X37996371Y-78238349D01*
X37778514Y-77798283D01*
X37708945Y-77657708D01*
X37489477Y-77214149D01*
X37274912Y-76780383D01*
X37066007Y-76357948D01*
X36863521Y-75948383D01*
X36668213Y-75553224D01*
X36480842Y-75174010D01*
X36302165Y-74812279D01*
X36132943Y-74469569D01*
X35973932Y-74147416D01*
X35825893Y-73847360D01*
X35689584Y-73570937D01*
X35565763Y-73319687D01*
X35455189Y-73095145D01*
X35358620Y-72898851D01*
X35276816Y-72732343D01*
X35210536Y-72597157D01*
X35160536Y-72494832D01*
X35127578Y-72426906D01*
X35112418Y-72394916D01*
X35111454Y-72392554D01*
X35120341Y-72371681D01*
X35147280Y-72314418D01*
X35191515Y-72222302D01*
X35252290Y-72096869D01*
X35328850Y-71939654D01*
X35420439Y-71752195D01*
X35526301Y-71536028D01*
X35645680Y-71292689D01*
X35777821Y-71023714D01*
X35921968Y-70730640D01*
X36077364Y-70415003D01*
X36243256Y-70078340D01*
X36418886Y-69722185D01*
X36603498Y-69348077D01*
X36796338Y-68957551D01*
X36996649Y-68552143D01*
X37203676Y-68133390D01*
X37416663Y-67702828D01*
X37634854Y-67261994D01*
X37704371Y-67121594D01*
X40301861Y-61875989D01*
X45502171Y-59624309D01*
X50702480Y-57372628D01*
X55905559Y-59625786D01*
G36*
X64609317Y-95592329D02*
G01*
X64649693Y-95608614D01*
X64725314Y-95640244D01*
X64833790Y-95686185D01*
X64972731Y-95745400D01*
X65139746Y-95816855D01*
X65332446Y-95899514D01*
X65548442Y-95992343D01*
X65785342Y-96094305D01*
X66040758Y-96204367D01*
X66312299Y-96321492D01*
X66597575Y-96444645D01*
X66894197Y-96572792D01*
X67199774Y-96704897D01*
X67511917Y-96839924D01*
X67828235Y-96976840D01*
X68146340Y-97114607D01*
X68463840Y-97252192D01*
X68778346Y-97388559D01*
X69087468Y-97522673D01*
X69388816Y-97653498D01*
X69680000Y-97780000D01*
X69958631Y-97901143D01*
X70222317Y-98015892D01*
X70468671Y-98123212D01*
X70695300Y-98222068D01*
X70899817Y-98311424D01*
X71079829Y-98390245D01*
X71232949Y-98457496D01*
X71356785Y-98512142D01*
X71448949Y-98553148D01*
X71507049Y-98579478D01*
X71528696Y-98590098D01*
X71535807Y-98602329D01*
X71561022Y-98650493D01*
X71603336Y-98733315D01*
X71661807Y-98848905D01*
X71735492Y-98995372D01*
X71823449Y-99170827D01*
X71924736Y-99373378D01*
X72038409Y-99601136D01*
X72163527Y-99852211D01*
X72299146Y-100124712D01*
X72444326Y-100416749D01*
X72598122Y-100726432D01*
X72759593Y-101051870D01*
X72927796Y-101391174D01*
X73101789Y-101742453D01*
X73280628Y-102103817D01*
X75007380Y-105594322D01*
X73276614Y-109094638D01*
X73272288Y-109103386D01*
X73049387Y-109553988D01*
X72844477Y-109967807D01*
X72656945Y-110346057D01*
X72486179Y-110689953D01*
X72331564Y-111000708D01*
X72192488Y-111279537D01*
X72068337Y-111527655D01*
X71958497Y-111746276D01*
X71862356Y-111936614D01*
X71779300Y-112099884D01*
X71708716Y-112237299D01*
X71649991Y-112350075D01*
X71602510Y-112439425D01*
X71565661Y-112506564D01*
X71538830Y-112552707D01*
X71521405Y-112579067D01*
X71512771Y-112586859D01*
X71508698Y-112585352D01*
X71472703Y-112567230D01*
X71405468Y-112530667D01*
X71310571Y-112477741D01*
X71191589Y-112410529D01*
X71052101Y-112331110D01*
X70895684Y-112241561D01*
X70725915Y-112143960D01*
X70546372Y-112040386D01*
X70360633Y-111932915D01*
X70172275Y-111823626D01*
X69984877Y-111714596D01*
X69802015Y-111607904D01*
X69627268Y-111505627D01*
X69464213Y-111409843D01*
X69316427Y-111322630D01*
X69187489Y-111246066D01*
X69080976Y-111182228D01*
X69000466Y-111133195D01*
X68949537Y-111101044D01*
X68931765Y-111087854D01*
X68938657Y-111071190D01*
X68962632Y-111018154D01*
X69002808Y-110930920D01*
X69058168Y-110811651D01*
X69127700Y-110662510D01*
X69210388Y-110485662D01*
X69305217Y-110283270D01*
X69411172Y-110057498D01*
X69527240Y-109810508D01*
X69652405Y-109544465D01*
X69785653Y-109261533D01*
X69925969Y-108963874D01*
X70072337Y-108653652D01*
X70223745Y-108333031D01*
X71515725Y-105598311D01*
X71477870Y-105514277D01*
X71470920Y-105499262D01*
X71446078Y-105446243D01*
X71404917Y-105358716D01*
X71348505Y-105238944D01*
X71277910Y-105089190D01*
X71194202Y-104911717D01*
X71098447Y-104708790D01*
X70991714Y-104482670D01*
X70875071Y-104235621D01*
X70749587Y-103969907D01*
X70616329Y-103687791D01*
X70476367Y-103391535D01*
X70330767Y-103083404D01*
X70180598Y-102765660D01*
X68921182Y-100101076D01*
X66759353Y-99353107D01*
X64597523Y-98605137D01*
X62007436Y-99103509D01*
X61693088Y-99164013D01*
X61379821Y-99224346D01*
X61080658Y-99282002D01*
X60798096Y-99336496D01*
X60534631Y-99387346D01*
X60292761Y-99434069D01*
X60074983Y-99476182D01*
X59883794Y-99513203D01*
X59721691Y-99544648D01*
X59591173Y-99570034D01*
X59494735Y-99588879D01*
X59434875Y-99600700D01*
X59414091Y-99605013D01*
X59406297Y-99618279D01*
X59378474Y-99666206D01*
X59331543Y-99747244D01*
X59266613Y-99859471D01*
X59184795Y-100000963D01*
X59087203Y-100169797D01*
X58974945Y-100364050D01*
X58849133Y-100581800D01*
X58710879Y-100821122D01*
X58561294Y-101080094D01*
X58401488Y-101356792D01*
X58232573Y-101649295D01*
X58055660Y-101955677D01*
X57871860Y-102274017D01*
X57682284Y-102602392D01*
X55953735Y-105596640D01*
X56814978Y-109079392D01*
X56826102Y-109124373D01*
X56918642Y-109498439D01*
X57008440Y-109861172D01*
X57094965Y-110210446D01*
X57177689Y-110544135D01*
X57256084Y-110860113D01*
X57329619Y-111156253D01*
X57397766Y-111430429D01*
X57459997Y-111680516D01*
X57515781Y-111904388D01*
X57564590Y-112099917D01*
X57605894Y-112264978D01*
X57639166Y-112397445D01*
X57663876Y-112495191D01*
X57679494Y-112556092D01*
X57685493Y-112578019D01*
X57687025Y-112581306D01*
X57676945Y-112593894D01*
X57674513Y-112591007D01*
X57655841Y-112558277D01*
X57620297Y-112491172D01*
X57569189Y-112392285D01*
X57503824Y-112264211D01*
X57425509Y-112109542D01*
X57335550Y-111930871D01*
X57235255Y-111730793D01*
X57125931Y-111511900D01*
X57008885Y-111276786D01*
X56885424Y-111028045D01*
X56756855Y-110768269D01*
X56731865Y-110717705D01*
X56575402Y-110401192D01*
X56406570Y-110059746D01*
X56228824Y-109700354D01*
X56045624Y-109330004D01*
X55860426Y-108955684D01*
X55676687Y-108584381D01*
X55497866Y-108223084D01*
X55327420Y-107878779D01*
X55168806Y-107558455D01*
X55025482Y-107269098D01*
X54196379Y-105595553D01*
X55923878Y-102104466D01*
X56057929Y-101833648D01*
X56233305Y-101479604D01*
X56403134Y-101137051D01*
X56566473Y-100807881D01*
X56722380Y-100493982D01*
X56869910Y-100197246D01*
X57008122Y-99919563D01*
X57136073Y-99662823D01*
X57252819Y-99428917D01*
X57357418Y-99219734D01*
X57448926Y-99037164D01*
X57526401Y-98883099D01*
X57588901Y-98759429D01*
X57635481Y-98668043D01*
X57665199Y-98610833D01*
X57677112Y-98589688D01*
X57683199Y-98586403D01*
X57723327Y-98567778D01*
X57798714Y-98533966D01*
X57906968Y-98486002D01*
X58045701Y-98424920D01*
X58212523Y-98351755D01*
X58405044Y-98267543D01*
X58620875Y-98173317D01*
X58857627Y-98070113D01*
X59112910Y-97958966D01*
X59384334Y-97840910D01*
X59669510Y-97716980D01*
X59966049Y-97588212D01*
X60271560Y-97455639D01*
X60583656Y-97320296D01*
X60899945Y-97183219D01*
X61218038Y-97045443D01*
X61535547Y-96908001D01*
X61850081Y-96771930D01*
X62159251Y-96638263D01*
X62460667Y-96508036D01*
X62751940Y-96382282D01*
X63030681Y-96262039D01*
X63294500Y-96148339D01*
X63541007Y-96042218D01*
X63767813Y-95944710D01*
X63972529Y-95856851D01*
X64152764Y-95779675D01*
X64306130Y-95714218D01*
X64430237Y-95661513D01*
X64522695Y-95622596D01*
X64581116Y-95598501D01*
X64603108Y-95590264D01*
X64609317Y-95592329D01*
G37*
X64609317Y-95592329D02*
X64649693Y-95608614D01*
X64725314Y-95640244D01*
X64833790Y-95686185D01*
X64972731Y-95745400D01*
X65139746Y-95816855D01*
X65332446Y-95899514D01*
X65548442Y-95992343D01*
X65785342Y-96094305D01*
X66040758Y-96204367D01*
X66312299Y-96321492D01*
X66597575Y-96444645D01*
X66894197Y-96572792D01*
X67199774Y-96704897D01*
X67511917Y-96839924D01*
X67828235Y-96976840D01*
X68146340Y-97114607D01*
X68463840Y-97252192D01*
X68778346Y-97388559D01*
X69087468Y-97522673D01*
X69388816Y-97653498D01*
X69680000Y-97780000D01*
X69958631Y-97901143D01*
X70222317Y-98015892D01*
X70468671Y-98123212D01*
X70695300Y-98222068D01*
X70899817Y-98311424D01*
X71079829Y-98390245D01*
X71232949Y-98457496D01*
X71356785Y-98512142D01*
X71448949Y-98553148D01*
X71507049Y-98579478D01*
X71528696Y-98590098D01*
X71535807Y-98602329D01*
X71561022Y-98650493D01*
X71603336Y-98733315D01*
X71661807Y-98848905D01*
X71735492Y-98995372D01*
X71823449Y-99170827D01*
X71924736Y-99373378D01*
X72038409Y-99601136D01*
X72163527Y-99852211D01*
X72299146Y-100124712D01*
X72444326Y-100416749D01*
X72598122Y-100726432D01*
X72759593Y-101051870D01*
X72927796Y-101391174D01*
X73101789Y-101742453D01*
X73280628Y-102103817D01*
X75007380Y-105594322D01*
X73276614Y-109094638D01*
X73272288Y-109103386D01*
X73049387Y-109553988D01*
X72844477Y-109967807D01*
X72656945Y-110346057D01*
X72486179Y-110689953D01*
X72331564Y-111000708D01*
X72192488Y-111279537D01*
X72068337Y-111527655D01*
X71958497Y-111746276D01*
X71862356Y-111936614D01*
X71779300Y-112099884D01*
X71708716Y-112237299D01*
X71649991Y-112350075D01*
X71602510Y-112439425D01*
X71565661Y-112506564D01*
X71538830Y-112552707D01*
X71521405Y-112579067D01*
X71512771Y-112586859D01*
X71508698Y-112585352D01*
X71472703Y-112567230D01*
X71405468Y-112530667D01*
X71310571Y-112477741D01*
X71191589Y-112410529D01*
X71052101Y-112331110D01*
X70895684Y-112241561D01*
X70725915Y-112143960D01*
X70546372Y-112040386D01*
X70360633Y-111932915D01*
X70172275Y-111823626D01*
X69984877Y-111714596D01*
X69802015Y-111607904D01*
X69627268Y-111505627D01*
X69464213Y-111409843D01*
X69316427Y-111322630D01*
X69187489Y-111246066D01*
X69080976Y-111182228D01*
X69000466Y-111133195D01*
X68949537Y-111101044D01*
X68931765Y-111087854D01*
X68938657Y-111071190D01*
X68962632Y-111018154D01*
X69002808Y-110930920D01*
X69058168Y-110811651D01*
X69127700Y-110662510D01*
X69210388Y-110485662D01*
X69305217Y-110283270D01*
X69411172Y-110057498D01*
X69527240Y-109810508D01*
X69652405Y-109544465D01*
X69785653Y-109261533D01*
X69925969Y-108963874D01*
X70072337Y-108653652D01*
X70223745Y-108333031D01*
X71515725Y-105598311D01*
X71477870Y-105514277D01*
X71470920Y-105499262D01*
X71446078Y-105446243D01*
X71404917Y-105358716D01*
X71348505Y-105238944D01*
X71277910Y-105089190D01*
X71194202Y-104911717D01*
X71098447Y-104708790D01*
X70991714Y-104482670D01*
X70875071Y-104235621D01*
X70749587Y-103969907D01*
X70616329Y-103687791D01*
X70476367Y-103391535D01*
X70330767Y-103083404D01*
X70180598Y-102765660D01*
X68921182Y-100101076D01*
X66759353Y-99353107D01*
X64597523Y-98605137D01*
X62007436Y-99103509D01*
X61693088Y-99164013D01*
X61379821Y-99224346D01*
X61080658Y-99282002D01*
X60798096Y-99336496D01*
X60534631Y-99387346D01*
X60292761Y-99434069D01*
X60074983Y-99476182D01*
X59883794Y-99513203D01*
X59721691Y-99544648D01*
X59591173Y-99570034D01*
X59494735Y-99588879D01*
X59434875Y-99600700D01*
X59414091Y-99605013D01*
X59406297Y-99618279D01*
X59378474Y-99666206D01*
X59331543Y-99747244D01*
X59266613Y-99859471D01*
X59184795Y-100000963D01*
X59087203Y-100169797D01*
X58974945Y-100364050D01*
X58849133Y-100581800D01*
X58710879Y-100821122D01*
X58561294Y-101080094D01*
X58401488Y-101356792D01*
X58232573Y-101649295D01*
X58055660Y-101955677D01*
X57871860Y-102274017D01*
X57682284Y-102602392D01*
X55953735Y-105596640D01*
X56814978Y-109079392D01*
X56826102Y-109124373D01*
X56918642Y-109498439D01*
X57008440Y-109861172D01*
X57094965Y-110210446D01*
X57177689Y-110544135D01*
X57256084Y-110860113D01*
X57329619Y-111156253D01*
X57397766Y-111430429D01*
X57459997Y-111680516D01*
X57515781Y-111904388D01*
X57564590Y-112099917D01*
X57605894Y-112264978D01*
X57639166Y-112397445D01*
X57663876Y-112495191D01*
X57679494Y-112556092D01*
X57685493Y-112578019D01*
X57687025Y-112581306D01*
X57676945Y-112593894D01*
X57674513Y-112591007D01*
X57655841Y-112558277D01*
X57620297Y-112491172D01*
X57569189Y-112392285D01*
X57503824Y-112264211D01*
X57425509Y-112109542D01*
X57335550Y-111930871D01*
X57235255Y-111730793D01*
X57125931Y-111511900D01*
X57008885Y-111276786D01*
X56885424Y-111028045D01*
X56756855Y-110768269D01*
X56731865Y-110717705D01*
X56575402Y-110401192D01*
X56406570Y-110059746D01*
X56228824Y-109700354D01*
X56045624Y-109330004D01*
X55860426Y-108955684D01*
X55676687Y-108584381D01*
X55497866Y-108223084D01*
X55327420Y-107878779D01*
X55168806Y-107558455D01*
X55025482Y-107269098D01*
X54196379Y-105595553D01*
X55923878Y-102104466D01*
X56057929Y-101833648D01*
X56233305Y-101479604D01*
X56403134Y-101137051D01*
X56566473Y-100807881D01*
X56722380Y-100493982D01*
X56869910Y-100197246D01*
X57008122Y-99919563D01*
X57136073Y-99662823D01*
X57252819Y-99428917D01*
X57357418Y-99219734D01*
X57448926Y-99037164D01*
X57526401Y-98883099D01*
X57588901Y-98759429D01*
X57635481Y-98668043D01*
X57665199Y-98610833D01*
X57677112Y-98589688D01*
X57683199Y-98586403D01*
X57723327Y-98567778D01*
X57798714Y-98533966D01*
X57906968Y-98486002D01*
X58045701Y-98424920D01*
X58212523Y-98351755D01*
X58405044Y-98267543D01*
X58620875Y-98173317D01*
X58857627Y-98070113D01*
X59112910Y-97958966D01*
X59384334Y-97840910D01*
X59669510Y-97716980D01*
X59966049Y-97588212D01*
X60271560Y-97455639D01*
X60583656Y-97320296D01*
X60899945Y-97183219D01*
X61218038Y-97045443D01*
X61535547Y-96908001D01*
X61850081Y-96771930D01*
X62159251Y-96638263D01*
X62460667Y-96508036D01*
X62751940Y-96382282D01*
X63030681Y-96262039D01*
X63294500Y-96148339D01*
X63541007Y-96042218D01*
X63767813Y-95944710D01*
X63972529Y-95856851D01*
X64152764Y-95779675D01*
X64306130Y-95714218D01*
X64430237Y-95661513D01*
X64522695Y-95622596D01*
X64581116Y-95598501D01*
X64603108Y-95590264D01*
X64609317Y-95592329D01*
G36*
X64618884Y-32098501D02*
G01*
X64677305Y-32122596D01*
X64769763Y-32161513D01*
X64893870Y-32214218D01*
X65047236Y-32279675D01*
X65227471Y-32356851D01*
X65432187Y-32444710D01*
X65658993Y-32542218D01*
X65905500Y-32648339D01*
X66169319Y-32762039D01*
X66448060Y-32882282D01*
X66739333Y-33008036D01*
X67040749Y-33138263D01*
X67349919Y-33271930D01*
X67664453Y-33408001D01*
X67981962Y-33545443D01*
X68300055Y-33683219D01*
X68616344Y-33820296D01*
X68928440Y-33955639D01*
X69233951Y-34088212D01*
X69530490Y-34216980D01*
X69815666Y-34340910D01*
X70087090Y-34458966D01*
X70342373Y-34570113D01*
X70579125Y-34673317D01*
X70794956Y-34767543D01*
X70987477Y-34851755D01*
X71154299Y-34924920D01*
X71293032Y-34986002D01*
X71401286Y-35033966D01*
X71476673Y-35067778D01*
X71516801Y-35086403D01*
X71522888Y-35089688D01*
X71534801Y-35110833D01*
X71564519Y-35168043D01*
X71611099Y-35259429D01*
X71673599Y-35383099D01*
X71751074Y-35537164D01*
X71842582Y-35719734D01*
X71947181Y-35928917D01*
X72063927Y-36162823D01*
X72191878Y-36419563D01*
X72330090Y-36697246D01*
X72477620Y-36993982D01*
X72633527Y-37307881D01*
X72796866Y-37637051D01*
X72966695Y-37979604D01*
X73142071Y-38333648D01*
X73276122Y-38604466D01*
X75003621Y-42095553D01*
X74174518Y-43769098D01*
X74031194Y-44058455D01*
X73872580Y-44378779D01*
X73702134Y-44723084D01*
X73523313Y-45084381D01*
X73339574Y-45455684D01*
X73154376Y-45830004D01*
X72971176Y-46200354D01*
X72793430Y-46559746D01*
X72624598Y-46901192D01*
X72468135Y-47217705D01*
X72443145Y-47268269D01*
X72314576Y-47528045D01*
X72191115Y-47776786D01*
X72074069Y-48011900D01*
X71964745Y-48230793D01*
X71864450Y-48430871D01*
X71774491Y-48609542D01*
X71696176Y-48764211D01*
X71630811Y-48892285D01*
X71579703Y-48991172D01*
X71544159Y-49058277D01*
X71525487Y-49091007D01*
X71523055Y-49093894D01*
X71512975Y-49081306D01*
X71514507Y-49078019D01*
X71520506Y-49056092D01*
X71536124Y-48995191D01*
X71560834Y-48897445D01*
X71594106Y-48764978D01*
X71635410Y-48599917D01*
X71684219Y-48404388D01*
X71740003Y-48180516D01*
X71802234Y-47930429D01*
X71870381Y-47656253D01*
X71943916Y-47360113D01*
X72022311Y-47044135D01*
X72105035Y-46710446D01*
X72191560Y-46361172D01*
X72281358Y-45998439D01*
X72373898Y-45624373D01*
X72385022Y-45579392D01*
X73246265Y-42096640D01*
X71517716Y-39102392D01*
X71328140Y-38774017D01*
X71144340Y-38455677D01*
X70967427Y-38149295D01*
X70798512Y-37856792D01*
X70638706Y-37580094D01*
X70489121Y-37321122D01*
X70350867Y-37081800D01*
X70225055Y-36864050D01*
X70112797Y-36669797D01*
X70015205Y-36500963D01*
X69933387Y-36359471D01*
X69868457Y-36247244D01*
X69821526Y-36166206D01*
X69793703Y-36118279D01*
X69785909Y-36105013D01*
X69765125Y-36100700D01*
X69705265Y-36088879D01*
X69608827Y-36070034D01*
X69478309Y-36044648D01*
X69316206Y-36013203D01*
X69125017Y-35976182D01*
X68907239Y-35934069D01*
X68665369Y-35887346D01*
X68401904Y-35836496D01*
X68119342Y-35782002D01*
X67820179Y-35724346D01*
X67506912Y-35664013D01*
X67192564Y-35603509D01*
X64602477Y-35105137D01*
X62440647Y-35853107D01*
X60278818Y-36601076D01*
X59019402Y-39265660D01*
X58869233Y-39583404D01*
X58723633Y-39891535D01*
X58583671Y-40187791D01*
X58450413Y-40469907D01*
X58324929Y-40735621D01*
X58208286Y-40982670D01*
X58101553Y-41208790D01*
X58005798Y-41411717D01*
X57922090Y-41589190D01*
X57851495Y-41738944D01*
X57795083Y-41858716D01*
X57753922Y-41946243D01*
X57729080Y-41999262D01*
X57722130Y-42014277D01*
X57684275Y-42098311D01*
X58976255Y-44833031D01*
X59127663Y-45153652D01*
X59274031Y-45463874D01*
X59414347Y-45761533D01*
X59547595Y-46044465D01*
X59672760Y-46310508D01*
X59788828Y-46557498D01*
X59894783Y-46783270D01*
X59989612Y-46985662D01*
X60072300Y-47162510D01*
X60141832Y-47311651D01*
X60197192Y-47430920D01*
X60237368Y-47518154D01*
X60261343Y-47571190D01*
X60268235Y-47587854D01*
X60250463Y-47601044D01*
X60199534Y-47633195D01*
X60119024Y-47682228D01*
X60012511Y-47746066D01*
X59883573Y-47822630D01*
X59735787Y-47909843D01*
X59572732Y-48005627D01*
X59397985Y-48107904D01*
X59215123Y-48214596D01*
X59027725Y-48323626D01*
X58839367Y-48432915D01*
X58653628Y-48540386D01*
X58474085Y-48643960D01*
X58304316Y-48741561D01*
X58147899Y-48831110D01*
X58008411Y-48910529D01*
X57889429Y-48977741D01*
X57794532Y-49030667D01*
X57727297Y-49067230D01*
X57691302Y-49085352D01*
X57687229Y-49086859D01*
X57678595Y-49079067D01*
X57661170Y-49052707D01*
X57634339Y-49006564D01*
X57597490Y-48939425D01*
X57550009Y-48850075D01*
X57491284Y-48737299D01*
X57420700Y-48599884D01*
X57337644Y-48436614D01*
X57241503Y-48246276D01*
X57131663Y-48027655D01*
X57007512Y-47779537D01*
X56868436Y-47500708D01*
X56713821Y-47189953D01*
X56543055Y-46846057D01*
X56355523Y-46467807D01*
X56150613Y-46053988D01*
X55927712Y-45603386D01*
X55923386Y-45594638D01*
X54192620Y-42094322D01*
X55919372Y-38603817D01*
X56098211Y-38242453D01*
X56272204Y-37891174D01*
X56440407Y-37551870D01*
X56601878Y-37226432D01*
X56755674Y-36916749D01*
X56900854Y-36624712D01*
X57036473Y-36352211D01*
X57161591Y-36101136D01*
X57275264Y-35873378D01*
X57376551Y-35670827D01*
X57464508Y-35495372D01*
X57538193Y-35348905D01*
X57596664Y-35233315D01*
X57638978Y-35150493D01*
X57664193Y-35102329D01*
X57671304Y-35090098D01*
X57692951Y-35079478D01*
X57751051Y-35053148D01*
X57843215Y-35012142D01*
X57967051Y-34957496D01*
X58120171Y-34890245D01*
X58300183Y-34811424D01*
X58504700Y-34722068D01*
X58731329Y-34623212D01*
X58977683Y-34515892D01*
X59241369Y-34401143D01*
X59520000Y-34280000D01*
X59811184Y-34153498D01*
X60112532Y-34022673D01*
X60421654Y-33888559D01*
X60736160Y-33752192D01*
X61053660Y-33614607D01*
X61371765Y-33476840D01*
X61688083Y-33339924D01*
X62000226Y-33204897D01*
X62305803Y-33072792D01*
X62602425Y-32944645D01*
X62887701Y-32821492D01*
X63159242Y-32704367D01*
X63414658Y-32594305D01*
X63651558Y-32492343D01*
X63867554Y-32399514D01*
X64060254Y-32316855D01*
X64227269Y-32245400D01*
X64366210Y-32186185D01*
X64474686Y-32140244D01*
X64550307Y-32108614D01*
X64590683Y-32092329D01*
X64596892Y-32090264D01*
X64618884Y-32098501D01*
G37*
X64618884Y-32098501D02*
X64677305Y-32122596D01*
X64769763Y-32161513D01*
X64893870Y-32214218D01*
X65047236Y-32279675D01*
X65227471Y-32356851D01*
X65432187Y-32444710D01*
X65658993Y-32542218D01*
X65905500Y-32648339D01*
X66169319Y-32762039D01*
X66448060Y-32882282D01*
X66739333Y-33008036D01*
X67040749Y-33138263D01*
X67349919Y-33271930D01*
X67664453Y-33408001D01*
X67981962Y-33545443D01*
X68300055Y-33683219D01*
X68616344Y-33820296D01*
X68928440Y-33955639D01*
X69233951Y-34088212D01*
X69530490Y-34216980D01*
X69815666Y-34340910D01*
X70087090Y-34458966D01*
X70342373Y-34570113D01*
X70579125Y-34673317D01*
X70794956Y-34767543D01*
X70987477Y-34851755D01*
X71154299Y-34924920D01*
X71293032Y-34986002D01*
X71401286Y-35033966D01*
X71476673Y-35067778D01*
X71516801Y-35086403D01*
X71522888Y-35089688D01*
X71534801Y-35110833D01*
X71564519Y-35168043D01*
X71611099Y-35259429D01*
X71673599Y-35383099D01*
X71751074Y-35537164D01*
X71842582Y-35719734D01*
X71947181Y-35928917D01*
X72063927Y-36162823D01*
X72191878Y-36419563D01*
X72330090Y-36697246D01*
X72477620Y-36993982D01*
X72633527Y-37307881D01*
X72796866Y-37637051D01*
X72966695Y-37979604D01*
X73142071Y-38333648D01*
X73276122Y-38604466D01*
X75003621Y-42095553D01*
X74174518Y-43769098D01*
X74031194Y-44058455D01*
X73872580Y-44378779D01*
X73702134Y-44723084D01*
X73523313Y-45084381D01*
X73339574Y-45455684D01*
X73154376Y-45830004D01*
X72971176Y-46200354D01*
X72793430Y-46559746D01*
X72624598Y-46901192D01*
X72468135Y-47217705D01*
X72443145Y-47268269D01*
X72314576Y-47528045D01*
X72191115Y-47776786D01*
X72074069Y-48011900D01*
X71964745Y-48230793D01*
X71864450Y-48430871D01*
X71774491Y-48609542D01*
X71696176Y-48764211D01*
X71630811Y-48892285D01*
X71579703Y-48991172D01*
X71544159Y-49058277D01*
X71525487Y-49091007D01*
X71523055Y-49093894D01*
X71512975Y-49081306D01*
X71514507Y-49078019D01*
X71520506Y-49056092D01*
X71536124Y-48995191D01*
X71560834Y-48897445D01*
X71594106Y-48764978D01*
X71635410Y-48599917D01*
X71684219Y-48404388D01*
X71740003Y-48180516D01*
X71802234Y-47930429D01*
X71870381Y-47656253D01*
X71943916Y-47360113D01*
X72022311Y-47044135D01*
X72105035Y-46710446D01*
X72191560Y-46361172D01*
X72281358Y-45998439D01*
X72373898Y-45624373D01*
X72385022Y-45579392D01*
X73246265Y-42096640D01*
X71517716Y-39102392D01*
X71328140Y-38774017D01*
X71144340Y-38455677D01*
X70967427Y-38149295D01*
X70798512Y-37856792D01*
X70638706Y-37580094D01*
X70489121Y-37321122D01*
X70350867Y-37081800D01*
X70225055Y-36864050D01*
X70112797Y-36669797D01*
X70015205Y-36500963D01*
X69933387Y-36359471D01*
X69868457Y-36247244D01*
X69821526Y-36166206D01*
X69793703Y-36118279D01*
X69785909Y-36105013D01*
X69765125Y-36100700D01*
X69705265Y-36088879D01*
X69608827Y-36070034D01*
X69478309Y-36044648D01*
X69316206Y-36013203D01*
X69125017Y-35976182D01*
X68907239Y-35934069D01*
X68665369Y-35887346D01*
X68401904Y-35836496D01*
X68119342Y-35782002D01*
X67820179Y-35724346D01*
X67506912Y-35664013D01*
X67192564Y-35603509D01*
X64602477Y-35105137D01*
X62440647Y-35853107D01*
X60278818Y-36601076D01*
X59019402Y-39265660D01*
X58869233Y-39583404D01*
X58723633Y-39891535D01*
X58583671Y-40187791D01*
X58450413Y-40469907D01*
X58324929Y-40735621D01*
X58208286Y-40982670D01*
X58101553Y-41208790D01*
X58005798Y-41411717D01*
X57922090Y-41589190D01*
X57851495Y-41738944D01*
X57795083Y-41858716D01*
X57753922Y-41946243D01*
X57729080Y-41999262D01*
X57722130Y-42014277D01*
X57684275Y-42098311D01*
X58976255Y-44833031D01*
X59127663Y-45153652D01*
X59274031Y-45463874D01*
X59414347Y-45761533D01*
X59547595Y-46044465D01*
X59672760Y-46310508D01*
X59788828Y-46557498D01*
X59894783Y-46783270D01*
X59989612Y-46985662D01*
X60072300Y-47162510D01*
X60141832Y-47311651D01*
X60197192Y-47430920D01*
X60237368Y-47518154D01*
X60261343Y-47571190D01*
X60268235Y-47587854D01*
X60250463Y-47601044D01*
X60199534Y-47633195D01*
X60119024Y-47682228D01*
X60012511Y-47746066D01*
X59883573Y-47822630D01*
X59735787Y-47909843D01*
X59572732Y-48005627D01*
X59397985Y-48107904D01*
X59215123Y-48214596D01*
X59027725Y-48323626D01*
X58839367Y-48432915D01*
X58653628Y-48540386D01*
X58474085Y-48643960D01*
X58304316Y-48741561D01*
X58147899Y-48831110D01*
X58008411Y-48910529D01*
X57889429Y-48977741D01*
X57794532Y-49030667D01*
X57727297Y-49067230D01*
X57691302Y-49085352D01*
X57687229Y-49086859D01*
X57678595Y-49079067D01*
X57661170Y-49052707D01*
X57634339Y-49006564D01*
X57597490Y-48939425D01*
X57550009Y-48850075D01*
X57491284Y-48737299D01*
X57420700Y-48599884D01*
X57337644Y-48436614D01*
X57241503Y-48246276D01*
X57131663Y-48027655D01*
X57007512Y-47779537D01*
X56868436Y-47500708D01*
X56713821Y-47189953D01*
X56543055Y-46846057D01*
X56355523Y-46467807D01*
X56150613Y-46053988D01*
X55927712Y-45603386D01*
X55923386Y-45594638D01*
X54192620Y-42094322D01*
X55919372Y-38603817D01*
X56098211Y-38242453D01*
X56272204Y-37891174D01*
X56440407Y-37551870D01*
X56601878Y-37226432D01*
X56755674Y-36916749D01*
X56900854Y-36624712D01*
X57036473Y-36352211D01*
X57161591Y-36101136D01*
X57275264Y-35873378D01*
X57376551Y-35670827D01*
X57464508Y-35495372D01*
X57538193Y-35348905D01*
X57596664Y-35233315D01*
X57638978Y-35150493D01*
X57664193Y-35102329D01*
X57671304Y-35090098D01*
X57692951Y-35079478D01*
X57751051Y-35053148D01*
X57843215Y-35012142D01*
X57967051Y-34957496D01*
X58120171Y-34890245D01*
X58300183Y-34811424D01*
X58504700Y-34722068D01*
X58731329Y-34623212D01*
X58977683Y-34515892D01*
X59241369Y-34401143D01*
X59520000Y-34280000D01*
X59811184Y-34153498D01*
X60112532Y-34022673D01*
X60421654Y-33888559D01*
X60736160Y-33752192D01*
X61053660Y-33614607D01*
X61371765Y-33476840D01*
X61688083Y-33339924D01*
X62000226Y-33204897D01*
X62305803Y-33072792D01*
X62602425Y-32944645D01*
X62887701Y-32821492D01*
X63159242Y-32704367D01*
X63414658Y-32594305D01*
X63651558Y-32492343D01*
X63867554Y-32399514D01*
X64060254Y-32316855D01*
X64227269Y-32245400D01*
X64366210Y-32186185D01*
X64474686Y-32140244D01*
X64550307Y-32108614D01*
X64590683Y-32092329D01*
X64596892Y-32090264D01*
X64618884Y-32098501D01*
G36*
X69731608Y-119799682D02*
G01*
X73263168Y-119800733D01*
X74131001Y-120303689D01*
X74998834Y-120806646D01*
X74998834Y-130828863D01*
X73284334Y-131820271D01*
X66299334Y-131817093D01*
X65452668Y-131324978D01*
X64606001Y-130832862D01*
X64601313Y-125818455D01*
X64596625Y-120804049D01*
X65398336Y-120301340D01*
X66200048Y-119798632D01*
X69731608Y-119799682D01*
G37*
X69731608Y-119799682D02*
X73263168Y-119800733D01*
X74131001Y-120303689D01*
X74998834Y-120806646D01*
X74998834Y-130828863D01*
X73284334Y-131820271D01*
X66299334Y-131817093D01*
X65452668Y-131324978D01*
X64606001Y-130832862D01*
X64601313Y-125818455D01*
X64596625Y-120804049D01*
X65398336Y-120301340D01*
X66200048Y-119798632D01*
X69731608Y-119799682D01*
G36*
X36718884Y-32098501D02*
G01*
X36777305Y-32122596D01*
X36869763Y-32161513D01*
X36993870Y-32214218D01*
X37147236Y-32279675D01*
X37327471Y-32356851D01*
X37532187Y-32444710D01*
X37758993Y-32542218D01*
X38005500Y-32648339D01*
X38269319Y-32762039D01*
X38548060Y-32882282D01*
X38839333Y-33008036D01*
X39140749Y-33138263D01*
X39449919Y-33271930D01*
X39764453Y-33408001D01*
X40081962Y-33545443D01*
X40400055Y-33683219D01*
X40716344Y-33820296D01*
X41028440Y-33955639D01*
X41333951Y-34088212D01*
X41630490Y-34216980D01*
X41915666Y-34340910D01*
X42187090Y-34458966D01*
X42442373Y-34570113D01*
X42679125Y-34673317D01*
X42894956Y-34767543D01*
X43087477Y-34851755D01*
X43254299Y-34924920D01*
X43393032Y-34986002D01*
X43501286Y-35033966D01*
X43576673Y-35067778D01*
X43616801Y-35086403D01*
X43622888Y-35089688D01*
X43634801Y-35110833D01*
X43664519Y-35168043D01*
X43711099Y-35259429D01*
X43773599Y-35383099D01*
X43851074Y-35537164D01*
X43942582Y-35719734D01*
X44047181Y-35928917D01*
X44163927Y-36162823D01*
X44291878Y-36419563D01*
X44430090Y-36697246D01*
X44577620Y-36993982D01*
X44733527Y-37307881D01*
X44896866Y-37637051D01*
X45066695Y-37979604D01*
X45242071Y-38333648D01*
X45376122Y-38604466D01*
X47103621Y-42095553D01*
X46274518Y-43769098D01*
X46131194Y-44058455D01*
X45972580Y-44378779D01*
X45802134Y-44723084D01*
X45623313Y-45084381D01*
X45439574Y-45455684D01*
X45254376Y-45830004D01*
X45071176Y-46200354D01*
X44893430Y-46559746D01*
X44724598Y-46901192D01*
X44568135Y-47217705D01*
X44543145Y-47268269D01*
X44414576Y-47528045D01*
X44291115Y-47776786D01*
X44174069Y-48011900D01*
X44064745Y-48230793D01*
X43964450Y-48430871D01*
X43874491Y-48609542D01*
X43796176Y-48764211D01*
X43730811Y-48892285D01*
X43679703Y-48991172D01*
X43644159Y-49058277D01*
X43625487Y-49091007D01*
X43623055Y-49093894D01*
X43612975Y-49081306D01*
X43614507Y-49078019D01*
X43620506Y-49056092D01*
X43636124Y-48995191D01*
X43660834Y-48897445D01*
X43694106Y-48764978D01*
X43735410Y-48599917D01*
X43784219Y-48404388D01*
X43840003Y-48180516D01*
X43902234Y-47930429D01*
X43970381Y-47656253D01*
X44043916Y-47360113D01*
X44122311Y-47044135D01*
X44205035Y-46710446D01*
X44291560Y-46361172D01*
X44381358Y-45998439D01*
X44473898Y-45624373D01*
X44485022Y-45579392D01*
X45346265Y-42096640D01*
X43617716Y-39102392D01*
X43428140Y-38774017D01*
X43244340Y-38455677D01*
X43067427Y-38149295D01*
X42898512Y-37856792D01*
X42738706Y-37580094D01*
X42589121Y-37321122D01*
X42450867Y-37081800D01*
X42325055Y-36864050D01*
X42212797Y-36669797D01*
X42115205Y-36500963D01*
X42033387Y-36359471D01*
X41968457Y-36247244D01*
X41921526Y-36166206D01*
X41893703Y-36118279D01*
X41885909Y-36105013D01*
X41865125Y-36100700D01*
X41805265Y-36088879D01*
X41708827Y-36070034D01*
X41578309Y-36044648D01*
X41416206Y-36013203D01*
X41225017Y-35976182D01*
X41007239Y-35934069D01*
X40765369Y-35887346D01*
X40501904Y-35836496D01*
X40219342Y-35782002D01*
X39920179Y-35724346D01*
X39606912Y-35664013D01*
X39292564Y-35603509D01*
X36702477Y-35105137D01*
X34540647Y-35853107D01*
X32378818Y-36601076D01*
X31119402Y-39265660D01*
X30969233Y-39583404D01*
X30823633Y-39891535D01*
X30683671Y-40187791D01*
X30550413Y-40469907D01*
X30424929Y-40735621D01*
X30308286Y-40982670D01*
X30201553Y-41208790D01*
X30105798Y-41411717D01*
X30022090Y-41589190D01*
X29951495Y-41738944D01*
X29895083Y-41858716D01*
X29853922Y-41946243D01*
X29829080Y-41999262D01*
X29822130Y-42014277D01*
X29784275Y-42098311D01*
X31076255Y-44833031D01*
X31227663Y-45153652D01*
X31374031Y-45463874D01*
X31514347Y-45761533D01*
X31647595Y-46044465D01*
X31772760Y-46310508D01*
X31888828Y-46557498D01*
X31994783Y-46783270D01*
X32089612Y-46985662D01*
X32172300Y-47162510D01*
X32241832Y-47311651D01*
X32297192Y-47430920D01*
X32337368Y-47518154D01*
X32361343Y-47571190D01*
X32368235Y-47587854D01*
X32350463Y-47601044D01*
X32299534Y-47633195D01*
X32219024Y-47682228D01*
X32112511Y-47746066D01*
X31983573Y-47822630D01*
X31835787Y-47909843D01*
X31672732Y-48005627D01*
X31497985Y-48107904D01*
X31315123Y-48214596D01*
X31127725Y-48323626D01*
X30939367Y-48432915D01*
X30753628Y-48540386D01*
X30574085Y-48643960D01*
X30404316Y-48741561D01*
X30247899Y-48831110D01*
X30108411Y-48910529D01*
X29989429Y-48977741D01*
X29894532Y-49030667D01*
X29827297Y-49067230D01*
X29791302Y-49085352D01*
X29787229Y-49086859D01*
X29778595Y-49079067D01*
X29761170Y-49052707D01*
X29734339Y-49006564D01*
X29697490Y-48939425D01*
X29650009Y-48850075D01*
X29591284Y-48737299D01*
X29520700Y-48599884D01*
X29437644Y-48436614D01*
X29341503Y-48246276D01*
X29231663Y-48027655D01*
X29107512Y-47779537D01*
X28968436Y-47500708D01*
X28813821Y-47189953D01*
X28643055Y-46846057D01*
X28455523Y-46467807D01*
X28250613Y-46053988D01*
X28027712Y-45603386D01*
X28023386Y-45594638D01*
X26292620Y-42094322D01*
X28019372Y-38603817D01*
X28198211Y-38242453D01*
X28372204Y-37891174D01*
X28540407Y-37551870D01*
X28701878Y-37226432D01*
X28855674Y-36916749D01*
X29000854Y-36624712D01*
X29136473Y-36352211D01*
X29261591Y-36101136D01*
X29375264Y-35873378D01*
X29476551Y-35670827D01*
X29564508Y-35495372D01*
X29638193Y-35348905D01*
X29696664Y-35233315D01*
X29738978Y-35150493D01*
X29764193Y-35102329D01*
X29771304Y-35090098D01*
X29792951Y-35079478D01*
X29851051Y-35053148D01*
X29943215Y-35012142D01*
X30067051Y-34957496D01*
X30220171Y-34890245D01*
X30400183Y-34811424D01*
X30604700Y-34722068D01*
X30831329Y-34623212D01*
X31077683Y-34515892D01*
X31341369Y-34401143D01*
X31620000Y-34280000D01*
X31911184Y-34153498D01*
X32212532Y-34022673D01*
X32521654Y-33888559D01*
X32836160Y-33752192D01*
X33153660Y-33614607D01*
X33471765Y-33476840D01*
X33788083Y-33339924D01*
X34100226Y-33204897D01*
X34405803Y-33072792D01*
X34702425Y-32944645D01*
X34987701Y-32821492D01*
X35259242Y-32704367D01*
X35514658Y-32594305D01*
X35751558Y-32492343D01*
X35967554Y-32399514D01*
X36160254Y-32316855D01*
X36327269Y-32245400D01*
X36466210Y-32186185D01*
X36574686Y-32140244D01*
X36650307Y-32108614D01*
X36690683Y-32092329D01*
X36696892Y-32090264D01*
X36718884Y-32098501D01*
G37*
X36718884Y-32098501D02*
X36777305Y-32122596D01*
X36869763Y-32161513D01*
X36993870Y-32214218D01*
X37147236Y-32279675D01*
X37327471Y-32356851D01*
X37532187Y-32444710D01*
X37758993Y-32542218D01*
X38005500Y-32648339D01*
X38269319Y-32762039D01*
X38548060Y-32882282D01*
X38839333Y-33008036D01*
X39140749Y-33138263D01*
X39449919Y-33271930D01*
X39764453Y-33408001D01*
X40081962Y-33545443D01*
X40400055Y-33683219D01*
X40716344Y-33820296D01*
X41028440Y-33955639D01*
X41333951Y-34088212D01*
X41630490Y-34216980D01*
X41915666Y-34340910D01*
X42187090Y-34458966D01*
X42442373Y-34570113D01*
X42679125Y-34673317D01*
X42894956Y-34767543D01*
X43087477Y-34851755D01*
X43254299Y-34924920D01*
X43393032Y-34986002D01*
X43501286Y-35033966D01*
X43576673Y-35067778D01*
X43616801Y-35086403D01*
X43622888Y-35089688D01*
X43634801Y-35110833D01*
X43664519Y-35168043D01*
X43711099Y-35259429D01*
X43773599Y-35383099D01*
X43851074Y-35537164D01*
X43942582Y-35719734D01*
X44047181Y-35928917D01*
X44163927Y-36162823D01*
X44291878Y-36419563D01*
X44430090Y-36697246D01*
X44577620Y-36993982D01*
X44733527Y-37307881D01*
X44896866Y-37637051D01*
X45066695Y-37979604D01*
X45242071Y-38333648D01*
X45376122Y-38604466D01*
X47103621Y-42095553D01*
X46274518Y-43769098D01*
X46131194Y-44058455D01*
X45972580Y-44378779D01*
X45802134Y-44723084D01*
X45623313Y-45084381D01*
X45439574Y-45455684D01*
X45254376Y-45830004D01*
X45071176Y-46200354D01*
X44893430Y-46559746D01*
X44724598Y-46901192D01*
X44568135Y-47217705D01*
X44543145Y-47268269D01*
X44414576Y-47528045D01*
X44291115Y-47776786D01*
X44174069Y-48011900D01*
X44064745Y-48230793D01*
X43964450Y-48430871D01*
X43874491Y-48609542D01*
X43796176Y-48764211D01*
X43730811Y-48892285D01*
X43679703Y-48991172D01*
X43644159Y-49058277D01*
X43625487Y-49091007D01*
X43623055Y-49093894D01*
X43612975Y-49081306D01*
X43614507Y-49078019D01*
X43620506Y-49056092D01*
X43636124Y-48995191D01*
X43660834Y-48897445D01*
X43694106Y-48764978D01*
X43735410Y-48599917D01*
X43784219Y-48404388D01*
X43840003Y-48180516D01*
X43902234Y-47930429D01*
X43970381Y-47656253D01*
X44043916Y-47360113D01*
X44122311Y-47044135D01*
X44205035Y-46710446D01*
X44291560Y-46361172D01*
X44381358Y-45998439D01*
X44473898Y-45624373D01*
X44485022Y-45579392D01*
X45346265Y-42096640D01*
X43617716Y-39102392D01*
X43428140Y-38774017D01*
X43244340Y-38455677D01*
X43067427Y-38149295D01*
X42898512Y-37856792D01*
X42738706Y-37580094D01*
X42589121Y-37321122D01*
X42450867Y-37081800D01*
X42325055Y-36864050D01*
X42212797Y-36669797D01*
X42115205Y-36500963D01*
X42033387Y-36359471D01*
X41968457Y-36247244D01*
X41921526Y-36166206D01*
X41893703Y-36118279D01*
X41885909Y-36105013D01*
X41865125Y-36100700D01*
X41805265Y-36088879D01*
X41708827Y-36070034D01*
X41578309Y-36044648D01*
X41416206Y-36013203D01*
X41225017Y-35976182D01*
X41007239Y-35934069D01*
X40765369Y-35887346D01*
X40501904Y-35836496D01*
X40219342Y-35782002D01*
X39920179Y-35724346D01*
X39606912Y-35664013D01*
X39292564Y-35603509D01*
X36702477Y-35105137D01*
X34540647Y-35853107D01*
X32378818Y-36601076D01*
X31119402Y-39265660D01*
X30969233Y-39583404D01*
X30823633Y-39891535D01*
X30683671Y-40187791D01*
X30550413Y-40469907D01*
X30424929Y-40735621D01*
X30308286Y-40982670D01*
X30201553Y-41208790D01*
X30105798Y-41411717D01*
X30022090Y-41589190D01*
X29951495Y-41738944D01*
X29895083Y-41858716D01*
X29853922Y-41946243D01*
X29829080Y-41999262D01*
X29822130Y-42014277D01*
X29784275Y-42098311D01*
X31076255Y-44833031D01*
X31227663Y-45153652D01*
X31374031Y-45463874D01*
X31514347Y-45761533D01*
X31647595Y-46044465D01*
X31772760Y-46310508D01*
X31888828Y-46557498D01*
X31994783Y-46783270D01*
X32089612Y-46985662D01*
X32172300Y-47162510D01*
X32241832Y-47311651D01*
X32297192Y-47430920D01*
X32337368Y-47518154D01*
X32361343Y-47571190D01*
X32368235Y-47587854D01*
X32350463Y-47601044D01*
X32299534Y-47633195D01*
X32219024Y-47682228D01*
X32112511Y-47746066D01*
X31983573Y-47822630D01*
X31835787Y-47909843D01*
X31672732Y-48005627D01*
X31497985Y-48107904D01*
X31315123Y-48214596D01*
X31127725Y-48323626D01*
X30939367Y-48432915D01*
X30753628Y-48540386D01*
X30574085Y-48643960D01*
X30404316Y-48741561D01*
X30247899Y-48831110D01*
X30108411Y-48910529D01*
X29989429Y-48977741D01*
X29894532Y-49030667D01*
X29827297Y-49067230D01*
X29791302Y-49085352D01*
X29787229Y-49086859D01*
X29778595Y-49079067D01*
X29761170Y-49052707D01*
X29734339Y-49006564D01*
X29697490Y-48939425D01*
X29650009Y-48850075D01*
X29591284Y-48737299D01*
X29520700Y-48599884D01*
X29437644Y-48436614D01*
X29341503Y-48246276D01*
X29231663Y-48027655D01*
X29107512Y-47779537D01*
X28968436Y-47500708D01*
X28813821Y-47189953D01*
X28643055Y-46846057D01*
X28455523Y-46467807D01*
X28250613Y-46053988D01*
X28027712Y-45603386D01*
X28023386Y-45594638D01*
X26292620Y-42094322D01*
X28019372Y-38603817D01*
X28198211Y-38242453D01*
X28372204Y-37891174D01*
X28540407Y-37551870D01*
X28701878Y-37226432D01*
X28855674Y-36916749D01*
X29000854Y-36624712D01*
X29136473Y-36352211D01*
X29261591Y-36101136D01*
X29375264Y-35873378D01*
X29476551Y-35670827D01*
X29564508Y-35495372D01*
X29638193Y-35348905D01*
X29696664Y-35233315D01*
X29738978Y-35150493D01*
X29764193Y-35102329D01*
X29771304Y-35090098D01*
X29792951Y-35079478D01*
X29851051Y-35053148D01*
X29943215Y-35012142D01*
X30067051Y-34957496D01*
X30220171Y-34890245D01*
X30400183Y-34811424D01*
X30604700Y-34722068D01*
X30831329Y-34623212D01*
X31077683Y-34515892D01*
X31341369Y-34401143D01*
X31620000Y-34280000D01*
X31911184Y-34153498D01*
X32212532Y-34022673D01*
X32521654Y-33888559D01*
X32836160Y-33752192D01*
X33153660Y-33614607D01*
X33471765Y-33476840D01*
X33788083Y-33339924D01*
X34100226Y-33204897D01*
X34405803Y-33072792D01*
X34702425Y-32944645D01*
X34987701Y-32821492D01*
X35259242Y-32704367D01*
X35514658Y-32594305D01*
X35751558Y-32492343D01*
X35967554Y-32399514D01*
X36160254Y-32316855D01*
X36327269Y-32245400D01*
X36466210Y-32186185D01*
X36574686Y-32140244D01*
X36650307Y-32108614D01*
X36690683Y-32092329D01*
X36696892Y-32090264D01*
X36718884Y-32098501D01*
D13*
X66200000Y-46400000D03*
X63000000Y-46400000D03*
X66100000Y-110000000D03*
X63000000Y-110000000D03*
X69600000Y-119000000D03*
X57000000Y-121000000D03*
X44300000Y-121000000D03*
X54000000Y-77000000D03*
X52000000Y-77500000D03*
X50000000Y-77500000D03*
X48000000Y-77000000D03*
X39000000Y-46400000D03*
X35000000Y-46400000D03*
X32000000Y-107000000D03*
X33300000Y-108700000D03*
X31600000Y-120900000D03*
D14*
X45100000Y-50100000D02*
X47100000Y-50100000D01*
X47100000Y-50100000D02*
X48000000Y-51000000D01*
X48000000Y-51000000D02*
X61000000Y-51000000D01*
X61000000Y-51000000D02*
X63000000Y-49000000D01*
X63000000Y-49000000D02*
X63000000Y-46400000D01*
D15*
X75050000Y-92050000D02*
X79100000Y-96100000D01*
D14*
X73000000Y-90000000D02*
X75050000Y-92050000D01*
D15*
X75000000Y-92000000D02*
X75050000Y-92050000D01*
D14*
X66200000Y-46400000D02*
X66200000Y-48200000D01*
X66200000Y-48200000D02*
X67000000Y-49000000D01*
X67000000Y-49000000D02*
X70000000Y-49000000D01*
X70000000Y-49000000D02*
X73000000Y-52000000D01*
X73000000Y-52000000D02*
X73000000Y-90000000D01*
D15*
X55000000Y-92000000D02*
X64000000Y-92000000D01*
X64000000Y-92000000D02*
X75000000Y-92000000D01*
X54000000Y-77000000D02*
X54000000Y-91000000D01*
X54000000Y-91000000D02*
X55000000Y-92000000D01*
X79100000Y-112000000D02*
X76100000Y-115000000D01*
X79100000Y-96100000D02*
X79100000Y-112000000D01*
X76100000Y-115000000D02*
X72000000Y-115000000D01*
X69600000Y-117400000D02*
X69600000Y-119000000D01*
X72000000Y-115000000D02*
X69600000Y-117400000D01*
D14*
X66100000Y-110000000D02*
X69000000Y-112900000D01*
X69000000Y-112900000D02*
X69000000Y-113000000D01*
X69000000Y-113000000D02*
X75100000Y-113000000D01*
X75100000Y-113000000D02*
X77000000Y-111100000D01*
X77000000Y-111100000D02*
X77000000Y-97000000D01*
X77000000Y-97000000D02*
X73900000Y-93900000D01*
X54000000Y-93900000D02*
X52000000Y-91900000D01*
X73900000Y-93900000D02*
X54000000Y-93900000D01*
X52000000Y-91900000D02*
X52000000Y-77500000D01*
X57000000Y-121000000D02*
X50000000Y-114000000D01*
X50000000Y-114000000D02*
X50000000Y-77500000D01*
X44300000Y-121000000D02*
X47000000Y-121000000D01*
X50100000Y-124100000D02*
X50100000Y-128100000D01*
X50100000Y-128100000D02*
X53000000Y-131000000D01*
X47000000Y-121000000D02*
X50100000Y-124100000D01*
X53000000Y-131000000D02*
X61000000Y-131000000D01*
X61000000Y-131000000D02*
X63000000Y-129000000D01*
X63000000Y-129000000D02*
X63000000Y-121000000D01*
X60000000Y-113000000D02*
X63000000Y-110000000D01*
X63000000Y-121000000D02*
X60000000Y-118000000D01*
X60000000Y-118000000D02*
X60000000Y-113000000D01*
D15*
X31600000Y-120900000D02*
X32000000Y-120500000D01*
X32000000Y-120500000D02*
X32000000Y-110000000D01*
X32000000Y-110000000D02*
X33300000Y-108700000D01*
D14*
X39000000Y-46400000D02*
X39000000Y-48000000D01*
X47000000Y-55000000D02*
X44000000Y-58000000D01*
X44000000Y-58000000D02*
X36000000Y-58000000D01*
X36000000Y-58000000D02*
X34000000Y-60000000D01*
X34000000Y-60000000D02*
X34000000Y-82000000D01*
X39000000Y-48000000D02*
X41100000Y-50100000D01*
X47000000Y-52000000D02*
X47000000Y-55000000D01*
X41100000Y-50100000D02*
X45100000Y-50100000D01*
X45100000Y-50100000D02*
X47000000Y-52000000D01*
X46000000Y-84000000D02*
X48000000Y-82000000D01*
X34000000Y-82000000D02*
X36000000Y-84000000D01*
X36000000Y-84000000D02*
X46000000Y-84000000D01*
X48000000Y-82000000D02*
X48000000Y-77000000D01*
X32000000Y-107000000D02*
X30900000Y-108100000D01*
X30900000Y-108100000D02*
X30900000Y-113100000D01*
X30900000Y-113100000D02*
X30000000Y-114000000D01*
X35000000Y-48000000D02*
X35000000Y-46400000D01*
X30000000Y-114000000D02*
X25000000Y-114000000D01*
X24000000Y-113000000D02*
X24000000Y-54000000D01*
X25000000Y-114000000D02*
X24000000Y-113000000D01*
X24000000Y-54000000D02*
X28000000Y-50000000D01*
X28000000Y-50000000D02*
X33000000Y-50000000D01*
X33000000Y-50000000D02*
X35000000Y-48000000D01*
M02*
