G04 #@! TF.GenerationSoftware,KiCad,Pcbnew,(6.0.9)*
G04 #@! TF.CreationDate,2022-12-13T22:51:58+01:00*
G04 #@! TF.ProjectId,filter-face,66696c74-6572-42d6-9661-63652e6b6963,rev?*
G04 #@! TF.SameCoordinates,Original*
G04 #@! TF.FileFunction,Legend,Bot*
G04 #@! TF.FilePolarity,Positive*
%FSLAX46Y46*%
G04 Gerber Fmt 4.6, Leading zero omitted, Abs format (unit mm)*
G04 Created by KiCad (PCBNEW (6.0.9)) date 2022-12-13 22:51:58*
%MOMM*%
%LPD*%
G01*
G04 APERTURE LIST*
%ADD10C,0.150000*%
G04 APERTURE END LIST*
D10*
X63604761Y-26061428D02*
X62842857Y-26061428D01*
X63319047Y-27394761D02*
X63319047Y-25680476D01*
X63223809Y-25490000D01*
X63033333Y-25394761D01*
X62842857Y-25394761D01*
X62176190Y-27394761D02*
X62176190Y-26061428D01*
X62176190Y-26442380D02*
X62080952Y-26251904D01*
X61985714Y-26156666D01*
X61795238Y-26061428D01*
X61604761Y-26061428D01*
X60080952Y-27394761D02*
X60080952Y-26347142D01*
X60176190Y-26156666D01*
X60366666Y-26061428D01*
X60747619Y-26061428D01*
X60938095Y-26156666D01*
X60080952Y-27299523D02*
X60271428Y-27394761D01*
X60747619Y-27394761D01*
X60938095Y-27299523D01*
X61033333Y-27109047D01*
X61033333Y-26918571D01*
X60938095Y-26728095D01*
X60747619Y-26632857D01*
X60271428Y-26632857D01*
X60080952Y-26537619D01*
X58271428Y-27299523D02*
X58461904Y-27394761D01*
X58842857Y-27394761D01*
X59033333Y-27299523D01*
X59128571Y-27204285D01*
X59223809Y-27013809D01*
X59223809Y-26442380D01*
X59128571Y-26251904D01*
X59033333Y-26156666D01*
X58842857Y-26061428D01*
X58461904Y-26061428D01*
X58271428Y-26156666D01*
X57700000Y-26061428D02*
X56938095Y-26061428D01*
X57414285Y-25394761D02*
X57414285Y-27109047D01*
X57319047Y-27299523D01*
X57128571Y-27394761D01*
X56938095Y-27394761D01*
X55414285Y-27394761D02*
X55414285Y-26347142D01*
X55509523Y-26156666D01*
X55700000Y-26061428D01*
X56080952Y-26061428D01*
X56271428Y-26156666D01*
X55414285Y-27299523D02*
X55604761Y-27394761D01*
X56080952Y-27394761D01*
X56271428Y-27299523D01*
X56366666Y-27109047D01*
X56366666Y-26918571D01*
X56271428Y-26728095D01*
X56080952Y-26632857D01*
X55604761Y-26632857D01*
X55414285Y-26537619D01*
X54176190Y-27394761D02*
X54366666Y-27299523D01*
X54461904Y-27109047D01*
X54461904Y-25394761D01*
X53890476Y-27585238D02*
X52366666Y-27585238D01*
X51604761Y-27394761D02*
X51795238Y-27299523D01*
X51890476Y-27204285D01*
X51985714Y-27013809D01*
X51985714Y-26442380D01*
X51890476Y-26251904D01*
X51795238Y-26156666D01*
X51604761Y-26061428D01*
X51319047Y-26061428D01*
X51128571Y-26156666D01*
X51033333Y-26251904D01*
X50938095Y-26442380D01*
X50938095Y-27013809D01*
X51033333Y-27204285D01*
X51128571Y-27299523D01*
X51319047Y-27394761D01*
X51604761Y-27394761D01*
X50080952Y-27394761D02*
X50080952Y-25394761D01*
X50080952Y-26156666D02*
X49890476Y-26061428D01*
X49509523Y-26061428D01*
X49319047Y-26156666D01*
X49223809Y-26251904D01*
X49128571Y-26442380D01*
X49128571Y-27013809D01*
X49223809Y-27204285D01*
X49319047Y-27299523D01*
X49509523Y-27394761D01*
X49890476Y-27394761D01*
X50080952Y-27299523D01*
X48366666Y-27299523D02*
X48176190Y-27394761D01*
X47795238Y-27394761D01*
X47604761Y-27299523D01*
X47509523Y-27109047D01*
X47509523Y-27013809D01*
X47604761Y-26823333D01*
X47795238Y-26728095D01*
X48080952Y-26728095D01*
X48271428Y-26632857D01*
X48366666Y-26442380D01*
X48366666Y-26347142D01*
X48271428Y-26156666D01*
X48080952Y-26061428D01*
X47795238Y-26061428D01*
X47604761Y-26156666D01*
X45890476Y-27299523D02*
X46080952Y-27394761D01*
X46461904Y-27394761D01*
X46652380Y-27299523D01*
X46747619Y-27109047D01*
X46747619Y-26347142D01*
X46652380Y-26156666D01*
X46461904Y-26061428D01*
X46080952Y-26061428D01*
X45890476Y-26156666D01*
X45795238Y-26347142D01*
X45795238Y-26537619D01*
X46747619Y-26728095D01*
X45033333Y-27299523D02*
X44842857Y-27394761D01*
X44461904Y-27394761D01*
X44271428Y-27299523D01*
X44176190Y-27109047D01*
X44176190Y-27013809D01*
X44271428Y-26823333D01*
X44461904Y-26728095D01*
X44747619Y-26728095D01*
X44938095Y-26632857D01*
X45033333Y-26442380D01*
X45033333Y-26347142D01*
X44938095Y-26156666D01*
X44747619Y-26061428D01*
X44461904Y-26061428D01*
X44271428Y-26156666D01*
X43414285Y-27299523D02*
X43223809Y-27394761D01*
X42842857Y-27394761D01*
X42652380Y-27299523D01*
X42557142Y-27109047D01*
X42557142Y-27013809D01*
X42652380Y-26823333D01*
X42842857Y-26728095D01*
X43128571Y-26728095D01*
X43319047Y-26632857D01*
X43414285Y-26442380D01*
X43414285Y-26347142D01*
X43319047Y-26156666D01*
X43128571Y-26061428D01*
X42842857Y-26061428D01*
X42652380Y-26156666D01*
X41700000Y-27394761D02*
X41700000Y-26061428D01*
X41700000Y-25394761D02*
X41795238Y-25490000D01*
X41700000Y-25585238D01*
X41604761Y-25490000D01*
X41700000Y-25394761D01*
X41700000Y-25585238D01*
X40461904Y-27394761D02*
X40652380Y-27299523D01*
X40747619Y-27204285D01*
X40842857Y-27013809D01*
X40842857Y-26442380D01*
X40747619Y-26251904D01*
X40652380Y-26156666D01*
X40461904Y-26061428D01*
X40176190Y-26061428D01*
X39985714Y-26156666D01*
X39890476Y-26251904D01*
X39795238Y-26442380D01*
X39795238Y-27013809D01*
X39890476Y-27204285D01*
X39985714Y-27299523D01*
X40176190Y-27394761D01*
X40461904Y-27394761D01*
X38938095Y-26061428D02*
X38938095Y-27394761D01*
X38938095Y-26251904D02*
X38842857Y-26156666D01*
X38652380Y-26061428D01*
X38366666Y-26061428D01*
X38176190Y-26156666D01*
X38080952Y-26347142D01*
X38080952Y-27394761D01*
X60414285Y-28805238D02*
X60319047Y-28710000D01*
X60128571Y-28614761D01*
X59652380Y-28614761D01*
X59461904Y-28710000D01*
X59366666Y-28805238D01*
X59271428Y-28995714D01*
X59271428Y-29186190D01*
X59366666Y-29471904D01*
X60509523Y-30614761D01*
X59271428Y-30614761D01*
X58033333Y-28614761D02*
X57842857Y-28614761D01*
X57652380Y-28710000D01*
X57557142Y-28805238D01*
X57461904Y-28995714D01*
X57366666Y-29376666D01*
X57366666Y-29852857D01*
X57461904Y-30233809D01*
X57557142Y-30424285D01*
X57652380Y-30519523D01*
X57842857Y-30614761D01*
X58033333Y-30614761D01*
X58223809Y-30519523D01*
X58319047Y-30424285D01*
X58414285Y-30233809D01*
X58509523Y-29852857D01*
X58509523Y-29376666D01*
X58414285Y-28995714D01*
X58319047Y-28805238D01*
X58223809Y-28710000D01*
X58033333Y-28614761D01*
X56604761Y-28805238D02*
X56509523Y-28710000D01*
X56319047Y-28614761D01*
X55842857Y-28614761D01*
X55652380Y-28710000D01*
X55557142Y-28805238D01*
X55461904Y-28995714D01*
X55461904Y-29186190D01*
X55557142Y-29471904D01*
X56700000Y-30614761D01*
X55461904Y-30614761D01*
X54700000Y-28805238D02*
X54604761Y-28710000D01*
X54414285Y-28614761D01*
X53938095Y-28614761D01*
X53747619Y-28710000D01*
X53652380Y-28805238D01*
X53557142Y-28995714D01*
X53557142Y-29186190D01*
X53652380Y-29471904D01*
X54795238Y-30614761D01*
X53557142Y-30614761D01*
X52700000Y-29852857D02*
X51176190Y-29852857D01*
X49176190Y-30614761D02*
X50319047Y-30614761D01*
X49747619Y-30614761D02*
X49747619Y-28614761D01*
X49938095Y-28900476D01*
X50128571Y-29090952D01*
X50319047Y-29186190D01*
X48414285Y-28805238D02*
X48319047Y-28710000D01*
X48128571Y-28614761D01*
X47652380Y-28614761D01*
X47461904Y-28710000D01*
X47366666Y-28805238D01*
X47271428Y-28995714D01*
X47271428Y-29186190D01*
X47366666Y-29471904D01*
X48509523Y-30614761D01*
X47271428Y-30614761D01*
X46414285Y-29852857D02*
X44890476Y-29852857D01*
X42890476Y-30614761D02*
X44033333Y-30614761D01*
X43461904Y-30614761D02*
X43461904Y-28614761D01*
X43652380Y-28900476D01*
X43842857Y-29090952D01*
X44033333Y-29186190D01*
X42223809Y-28614761D02*
X40985714Y-28614761D01*
X41652380Y-29376666D01*
X41366666Y-29376666D01*
X41176190Y-29471904D01*
X41080952Y-29567142D01*
X40985714Y-29757619D01*
X40985714Y-30233809D01*
X41080952Y-30424285D01*
X41176190Y-30519523D01*
X41366666Y-30614761D01*
X41938095Y-30614761D01*
X42128571Y-30519523D01*
X42223809Y-30424285D01*
X76278571Y-70071428D02*
X77350000Y-70071428D01*
X77564285Y-70000000D01*
X77707142Y-69857142D01*
X77778571Y-69642857D01*
X77778571Y-69500000D01*
X77778571Y-71500000D02*
X77778571Y-70785714D01*
X76278571Y-70785714D01*
X77635714Y-72857142D02*
X77707142Y-72785714D01*
X77778571Y-72571428D01*
X77778571Y-72428571D01*
X77707142Y-72214285D01*
X77564285Y-72071428D01*
X77421428Y-72000000D01*
X77135714Y-71928571D01*
X76921428Y-71928571D01*
X76635714Y-72000000D01*
X76492857Y-72071428D01*
X76350000Y-72214285D01*
X76278571Y-72428571D01*
X76278571Y-72571428D01*
X76350000Y-72785714D01*
X76421428Y-72857142D01*
X76278571Y-73928571D02*
X77350000Y-73928571D01*
X77564285Y-73857142D01*
X77707142Y-73714285D01*
X77778571Y-73500000D01*
X77778571Y-73357142D01*
X77778571Y-75357142D02*
X77778571Y-74642857D01*
X76278571Y-74642857D01*
X77635714Y-76714285D02*
X77707142Y-76642857D01*
X77778571Y-76428571D01*
X77778571Y-76285714D01*
X77707142Y-76071428D01*
X77564285Y-75928571D01*
X77421428Y-75857142D01*
X77135714Y-75785714D01*
X76921428Y-75785714D01*
X76635714Y-75857142D01*
X76492857Y-75928571D01*
X76350000Y-76071428D01*
X76278571Y-76285714D01*
X76278571Y-76428571D01*
X76350000Y-76642857D01*
X76421428Y-76714285D01*
X76278571Y-77785714D02*
X77350000Y-77785714D01*
X77564285Y-77714285D01*
X77707142Y-77571428D01*
X77778571Y-77357142D01*
X77778571Y-77214285D01*
X77778571Y-79214285D02*
X77778571Y-78500000D01*
X76278571Y-78500000D01*
X77635714Y-80571428D02*
X77707142Y-80500000D01*
X77778571Y-80285714D01*
X77778571Y-80142857D01*
X77707142Y-79928571D01*
X77564285Y-79785714D01*
X77421428Y-79714285D01*
X77135714Y-79642857D01*
X76921428Y-79642857D01*
X76635714Y-79714285D01*
X76492857Y-79785714D01*
X76350000Y-79928571D01*
X76278571Y-80142857D01*
X76278571Y-80285714D01*
X76350000Y-80500000D01*
X76421428Y-80571428D01*
X76278571Y-81642857D02*
X77350000Y-81642857D01*
X77564285Y-81571428D01*
X77707142Y-81428571D01*
X77778571Y-81214285D01*
X77778571Y-81071428D01*
X77778571Y-83071428D02*
X77778571Y-82357142D01*
X76278571Y-82357142D01*
X77635714Y-84428571D02*
X77707142Y-84357142D01*
X77778571Y-84142857D01*
X77778571Y-84000000D01*
X77707142Y-83785714D01*
X77564285Y-83642857D01*
X77421428Y-83571428D01*
X77135714Y-83500000D01*
X76921428Y-83500000D01*
X76635714Y-83571428D01*
X76492857Y-83642857D01*
X76350000Y-83785714D01*
X76278571Y-84000000D01*
X76278571Y-84142857D01*
X76350000Y-84357142D01*
X76421428Y-84428571D01*
%LPC*%
M02*
