G04 #@! TF.GenerationSoftware,KiCad,Pcbnew,(6.0.9)*
G04 #@! TF.CreationDate,2022-12-13T22:51:58+01:00*
G04 #@! TF.ProjectId,filter-face,66696c74-6572-42d6-9661-63652e6b6963,rev?*
G04 #@! TF.SameCoordinates,Original*
G04 #@! TF.FileFunction,Profile,NP*
%FSLAX46Y46*%
G04 Gerber Fmt 4.6, Leading zero omitted, Abs format (unit mm)*
G04 Created by KiCad (PCBNEW (6.0.9)) date 2022-12-13 22:51:58*
%MOMM*%
%LPD*%
G01*
G04 APERTURE LIST*
G04 #@! TA.AperFunction,Profile*
%ADD10C,0.100000*%
G04 #@! TD*
G04 APERTURE END LIST*
D10*
X54100000Y-41000000D02*
G75*
G03*
X54100000Y-41000000I-1600000J0D01*
G01*
X50400000Y-41000000D02*
G75*
G03*
X50400000Y-41000000I-1600000J0D01*
G01*
X20000000Y-20000000D02*
X80600000Y-20000000D01*
X80600000Y-20000000D02*
X80600000Y-148500000D01*
X80600000Y-148500000D02*
X20000000Y-148500000D01*
X20000000Y-148500000D02*
X20000000Y-20000000D01*
X68100000Y-41900000D02*
G75*
G03*
X68100000Y-41900000I-3500000J0D01*
G01*
X47800000Y-125800000D02*
G75*
G03*
X47800000Y-125800000I-3500000J0D01*
G01*
X54200000Y-72400000D02*
G75*
G03*
X54200000Y-72400000I-3500000J0D01*
G01*
X60500000Y-125800000D02*
G75*
G03*
X60500000Y-125800000I-3500000J0D01*
G01*
X35100000Y-125800000D02*
G75*
G03*
X35100000Y-125800000I-3500000J0D01*
G01*
X73200000Y-125800000D02*
G75*
G03*
X73200000Y-125800000I-3500000J0D01*
G01*
X40200000Y-41900000D02*
G75*
G03*
X40200000Y-41900000I-3500000J0D01*
G01*
X74800000Y-145500000D02*
G75*
G03*
X74800000Y-145500000I-1600000J0D01*
G01*
X74800000Y-23300000D02*
G75*
G03*
X74800000Y-23300000I-1600000J0D01*
G01*
X40200000Y-105400000D02*
G75*
G03*
X40200000Y-105400000I-3500000J0D01*
G01*
X68100000Y-105400000D02*
G75*
G03*
X68100000Y-105400000I-3500000J0D01*
G01*
X29100000Y-23000000D02*
G75*
G03*
X29100000Y-23000000I-1600000J0D01*
G01*
X29100000Y-145500000D02*
G75*
G03*
X29100000Y-145500000I-1600000J0D01*
G01*
X21666666Y-20000000D02*
G75*
G03*
X21666666Y-20000000I-1666666J0D01*
G01*
X17500000Y-20000000D02*
X22500000Y-20000000D01*
X20000000Y-17500000D02*
X20000000Y-22500000D01*
M02*
