G04 #@! TF.GenerationSoftware,KiCad,Pcbnew,(6.0.9)*
G04 #@! TF.CreationDate,2022-12-13T22:51:58+01:00*
G04 #@! TF.ProjectId,filter-face,66696c74-6572-42d6-9661-63652e6b6963,rev?*
G04 #@! TF.SameCoordinates,Original*
G04 #@! TF.FileFunction,Legend,Top*
G04 #@! TF.FilePolarity,Positive*
%FSLAX46Y46*%
G04 Gerber Fmt 4.6, Leading zero omitted, Abs format (unit mm)*
G04 Created by KiCad (PCBNEW (6.0.9)) date 2022-12-13 22:51:58*
%MOMM*%
%LPD*%
G01*
G04 APERTURE LIST*
%ADD10C,0.010000*%
%ADD11C,4.104997*%
%ADD12C,2.100000*%
G04 APERTURE END LIST*
G36*
X64121950Y-117359815D02*
G01*
X64300665Y-117539464D01*
X64217729Y-117624399D01*
X64134792Y-117709334D01*
X63063884Y-117709334D01*
X63063884Y-117464781D01*
X63350696Y-117180167D01*
X63943235Y-117180167D01*
X64121950Y-117359815D01*
G37*
D10*
X64121950Y-117359815D02*
X64300665Y-117539464D01*
X64217729Y-117624399D01*
X64134792Y-117709334D01*
X63063884Y-117709334D01*
X63063884Y-117464781D01*
X63350696Y-117180167D01*
X63943235Y-117180167D01*
X64121950Y-117359815D01*
G36*
X65779076Y-115249240D02*
G01*
X65921384Y-115392646D01*
X65921384Y-117107018D01*
X65746316Y-117281176D01*
X65676721Y-117349515D01*
X65618244Y-117405259D01*
X65577206Y-117442493D01*
X65560112Y-117455334D01*
X65540321Y-117441456D01*
X65501495Y-117405833D01*
X65470596Y-117375066D01*
X65392217Y-117294799D01*
X65392217Y-115105834D01*
X65636769Y-115105834D01*
X65779076Y-115249240D01*
G37*
X65779076Y-115249240D02*
X65921384Y-115392646D01*
X65921384Y-117107018D01*
X65746316Y-117281176D01*
X65676721Y-117349515D01*
X65618244Y-117405259D01*
X65577206Y-117442493D01*
X65560112Y-117455334D01*
X65540321Y-117441456D01*
X65501495Y-117405833D01*
X65470596Y-117375066D01*
X65392217Y-117294799D01*
X65392217Y-115105834D01*
X65636769Y-115105834D01*
X65779076Y-115249240D01*
G36*
X67826384Y-113949140D02*
G01*
X67633761Y-114310529D01*
X67572755Y-114424307D01*
X67517516Y-114526062D01*
X67471489Y-114609544D01*
X67438122Y-114668506D01*
X67420861Y-114696700D01*
X67420373Y-114697326D01*
X67391468Y-114721101D01*
X67338351Y-114756132D01*
X67290204Y-114784675D01*
X67213246Y-114828625D01*
X67136938Y-114872796D01*
X67101425Y-114893648D01*
X67053759Y-114919214D01*
X67025444Y-114929227D01*
X67022050Y-114927404D01*
X67026997Y-114904143D01*
X67040946Y-114845305D01*
X67062556Y-114756364D01*
X67090490Y-114642794D01*
X67123407Y-114510070D01*
X67159968Y-114363665D01*
X67160170Y-114362861D01*
X67212696Y-114157270D01*
X67259099Y-113987400D01*
X67301993Y-113847548D01*
X67343998Y-113732014D01*
X67387728Y-113635096D01*
X67435803Y-113551094D01*
X67490838Y-113474307D01*
X67555450Y-113399032D01*
X67632257Y-113319570D01*
X67644793Y-113307134D01*
X67826384Y-113127685D01*
X67826384Y-113949140D01*
G37*
X67826384Y-113949140D02*
X67633761Y-114310529D01*
X67572755Y-114424307D01*
X67517516Y-114526062D01*
X67471489Y-114609544D01*
X67438122Y-114668506D01*
X67420861Y-114696700D01*
X67420373Y-114697326D01*
X67391468Y-114721101D01*
X67338351Y-114756132D01*
X67290204Y-114784675D01*
X67213246Y-114828625D01*
X67136938Y-114872796D01*
X67101425Y-114893648D01*
X67053759Y-114919214D01*
X67025444Y-114929227D01*
X67022050Y-114927404D01*
X67026997Y-114904143D01*
X67040946Y-114845305D01*
X67062556Y-114756364D01*
X67090490Y-114642794D01*
X67123407Y-114510070D01*
X67159968Y-114363665D01*
X67160170Y-114362861D01*
X67212696Y-114157270D01*
X67259099Y-113987400D01*
X67301993Y-113847548D01*
X67343998Y-113732014D01*
X67387728Y-113635096D01*
X67435803Y-113551094D01*
X67490838Y-113474307D01*
X67555450Y-113399032D01*
X67632257Y-113319570D01*
X67644793Y-113307134D01*
X67826384Y-113127685D01*
X67826384Y-113949140D01*
G36*
X62958050Y-117466979D02*
G01*
X62958050Y-117709334D01*
X61887142Y-117709334D01*
X61721268Y-117539464D01*
X61899984Y-117359815D01*
X62078699Y-117180167D01*
X62673436Y-117180167D01*
X62958050Y-117466979D01*
G37*
X62958050Y-117466979D02*
X62958050Y-117709334D01*
X61887142Y-117709334D01*
X61721268Y-117539464D01*
X61899984Y-117359815D01*
X62078699Y-117180167D01*
X62673436Y-117180167D01*
X62958050Y-117466979D01*
G36*
X62676134Y-114917603D02*
G01*
X62760680Y-114968726D01*
X62829929Y-115012667D01*
X62876789Y-115044777D01*
X62894170Y-115060410D01*
X62894170Y-115060478D01*
X62876859Y-115075940D01*
X62830135Y-115107646D01*
X62761336Y-115150824D01*
X62686188Y-115195792D01*
X62478586Y-115317500D01*
X62078411Y-115317500D01*
X61946709Y-115184618D01*
X61815008Y-115051735D01*
X61947890Y-114920034D01*
X62080772Y-114788334D01*
X62457719Y-114788334D01*
X62676134Y-114917603D01*
G37*
X62676134Y-114917603D02*
X62760680Y-114968726D01*
X62829929Y-115012667D01*
X62876789Y-115044777D01*
X62894170Y-115060410D01*
X62894170Y-115060478D01*
X62876859Y-115075940D01*
X62830135Y-115107646D01*
X62761336Y-115150824D01*
X62686188Y-115195792D01*
X62478586Y-115317500D01*
X62078411Y-115317500D01*
X61946709Y-115184618D01*
X61815008Y-115051735D01*
X61947890Y-114920034D01*
X62080772Y-114788334D01*
X62457719Y-114788334D01*
X62676134Y-114917603D01*
G36*
X66824215Y-115221921D02*
G01*
X66812889Y-115280119D01*
X66793523Y-115368538D01*
X66767337Y-115481781D01*
X66735554Y-115614450D01*
X66699392Y-115761149D01*
X66697409Y-115769085D01*
X66645671Y-115971977D01*
X66600000Y-116139313D01*
X66557670Y-116276944D01*
X66515954Y-116390723D01*
X66472126Y-116486502D01*
X66423460Y-116570135D01*
X66367230Y-116647473D01*
X66300709Y-116724370D01*
X66221171Y-116806679D01*
X66207936Y-116819866D01*
X66027217Y-116999316D01*
X66029879Y-116174750D01*
X66236138Y-115794583D01*
X66442397Y-115414415D01*
X66628887Y-115301427D01*
X66707236Y-115255545D01*
X66771597Y-115220837D01*
X66813934Y-115201457D01*
X66826280Y-115199341D01*
X66824215Y-115221921D01*
G37*
X66824215Y-115221921D02*
X66812889Y-115280119D01*
X66793523Y-115368538D01*
X66767337Y-115481781D01*
X66735554Y-115614450D01*
X66699392Y-115761149D01*
X66697409Y-115769085D01*
X66645671Y-115971977D01*
X66600000Y-116139313D01*
X66557670Y-116276944D01*
X66515954Y-116390723D01*
X66472126Y-116486502D01*
X66423460Y-116570135D01*
X66367230Y-116647473D01*
X66300709Y-116724370D01*
X66221171Y-116806679D01*
X66207936Y-116819866D01*
X66027217Y-116999316D01*
X66029879Y-116174750D01*
X66236138Y-115794583D01*
X66442397Y-115414415D01*
X66628887Y-115301427D01*
X66707236Y-115255545D01*
X66771597Y-115220837D01*
X66813934Y-115201457D01*
X66826280Y-115199341D01*
X66824215Y-115221921D01*
G36*
X62005550Y-115392646D02*
G01*
X62005550Y-117107018D01*
X61830483Y-117281176D01*
X61760888Y-117349515D01*
X61702410Y-117405259D01*
X61661373Y-117442493D01*
X61644279Y-117455334D01*
X61624488Y-117441456D01*
X61585661Y-117405833D01*
X61554763Y-117375066D01*
X61476384Y-117294799D01*
X61476384Y-115105834D01*
X61720936Y-115105834D01*
X62005550Y-115392646D01*
G37*
X62005550Y-115392646D02*
X62005550Y-117107018D01*
X61830483Y-117281176D01*
X61760888Y-117349515D01*
X61702410Y-117405259D01*
X61661373Y-117442493D01*
X61644279Y-117455334D01*
X61624488Y-117441456D01*
X61585661Y-117405833D01*
X61554763Y-117375066D01*
X61476384Y-117294799D01*
X61476384Y-115105834D01*
X61720936Y-115105834D01*
X62005550Y-115392646D01*
G36*
X65921384Y-113000634D02*
G01*
X65921384Y-114715386D01*
X65777977Y-114857693D01*
X65634571Y-115000000D01*
X65392217Y-115000000D01*
X65392217Y-112828648D01*
X65482807Y-112739740D01*
X65573398Y-112650832D01*
X65921384Y-113000634D01*
G37*
X65921384Y-113000634D02*
X65921384Y-114715386D01*
X65777977Y-114857693D01*
X65634571Y-115000000D01*
X65392217Y-115000000D01*
X65392217Y-112828648D01*
X65482807Y-112739740D01*
X65573398Y-112650832D01*
X65921384Y-113000634D01*
G36*
X64206925Y-115054098D02*
G01*
X63941161Y-115317500D01*
X63740647Y-115316713D01*
X63540134Y-115315925D01*
X63352552Y-115202156D01*
X63272230Y-115152713D01*
X63204898Y-115109915D01*
X63159245Y-115079360D01*
X63144943Y-115068359D01*
X63153253Y-115049075D01*
X63196788Y-115012960D01*
X63272867Y-114962027D01*
X63344565Y-114918333D01*
X63564215Y-114788334D01*
X63943523Y-114788334D01*
X64206925Y-115054098D01*
G37*
X64206925Y-115054098D02*
X63941161Y-115317500D01*
X63740647Y-115316713D01*
X63540134Y-115315925D01*
X63352552Y-115202156D01*
X63272230Y-115152713D01*
X63204898Y-115109915D01*
X63159245Y-115079360D01*
X63144943Y-115068359D01*
X63153253Y-115049075D01*
X63196788Y-115012960D01*
X63272867Y-114962027D01*
X63344565Y-114918333D01*
X63564215Y-114788334D01*
X63943523Y-114788334D01*
X64206925Y-115054098D01*
G36*
X34736666Y-117359961D02*
G01*
X34736666Y-117602316D01*
X33665758Y-117602316D01*
X33499884Y-117432446D01*
X33678600Y-117252797D01*
X33857315Y-117073149D01*
X34452052Y-117073149D01*
X34736666Y-117359961D01*
G37*
X34736666Y-117359961D02*
X34736666Y-117602316D01*
X33665758Y-117602316D01*
X33499884Y-117432446D01*
X33678600Y-117252797D01*
X33857315Y-117073149D01*
X34452052Y-117073149D01*
X34736666Y-117359961D01*
G36*
X35900566Y-117252797D02*
G01*
X36079281Y-117432446D01*
X35996345Y-117517381D01*
X35913408Y-117602316D01*
X34842500Y-117602316D01*
X34842500Y-117357763D01*
X35129312Y-117073149D01*
X35721851Y-117073149D01*
X35900566Y-117252797D01*
G37*
X35900566Y-117252797D02*
X36079281Y-117432446D01*
X35996345Y-117517381D01*
X35913408Y-117602316D01*
X34842500Y-117602316D01*
X34842500Y-117357763D01*
X35129312Y-117073149D01*
X35721851Y-117073149D01*
X35900566Y-117252797D01*
G36*
X34793282Y-115220743D02*
G01*
X34800860Y-115234955D01*
X34811537Y-115266590D01*
X34826555Y-115319691D01*
X34847157Y-115398299D01*
X34874585Y-115506455D01*
X34910081Y-115648203D01*
X34947265Y-115797084D01*
X35054166Y-116224935D01*
X35054166Y-117000288D01*
X34921284Y-117131990D01*
X34788401Y-117263691D01*
X34656700Y-117130809D01*
X34525000Y-116997927D01*
X34525000Y-116225068D01*
X34641803Y-115754817D01*
X34676205Y-115617615D01*
X34708204Y-115492428D01*
X34736100Y-115385721D01*
X34758188Y-115303961D01*
X34772769Y-115253615D01*
X34776716Y-115242232D01*
X34782452Y-115228424D01*
X34787560Y-115219913D01*
X34793282Y-115220743D01*
G37*
X34793282Y-115220743D02*
X34800860Y-115234955D01*
X34811537Y-115266590D01*
X34826555Y-115319691D01*
X34847157Y-115398299D01*
X34874585Y-115506455D01*
X34910081Y-115648203D01*
X34947265Y-115797084D01*
X35054166Y-116224935D01*
X35054166Y-117000288D01*
X34921284Y-117131990D01*
X34788401Y-117263691D01*
X34656700Y-117130809D01*
X34525000Y-116997927D01*
X34525000Y-116225068D01*
X34641803Y-115754817D01*
X34676205Y-115617615D01*
X34708204Y-115492428D01*
X34736100Y-115385721D01*
X34758188Y-115303961D01*
X34772769Y-115253615D01*
X34776716Y-115242232D01*
X34782452Y-115228424D01*
X34787560Y-115219913D01*
X34793282Y-115220743D01*
G36*
X34460515Y-114809779D02*
G01*
X34543666Y-114861184D01*
X34611515Y-114905363D01*
X34656925Y-114937514D01*
X34672786Y-114952654D01*
X34655468Y-114968440D01*
X34608729Y-115000416D01*
X34539909Y-115043778D01*
X34464804Y-115088774D01*
X34257202Y-115210482D01*
X33857027Y-115210482D01*
X33725325Y-115077600D01*
X33593624Y-114944717D01*
X33726506Y-114813016D01*
X33859388Y-114681316D01*
X34247864Y-114681316D01*
X34460515Y-114809779D01*
G37*
X34460515Y-114809779D02*
X34543666Y-114861184D01*
X34611515Y-114905363D01*
X34656925Y-114937514D01*
X34672786Y-114952654D01*
X34655468Y-114968440D01*
X34608729Y-115000416D01*
X34539909Y-115043778D01*
X34464804Y-115088774D01*
X34257202Y-115210482D01*
X33857027Y-115210482D01*
X33725325Y-115077600D01*
X33593624Y-114944717D01*
X33726506Y-114813016D01*
X33859388Y-114681316D01*
X34247864Y-114681316D01*
X34460515Y-114809779D01*
G36*
X38376348Y-114809779D02*
G01*
X38459500Y-114861184D01*
X38527348Y-114905363D01*
X38572758Y-114937514D01*
X38588620Y-114952654D01*
X38571302Y-114968440D01*
X38524563Y-115000416D01*
X38455742Y-115043778D01*
X38380637Y-115088774D01*
X38173035Y-115210482D01*
X37772860Y-115210482D01*
X37641159Y-115077600D01*
X37509458Y-114944717D01*
X37642340Y-114813016D01*
X37775222Y-114681316D01*
X38163697Y-114681316D01*
X38376348Y-114809779D01*
G37*
X38376348Y-114809779D02*
X38459500Y-114861184D01*
X38527348Y-114905363D01*
X38572758Y-114937514D01*
X38588620Y-114952654D01*
X38571302Y-114968440D01*
X38524563Y-115000416D01*
X38455742Y-115043778D01*
X38380637Y-115088774D01*
X38173035Y-115210482D01*
X37772860Y-115210482D01*
X37641159Y-115077600D01*
X37509458Y-114944717D01*
X37642340Y-114813016D01*
X37775222Y-114681316D01*
X38163697Y-114681316D01*
X38376348Y-114809779D01*
G36*
X39774307Y-114818873D02*
G01*
X39910642Y-114956431D01*
X39784942Y-115083456D01*
X39659241Y-115210482D01*
X39446912Y-115208847D01*
X39234583Y-115207211D01*
X39026771Y-115079554D01*
X38938022Y-115024207D01*
X38881085Y-114985812D01*
X38851177Y-114960032D01*
X38843518Y-114942535D01*
X38853326Y-114928986D01*
X38857438Y-114926048D01*
X38891616Y-114904385D01*
X38952186Y-114867184D01*
X39029157Y-114820553D01*
X39078772Y-114790757D01*
X39261629Y-114681316D01*
X39637972Y-114681316D01*
X39774307Y-114818873D01*
G37*
X39774307Y-114818873D02*
X39910642Y-114956431D01*
X39784942Y-115083456D01*
X39659241Y-115210482D01*
X39446912Y-115208847D01*
X39234583Y-115207211D01*
X39026771Y-115079554D01*
X38938022Y-115024207D01*
X38881085Y-114985812D01*
X38851177Y-114960032D01*
X38843518Y-114942535D01*
X38853326Y-114928986D01*
X38857438Y-114926048D01*
X38891616Y-114904385D01*
X38952186Y-114867184D01*
X39029157Y-114820553D01*
X39078772Y-114790757D01*
X39261629Y-114681316D01*
X39637972Y-114681316D01*
X39774307Y-114818873D01*
G36*
X40261166Y-117166796D02*
G01*
X40172092Y-117257556D01*
X40122999Y-117305713D01*
X40085948Y-117338622D01*
X40071083Y-117348316D01*
X40052344Y-117334187D01*
X40010303Y-117295767D01*
X39951285Y-117239005D01*
X39884991Y-117173248D01*
X39710833Y-116998181D01*
X39710833Y-115304673D01*
X39864789Y-115151744D01*
X40018745Y-114998816D01*
X40261166Y-114998816D01*
X40261166Y-117166796D01*
G37*
X40261166Y-117166796D02*
X40172092Y-117257556D01*
X40122999Y-117305713D01*
X40085948Y-117338622D01*
X40071083Y-117348316D01*
X40052344Y-117334187D01*
X40010303Y-117295767D01*
X39951285Y-117239005D01*
X39884991Y-117173248D01*
X39710833Y-116998181D01*
X39710833Y-115304673D01*
X39864789Y-115151744D01*
X40018745Y-114998816D01*
X40261166Y-114998816D01*
X40261166Y-117166796D01*
G36*
X34736666Y-112561279D02*
G01*
X34451504Y-112818649D01*
X33857315Y-112818649D01*
X33682934Y-112643358D01*
X33508554Y-112468067D01*
X33599536Y-112378774D01*
X33690519Y-112289482D01*
X34736666Y-112289482D01*
X34736666Y-112561279D01*
G37*
X34736666Y-112561279D02*
X34451504Y-112818649D01*
X33857315Y-112818649D01*
X33682934Y-112643358D01*
X33508554Y-112468067D01*
X33599536Y-112378774D01*
X33690519Y-112289482D01*
X34736666Y-112289482D01*
X34736666Y-112561279D01*
G36*
X37557692Y-115142222D02*
G01*
X37700000Y-115285628D01*
X37700000Y-117000000D01*
X37524932Y-117174158D01*
X37455337Y-117242497D01*
X37396860Y-117298241D01*
X37355822Y-117335475D01*
X37338728Y-117348316D01*
X37318937Y-117334438D01*
X37280111Y-117298815D01*
X37249212Y-117268048D01*
X37170833Y-117187781D01*
X37170833Y-114998816D01*
X37415385Y-114998816D01*
X37557692Y-115142222D01*
G37*
X37557692Y-115142222D02*
X37700000Y-115285628D01*
X37700000Y-117000000D01*
X37524932Y-117174158D01*
X37455337Y-117242497D01*
X37396860Y-117298241D01*
X37355822Y-117335475D01*
X37338728Y-117348316D01*
X37318937Y-117334438D01*
X37280111Y-117298815D01*
X37249212Y-117268048D01*
X37170833Y-117187781D01*
X37170833Y-114998816D01*
X37415385Y-114998816D01*
X37557692Y-115142222D01*
G36*
X43874486Y-54971027D02*
G01*
X43937645Y-55035986D01*
X43976495Y-55082185D01*
X43996934Y-55120527D01*
X44004859Y-55161912D01*
X44006166Y-55214443D01*
X44006166Y-55324999D01*
X43040804Y-55324999D01*
X42973152Y-55255199D01*
X42932582Y-55209388D01*
X42908434Y-55174484D01*
X42905500Y-55165739D01*
X42919569Y-55143361D01*
X42957529Y-55098616D01*
X43013008Y-55038738D01*
X43058428Y-54992122D01*
X43211357Y-54838166D01*
X43742806Y-54838166D01*
X43874486Y-54971027D01*
G37*
X43874486Y-54971027D02*
X43937645Y-55035986D01*
X43976495Y-55082185D01*
X43996934Y-55120527D01*
X44004859Y-55161912D01*
X44006166Y-55214443D01*
X44006166Y-55324999D01*
X43040804Y-55324999D01*
X42973152Y-55255199D01*
X42932582Y-55209388D01*
X42908434Y-55174484D01*
X42905500Y-55165739D01*
X42919569Y-55143361D01*
X42957529Y-55098616D01*
X43013008Y-55038738D01*
X43058428Y-54992122D01*
X43211357Y-54838166D01*
X43742806Y-54838166D01*
X43874486Y-54971027D01*
G36*
X41524797Y-54995453D02*
G01*
X41688416Y-55152740D01*
X41604745Y-55238869D01*
X41521075Y-55324999D01*
X40577166Y-55324999D01*
X40577166Y-55213262D01*
X40578543Y-55158374D01*
X40586626Y-55117414D01*
X40607343Y-55079519D01*
X40646624Y-55033828D01*
X40710027Y-54969846D01*
X40842888Y-54838166D01*
X41361177Y-54838166D01*
X41524797Y-54995453D01*
G37*
X41524797Y-54995453D02*
X41688416Y-55152740D01*
X41604745Y-55238869D01*
X41521075Y-55324999D01*
X40577166Y-55324999D01*
X40577166Y-55213262D01*
X40578543Y-55158374D01*
X40586626Y-55117414D01*
X40607343Y-55079519D01*
X40646624Y-55033828D01*
X40710027Y-54969846D01*
X40842888Y-54838166D01*
X41361177Y-54838166D01*
X41524797Y-54995453D01*
G36*
X45022166Y-52816749D02*
G01*
X45137137Y-52933166D01*
X45022166Y-53049582D01*
X44907196Y-53165999D01*
X44715973Y-53165107D01*
X44524750Y-53164216D01*
X44340071Y-53053982D01*
X44262890Y-53006949D01*
X44201505Y-52967707D01*
X44163623Y-52941293D01*
X44155217Y-52933166D01*
X44172122Y-52918585D01*
X44217888Y-52887625D01*
X44284854Y-52845318D01*
X44340555Y-52811457D01*
X44526069Y-52700332D01*
X44907196Y-52700332D01*
X45022166Y-52816749D01*
G37*
X45022166Y-52816749D02*
X45137137Y-52933166D01*
X45022166Y-53049582D01*
X44907196Y-53165999D01*
X44715973Y-53165107D01*
X44524750Y-53164216D01*
X44340071Y-53053982D01*
X44262890Y-53006949D01*
X44201505Y-52967707D01*
X44163623Y-52941293D01*
X44155217Y-52933166D01*
X44172122Y-52918585D01*
X44217888Y-52887625D01*
X44284854Y-52845318D01*
X44340555Y-52811457D01*
X44526069Y-52700332D01*
X44907196Y-52700332D01*
X45022166Y-52816749D01*
G36*
X42822714Y-52978155D02*
G01*
X42865578Y-52990019D01*
X42910960Y-53016934D01*
X42970367Y-53064740D01*
X43003694Y-53093705D01*
X43138333Y-53211912D01*
X43138333Y-54784253D01*
X42985404Y-54938209D01*
X42920553Y-55002367D01*
X42866807Y-55053428D01*
X42830991Y-55085030D01*
X42820223Y-55092166D01*
X42799473Y-55078297D01*
X42761082Y-55043210D01*
X42740318Y-55022366D01*
X42672666Y-54952567D01*
X42672666Y-52975499D01*
X42770860Y-52975499D01*
X42822714Y-52978155D01*
G37*
X42822714Y-52978155D02*
X42865578Y-52990019D01*
X42910960Y-53016934D01*
X42970367Y-53064740D01*
X43003694Y-53093705D01*
X43138333Y-53211912D01*
X43138333Y-54784253D01*
X42985404Y-54938209D01*
X42920553Y-55002367D01*
X42866807Y-55053428D01*
X42830991Y-55085030D01*
X42820223Y-55092166D01*
X42799473Y-55078297D01*
X42761082Y-55043210D01*
X42740318Y-55022366D01*
X42672666Y-54952567D01*
X42672666Y-52975499D01*
X42770860Y-52975499D01*
X42822714Y-52978155D01*
G36*
X33422833Y-50653069D02*
G01*
X33421456Y-50707957D01*
X33413373Y-50748917D01*
X33392656Y-50786812D01*
X33353375Y-50832503D01*
X33289972Y-50896485D01*
X33157111Y-51028166D01*
X32628023Y-51028166D01*
X32475095Y-50874209D01*
X32411161Y-50807837D01*
X32360350Y-50751263D01*
X32329049Y-50711831D01*
X32322166Y-50698445D01*
X32336234Y-50671719D01*
X32371769Y-50629496D01*
X32391966Y-50608984D01*
X32461765Y-50541332D01*
X33422833Y-50541332D01*
X33422833Y-50653069D01*
G37*
X33422833Y-50653069D02*
X33421456Y-50707957D01*
X33413373Y-50748917D01*
X33392656Y-50786812D01*
X33353375Y-50832503D01*
X33289972Y-50896485D01*
X33157111Y-51028166D01*
X32628023Y-51028166D01*
X32475095Y-50874209D01*
X32411161Y-50807837D01*
X32360350Y-50751263D01*
X32329049Y-50711831D01*
X32322166Y-50698445D01*
X32336234Y-50671719D01*
X32371769Y-50629496D01*
X32391966Y-50608984D01*
X32461765Y-50541332D01*
X33422833Y-50541332D01*
X33422833Y-50653069D01*
G36*
X40528801Y-53179006D02*
G01*
X40534311Y-53191039D01*
X40537107Y-53197749D01*
X40547525Y-53230495D01*
X40566175Y-53297508D01*
X40591243Y-53391931D01*
X40620917Y-53506908D01*
X40653382Y-53635581D01*
X40661436Y-53667934D01*
X40696926Y-53811658D01*
X40723475Y-53923754D01*
X40742379Y-54013668D01*
X40754938Y-54090847D01*
X40762448Y-54164738D01*
X40766208Y-54244788D01*
X40767515Y-54340445D01*
X40767666Y-54441240D01*
X40767666Y-54786695D01*
X40655876Y-54897097D01*
X40598994Y-54950626D01*
X40552202Y-54989855D01*
X40524589Y-55007237D01*
X40522861Y-55007499D01*
X40498639Y-54993391D01*
X40454328Y-54956159D01*
X40398922Y-54903441D01*
X40391235Y-54895708D01*
X40280833Y-54783918D01*
X40280833Y-54439771D01*
X40281165Y-54317524D01*
X40283095Y-54221143D01*
X40288022Y-54140023D01*
X40297348Y-54063557D01*
X40312473Y-53981139D01*
X40334797Y-53882163D01*
X40365720Y-53756023D01*
X40377161Y-53710187D01*
X40418715Y-53543889D01*
X40451210Y-53414469D01*
X40475947Y-53317761D01*
X40494228Y-53249595D01*
X40507353Y-53205804D01*
X40516623Y-53182221D01*
X40523339Y-53174678D01*
X40528801Y-53179006D01*
G37*
X40528801Y-53179006D02*
X40534311Y-53191039D01*
X40537107Y-53197749D01*
X40547525Y-53230495D01*
X40566175Y-53297508D01*
X40591243Y-53391931D01*
X40620917Y-53506908D01*
X40653382Y-53635581D01*
X40661436Y-53667934D01*
X40696926Y-53811658D01*
X40723475Y-53923754D01*
X40742379Y-54013668D01*
X40754938Y-54090847D01*
X40762448Y-54164738D01*
X40766208Y-54244788D01*
X40767515Y-54340445D01*
X40767666Y-54441240D01*
X40767666Y-54786695D01*
X40655876Y-54897097D01*
X40598994Y-54950626D01*
X40552202Y-54989855D01*
X40524589Y-55007237D01*
X40522861Y-55007499D01*
X40498639Y-54993391D01*
X40454328Y-54956159D01*
X40398922Y-54903441D01*
X40391235Y-54895708D01*
X40280833Y-54783918D01*
X40280833Y-54439771D01*
X40281165Y-54317524D01*
X40283095Y-54221143D01*
X40288022Y-54140023D01*
X40297348Y-54063557D01*
X40312473Y-53981139D01*
X40334797Y-53882163D01*
X40365720Y-53756023D01*
X40377161Y-53710187D01*
X40418715Y-53543889D01*
X40451210Y-53414469D01*
X40475947Y-53317761D01*
X40494228Y-53249595D01*
X40507353Y-53205804D01*
X40516623Y-53182221D01*
X40523339Y-53174678D01*
X40528801Y-53179006D01*
G36*
X33291153Y-54971027D02*
G01*
X33354312Y-55035986D01*
X33393162Y-55082185D01*
X33413601Y-55120527D01*
X33421525Y-55161912D01*
X33422833Y-55214443D01*
X33422833Y-55324999D01*
X32457471Y-55324999D01*
X32389818Y-55255199D01*
X32349249Y-55209388D01*
X32325101Y-55174484D01*
X32322166Y-55165739D01*
X32336236Y-55143361D01*
X32374196Y-55098616D01*
X32429674Y-55038738D01*
X32475095Y-54992122D01*
X32628023Y-54838166D01*
X33159472Y-54838166D01*
X33291153Y-54971027D01*
G37*
X33291153Y-54971027D02*
X33354312Y-55035986D01*
X33393162Y-55082185D01*
X33413601Y-55120527D01*
X33421525Y-55161912D01*
X33422833Y-55214443D01*
X33422833Y-55324999D01*
X32457471Y-55324999D01*
X32389818Y-55255199D01*
X32349249Y-55209388D01*
X32325101Y-55174484D01*
X32322166Y-55165739D01*
X32336236Y-55143361D01*
X32374196Y-55098616D01*
X32429674Y-55038738D01*
X32475095Y-54992122D01*
X32628023Y-54838166D01*
X33159472Y-54838166D01*
X33291153Y-54971027D01*
G36*
X30904000Y-52816749D02*
G01*
X31018970Y-52933166D01*
X30904000Y-53049582D01*
X30789029Y-53165999D01*
X30597806Y-53164317D01*
X30503917Y-53162393D01*
X30438517Y-53156373D01*
X30387769Y-53142905D01*
X30337835Y-53118639D01*
X30290166Y-53089818D01*
X30215247Y-53043272D01*
X30142840Y-52998794D01*
X30101599Y-52973816D01*
X30029449Y-52930630D01*
X30218016Y-52816268D01*
X30406583Y-52701907D01*
X30597806Y-52701120D01*
X30789029Y-52700332D01*
X30904000Y-52816749D01*
G37*
X30904000Y-52816749D02*
X31018970Y-52933166D01*
X30904000Y-53049582D01*
X30789029Y-53165999D01*
X30597806Y-53164317D01*
X30503917Y-53162393D01*
X30438517Y-53156373D01*
X30387769Y-53142905D01*
X30337835Y-53118639D01*
X30290166Y-53089818D01*
X30215247Y-53043272D01*
X30142840Y-52998794D01*
X30101599Y-52973816D01*
X30029449Y-52930630D01*
X30218016Y-52816268D01*
X30406583Y-52701907D01*
X30597806Y-52701120D01*
X30789029Y-52700332D01*
X30904000Y-52816749D01*
G36*
X31327333Y-54935407D02*
G01*
X31245963Y-55014863D01*
X31164593Y-55094318D01*
X31002546Y-54942984D01*
X30840500Y-54791650D01*
X30840500Y-53238859D01*
X30973361Y-53107179D01*
X31038320Y-53044020D01*
X31084519Y-53005170D01*
X31122861Y-52984731D01*
X31164246Y-52976806D01*
X31216777Y-52975499D01*
X31327333Y-52975499D01*
X31327333Y-54935407D01*
G37*
X31327333Y-54935407D02*
X31245963Y-55014863D01*
X31164593Y-55094318D01*
X31002546Y-54942984D01*
X30840500Y-54791650D01*
X30840500Y-53238859D01*
X30973361Y-53107179D01*
X31038320Y-53044020D01*
X31084519Y-53005170D01*
X31122861Y-52984731D01*
X31164246Y-52976806D01*
X31216777Y-52975499D01*
X31327333Y-52975499D01*
X31327333Y-54935407D01*
G36*
X33177802Y-52808824D02*
G01*
X33254297Y-52855841D01*
X33314876Y-52895549D01*
X33351755Y-52922701D01*
X33359333Y-52931189D01*
X33342271Y-52947069D01*
X33296219Y-52978933D01*
X33228878Y-53021648D01*
X33172736Y-53055531D01*
X32986139Y-53165999D01*
X32606470Y-53165999D01*
X32491500Y-53049582D01*
X32376529Y-52933166D01*
X32491500Y-52816749D01*
X32606470Y-52700332D01*
X32996271Y-52700332D01*
X33177802Y-52808824D01*
G37*
X33177802Y-52808824D02*
X33254297Y-52855841D01*
X33314876Y-52895549D01*
X33351755Y-52922701D01*
X33359333Y-52931189D01*
X33342271Y-52947069D01*
X33296219Y-52978933D01*
X33228878Y-53021648D01*
X33172736Y-53055531D01*
X32986139Y-53165999D01*
X32606470Y-53165999D01*
X32491500Y-53049582D01*
X32376529Y-52933166D01*
X32491500Y-52816749D01*
X32606470Y-52700332D01*
X32996271Y-52700332D01*
X33177802Y-52808824D01*
G36*
X45445500Y-54935407D02*
G01*
X45365232Y-55013786D01*
X45318509Y-55057686D01*
X45284849Y-55086129D01*
X45274744Y-55092166D01*
X45256511Y-55078095D01*
X45215399Y-55040118D01*
X45158134Y-54984581D01*
X45111595Y-54938209D01*
X44958666Y-54784253D01*
X44958666Y-53238859D01*
X45091527Y-53107179D01*
X45156486Y-53044020D01*
X45202686Y-53005170D01*
X45241028Y-52984731D01*
X45282413Y-52976806D01*
X45334944Y-52975499D01*
X45445500Y-52975499D01*
X45445500Y-54935407D01*
G37*
X45445500Y-54935407D02*
X45365232Y-55013786D01*
X45318509Y-55057686D01*
X45284849Y-55086129D01*
X45274744Y-55092166D01*
X45256511Y-55078095D01*
X45215399Y-55040118D01*
X45158134Y-54984581D01*
X45111595Y-54938209D01*
X44958666Y-54784253D01*
X44958666Y-53238859D01*
X45091527Y-53107179D01*
X45156486Y-53044020D01*
X45202686Y-53005170D01*
X45241028Y-52984731D01*
X45282413Y-52976806D01*
X45334944Y-52975499D01*
X45445500Y-52975499D01*
X45445500Y-54935407D01*
G36*
X33474522Y-53194951D02*
G01*
X33492082Y-53244787D01*
X33516157Y-53324419D01*
X33545058Y-53428162D01*
X33577098Y-53550336D01*
X33589212Y-53598279D01*
X33698000Y-54033117D01*
X33698000Y-54786695D01*
X33586209Y-54897097D01*
X33530934Y-54950372D01*
X33487762Y-54989539D01*
X33464931Y-55007171D01*
X33463778Y-55007499D01*
X33444849Y-54993532D01*
X33404643Y-54956642D01*
X33351301Y-54904350D01*
X33342735Y-54895708D01*
X33232333Y-54783918D01*
X33232333Y-54075451D01*
X33341118Y-53636600D01*
X33374005Y-53505926D01*
X33404342Y-53389131D01*
X33430421Y-53292492D01*
X33450533Y-53222286D01*
X33462972Y-53184792D01*
X33465164Y-53180594D01*
X33474522Y-53194951D01*
G37*
X33474522Y-53194951D02*
X33492082Y-53244787D01*
X33516157Y-53324419D01*
X33545058Y-53428162D01*
X33577098Y-53550336D01*
X33589212Y-53598279D01*
X33698000Y-54033117D01*
X33698000Y-54786695D01*
X33586209Y-54897097D01*
X33530934Y-54950372D01*
X33487762Y-54989539D01*
X33464931Y-55007171D01*
X33463778Y-55007499D01*
X33444849Y-54993532D01*
X33404643Y-54956642D01*
X33351301Y-54904350D01*
X33342735Y-54895708D01*
X33232333Y-54783918D01*
X33232333Y-54075451D01*
X33341118Y-53636600D01*
X33374005Y-53505926D01*
X33404342Y-53389131D01*
X33430421Y-53292492D01*
X33450533Y-53222286D01*
X33462972Y-53184792D01*
X33465164Y-53180594D01*
X33474522Y-53194951D01*
G36*
X45049387Y-55002943D02*
G01*
X45213199Y-55167721D01*
X45052131Y-55324999D01*
X44090833Y-55324999D01*
X44090833Y-55213262D01*
X44092210Y-55158374D01*
X44100292Y-55117414D01*
X44121010Y-55079519D01*
X44160291Y-55033828D01*
X44223694Y-54969846D01*
X44356555Y-54838166D01*
X44885576Y-54838166D01*
X45049387Y-55002943D01*
G37*
X45049387Y-55002943D02*
X45213199Y-55167721D01*
X45052131Y-55324999D01*
X44090833Y-55324999D01*
X44090833Y-55213262D01*
X44092210Y-55158374D01*
X44100292Y-55117414D01*
X44121010Y-55079519D01*
X44160291Y-55033828D01*
X44223694Y-54969846D01*
X44356555Y-54838166D01*
X44885576Y-54838166D01*
X45049387Y-55002943D01*
G36*
X43761135Y-52808824D02*
G01*
X43837667Y-52856050D01*
X43898261Y-52896270D01*
X43935123Y-52924144D01*
X43942666Y-52933166D01*
X43925641Y-52950022D01*
X43879763Y-52982732D01*
X43812826Y-53025956D01*
X43761135Y-53057507D01*
X43677538Y-53106781D01*
X43616868Y-53138287D01*
X43565729Y-53155998D01*
X43510726Y-53163888D01*
X43438462Y-53165929D01*
X43395348Y-53165999D01*
X43211091Y-53165999D01*
X43089991Y-53043621D01*
X42968890Y-52921244D01*
X43080735Y-52810788D01*
X43192581Y-52700332D01*
X43579605Y-52700332D01*
X43761135Y-52808824D01*
G37*
X43761135Y-52808824D02*
X43837667Y-52856050D01*
X43898261Y-52896270D01*
X43935123Y-52924144D01*
X43942666Y-52933166D01*
X43925641Y-52950022D01*
X43879763Y-52982732D01*
X43812826Y-53025956D01*
X43761135Y-53057507D01*
X43677538Y-53106781D01*
X43616868Y-53138287D01*
X43565729Y-53155998D01*
X43510726Y-53163888D01*
X43438462Y-53165929D01*
X43395348Y-53165999D01*
X43211091Y-53165999D01*
X43089991Y-53043621D01*
X42968890Y-52921244D01*
X43080735Y-52810788D01*
X43192581Y-52700332D01*
X43579605Y-52700332D01*
X43761135Y-52808824D01*
G36*
X29646935Y-52807586D02*
G01*
X29722487Y-52854856D01*
X29782053Y-52895233D01*
X29817774Y-52923214D01*
X29824500Y-52931928D01*
X29807464Y-52949315D01*
X29761559Y-52982455D01*
X29694585Y-53025950D01*
X29642969Y-53057507D01*
X29559374Y-53106780D01*
X29498706Y-53138285D01*
X29447568Y-53155997D01*
X29392562Y-53163887D01*
X29320290Y-53165929D01*
X29277121Y-53165999D01*
X29092803Y-53165999D01*
X28977833Y-53049582D01*
X28862862Y-52933166D01*
X28977833Y-52816749D01*
X29092803Y-52700332D01*
X29469370Y-52700332D01*
X29646935Y-52807586D01*
G37*
X29646935Y-52807586D02*
X29722487Y-52854856D01*
X29782053Y-52895233D01*
X29817774Y-52923214D01*
X29824500Y-52931928D01*
X29807464Y-52949315D01*
X29761559Y-52982455D01*
X29694585Y-53025950D01*
X29642969Y-53057507D01*
X29559374Y-53106780D01*
X29498706Y-53138285D01*
X29447568Y-53155997D01*
X29392562Y-53163887D01*
X29320290Y-53165929D01*
X29277121Y-53165999D01*
X29092803Y-53165999D01*
X28977833Y-53049582D01*
X28862862Y-52933166D01*
X28977833Y-52816749D01*
X29092803Y-52700332D01*
X29469370Y-52700332D01*
X29646935Y-52807586D01*
G36*
X34466054Y-55002943D02*
G01*
X34629865Y-55167721D01*
X34549332Y-55246360D01*
X34468798Y-55324999D01*
X33507500Y-55324999D01*
X33507500Y-55213262D01*
X33508876Y-55158374D01*
X33516959Y-55117414D01*
X33537677Y-55079519D01*
X33576957Y-55033828D01*
X33640361Y-54969846D01*
X33773222Y-54838166D01*
X34302243Y-54838166D01*
X34466054Y-55002943D01*
G37*
X34466054Y-55002943D02*
X34629865Y-55167721D01*
X34549332Y-55246360D01*
X34468798Y-55324999D01*
X33507500Y-55324999D01*
X33507500Y-55213262D01*
X33508876Y-55158374D01*
X33516959Y-55117414D01*
X33537677Y-55079519D01*
X33576957Y-55033828D01*
X33640361Y-54969846D01*
X33773222Y-54838166D01*
X34302243Y-54838166D01*
X34466054Y-55002943D01*
G36*
X36906308Y-53068676D02*
G01*
X36894389Y-53125935D01*
X36874603Y-53213024D01*
X36848248Y-53324348D01*
X36816619Y-53454309D01*
X36788033Y-53569361D01*
X36738153Y-53763651D01*
X36693907Y-53922655D01*
X36652471Y-54052570D01*
X36611025Y-54159591D01*
X36566746Y-54249913D01*
X36516813Y-54329733D01*
X36458403Y-54405245D01*
X36388696Y-54482645D01*
X36357162Y-54515374D01*
X36292771Y-54579754D01*
X36238779Y-54630840D01*
X36202211Y-54662148D01*
X36190904Y-54668832D01*
X36185500Y-54648821D01*
X36180882Y-54593402D01*
X36177364Y-54509500D01*
X36175261Y-54404037D01*
X36174801Y-54314291D01*
X36175103Y-53959749D01*
X36548215Y-53261249D01*
X36724669Y-53150074D01*
X36800084Y-53103783D01*
X36861123Y-53068621D01*
X36899772Y-53049076D01*
X36909065Y-53046842D01*
X36906308Y-53068676D01*
G37*
X36906308Y-53068676D02*
X36894389Y-53125935D01*
X36874603Y-53213024D01*
X36848248Y-53324348D01*
X36816619Y-53454309D01*
X36788033Y-53569361D01*
X36738153Y-53763651D01*
X36693907Y-53922655D01*
X36652471Y-54052570D01*
X36611025Y-54159591D01*
X36566746Y-54249913D01*
X36516813Y-54329733D01*
X36458403Y-54405245D01*
X36388696Y-54482645D01*
X36357162Y-54515374D01*
X36292771Y-54579754D01*
X36238779Y-54630840D01*
X36202211Y-54662148D01*
X36190904Y-54668832D01*
X36185500Y-54648821D01*
X36180882Y-54593402D01*
X36177364Y-54509500D01*
X36175261Y-54404037D01*
X36174801Y-54314291D01*
X36175103Y-53959749D01*
X36548215Y-53261249D01*
X36724669Y-53150074D01*
X36800084Y-53103783D01*
X36861123Y-53068621D01*
X36899772Y-53049076D01*
X36909065Y-53046842D01*
X36906308Y-53068676D01*
G36*
X40549860Y-50872940D02*
G01*
X40594171Y-50910172D01*
X40649577Y-50962890D01*
X40657264Y-50970623D01*
X40767666Y-51082413D01*
X40767666Y-51426480D01*
X40767420Y-51542451D01*
X40765816Y-51634914D01*
X40761555Y-51713307D01*
X40753338Y-51787070D01*
X40739866Y-51865642D01*
X40719840Y-51958462D01*
X40691962Y-52074968D01*
X40661436Y-52198397D01*
X40620967Y-52360865D01*
X40589208Y-52485846D01*
X40564762Y-52576963D01*
X40546230Y-52637839D01*
X40532215Y-52672097D01*
X40521316Y-52683357D01*
X40512135Y-52675244D01*
X40503275Y-52651379D01*
X40496248Y-52626249D01*
X40483837Y-52578641D01*
X40463314Y-52498300D01*
X40436792Y-52393571D01*
X40406386Y-52272801D01*
X40377161Y-52156144D01*
X40343326Y-52019587D01*
X40318515Y-51913443D01*
X40301328Y-51827098D01*
X40290367Y-51749936D01*
X40284233Y-51671341D01*
X40281527Y-51580696D01*
X40280850Y-51467386D01*
X40280833Y-51425171D01*
X40280833Y-51079636D01*
X40392623Y-50969234D01*
X40449505Y-50915705D01*
X40496297Y-50876476D01*
X40523910Y-50859094D01*
X40525638Y-50858832D01*
X40549860Y-50872940D01*
G37*
X40549860Y-50872940D02*
X40594171Y-50910172D01*
X40649577Y-50962890D01*
X40657264Y-50970623D01*
X40767666Y-51082413D01*
X40767666Y-51426480D01*
X40767420Y-51542451D01*
X40765816Y-51634914D01*
X40761555Y-51713307D01*
X40753338Y-51787070D01*
X40739866Y-51865642D01*
X40719840Y-51958462D01*
X40691962Y-52074968D01*
X40661436Y-52198397D01*
X40620967Y-52360865D01*
X40589208Y-52485846D01*
X40564762Y-52576963D01*
X40546230Y-52637839D01*
X40532215Y-52672097D01*
X40521316Y-52683357D01*
X40512135Y-52675244D01*
X40503275Y-52651379D01*
X40496248Y-52626249D01*
X40483837Y-52578641D01*
X40463314Y-52498300D01*
X40436792Y-52393571D01*
X40406386Y-52272801D01*
X40377161Y-52156144D01*
X40343326Y-52019587D01*
X40318515Y-51913443D01*
X40301328Y-51827098D01*
X40290367Y-51749936D01*
X40284233Y-51671341D01*
X40281527Y-51580696D01*
X40280850Y-51467386D01*
X40280833Y-51425171D01*
X40280833Y-51079636D01*
X40392623Y-50969234D01*
X40449505Y-50915705D01*
X40496297Y-50876476D01*
X40523910Y-50859094D01*
X40525638Y-50858832D01*
X40549860Y-50872940D01*
G36*
X40471333Y-50653069D02*
G01*
X40469956Y-50707957D01*
X40461873Y-50748917D01*
X40441156Y-50786812D01*
X40401875Y-50832503D01*
X40338472Y-50896485D01*
X40205611Y-51028166D01*
X39697756Y-51028166D01*
X39370134Y-50698610D01*
X39450667Y-50619971D01*
X39531201Y-50541332D01*
X40471333Y-50541332D01*
X40471333Y-50653069D01*
G37*
X40471333Y-50653069D02*
X40469956Y-50707957D01*
X40461873Y-50748917D01*
X40441156Y-50786812D01*
X40401875Y-50832503D01*
X40338472Y-50896485D01*
X40205611Y-51028166D01*
X39697756Y-51028166D01*
X39370134Y-50698610D01*
X39450667Y-50619971D01*
X39531201Y-50541332D01*
X40471333Y-50541332D01*
X40471333Y-50653069D01*
G36*
X28721124Y-52976876D02*
G01*
X28762085Y-52984958D01*
X28799979Y-53005676D01*
X28845670Y-53044957D01*
X28909653Y-53108360D01*
X29041333Y-53241221D01*
X29041333Y-54765075D01*
X28876555Y-54928887D01*
X28711777Y-55092698D01*
X28633138Y-55012164D01*
X28554500Y-54931631D01*
X28554500Y-52975499D01*
X28666236Y-52975499D01*
X28721124Y-52976876D01*
G37*
X28721124Y-52976876D02*
X28762085Y-52984958D01*
X28799979Y-53005676D01*
X28845670Y-53044957D01*
X28909653Y-53108360D01*
X29041333Y-53241221D01*
X29041333Y-54765075D01*
X28876555Y-54928887D01*
X28711777Y-55092698D01*
X28633138Y-55012164D01*
X28554500Y-54931631D01*
X28554500Y-52975499D01*
X28666236Y-52975499D01*
X28721124Y-52976876D01*
G36*
X37804333Y-51929442D02*
G01*
X37619125Y-52275065D01*
X37433916Y-52620688D01*
X37259291Y-52722930D01*
X37171163Y-52772159D01*
X37114883Y-52797698D01*
X37087932Y-52800569D01*
X37084666Y-52793795D01*
X37089627Y-52764945D01*
X37103531Y-52701319D01*
X37124911Y-52609179D01*
X37152303Y-52494781D01*
X37184238Y-52364386D01*
X37202196Y-52292167D01*
X37252579Y-52096511D01*
X37298025Y-51936112D01*
X37341486Y-51804635D01*
X37385910Y-51695742D01*
X37434249Y-51603100D01*
X37489452Y-51520372D01*
X37554468Y-51441223D01*
X37632249Y-51359317D01*
X37640291Y-51351279D01*
X37804333Y-51187909D01*
X37804333Y-51929442D01*
G37*
X37804333Y-51929442D02*
X37619125Y-52275065D01*
X37433916Y-52620688D01*
X37259291Y-52722930D01*
X37171163Y-52772159D01*
X37114883Y-52797698D01*
X37087932Y-52800569D01*
X37084666Y-52793795D01*
X37089627Y-52764945D01*
X37103531Y-52701319D01*
X37124911Y-52609179D01*
X37152303Y-52494781D01*
X37184238Y-52364386D01*
X37202196Y-52292167D01*
X37252579Y-52096511D01*
X37298025Y-51936112D01*
X37341486Y-51804635D01*
X37385910Y-51695742D01*
X37434249Y-51603100D01*
X37489452Y-51520372D01*
X37554468Y-51441223D01*
X37632249Y-51359317D01*
X37640291Y-51351279D01*
X37804333Y-51187909D01*
X37804333Y-51929442D01*
G36*
X29041333Y-51101256D02*
G01*
X29041333Y-52627472D01*
X28908472Y-52759152D01*
X28843513Y-52822311D01*
X28797313Y-52861161D01*
X28758971Y-52881600D01*
X28717586Y-52889525D01*
X28665055Y-52890832D01*
X28554500Y-52890832D01*
X28554500Y-50909470D01*
X28628910Y-50837348D01*
X28703321Y-50765226D01*
X29041333Y-51101256D01*
G37*
X29041333Y-51101256D02*
X29041333Y-52627472D01*
X28908472Y-52759152D01*
X28843513Y-52822311D01*
X28797313Y-52861161D01*
X28758971Y-52881600D01*
X28717586Y-52889525D01*
X28665055Y-52890832D01*
X28554500Y-52890832D01*
X28554500Y-50909470D01*
X28628910Y-50837348D01*
X28703321Y-50765226D01*
X29041333Y-51101256D01*
G36*
X41935516Y-86811852D02*
G01*
X42018590Y-86862649D01*
X42086466Y-86905319D01*
X42132027Y-86935304D01*
X42148167Y-86947972D01*
X42131172Y-86961230D01*
X42084931Y-86991609D01*
X42016562Y-87034551D01*
X41935516Y-87084092D01*
X41722865Y-87212556D01*
X41517474Y-87209895D01*
X41312084Y-87207235D01*
X41195667Y-87083540D01*
X41141951Y-87023962D01*
X41102643Y-86975547D01*
X41084433Y-86946695D01*
X41084008Y-86943325D01*
X41100138Y-86921403D01*
X41138724Y-86877908D01*
X41192279Y-86821192D01*
X41207941Y-86805097D01*
X41327115Y-86683389D01*
X41722865Y-86683389D01*
X41935516Y-86811852D01*
G37*
X41935516Y-86811852D02*
X42018590Y-86862649D01*
X42086466Y-86905319D01*
X42132027Y-86935304D01*
X42148167Y-86947972D01*
X42131172Y-86961230D01*
X42084931Y-86991609D01*
X42016562Y-87034551D01*
X41935516Y-87084092D01*
X41722865Y-87212556D01*
X41517474Y-87209895D01*
X41312084Y-87207235D01*
X41195667Y-87083540D01*
X41141951Y-87023962D01*
X41102643Y-86975547D01*
X41084433Y-86946695D01*
X41084008Y-86943325D01*
X41100138Y-86921403D01*
X41138724Y-86877908D01*
X41192279Y-86821192D01*
X41207941Y-86805097D01*
X41327115Y-86683389D01*
X41722865Y-86683389D01*
X41935516Y-86811852D01*
G36*
X42263016Y-87242024D02*
G01*
X42280470Y-87292799D01*
X42304844Y-87374237D01*
X42334623Y-87481095D01*
X42368291Y-87608131D01*
X42399211Y-87729558D01*
X42529167Y-88249116D01*
X42529167Y-89002362D01*
X42396284Y-89134063D01*
X42263402Y-89265764D01*
X42000000Y-89000000D01*
X42000000Y-88206733D01*
X42119369Y-87725519D01*
X42153801Y-87588537D01*
X42185650Y-87465258D01*
X42213304Y-87361650D01*
X42235152Y-87283678D01*
X42249581Y-87237310D01*
X42253997Y-87227153D01*
X42263016Y-87242024D01*
G37*
X42263016Y-87242024D02*
X42280470Y-87292799D01*
X42304844Y-87374237D01*
X42334623Y-87481095D01*
X42368291Y-87608131D01*
X42399211Y-87729558D01*
X42529167Y-88249116D01*
X42529167Y-89002362D01*
X42396284Y-89134063D01*
X42263402Y-89265764D01*
X42000000Y-89000000D01*
X42000000Y-88206733D01*
X42119369Y-87725519D01*
X42153801Y-87588537D01*
X42185650Y-87465258D01*
X42213304Y-87361650D01*
X42235152Y-87283678D01*
X42249581Y-87237310D01*
X42253997Y-87227153D01*
X42263016Y-87242024D01*
G36*
X39883334Y-89172241D02*
G01*
X39702152Y-89350057D01*
X39528160Y-89175156D01*
X39354167Y-89000255D01*
X39354167Y-87285503D01*
X39640979Y-87000889D01*
X39883334Y-87000889D01*
X39883334Y-89172241D01*
G37*
X39883334Y-89172241D02*
X39702152Y-89350057D01*
X39528160Y-89175156D01*
X39354167Y-89000255D01*
X39354167Y-87285503D01*
X39640979Y-87000889D01*
X39883334Y-87000889D01*
X39883334Y-89172241D01*
G36*
X39402454Y-86805711D02*
G01*
X39458757Y-86865058D01*
X39501114Y-86914372D01*
X39522329Y-86945120D01*
X39523500Y-86949249D01*
X39509374Y-86973094D01*
X39471843Y-87017657D01*
X39418180Y-87074480D01*
X39401178Y-87091510D01*
X39278856Y-87212556D01*
X39078386Y-87212524D01*
X38877917Y-87212493D01*
X38679167Y-87090339D01*
X38598757Y-87039435D01*
X38533507Y-86995310D01*
X38490899Y-86963208D01*
X38478083Y-86949406D01*
X38494095Y-86931465D01*
X38539306Y-86897125D01*
X38606490Y-86851561D01*
X38676834Y-86807039D01*
X38877917Y-86683452D01*
X39079663Y-86683420D01*
X39281409Y-86683389D01*
X39402454Y-86805711D01*
G37*
X39402454Y-86805711D02*
X39458757Y-86865058D01*
X39501114Y-86914372D01*
X39522329Y-86945120D01*
X39523500Y-86949249D01*
X39509374Y-86973094D01*
X39471843Y-87017657D01*
X39418180Y-87074480D01*
X39401178Y-87091510D01*
X39278856Y-87212556D01*
X39078386Y-87212524D01*
X38877917Y-87212493D01*
X38679167Y-87090339D01*
X38598757Y-87039435D01*
X38533507Y-86995310D01*
X38490899Y-86963208D01*
X38478083Y-86949406D01*
X38494095Y-86931465D01*
X38539306Y-86897125D01*
X38606490Y-86851561D01*
X38676834Y-86807039D01*
X38877917Y-86683452D01*
X39079663Y-86683420D01*
X39281409Y-86683389D01*
X39402454Y-86805711D01*
G36*
X38013918Y-86812658D02*
G01*
X38098374Y-86863117D01*
X38167642Y-86905401D01*
X38214650Y-86935130D01*
X38232328Y-86947924D01*
X38232334Y-86947972D01*
X38215248Y-86960422D01*
X38168704Y-86989886D01*
X38099773Y-87031983D01*
X38015527Y-87082334D01*
X38013918Y-87083286D01*
X37795502Y-87212556D01*
X37394925Y-87212556D01*
X37273879Y-87090233D01*
X37217577Y-87030887D01*
X37175219Y-86981572D01*
X37154005Y-86950825D01*
X37152834Y-86946696D01*
X37166960Y-86922850D01*
X37204490Y-86878287D01*
X37258154Y-86821464D01*
X37275156Y-86804435D01*
X37397478Y-86683389D01*
X37795502Y-86683389D01*
X38013918Y-86812658D01*
G37*
X38013918Y-86812658D02*
X38098374Y-86863117D01*
X38167642Y-86905401D01*
X38214650Y-86935130D01*
X38232328Y-86947924D01*
X38232334Y-86947972D01*
X38215248Y-86960422D01*
X38168704Y-86989886D01*
X38099773Y-87031983D01*
X38015527Y-87082334D01*
X38013918Y-87083286D01*
X37795502Y-87212556D01*
X37394925Y-87212556D01*
X37273879Y-87090233D01*
X37217577Y-87030887D01*
X37175219Y-86981572D01*
X37154005Y-86950825D01*
X37152834Y-86946696D01*
X37166960Y-86922850D01*
X37204490Y-86878287D01*
X37258154Y-86821464D01*
X37275156Y-86804435D01*
X37397478Y-86683389D01*
X37795502Y-86683389D01*
X38013918Y-86812658D01*
G36*
X42069360Y-89218628D02*
G01*
X42211667Y-89362035D01*
X42211667Y-89604389D01*
X41140758Y-89604389D01*
X41062379Y-89524121D01*
X41018198Y-89475236D01*
X40989773Y-89436797D01*
X40984000Y-89423083D01*
X40998190Y-89400561D01*
X41036626Y-89355573D01*
X41093109Y-89295063D01*
X41148510Y-89238767D01*
X41313020Y-89075222D01*
X41927052Y-89075222D01*
X42069360Y-89218628D01*
G37*
X42069360Y-89218628D02*
X42211667Y-89362035D01*
X42211667Y-89604389D01*
X41140758Y-89604389D01*
X41062379Y-89524121D01*
X41018198Y-89475236D01*
X40989773Y-89436797D01*
X40984000Y-89423083D01*
X40998190Y-89400561D01*
X41036626Y-89355573D01*
X41093109Y-89295063D01*
X41148510Y-89238767D01*
X41313020Y-89075222D01*
X41927052Y-89075222D01*
X42069360Y-89218628D01*
G36*
X43375567Y-89254871D02*
G01*
X43554282Y-89434519D01*
X43471345Y-89519454D01*
X43388409Y-89604389D01*
X42317500Y-89604389D01*
X42317500Y-89359837D01*
X42460906Y-89217529D01*
X42604313Y-89075222D01*
X43196851Y-89075222D01*
X43375567Y-89254871D01*
G37*
X43375567Y-89254871D02*
X43554282Y-89434519D01*
X43471345Y-89519454D01*
X43388409Y-89604389D01*
X42317500Y-89604389D01*
X42317500Y-89359837D01*
X42460906Y-89217529D01*
X42604313Y-89075222D01*
X43196851Y-89075222D01*
X43375567Y-89254871D01*
G36*
X42211667Y-84536108D02*
G01*
X42068261Y-84678415D01*
X41924854Y-84820722D01*
X41311090Y-84820722D01*
X41147545Y-84656212D01*
X41081264Y-84587668D01*
X41027884Y-84528901D01*
X40993575Y-84486936D01*
X40984000Y-84470008D01*
X40998070Y-84444037D01*
X41034138Y-84400950D01*
X41064268Y-84369935D01*
X41144535Y-84291556D01*
X42211667Y-84291556D01*
X42211667Y-84536108D01*
G37*
X42211667Y-84536108D02*
X42068261Y-84678415D01*
X41924854Y-84820722D01*
X41311090Y-84820722D01*
X41147545Y-84656212D01*
X41081264Y-84587668D01*
X41027884Y-84528901D01*
X40993575Y-84486936D01*
X40984000Y-84470008D01*
X40998070Y-84444037D01*
X41034138Y-84400950D01*
X41064268Y-84369935D01*
X41144535Y-84291556D01*
X42211667Y-84291556D01*
X42211667Y-84536108D01*
G36*
X37148174Y-84720788D02*
G01*
X37322167Y-84895690D01*
X37322167Y-86610441D01*
X37178761Y-86752748D01*
X37035354Y-86895056D01*
X36793000Y-86895056D01*
X36793000Y-84723703D01*
X36883591Y-84634795D01*
X36974181Y-84545887D01*
X37148174Y-84720788D01*
G37*
X37148174Y-84720788D02*
X37322167Y-84895690D01*
X37322167Y-86610441D01*
X37178761Y-86752748D01*
X37035354Y-86895056D01*
X36793000Y-86895056D01*
X36793000Y-84723703D01*
X36883591Y-84634795D01*
X36974181Y-84545887D01*
X37148174Y-84720788D01*
G36*
X37179860Y-87144295D02*
G01*
X37322167Y-87287701D01*
X37322167Y-89002073D01*
X37146876Y-89176454D01*
X36971585Y-89350834D01*
X36882292Y-89259852D01*
X36793000Y-89168870D01*
X36793000Y-87000889D01*
X37037552Y-87000889D01*
X37179860Y-87144295D01*
G37*
X37179860Y-87144295D02*
X37322167Y-87287701D01*
X37322167Y-89002073D01*
X37146876Y-89176454D01*
X36971585Y-89350834D01*
X36882292Y-89259852D01*
X36793000Y-89168870D01*
X36793000Y-87000889D01*
X37037552Y-87000889D01*
X37179860Y-87144295D01*
G36*
X69420893Y-53327692D02*
G01*
X69468456Y-53349020D01*
X69536559Y-53385289D01*
X69599004Y-53421539D01*
X69790326Y-53536259D01*
X69996331Y-53920403D01*
X70202335Y-54304547D01*
X70190849Y-55108147D01*
X70028316Y-54958355D01*
X69947996Y-54880837D01*
X69879895Y-54805484D01*
X69821428Y-54726751D01*
X69770008Y-54639091D01*
X69723049Y-54536959D01*
X69677964Y-54414809D01*
X69632168Y-54267095D01*
X69583073Y-54088270D01*
X69535062Y-53900665D01*
X69498470Y-53753103D01*
X69465910Y-53618871D01*
X69438656Y-53503471D01*
X69417985Y-53412401D01*
X69405173Y-53351162D01*
X69401496Y-53325254D01*
X69401548Y-53325056D01*
X69420893Y-53327692D01*
G37*
X69420893Y-53327692D02*
X69468456Y-53349020D01*
X69536559Y-53385289D01*
X69599004Y-53421539D01*
X69790326Y-53536259D01*
X69996331Y-53920403D01*
X70202335Y-54304547D01*
X70190849Y-55108147D01*
X70028316Y-54958355D01*
X69947996Y-54880837D01*
X69879895Y-54805484D01*
X69821428Y-54726751D01*
X69770008Y-54639091D01*
X69723049Y-54536959D01*
X69677964Y-54414809D01*
X69632168Y-54267095D01*
X69583073Y-54088270D01*
X69535062Y-53900665D01*
X69498470Y-53753103D01*
X69465910Y-53618871D01*
X69438656Y-53503471D01*
X69417985Y-53412401D01*
X69405173Y-53351162D01*
X69401496Y-53325254D01*
X69401548Y-53325056D01*
X69420893Y-53327692D01*
G36*
X69094976Y-55449079D02*
G01*
X69164255Y-55518667D01*
X69208830Y-55567896D01*
X69234149Y-55606123D01*
X69245656Y-55642709D01*
X69248797Y-55687010D01*
X69248933Y-55713662D01*
X69248933Y-55825317D01*
X68178024Y-55825317D01*
X68095087Y-55740382D01*
X68012151Y-55655447D01*
X68190866Y-55475799D01*
X68369581Y-55296150D01*
X68941020Y-55296150D01*
X69094976Y-55449079D01*
G37*
X69094976Y-55449079D02*
X69164255Y-55518667D01*
X69208830Y-55567896D01*
X69234149Y-55606123D01*
X69245656Y-55642709D01*
X69248797Y-55687010D01*
X69248933Y-55713662D01*
X69248933Y-55825317D01*
X68178024Y-55825317D01*
X68095087Y-55740382D01*
X68012151Y-55655447D01*
X68190866Y-55475799D01*
X68369581Y-55296150D01*
X68941020Y-55296150D01*
X69094976Y-55449079D01*
G36*
X66482123Y-55482070D02*
G01*
X66667182Y-55667990D01*
X66586623Y-55746653D01*
X66506064Y-55825317D01*
X65438933Y-55825317D01*
X65438933Y-55580765D01*
X65582339Y-55438457D01*
X65725745Y-55296150D01*
X66297065Y-55296150D01*
X66482123Y-55482070D01*
G37*
X66482123Y-55482070D02*
X66667182Y-55667990D01*
X66586623Y-55746653D01*
X66506064Y-55825317D01*
X65438933Y-55825317D01*
X65438933Y-55580765D01*
X65582339Y-55438457D01*
X65725745Y-55296150D01*
X66297065Y-55296150D01*
X66482123Y-55482070D01*
G36*
X64227752Y-53375845D02*
G01*
X64359433Y-53508706D01*
X64359433Y-55244227D01*
X64194923Y-55407772D01*
X64126378Y-55474053D01*
X64067611Y-55527433D01*
X64025647Y-55561742D01*
X64008718Y-55571317D01*
X63982748Y-55557247D01*
X63939661Y-55521179D01*
X63908645Y-55491049D01*
X63830266Y-55410782D01*
X63830266Y-53242984D01*
X64096072Y-53242984D01*
X64227752Y-53375845D01*
G37*
X64227752Y-53375845D02*
X64359433Y-53508706D01*
X64359433Y-55244227D01*
X64194923Y-55407772D01*
X64126378Y-55474053D01*
X64067611Y-55527433D01*
X64025647Y-55561742D01*
X64008718Y-55571317D01*
X63982748Y-55557247D01*
X63939661Y-55521179D01*
X63908645Y-55491049D01*
X63830266Y-55410782D01*
X63830266Y-53242984D01*
X64096072Y-53242984D01*
X64227752Y-53375845D01*
G36*
X65277324Y-53331809D02*
G01*
X65265207Y-53389300D01*
X65245097Y-53477206D01*
X65218235Y-53590226D01*
X65185863Y-53723060D01*
X65149223Y-53870406D01*
X65144541Y-53889040D01*
X65092790Y-54091137D01*
X65047365Y-54257675D01*
X65005614Y-54394464D01*
X64964886Y-54507317D01*
X64922527Y-54602043D01*
X64875886Y-54684454D01*
X64822311Y-54760361D01*
X64759150Y-54835575D01*
X64683751Y-54915907D01*
X64669002Y-54931025D01*
X64600000Y-55000000D01*
X64541116Y-55056120D01*
X64498897Y-55093329D01*
X64480350Y-55105650D01*
X64475227Y-55085566D01*
X64471366Y-55029619D01*
X64468941Y-54944263D01*
X64468129Y-54835956D01*
X64469103Y-54711151D01*
X64469303Y-54698192D01*
X64475856Y-54290734D01*
X64642395Y-53983817D01*
X64718802Y-53843392D01*
X64779362Y-53734591D01*
X64828438Y-53651840D01*
X64870394Y-53589565D01*
X64909593Y-53542194D01*
X64950398Y-53504152D01*
X64997173Y-53469866D01*
X65054282Y-53433763D01*
X65089930Y-53412167D01*
X65167078Y-53366753D01*
X65229727Y-53332109D01*
X65269862Y-53312537D01*
X65280205Y-53310034D01*
X65277324Y-53331809D01*
G37*
X65277324Y-53331809D02*
X65265207Y-53389300D01*
X65245097Y-53477206D01*
X65218235Y-53590226D01*
X65185863Y-53723060D01*
X65149223Y-53870406D01*
X65144541Y-53889040D01*
X65092790Y-54091137D01*
X65047365Y-54257675D01*
X65005614Y-54394464D01*
X64964886Y-54507317D01*
X64922527Y-54602043D01*
X64875886Y-54684454D01*
X64822311Y-54760361D01*
X64759150Y-54835575D01*
X64683751Y-54915907D01*
X64669002Y-54931025D01*
X64600000Y-55000000D01*
X64541116Y-55056120D01*
X64498897Y-55093329D01*
X64480350Y-55105650D01*
X64475227Y-55085566D01*
X64471366Y-55029619D01*
X64468941Y-54944263D01*
X64468129Y-54835956D01*
X64469103Y-54711151D01*
X64469303Y-54698192D01*
X64475856Y-54290734D01*
X64642395Y-53983817D01*
X64718802Y-53843392D01*
X64779362Y-53734591D01*
X64828438Y-53651840D01*
X64870394Y-53589565D01*
X64909593Y-53542194D01*
X64950398Y-53504152D01*
X64997173Y-53469866D01*
X65054282Y-53433763D01*
X65089930Y-53412167D01*
X65167078Y-53366753D01*
X65229727Y-53332109D01*
X65269862Y-53312537D01*
X65280205Y-53310034D01*
X65277324Y-53331809D01*
G36*
X60443599Y-53508706D02*
G01*
X60443599Y-55244227D01*
X60279089Y-55407772D01*
X60210545Y-55474053D01*
X60151778Y-55527433D01*
X60109813Y-55561742D01*
X60092885Y-55571317D01*
X60066914Y-55557247D01*
X60023827Y-55521179D01*
X59992812Y-55491049D01*
X59914433Y-55410782D01*
X59914433Y-53242984D01*
X60180239Y-53242984D01*
X60443599Y-53508706D01*
G37*
X60443599Y-53508706D02*
X60443599Y-55244227D01*
X60279089Y-55407772D01*
X60210545Y-55474053D01*
X60151778Y-55527433D01*
X60109813Y-55561742D01*
X60092885Y-55571317D01*
X60066914Y-55557247D01*
X60023827Y-55521179D01*
X59992812Y-55491049D01*
X59914433Y-55410782D01*
X59914433Y-53242984D01*
X60180239Y-53242984D01*
X60443599Y-53508706D01*
G36*
X65042259Y-53036609D02*
G01*
X65128634Y-53087805D01*
X65199812Y-53131549D01*
X65248810Y-53163434D01*
X65268642Y-53179053D01*
X65268759Y-53179484D01*
X65251510Y-53193683D01*
X65204693Y-53224687D01*
X65135331Y-53268011D01*
X65050445Y-53319169D01*
X65045065Y-53322359D01*
X64821678Y-53454650D01*
X64453460Y-53454650D01*
X64317099Y-53317067D01*
X64180739Y-53179484D01*
X64317099Y-53041900D01*
X64453460Y-52904317D01*
X64815453Y-52904317D01*
X65042259Y-53036609D01*
G37*
X65042259Y-53036609D02*
X65128634Y-53087805D01*
X65199812Y-53131549D01*
X65248810Y-53163434D01*
X65268642Y-53179053D01*
X65268759Y-53179484D01*
X65251510Y-53193683D01*
X65204693Y-53224687D01*
X65135331Y-53268011D01*
X65050445Y-53319169D01*
X65045065Y-53322359D01*
X64821678Y-53454650D01*
X64453460Y-53454650D01*
X64317099Y-53317067D01*
X64180739Y-53179484D01*
X64317099Y-53041900D01*
X64453460Y-52904317D01*
X64815453Y-52904317D01*
X65042259Y-53036609D01*
G36*
X62517933Y-53041900D02*
G01*
X62654293Y-53179484D01*
X62517933Y-53317067D01*
X62381572Y-53454650D01*
X62018250Y-53454650D01*
X61802424Y-53327047D01*
X61718289Y-53275869D01*
X61649492Y-53231291D01*
X61603205Y-53198152D01*
X61586599Y-53181419D01*
X61603711Y-53164144D01*
X61650291Y-53130469D01*
X61719209Y-53085267D01*
X61802587Y-53033856D01*
X62018575Y-52904317D01*
X62381572Y-52904317D01*
X62517933Y-53041900D01*
G37*
X62517933Y-53041900D02*
X62654293Y-53179484D01*
X62517933Y-53317067D01*
X62381572Y-53454650D01*
X62018250Y-53454650D01*
X61802424Y-53327047D01*
X61718289Y-53275869D01*
X61649492Y-53231291D01*
X61603205Y-53198152D01*
X61586599Y-53181419D01*
X61603711Y-53164144D01*
X61650291Y-53130469D01*
X61719209Y-53085267D01*
X61802587Y-53033856D01*
X62018575Y-52904317D01*
X62381572Y-52904317D01*
X62517933Y-53041900D01*
G36*
X70349599Y-53041900D02*
G01*
X70485960Y-53179484D01*
X70349599Y-53317067D01*
X70213239Y-53454650D01*
X70032711Y-53453850D01*
X69852183Y-53453049D01*
X69635224Y-53321651D01*
X69551221Y-53269925D01*
X69482359Y-53225903D01*
X69435690Y-53194209D01*
X69418269Y-53179467D01*
X69418266Y-53179410D01*
X69435335Y-53165002D01*
X69481860Y-53133676D01*
X69550813Y-53089992D01*
X69635168Y-53038508D01*
X69638611Y-53036443D01*
X69858956Y-52904317D01*
X70213239Y-52904317D01*
X70349599Y-53041900D01*
G37*
X70349599Y-53041900D02*
X70485960Y-53179484D01*
X70349599Y-53317067D01*
X70213239Y-53454650D01*
X70032711Y-53453850D01*
X69852183Y-53453049D01*
X69635224Y-53321651D01*
X69551221Y-53269925D01*
X69482359Y-53225903D01*
X69435690Y-53194209D01*
X69418269Y-53179467D01*
X69418266Y-53179410D01*
X69435335Y-53165002D01*
X69481860Y-53133676D01*
X69550813Y-53089992D01*
X69635168Y-53038508D01*
X69638611Y-53036443D01*
X69858956Y-52904317D01*
X70213239Y-52904317D01*
X70349599Y-53041900D01*
G36*
X65179143Y-55449079D02*
G01*
X65248421Y-55518667D01*
X65292997Y-55567896D01*
X65318315Y-55606123D01*
X65329822Y-55642709D01*
X65332964Y-55687010D01*
X65333099Y-55713662D01*
X65333099Y-55825317D01*
X64240737Y-55825317D01*
X64173085Y-55755517D01*
X64132488Y-55709478D01*
X64108347Y-55674077D01*
X64105433Y-55665092D01*
X64119636Y-55642846D01*
X64158249Y-55597820D01*
X64215273Y-55536689D01*
X64280500Y-55470308D01*
X64455567Y-55296150D01*
X65025187Y-55296150D01*
X65179143Y-55449079D01*
G37*
X65179143Y-55449079D02*
X65248421Y-55518667D01*
X65292997Y-55567896D01*
X65318315Y-55606123D01*
X65329822Y-55642709D01*
X65332964Y-55687010D01*
X65333099Y-55713662D01*
X65333099Y-55825317D01*
X64240737Y-55825317D01*
X64173085Y-55755517D01*
X64132488Y-55709478D01*
X64108347Y-55674077D01*
X64105433Y-55665092D01*
X64119636Y-55642846D01*
X64158249Y-55597820D01*
X64215273Y-55536689D01*
X64280500Y-55470308D01*
X64455567Y-55296150D01*
X65025187Y-55296150D01*
X65179143Y-55449079D01*
G36*
X61114183Y-53033586D02*
G01*
X61198823Y-53084986D01*
X61268185Y-53129597D01*
X61315151Y-53162662D01*
X61332598Y-53179424D01*
X61332599Y-53179484D01*
X61315436Y-53196085D01*
X61268693Y-53229030D01*
X61199493Y-53273562D01*
X61114954Y-53324925D01*
X61114183Y-53325381D01*
X60895768Y-53454650D01*
X60537626Y-53454650D01*
X60401266Y-53317067D01*
X60264905Y-53179484D01*
X60401266Y-53041900D01*
X60537626Y-52904317D01*
X60895768Y-52904317D01*
X61114183Y-53033586D01*
G37*
X61114183Y-53033586D02*
X61198823Y-53084986D01*
X61268185Y-53129597D01*
X61315151Y-53162662D01*
X61332598Y-53179424D01*
X61332599Y-53179484D01*
X61315436Y-53196085D01*
X61268693Y-53229030D01*
X61199493Y-53273562D01*
X61114954Y-53324925D01*
X61114183Y-53325381D01*
X60895768Y-53454650D01*
X60537626Y-53454650D01*
X60401266Y-53317067D01*
X60264905Y-53179484D01*
X60401266Y-53041900D01*
X60537626Y-52904317D01*
X60895768Y-52904317D01*
X61114183Y-53033586D01*
G36*
X70410693Y-55475108D02*
G01*
X70592897Y-55654065D01*
X70509286Y-55739691D01*
X70425674Y-55825317D01*
X69354766Y-55825317D01*
X69354766Y-55580765D01*
X69498172Y-55438457D01*
X69641578Y-55296150D01*
X70228489Y-55296150D01*
X70410693Y-55475108D01*
G37*
X70410693Y-55475108D02*
X70592897Y-55654065D01*
X70509286Y-55739691D01*
X70425674Y-55825317D01*
X69354766Y-55825317D01*
X69354766Y-55580765D01*
X69498172Y-55438457D01*
X69641578Y-55296150D01*
X70228489Y-55296150D01*
X70410693Y-55475108D01*
G36*
X73641062Y-134996841D02*
G01*
X73658669Y-135056641D01*
X73683047Y-135145644D01*
X73712582Y-135257883D01*
X73745664Y-135387392D01*
X73766464Y-135470577D01*
X73885833Y-135951790D01*
X73885833Y-136768688D01*
X73763511Y-136889734D01*
X73705652Y-136945790D01*
X73659706Y-136988072D01*
X73633460Y-137009485D01*
X73630608Y-137010780D01*
X73611991Y-136996756D01*
X73571192Y-136959258D01*
X73515558Y-136905148D01*
X73488346Y-136877919D01*
X73356666Y-136745058D01*
X73356666Y-135994173D01*
X73486622Y-135474616D01*
X73522424Y-135334417D01*
X73555641Y-135209886D01*
X73584755Y-135106265D01*
X73608253Y-135028798D01*
X73624620Y-134982725D01*
X73631836Y-134972211D01*
X73641062Y-134996841D01*
G37*
X73641062Y-134996841D02*
X73658669Y-135056641D01*
X73683047Y-135145644D01*
X73712582Y-135257883D01*
X73745664Y-135387392D01*
X73766464Y-135470577D01*
X73885833Y-135951790D01*
X73885833Y-136768688D01*
X73763511Y-136889734D01*
X73705652Y-136945790D01*
X73659706Y-136988072D01*
X73633460Y-137009485D01*
X73630608Y-137010780D01*
X73611991Y-136996756D01*
X73571192Y-136959258D01*
X73515558Y-136905148D01*
X73488346Y-136877919D01*
X73356666Y-136745058D01*
X73356666Y-135994173D01*
X73486622Y-135474616D01*
X73522424Y-135334417D01*
X73555641Y-135209886D01*
X73584755Y-135106265D01*
X73608253Y-135028798D01*
X73624620Y-134982725D01*
X73631836Y-134972211D01*
X73641062Y-134996841D01*
G36*
X65736666Y-137107092D02*
G01*
X65736666Y-137349447D01*
X64665758Y-137349447D01*
X64499884Y-137179577D01*
X64678600Y-136999928D01*
X64857315Y-136820280D01*
X65452052Y-136820280D01*
X65736666Y-137107092D01*
G37*
X65736666Y-137107092D02*
X65736666Y-137349447D01*
X64665758Y-137349447D01*
X64499884Y-137179577D01*
X64678600Y-136999928D01*
X64857315Y-136820280D01*
X65452052Y-136820280D01*
X65736666Y-137107092D01*
G36*
X71240000Y-136938688D02*
G01*
X71159732Y-137017067D01*
X71113022Y-137060965D01*
X71079389Y-137089408D01*
X71069306Y-137095447D01*
X71051282Y-137081333D01*
X71009850Y-137042953D01*
X70951264Y-136986244D01*
X70884991Y-136920379D01*
X70710833Y-136745312D01*
X70710833Y-135030561D01*
X70997645Y-134745947D01*
X71240000Y-134745947D01*
X71240000Y-136938688D01*
G37*
X71240000Y-136938688D02*
X71159732Y-137017067D01*
X71113022Y-137060965D01*
X71079389Y-137089408D01*
X71069306Y-137095447D01*
X71051282Y-137081333D01*
X71009850Y-137042953D01*
X70951264Y-136986244D01*
X70884991Y-136920379D01*
X70710833Y-136745312D01*
X70710833Y-135030561D01*
X70997645Y-134745947D01*
X71240000Y-134745947D01*
X71240000Y-136938688D01*
G36*
X73758807Y-132512838D02*
G01*
X73885833Y-132638538D01*
X73885833Y-133455436D01*
X73766464Y-133936650D01*
X73732122Y-134073494D01*
X73700492Y-134196519D01*
X73673162Y-134299788D01*
X73651721Y-134377364D01*
X73637756Y-134423310D01*
X73633624Y-134433227D01*
X73625174Y-134417785D01*
X73608284Y-134366387D01*
X73584417Y-134284236D01*
X73555036Y-134176537D01*
X73521602Y-134048493D01*
X73487888Y-133914644D01*
X73355622Y-133380697D01*
X73356666Y-132659807D01*
X73494224Y-132523472D01*
X73631781Y-132387137D01*
X73758807Y-132512838D01*
G37*
X73758807Y-132512838D02*
X73885833Y-132638538D01*
X73885833Y-133455436D01*
X73766464Y-133936650D01*
X73732122Y-134073494D01*
X73700492Y-134196519D01*
X73673162Y-134299788D01*
X73651721Y-134377364D01*
X73637756Y-134423310D01*
X73633624Y-134433227D01*
X73625174Y-134417785D01*
X73608284Y-134366387D01*
X73584417Y-134284236D01*
X73555036Y-134176537D01*
X73521602Y-134048493D01*
X73487888Y-133914644D01*
X73355622Y-133380697D01*
X73356666Y-132659807D01*
X73494224Y-132523472D01*
X73631781Y-132387137D01*
X73758807Y-132512838D01*
G36*
X70816399Y-136999928D02*
G01*
X70995115Y-137179577D01*
X70829241Y-137349447D01*
X69758333Y-137349447D01*
X69758333Y-137104894D01*
X70045145Y-136820280D01*
X70637684Y-136820280D01*
X70816399Y-136999928D01*
G37*
X70816399Y-136999928D02*
X70995115Y-137179577D01*
X70829241Y-137349447D01*
X69758333Y-137349447D01*
X69758333Y-137104894D01*
X70045145Y-136820280D01*
X70637684Y-136820280D01*
X70816399Y-136999928D01*
G36*
X66900566Y-136999928D02*
G01*
X67079281Y-137179577D01*
X66996345Y-137264512D01*
X66913408Y-137349447D01*
X65842500Y-137349447D01*
X65842500Y-137104894D01*
X66129312Y-136820280D01*
X66721851Y-136820280D01*
X66900566Y-136999928D01*
G37*
X66900566Y-136999928D02*
X67079281Y-137179577D01*
X66996345Y-137264512D01*
X66913408Y-137349447D01*
X65842500Y-137349447D01*
X65842500Y-137104894D01*
X66129312Y-136820280D01*
X66721851Y-136820280D01*
X66900566Y-136999928D01*
G36*
X73292182Y-134556910D02*
G01*
X73375333Y-134608315D01*
X73443181Y-134652494D01*
X73488592Y-134684645D01*
X73504453Y-134699785D01*
X73487135Y-134715571D01*
X73440396Y-134747547D01*
X73371576Y-134790909D01*
X73296471Y-134835905D01*
X73088868Y-134957613D01*
X72688693Y-134957613D01*
X72556992Y-134824731D01*
X72425291Y-134691848D01*
X72558173Y-134560147D01*
X72691055Y-134428447D01*
X73079531Y-134428447D01*
X73292182Y-134556910D01*
G37*
X73292182Y-134556910D02*
X73375333Y-134608315D01*
X73443181Y-134652494D01*
X73488592Y-134684645D01*
X73504453Y-134699785D01*
X73487135Y-134715571D01*
X73440396Y-134747547D01*
X73371576Y-134790909D01*
X73296471Y-134835905D01*
X73088868Y-134957613D01*
X72688693Y-134957613D01*
X72556992Y-134824731D01*
X72425291Y-134691848D01*
X72558173Y-134560147D01*
X72691055Y-134428447D01*
X73079531Y-134428447D01*
X73292182Y-134556910D01*
G36*
X65454638Y-134557649D02*
G01*
X65538177Y-134608798D01*
X65605252Y-134653146D01*
X65649143Y-134686010D01*
X65663129Y-134702707D01*
X65663045Y-134702865D01*
X65641822Y-134719621D01*
X65591951Y-134752678D01*
X65521317Y-134796951D01*
X65453120Y-134838246D01*
X65253092Y-134957613D01*
X64835758Y-134957613D01*
X64710057Y-134830587D01*
X64584357Y-134703562D01*
X64720692Y-134566004D01*
X64857027Y-134428447D01*
X65236335Y-134428447D01*
X65454638Y-134557649D01*
G37*
X65454638Y-134557649D02*
X65538177Y-134608798D01*
X65605252Y-134653146D01*
X65649143Y-134686010D01*
X65663129Y-134702707D01*
X65663045Y-134702865D01*
X65641822Y-134719621D01*
X65591951Y-134752678D01*
X65521317Y-134796951D01*
X65453120Y-134838246D01*
X65253092Y-134957613D01*
X64835758Y-134957613D01*
X64710057Y-134830587D01*
X64584357Y-134703562D01*
X64720692Y-134566004D01*
X64857027Y-134428447D01*
X65236335Y-134428447D01*
X65454638Y-134557649D01*
G36*
X67324166Y-136938688D02*
G01*
X67243899Y-137017067D01*
X67197189Y-137060965D01*
X67163556Y-137089408D01*
X67153473Y-137095447D01*
X67135448Y-137081333D01*
X67094017Y-137042953D01*
X67035431Y-136986244D01*
X66969157Y-136920379D01*
X66795000Y-136745312D01*
X66795000Y-135030561D01*
X67081812Y-134745947D01*
X67324166Y-134745947D01*
X67324166Y-136938688D01*
G37*
X67324166Y-136938688D02*
X67243899Y-137017067D01*
X67197189Y-137060965D01*
X67163556Y-137089408D01*
X67153473Y-137095447D01*
X67135448Y-137081333D01*
X67094017Y-137042953D01*
X67035431Y-136986244D01*
X66969157Y-136920379D01*
X66795000Y-136745312D01*
X66795000Y-135030561D01*
X67081812Y-134745947D01*
X67324166Y-134745947D01*
X67324166Y-136938688D01*
G36*
X74732233Y-136999928D02*
G01*
X74910948Y-137179577D01*
X74828011Y-137264512D01*
X74745075Y-137349447D01*
X73674166Y-137349447D01*
X73674166Y-137104894D01*
X73817572Y-136962587D01*
X73960979Y-136820280D01*
X74553517Y-136820280D01*
X74732233Y-136999928D01*
G37*
X74732233Y-136999928D02*
X74910948Y-137179577D01*
X74828011Y-137264512D01*
X74745075Y-137349447D01*
X73674166Y-137349447D01*
X73674166Y-137104894D01*
X73817572Y-136962587D01*
X73960979Y-136820280D01*
X74553517Y-136820280D01*
X74732233Y-136999928D01*
G36*
X74690141Y-134566004D02*
G01*
X74826475Y-134703562D01*
X74700775Y-134830587D01*
X74575075Y-134957613D01*
X74362745Y-134955978D01*
X74150416Y-134954342D01*
X73942604Y-134826685D01*
X73853856Y-134771338D01*
X73796918Y-134732943D01*
X73767010Y-134707163D01*
X73759351Y-134689666D01*
X73769160Y-134676117D01*
X73773271Y-134673179D01*
X73807449Y-134651516D01*
X73868019Y-134614315D01*
X73944990Y-134567684D01*
X73994606Y-134537888D01*
X74177462Y-134428447D01*
X74553806Y-134428447D01*
X74690141Y-134566004D01*
G37*
X74690141Y-134566004D02*
X74826475Y-134703562D01*
X74700775Y-134830587D01*
X74575075Y-134957613D01*
X74362745Y-134955978D01*
X74150416Y-134954342D01*
X73942604Y-134826685D01*
X73853856Y-134771338D01*
X73796918Y-134732943D01*
X73767010Y-134707163D01*
X73759351Y-134689666D01*
X73769160Y-134676117D01*
X73773271Y-134673179D01*
X73807449Y-134651516D01*
X73868019Y-134614315D01*
X73944990Y-134567684D01*
X73994606Y-134537888D01*
X74177462Y-134428447D01*
X74553806Y-134428447D01*
X74690141Y-134566004D01*
G36*
X66985541Y-134694211D02*
G01*
X66719777Y-134957613D01*
X66519263Y-134957332D01*
X66318750Y-134957051D01*
X66112807Y-134835624D01*
X66030769Y-134786187D01*
X65964159Y-134744020D01*
X65920329Y-134713914D01*
X65906432Y-134701131D01*
X65923236Y-134685638D01*
X65969276Y-134653210D01*
X66037453Y-134608638D01*
X66118144Y-134558256D01*
X66330289Y-134428447D01*
X66722139Y-134428447D01*
X66985541Y-134694211D01*
G37*
X66985541Y-134694211D02*
X66719777Y-134957613D01*
X66519263Y-134957332D01*
X66318750Y-134957051D01*
X66112807Y-134835624D01*
X66030769Y-134786187D01*
X65964159Y-134744020D01*
X65920329Y-134713914D01*
X65906432Y-134701131D01*
X65923236Y-134685638D01*
X65969276Y-134653210D01*
X66037453Y-134608638D01*
X66118144Y-134558256D01*
X66330289Y-134428447D01*
X66722139Y-134428447D01*
X66985541Y-134694211D01*
G36*
X64366125Y-134746619D02*
G01*
X64417973Y-134748202D01*
X64457999Y-134755838D01*
X64495908Y-134774967D01*
X64541404Y-134811028D01*
X64604191Y-134869459D01*
X64630708Y-134894912D01*
X64784166Y-135042533D01*
X64784166Y-136747131D01*
X64609099Y-136921289D01*
X64539504Y-136989628D01*
X64481026Y-137045372D01*
X64439989Y-137082606D01*
X64422895Y-137095447D01*
X64403104Y-137081569D01*
X64364277Y-137045946D01*
X64333379Y-137015179D01*
X64255000Y-136934912D01*
X64255000Y-134745947D01*
X64366125Y-134746619D01*
G37*
X64366125Y-134746619D02*
X64417973Y-134748202D01*
X64457999Y-134755838D01*
X64495908Y-134774967D01*
X64541404Y-134811028D01*
X64604191Y-134869459D01*
X64630708Y-134894912D01*
X64784166Y-135042533D01*
X64784166Y-136747131D01*
X64609099Y-136921289D01*
X64539504Y-136989628D01*
X64481026Y-137045372D01*
X64439989Y-137082606D01*
X64422895Y-137095447D01*
X64403104Y-137081569D01*
X64364277Y-137045946D01*
X64333379Y-137015179D01*
X64255000Y-136934912D01*
X64255000Y-134745947D01*
X64366125Y-134746619D01*
G36*
X68557692Y-134889353D02*
G01*
X68700000Y-135032759D01*
X68700000Y-136747131D01*
X68524932Y-136921289D01*
X68455337Y-136989628D01*
X68396860Y-137045372D01*
X68355822Y-137082606D01*
X68338728Y-137095447D01*
X68318937Y-137081569D01*
X68280111Y-137045946D01*
X68249212Y-137015179D01*
X68170833Y-136934912D01*
X68170833Y-134745947D01*
X68415385Y-134745947D01*
X68557692Y-134889353D01*
G37*
X68557692Y-134889353D02*
X68700000Y-135032759D01*
X68700000Y-136747131D01*
X68524932Y-136921289D01*
X68455337Y-136989628D01*
X68396860Y-137045372D01*
X68355822Y-137082606D01*
X68338728Y-137095447D01*
X68318937Y-137081569D01*
X68280111Y-137045946D01*
X68249212Y-137015179D01*
X68170833Y-136934912D01*
X68170833Y-134745947D01*
X68415385Y-134745947D01*
X68557692Y-134889353D01*
G36*
X69510192Y-136963686D02*
G01*
X69652500Y-137107092D01*
X69652500Y-137349447D01*
X68581591Y-137349447D01*
X68498654Y-137264512D01*
X68415718Y-137179577D01*
X68594433Y-136999928D01*
X68773148Y-136820280D01*
X69367885Y-136820280D01*
X69510192Y-136963686D01*
G37*
X69510192Y-136963686D02*
X69652500Y-137107092D01*
X69652500Y-137349447D01*
X68581591Y-137349447D01*
X68498654Y-137264512D01*
X68415718Y-137179577D01*
X68594433Y-136999928D01*
X68773148Y-136820280D01*
X69367885Y-136820280D01*
X69510192Y-136963686D01*
G36*
X57026960Y-133474778D02*
G01*
X57031434Y-133530616D01*
X57034975Y-133615656D01*
X57037309Y-133723332D01*
X57038165Y-133847079D01*
X57038166Y-133849042D01*
X57038166Y-134243377D01*
X56827360Y-134637500D01*
X56616555Y-135031623D01*
X56430911Y-135137457D01*
X56351430Y-135182608D01*
X56285963Y-135219500D01*
X56243047Y-135243338D01*
X56231209Y-135249598D01*
X56232474Y-135231651D01*
X56243064Y-135177837D01*
X56261802Y-135093298D01*
X56287510Y-134983176D01*
X56319011Y-134852614D01*
X56355127Y-134706754D01*
X56359661Y-134688681D01*
X56412599Y-134481762D01*
X56459171Y-134310652D01*
X56501877Y-134169761D01*
X56543214Y-134053503D01*
X56585680Y-133956291D01*
X56631775Y-133872537D01*
X56683995Y-133796653D01*
X56744839Y-133723052D01*
X56816805Y-133646147D01*
X56833291Y-133629332D01*
X56902508Y-133560486D01*
X56961401Y-133504430D01*
X57003468Y-133467185D01*
X57021823Y-133454707D01*
X57026960Y-133474778D01*
G37*
X57026960Y-133474778D02*
X57031434Y-133530616D01*
X57034975Y-133615656D01*
X57037309Y-133723332D01*
X57038165Y-133847079D01*
X57038166Y-133849042D01*
X57038166Y-134243377D01*
X56827360Y-134637500D01*
X56616555Y-135031623D01*
X56430911Y-135137457D01*
X56351430Y-135182608D01*
X56285963Y-135219500D01*
X56243047Y-135243338D01*
X56231209Y-135249598D01*
X56232474Y-135231651D01*
X56243064Y-135177837D01*
X56261802Y-135093298D01*
X56287510Y-134983176D01*
X56319011Y-134852614D01*
X56355127Y-134706754D01*
X56359661Y-134688681D01*
X56412599Y-134481762D01*
X56459171Y-134310652D01*
X56501877Y-134169761D01*
X56543214Y-134053503D01*
X56585680Y-133956291D01*
X56631775Y-133872537D01*
X56683995Y-133796653D01*
X56744839Y-133723052D01*
X56816805Y-133646147D01*
X56833291Y-133629332D01*
X56902508Y-133560486D01*
X56961401Y-133504430D01*
X57003468Y-133467185D01*
X57021823Y-133454707D01*
X57026960Y-133474778D01*
G36*
X59859192Y-137640946D02*
G01*
X60001499Y-137784352D01*
X60001499Y-138026707D01*
X58930590Y-138026707D01*
X58847654Y-137941772D01*
X58764717Y-137856837D01*
X58943432Y-137677188D01*
X59122148Y-137497540D01*
X59716884Y-137497540D01*
X59859192Y-137640946D01*
G37*
X59859192Y-137640946D02*
X60001499Y-137784352D01*
X60001499Y-138026707D01*
X58930590Y-138026707D01*
X58847654Y-137941772D01*
X58764717Y-137856837D01*
X58943432Y-137677188D01*
X59122148Y-137497540D01*
X59716884Y-137497540D01*
X59859192Y-137640946D01*
G36*
X58630957Y-135424095D02*
G01*
X58683095Y-135425847D01*
X58723496Y-135433750D01*
X58761997Y-135453241D01*
X58808434Y-135489759D01*
X58872642Y-135548744D01*
X58895541Y-135570402D01*
X59048999Y-135715820D01*
X59048999Y-137424391D01*
X58873932Y-137598549D01*
X58804337Y-137666888D01*
X58745859Y-137722632D01*
X58704821Y-137759866D01*
X58687727Y-137772707D01*
X58667936Y-137758829D01*
X58629110Y-137723206D01*
X58598211Y-137692439D01*
X58519832Y-137612172D01*
X58519832Y-135423207D01*
X58630957Y-135424095D01*
G37*
X58630957Y-135424095D02*
X58683095Y-135425847D01*
X58723496Y-135433750D01*
X58761997Y-135453241D01*
X58808434Y-135489759D01*
X58872642Y-135548744D01*
X58895541Y-135570402D01*
X59048999Y-135715820D01*
X59048999Y-137424391D01*
X58873932Y-137598549D01*
X58804337Y-137666888D01*
X58745859Y-137722632D01*
X58704821Y-137759866D01*
X58687727Y-137772707D01*
X58667936Y-137758829D01*
X58629110Y-137723206D01*
X58598211Y-137692439D01*
X58519832Y-137612172D01*
X58519832Y-135423207D01*
X58630957Y-135424095D01*
G36*
X61244462Y-132803165D02*
G01*
X61335444Y-132892458D01*
X61161064Y-133067749D01*
X60986683Y-133243040D01*
X60392494Y-133243040D01*
X60107332Y-132985670D01*
X60107332Y-132713873D01*
X61153480Y-132713873D01*
X61244462Y-132803165D01*
G37*
X61244462Y-132803165D02*
X61335444Y-132892458D01*
X61161064Y-133067749D01*
X60986683Y-133243040D01*
X60392494Y-133243040D01*
X60107332Y-132985670D01*
X60107332Y-132713873D01*
X61153480Y-132713873D01*
X61244462Y-132803165D01*
G36*
X53047504Y-135527500D02*
G01*
X53038098Y-135582906D01*
X53020380Y-135668879D01*
X52995480Y-135780206D01*
X52964530Y-135911676D01*
X52928661Y-136058075D01*
X52924206Y-136075895D01*
X52872713Y-136277953D01*
X52827542Y-136444460D01*
X52785987Y-136581225D01*
X52745343Y-136694057D01*
X52702901Y-136788763D01*
X52655956Y-136871152D01*
X52601801Y-136947033D01*
X52537730Y-137022214D01*
X52461036Y-137102505D01*
X52432534Y-137131072D01*
X52246002Y-137316741D01*
X52246002Y-136510770D01*
X52454245Y-136122770D01*
X52662487Y-135734769D01*
X52845458Y-135621321D01*
X52924031Y-135573700D01*
X52989731Y-135535922D01*
X53034006Y-135512789D01*
X53047467Y-135507873D01*
X53047504Y-135527500D01*
G37*
X53047504Y-135527500D02*
X53038098Y-135582906D01*
X53020380Y-135668879D01*
X52995480Y-135780206D01*
X52964530Y-135911676D01*
X52928661Y-136058075D01*
X52924206Y-136075895D01*
X52872713Y-136277953D01*
X52827542Y-136444460D01*
X52785987Y-136581225D01*
X52745343Y-136694057D01*
X52702901Y-136788763D01*
X52655956Y-136871152D01*
X52601801Y-136947033D01*
X52537730Y-137022214D01*
X52461036Y-137102505D01*
X52432534Y-137131072D01*
X52246002Y-137316741D01*
X52246002Y-136510770D01*
X52454245Y-136122770D01*
X52662487Y-135734769D01*
X52845458Y-135621321D01*
X52924031Y-135573700D01*
X52989731Y-135535922D01*
X53034006Y-135512789D01*
X53047467Y-135507873D01*
X53047504Y-135527500D01*
G36*
X51997861Y-135566613D02*
G01*
X52140169Y-135710019D01*
X52140169Y-137424391D01*
X51965101Y-137598549D01*
X51895649Y-137666668D01*
X51837424Y-137721944D01*
X51796699Y-137758549D01*
X51779893Y-137770713D01*
X51761526Y-137755012D01*
X51724644Y-137716528D01*
X51690377Y-137678441D01*
X51611002Y-137588163D01*
X51611002Y-135423207D01*
X51855554Y-135423207D01*
X51997861Y-135566613D01*
G37*
X51997861Y-135566613D02*
X52140169Y-135710019D01*
X52140169Y-137424391D01*
X51965101Y-137598549D01*
X51895649Y-137666668D01*
X51837424Y-137721944D01*
X51796699Y-137758549D01*
X51779893Y-137770713D01*
X51761526Y-137755012D01*
X51724644Y-137716528D01*
X51690377Y-137678441D01*
X51611002Y-137588163D01*
X51611002Y-135423207D01*
X51855554Y-135423207D01*
X51997861Y-135566613D01*
G36*
X61165399Y-137677188D02*
G01*
X61344114Y-137856837D01*
X61261177Y-137941772D01*
X61178241Y-138026707D01*
X60107332Y-138026707D01*
X60107332Y-137782154D01*
X60250738Y-137639847D01*
X60394145Y-137497540D01*
X60986683Y-137497540D01*
X61165399Y-137677188D01*
G37*
X61165399Y-137677188D02*
X61344114Y-137856837D01*
X61261177Y-137941772D01*
X61178241Y-138026707D01*
X60107332Y-138026707D01*
X60107332Y-137782154D01*
X60250738Y-137639847D01*
X60394145Y-137497540D01*
X60986683Y-137497540D01*
X61165399Y-137677188D01*
G36*
X60001499Y-132958425D02*
G01*
X59858093Y-133100733D01*
X59714686Y-133243040D01*
X59100922Y-133243040D01*
X58937377Y-133078530D01*
X58871096Y-133009985D01*
X58817716Y-132951218D01*
X58783407Y-132909254D01*
X58773832Y-132892326D01*
X58787902Y-132866355D01*
X58823970Y-132823268D01*
X58854100Y-132792252D01*
X58934367Y-132713873D01*
X60001499Y-132713873D01*
X60001499Y-132958425D01*
G37*
X60001499Y-132958425D02*
X59858093Y-133100733D01*
X59714686Y-133243040D01*
X59100922Y-133243040D01*
X58937377Y-133078530D01*
X58871096Y-133009985D01*
X58817716Y-132951218D01*
X58783407Y-132909254D01*
X58773832Y-132892326D01*
X58787902Y-132866355D01*
X58823970Y-132823268D01*
X58854100Y-132792252D01*
X58934367Y-132713873D01*
X60001499Y-132713873D01*
X60001499Y-132958425D01*
G36*
X61250374Y-135371471D02*
G01*
X60984610Y-135634873D01*
X60583582Y-135634311D01*
X60377640Y-135512884D01*
X60295577Y-135463320D01*
X60228956Y-135420841D01*
X60185133Y-135390288D01*
X60171265Y-135377045D01*
X60188136Y-135361113D01*
X60234355Y-135328505D01*
X60302789Y-135284022D01*
X60383483Y-135234170D01*
X60596134Y-135105707D01*
X60986972Y-135105707D01*
X61250374Y-135371471D01*
G37*
X61250374Y-135371471D02*
X60984610Y-135634873D01*
X60583582Y-135634311D01*
X60377640Y-135512884D01*
X60295577Y-135463320D01*
X60228956Y-135420841D01*
X60185133Y-135390288D01*
X60171265Y-135377045D01*
X60188136Y-135361113D01*
X60234355Y-135328505D01*
X60302789Y-135284022D01*
X60383483Y-135234170D01*
X60596134Y-135105707D01*
X60986972Y-135105707D01*
X61250374Y-135371471D01*
G36*
X58863079Y-133152349D02*
G01*
X59048999Y-133337407D01*
X59048999Y-135032759D01*
X58905593Y-135175066D01*
X58762186Y-135317373D01*
X58519832Y-135317373D01*
X58519832Y-133128408D01*
X58598496Y-133047849D01*
X58677159Y-132967290D01*
X58863079Y-133152349D01*
G37*
X58863079Y-133152349D02*
X59048999Y-133337407D01*
X59048999Y-135032759D01*
X58905593Y-135175066D01*
X58762186Y-135317373D01*
X58519832Y-135317373D01*
X58519832Y-133128408D01*
X58598496Y-133047849D01*
X58677159Y-132967290D01*
X58863079Y-133152349D01*
G36*
X61588999Y-137615948D02*
G01*
X61508731Y-137694327D01*
X61462021Y-137738225D01*
X61428389Y-137766668D01*
X61418306Y-137772707D01*
X61400281Y-137758593D01*
X61358849Y-137720213D01*
X61300263Y-137663504D01*
X61233990Y-137597639D01*
X61059832Y-137422572D01*
X61059832Y-135707821D01*
X61203238Y-135565514D01*
X61346645Y-135423207D01*
X61588999Y-135423207D01*
X61588999Y-137615948D01*
G37*
X61588999Y-137615948D02*
X61508731Y-137694327D01*
X61462021Y-137738225D01*
X61428389Y-137766668D01*
X61418306Y-137772707D01*
X61400281Y-137758593D01*
X61358849Y-137720213D01*
X61300263Y-137663504D01*
X61233990Y-137597639D01*
X61059832Y-137422572D01*
X61059832Y-135707821D01*
X61203238Y-135565514D01*
X61346645Y-135423207D01*
X61588999Y-135423207D01*
X61588999Y-137615948D01*
G36*
X54054481Y-133474771D02*
G01*
X54059249Y-133530560D01*
X54063011Y-133615465D01*
X54065471Y-133722881D01*
X54066335Y-133844025D01*
X54066335Y-134233344D01*
X53866450Y-134607704D01*
X53804111Y-134723711D01*
X53747357Y-134827926D01*
X53699609Y-134914178D01*
X53664286Y-134976299D01*
X53644809Y-135008119D01*
X53643435Y-135009934D01*
X53618444Y-135029913D01*
X53567627Y-135064436D01*
X53500423Y-135107675D01*
X53426269Y-135153804D01*
X53354602Y-135196994D01*
X53294862Y-135231418D01*
X53256484Y-135251249D01*
X53248378Y-135253873D01*
X53244712Y-135237229D01*
X53249110Y-135216832D01*
X53257064Y-135186716D01*
X53273584Y-135121496D01*
X53297170Y-135027187D01*
X53326323Y-134909802D01*
X53359542Y-134775357D01*
X53387634Y-134661207D01*
X53438172Y-134460073D01*
X53483095Y-134294402D01*
X53525148Y-134158153D01*
X53567074Y-134045289D01*
X53611619Y-133949772D01*
X53661526Y-133865563D01*
X53719540Y-133786623D01*
X53788405Y-133706915D01*
X53851817Y-133639915D01*
X53922405Y-133568607D01*
X53982948Y-133510031D01*
X54027151Y-133470100D01*
X54048719Y-133454727D01*
X54048999Y-133454707D01*
X54054481Y-133474771D01*
G37*
X54054481Y-133474771D02*
X54059249Y-133530560D01*
X54063011Y-133615465D01*
X54065471Y-133722881D01*
X54066335Y-133844025D01*
X54066335Y-134233344D01*
X53866450Y-134607704D01*
X53804111Y-134723711D01*
X53747357Y-134827926D01*
X53699609Y-134914178D01*
X53664286Y-134976299D01*
X53644809Y-135008119D01*
X53643435Y-135009934D01*
X53618444Y-135029913D01*
X53567627Y-135064436D01*
X53500423Y-135107675D01*
X53426269Y-135153804D01*
X53354602Y-135196994D01*
X53294862Y-135231418D01*
X53256484Y-135251249D01*
X53248378Y-135253873D01*
X53244712Y-135237229D01*
X53249110Y-135216832D01*
X53257064Y-135186716D01*
X53273584Y-135121496D01*
X53297170Y-135027187D01*
X53326323Y-134909802D01*
X53359542Y-134775357D01*
X53387634Y-134661207D01*
X53438172Y-134460073D01*
X53483095Y-134294402D01*
X53525148Y-134158153D01*
X53567074Y-134045289D01*
X53611619Y-133949772D01*
X53661526Y-133865563D01*
X53719540Y-133786623D01*
X53788405Y-133706915D01*
X53851817Y-133639915D01*
X53922405Y-133568607D01*
X53982948Y-133510031D01*
X54027151Y-133470100D01*
X54048719Y-133454727D01*
X54048999Y-133454707D01*
X54054481Y-133474771D01*
G36*
X61498408Y-133057113D02*
G01*
X61588999Y-133146021D01*
X61588999Y-135317373D01*
X61344447Y-135317373D01*
X61202139Y-135173967D01*
X61059832Y-135030561D01*
X61059832Y-133318007D01*
X61407818Y-132968205D01*
X61498408Y-133057113D01*
G37*
X61498408Y-133057113D02*
X61588999Y-133146021D01*
X61588999Y-135317373D01*
X61344447Y-135317373D01*
X61202139Y-135173967D01*
X61059832Y-135030561D01*
X61059832Y-133318007D01*
X61407818Y-132968205D01*
X61498408Y-133057113D01*
G36*
X59719471Y-135234909D02*
G01*
X59803009Y-135286058D01*
X59870084Y-135330406D01*
X59913976Y-135363270D01*
X59927962Y-135379967D01*
X59927878Y-135380125D01*
X59906654Y-135396881D01*
X59856783Y-135429938D01*
X59786150Y-135474211D01*
X59717953Y-135515506D01*
X59517925Y-135634873D01*
X59100590Y-135634873D01*
X58974890Y-135507847D01*
X58849190Y-135380822D01*
X58985524Y-135243264D01*
X59121859Y-135105707D01*
X59501167Y-135105707D01*
X59719471Y-135234909D01*
G37*
X59719471Y-135234909D02*
X59803009Y-135286058D01*
X59870084Y-135330406D01*
X59913976Y-135363270D01*
X59927962Y-135379967D01*
X59927878Y-135380125D01*
X59906654Y-135396881D01*
X59856783Y-135429938D01*
X59786150Y-135474211D01*
X59717953Y-135515506D01*
X59517925Y-135634873D01*
X59100590Y-135634873D01*
X58974890Y-135507847D01*
X58849190Y-135380822D01*
X58985524Y-135243264D01*
X59121859Y-135105707D01*
X59501167Y-135105707D01*
X59719471Y-135234909D01*
G36*
X52140169Y-133318007D02*
G01*
X52140169Y-135054013D01*
X52007307Y-135185693D01*
X51874446Y-135317373D01*
X51611002Y-135317373D01*
X51611002Y-133146021D01*
X51701592Y-133057113D01*
X51792183Y-132968205D01*
X52140169Y-133318007D01*
G37*
X52140169Y-133318007D02*
X52140169Y-135054013D01*
X52007307Y-135185693D01*
X51874446Y-135317373D01*
X51611002Y-135317373D01*
X51611002Y-133146021D01*
X51701592Y-133057113D01*
X51792183Y-132968205D01*
X52140169Y-133318007D01*
G36*
X56029564Y-135532836D02*
G01*
X56017714Y-135590404D01*
X55997930Y-135678169D01*
X55971462Y-135790716D01*
X55939560Y-135922630D01*
X55903475Y-136068497D01*
X55903282Y-136069269D01*
X55849665Y-136278920D01*
X55801820Y-136452774D01*
X55757147Y-136596529D01*
X55713046Y-136715885D01*
X55666917Y-136816542D01*
X55616161Y-136904198D01*
X55558177Y-136984553D01*
X55490366Y-137063307D01*
X55413624Y-137142679D01*
X55238999Y-137316689D01*
X55238999Y-136480569D01*
X55439387Y-136105101D01*
X55639775Y-135729632D01*
X55831735Y-135615989D01*
X55911267Y-135570109D01*
X55976425Y-135534790D01*
X56019329Y-135514164D01*
X56032228Y-135510880D01*
X56029564Y-135532836D01*
G37*
X56029564Y-135532836D02*
X56017714Y-135590404D01*
X55997930Y-135678169D01*
X55971462Y-135790716D01*
X55939560Y-135922630D01*
X55903475Y-136068497D01*
X55903282Y-136069269D01*
X55849665Y-136278920D01*
X55801820Y-136452774D01*
X55757147Y-136596529D01*
X55713046Y-136715885D01*
X55666917Y-136816542D01*
X55616161Y-136904198D01*
X55558177Y-136984553D01*
X55490366Y-137063307D01*
X55413624Y-137142679D01*
X55238999Y-137316689D01*
X55238999Y-136480569D01*
X55439387Y-136105101D01*
X55639775Y-135729632D01*
X55831735Y-135615989D01*
X55911267Y-135570109D01*
X55976425Y-135534790D01*
X56019329Y-135514164D01*
X56032228Y-135510880D01*
X56029564Y-135532836D01*
G36*
X34674307Y-134851632D02*
G01*
X34810642Y-134989190D01*
X34684942Y-135116215D01*
X34559241Y-135243241D01*
X34346912Y-135241606D01*
X34134583Y-135239970D01*
X33926771Y-135112313D01*
X33838022Y-135056966D01*
X33781085Y-135018571D01*
X33751177Y-134992791D01*
X33743518Y-134975294D01*
X33753326Y-134961745D01*
X33757438Y-134958807D01*
X33791616Y-134937144D01*
X33852186Y-134899943D01*
X33929157Y-134853312D01*
X33978772Y-134823516D01*
X34161629Y-134714075D01*
X34537972Y-134714075D01*
X34674307Y-134851632D01*
G37*
X34674307Y-134851632D02*
X34810642Y-134989190D01*
X34684942Y-135116215D01*
X34559241Y-135243241D01*
X34346912Y-135241606D01*
X34134583Y-135239970D01*
X33926771Y-135112313D01*
X33838022Y-135056966D01*
X33781085Y-135018571D01*
X33751177Y-134992791D01*
X33743518Y-134975294D01*
X33753326Y-134961745D01*
X33757438Y-134958807D01*
X33791616Y-134937144D01*
X33852186Y-134899943D01*
X33929157Y-134853312D01*
X33978772Y-134823516D01*
X34161629Y-134714075D01*
X34537972Y-134714075D01*
X34674307Y-134851632D01*
G36*
X29636666Y-132594038D02*
G01*
X29351504Y-132851408D01*
X28757315Y-132851408D01*
X28582934Y-132676117D01*
X28408554Y-132500826D01*
X28499536Y-132411533D01*
X28590519Y-132322241D01*
X29636666Y-132322241D01*
X29636666Y-132594038D01*
G37*
X29636666Y-132594038D02*
X29351504Y-132851408D01*
X28757315Y-132851408D01*
X28582934Y-132676117D01*
X28408554Y-132500826D01*
X28499536Y-132411533D01*
X28590519Y-132322241D01*
X29636666Y-132322241D01*
X29636666Y-132594038D01*
G36*
X32457692Y-135174981D02*
G01*
X32600000Y-135318387D01*
X32600000Y-137032759D01*
X32424932Y-137206917D01*
X32355337Y-137275256D01*
X32296860Y-137331000D01*
X32255822Y-137368234D01*
X32238728Y-137381075D01*
X32218937Y-137367197D01*
X32180111Y-137331574D01*
X32149212Y-137300807D01*
X32070833Y-137220540D01*
X32070833Y-135031575D01*
X32315385Y-135031575D01*
X32457692Y-135174981D01*
G37*
X32457692Y-135174981D02*
X32600000Y-135318387D01*
X32600000Y-137032759D01*
X32424932Y-137206917D01*
X32355337Y-137275256D01*
X32296860Y-137331000D01*
X32255822Y-137368234D01*
X32238728Y-137381075D01*
X32218937Y-137367197D01*
X32180111Y-137331574D01*
X32149212Y-137300807D01*
X32070833Y-137220540D01*
X32070833Y-135031575D01*
X32315385Y-135031575D01*
X32457692Y-135174981D01*
G36*
X35161166Y-137199555D02*
G01*
X35072092Y-137290315D01*
X35022999Y-137338472D01*
X34985948Y-137371381D01*
X34971083Y-137381075D01*
X34952344Y-137366946D01*
X34910303Y-137328526D01*
X34851285Y-137271764D01*
X34784991Y-137206007D01*
X34610833Y-137030940D01*
X34610833Y-135337432D01*
X34764789Y-135184503D01*
X34918745Y-135031575D01*
X35161166Y-135031575D01*
X35161166Y-137199555D01*
G37*
X35161166Y-137199555D02*
X35072092Y-137290315D01*
X35022999Y-137338472D01*
X34985948Y-137371381D01*
X34971083Y-137381075D01*
X34952344Y-137366946D01*
X34910303Y-137328526D01*
X34851285Y-137271764D01*
X34784991Y-137206007D01*
X34610833Y-137030940D01*
X34610833Y-135337432D01*
X34764789Y-135184503D01*
X34918745Y-135031575D01*
X35161166Y-135031575D01*
X35161166Y-137199555D01*
G36*
X29693282Y-135253502D02*
G01*
X29700860Y-135267714D01*
X29711537Y-135299349D01*
X29726555Y-135352450D01*
X29747157Y-135431058D01*
X29774585Y-135539214D01*
X29810081Y-135680962D01*
X29847265Y-135829843D01*
X29954166Y-136257694D01*
X29954166Y-137033047D01*
X29821284Y-137164749D01*
X29688401Y-137296450D01*
X29556700Y-137163568D01*
X29425000Y-137030686D01*
X29425000Y-136257827D01*
X29541803Y-135787576D01*
X29576205Y-135650374D01*
X29608204Y-135525187D01*
X29636100Y-135418480D01*
X29658188Y-135336720D01*
X29672769Y-135286374D01*
X29676716Y-135274991D01*
X29682452Y-135261183D01*
X29687560Y-135252672D01*
X29693282Y-135253502D01*
G37*
X29693282Y-135253502D02*
X29700860Y-135267714D01*
X29711537Y-135299349D01*
X29726555Y-135352450D01*
X29747157Y-135431058D01*
X29774585Y-135539214D01*
X29810081Y-135680962D01*
X29847265Y-135829843D01*
X29954166Y-136257694D01*
X29954166Y-137033047D01*
X29821284Y-137164749D01*
X29688401Y-137296450D01*
X29556700Y-137163568D01*
X29425000Y-137030686D01*
X29425000Y-136257827D01*
X29541803Y-135787576D01*
X29576205Y-135650374D01*
X29608204Y-135525187D01*
X29636100Y-135418480D01*
X29658188Y-135336720D01*
X29672769Y-135286374D01*
X29676716Y-135274991D01*
X29682452Y-135261183D01*
X29687560Y-135252672D01*
X29693282Y-135253502D01*
G36*
X29360515Y-134842538D02*
G01*
X29443666Y-134893943D01*
X29511515Y-134938122D01*
X29556925Y-134970273D01*
X29572786Y-134985413D01*
X29555468Y-135001199D01*
X29508729Y-135033175D01*
X29439909Y-135076537D01*
X29364804Y-135121533D01*
X29157202Y-135243241D01*
X28757027Y-135243241D01*
X28625325Y-135110359D01*
X28493624Y-134977476D01*
X28626506Y-134845775D01*
X28759388Y-134714075D01*
X29147864Y-134714075D01*
X29360515Y-134842538D01*
G37*
X29360515Y-134842538D02*
X29443666Y-134893943D01*
X29511515Y-134938122D01*
X29556925Y-134970273D01*
X29572786Y-134985413D01*
X29555468Y-135001199D01*
X29508729Y-135033175D01*
X29439909Y-135076537D01*
X29364804Y-135121533D01*
X29157202Y-135243241D01*
X28757027Y-135243241D01*
X28625325Y-135110359D01*
X28493624Y-134977476D01*
X28626506Y-134845775D01*
X28759388Y-134714075D01*
X29147864Y-134714075D01*
X29360515Y-134842538D01*
G36*
X29636666Y-137392720D02*
G01*
X29636666Y-137635075D01*
X28565758Y-137635075D01*
X28399884Y-137465205D01*
X28578600Y-137285556D01*
X28757315Y-137105908D01*
X29352052Y-137105908D01*
X29636666Y-137392720D01*
G37*
X29636666Y-137392720D02*
X29636666Y-137635075D01*
X28565758Y-137635075D01*
X28399884Y-137465205D01*
X28578600Y-137285556D01*
X28757315Y-137105908D01*
X29352052Y-137105908D01*
X29636666Y-137392720D01*
G36*
X30800566Y-137285556D02*
G01*
X30979281Y-137465205D01*
X30896345Y-137550140D01*
X30813408Y-137635075D01*
X29742500Y-137635075D01*
X29742500Y-137390522D01*
X30029312Y-137105908D01*
X30621851Y-137105908D01*
X30800566Y-137285556D01*
G37*
X30800566Y-137285556D02*
X30979281Y-137465205D01*
X30896345Y-137550140D01*
X30813408Y-137635075D01*
X29742500Y-137635075D01*
X29742500Y-137390522D01*
X30029312Y-137105908D01*
X30621851Y-137105908D01*
X30800566Y-137285556D01*
G36*
X33276348Y-134842538D02*
G01*
X33359500Y-134893943D01*
X33427348Y-134938122D01*
X33472758Y-134970273D01*
X33488620Y-134985413D01*
X33471302Y-135001199D01*
X33424563Y-135033175D01*
X33355742Y-135076537D01*
X33280637Y-135121533D01*
X33073035Y-135243241D01*
X32672860Y-135243241D01*
X32541159Y-135110359D01*
X32409458Y-134977476D01*
X32542340Y-134845775D01*
X32675222Y-134714075D01*
X33063697Y-134714075D01*
X33276348Y-134842538D01*
G37*
X33276348Y-134842538D02*
X33359500Y-134893943D01*
X33427348Y-134938122D01*
X33472758Y-134970273D01*
X33488620Y-134985413D01*
X33471302Y-135001199D01*
X33424563Y-135033175D01*
X33355742Y-135076537D01*
X33280637Y-135121533D01*
X33073035Y-135243241D01*
X32672860Y-135243241D01*
X32541159Y-135110359D01*
X32409458Y-134977476D01*
X32542340Y-134845775D01*
X32675222Y-134714075D01*
X33063697Y-134714075D01*
X33276348Y-134842538D01*
G36*
X41705550Y-135425405D02*
G01*
X41705550Y-137139777D01*
X41530483Y-137313935D01*
X41460888Y-137382274D01*
X41402410Y-137438018D01*
X41361373Y-137475252D01*
X41344279Y-137488093D01*
X41324488Y-137474215D01*
X41285661Y-137438592D01*
X41254763Y-137407825D01*
X41176384Y-137327558D01*
X41176384Y-135138593D01*
X41420936Y-135138593D01*
X41705550Y-135425405D01*
G37*
X41705550Y-135425405D02*
X41705550Y-137139777D01*
X41530483Y-137313935D01*
X41460888Y-137382274D01*
X41402410Y-137438018D01*
X41361373Y-137475252D01*
X41344279Y-137488093D01*
X41324488Y-137474215D01*
X41285661Y-137438592D01*
X41254763Y-137407825D01*
X41176384Y-137327558D01*
X41176384Y-135138593D01*
X41420936Y-135138593D01*
X41705550Y-135425405D01*
G36*
X42658050Y-137499738D02*
G01*
X42658050Y-137742093D01*
X41587142Y-137742093D01*
X41421268Y-137572223D01*
X41599984Y-137392574D01*
X41778699Y-137212926D01*
X42373436Y-137212926D01*
X42658050Y-137499738D01*
G37*
X42658050Y-137499738D02*
X42658050Y-137742093D01*
X41587142Y-137742093D01*
X41421268Y-137572223D01*
X41599984Y-137392574D01*
X41778699Y-137212926D01*
X42373436Y-137212926D01*
X42658050Y-137499738D01*
G36*
X43821950Y-137392574D02*
G01*
X44000665Y-137572223D01*
X43917729Y-137657158D01*
X43834792Y-137742093D01*
X42763884Y-137742093D01*
X42763884Y-137497540D01*
X43050696Y-137212926D01*
X43643235Y-137212926D01*
X43821950Y-137392574D01*
G37*
X43821950Y-137392574D02*
X44000665Y-137572223D01*
X43917729Y-137657158D01*
X43834792Y-137742093D01*
X42763884Y-137742093D01*
X42763884Y-137497540D01*
X43050696Y-137212926D01*
X43643235Y-137212926D01*
X43821950Y-137392574D01*
G36*
X47526384Y-133981899D02*
G01*
X47333761Y-134343288D01*
X47272755Y-134457066D01*
X47217516Y-134558821D01*
X47171489Y-134642303D01*
X47138122Y-134701265D01*
X47120861Y-134729459D01*
X47120373Y-134730085D01*
X47091468Y-134753860D01*
X47038351Y-134788891D01*
X46990204Y-134817434D01*
X46913246Y-134861384D01*
X46836938Y-134905555D01*
X46801425Y-134926407D01*
X46753759Y-134951973D01*
X46725444Y-134961986D01*
X46722050Y-134960163D01*
X46726997Y-134936902D01*
X46740946Y-134878064D01*
X46762556Y-134789123D01*
X46790490Y-134675553D01*
X46823407Y-134542829D01*
X46859968Y-134396424D01*
X46860170Y-134395620D01*
X46912696Y-134190029D01*
X46959099Y-134020159D01*
X47001993Y-133880307D01*
X47043998Y-133764773D01*
X47087728Y-133667855D01*
X47135803Y-133583853D01*
X47190838Y-133507066D01*
X47255450Y-133431791D01*
X47332257Y-133352329D01*
X47344793Y-133339893D01*
X47526384Y-133160444D01*
X47526384Y-133981899D01*
G37*
X47526384Y-133981899D02*
X47333761Y-134343288D01*
X47272755Y-134457066D01*
X47217516Y-134558821D01*
X47171489Y-134642303D01*
X47138122Y-134701265D01*
X47120861Y-134729459D01*
X47120373Y-134730085D01*
X47091468Y-134753860D01*
X47038351Y-134788891D01*
X46990204Y-134817434D01*
X46913246Y-134861384D01*
X46836938Y-134905555D01*
X46801425Y-134926407D01*
X46753759Y-134951973D01*
X46725444Y-134961986D01*
X46722050Y-134960163D01*
X46726997Y-134936902D01*
X46740946Y-134878064D01*
X46762556Y-134789123D01*
X46790490Y-134675553D01*
X46823407Y-134542829D01*
X46859968Y-134396424D01*
X46860170Y-134395620D01*
X46912696Y-134190029D01*
X46959099Y-134020159D01*
X47001993Y-133880307D01*
X47043998Y-133764773D01*
X47087728Y-133667855D01*
X47135803Y-133583853D01*
X47190838Y-133507066D01*
X47255450Y-133431791D01*
X47332257Y-133352329D01*
X47344793Y-133339893D01*
X47526384Y-133160444D01*
X47526384Y-133981899D01*
G36*
X45621384Y-133033393D02*
G01*
X45621384Y-134748145D01*
X45477977Y-134890452D01*
X45334571Y-135032759D01*
X45092217Y-135032759D01*
X45092217Y-132861407D01*
X45182807Y-132772499D01*
X45273398Y-132683591D01*
X45621384Y-133033393D01*
G37*
X45621384Y-133033393D02*
X45621384Y-134748145D01*
X45477977Y-134890452D01*
X45334571Y-135032759D01*
X45092217Y-135032759D01*
X45092217Y-132861407D01*
X45182807Y-132772499D01*
X45273398Y-132683591D01*
X45621384Y-133033393D01*
G36*
X43906925Y-135086857D02*
G01*
X43641161Y-135350259D01*
X43440647Y-135349472D01*
X43240134Y-135348684D01*
X43052552Y-135234915D01*
X42972230Y-135185472D01*
X42904898Y-135142674D01*
X42859245Y-135112119D01*
X42844943Y-135101118D01*
X42853253Y-135081834D01*
X42896788Y-135045719D01*
X42972867Y-134994786D01*
X43044565Y-134951092D01*
X43264215Y-134821093D01*
X43643523Y-134821093D01*
X43906925Y-135086857D01*
G37*
X43906925Y-135086857D02*
X43641161Y-135350259D01*
X43440647Y-135349472D01*
X43240134Y-135348684D01*
X43052552Y-135234915D01*
X42972230Y-135185472D01*
X42904898Y-135142674D01*
X42859245Y-135112119D01*
X42844943Y-135101118D01*
X42853253Y-135081834D01*
X42896788Y-135045719D01*
X42972867Y-134994786D01*
X43044565Y-134951092D01*
X43264215Y-134821093D01*
X43643523Y-134821093D01*
X43906925Y-135086857D01*
G36*
X42376134Y-134950362D02*
G01*
X42460680Y-135001485D01*
X42529929Y-135045426D01*
X42576789Y-135077536D01*
X42594170Y-135093169D01*
X42594170Y-135093237D01*
X42576859Y-135108699D01*
X42530135Y-135140405D01*
X42461336Y-135183583D01*
X42386188Y-135228551D01*
X42178586Y-135350259D01*
X41778411Y-135350259D01*
X41646709Y-135217377D01*
X41515008Y-135084494D01*
X41647890Y-134952793D01*
X41780772Y-134821093D01*
X42157719Y-134821093D01*
X42376134Y-134950362D01*
G37*
X42376134Y-134950362D02*
X42460680Y-135001485D01*
X42529929Y-135045426D01*
X42576789Y-135077536D01*
X42594170Y-135093169D01*
X42594170Y-135093237D01*
X42576859Y-135108699D01*
X42530135Y-135140405D01*
X42461336Y-135183583D01*
X42386188Y-135228551D01*
X42178586Y-135350259D01*
X41778411Y-135350259D01*
X41646709Y-135217377D01*
X41515008Y-135084494D01*
X41647890Y-134952793D01*
X41780772Y-134821093D01*
X42157719Y-134821093D01*
X42376134Y-134950362D01*
G36*
X45479076Y-135281999D02*
G01*
X45621384Y-135425405D01*
X45621384Y-137139777D01*
X45446316Y-137313935D01*
X45376721Y-137382274D01*
X45318244Y-137438018D01*
X45277206Y-137475252D01*
X45260112Y-137488093D01*
X45240321Y-137474215D01*
X45201495Y-137438592D01*
X45170596Y-137407825D01*
X45092217Y-137327558D01*
X45092217Y-135138593D01*
X45336769Y-135138593D01*
X45479076Y-135281999D01*
G37*
X45479076Y-135281999D02*
X45621384Y-135425405D01*
X45621384Y-137139777D01*
X45446316Y-137313935D01*
X45376721Y-137382274D01*
X45318244Y-137438018D01*
X45277206Y-137475252D01*
X45260112Y-137488093D01*
X45240321Y-137474215D01*
X45201495Y-137438592D01*
X45170596Y-137407825D01*
X45092217Y-137327558D01*
X45092217Y-135138593D01*
X45336769Y-135138593D01*
X45479076Y-135281999D01*
G36*
X46524215Y-135254680D02*
G01*
X46512889Y-135312878D01*
X46493523Y-135401297D01*
X46467337Y-135514540D01*
X46435554Y-135647209D01*
X46399392Y-135793908D01*
X46397409Y-135801844D01*
X46345671Y-136004736D01*
X46300000Y-136172072D01*
X46257670Y-136309703D01*
X46215954Y-136423482D01*
X46172126Y-136519261D01*
X46123460Y-136602894D01*
X46067230Y-136680232D01*
X46000709Y-136757129D01*
X45921171Y-136839438D01*
X45907936Y-136852625D01*
X45727217Y-137032075D01*
X45729879Y-136207509D01*
X45936138Y-135827342D01*
X46142397Y-135447174D01*
X46328887Y-135334186D01*
X46407236Y-135288304D01*
X46471597Y-135253596D01*
X46513934Y-135234216D01*
X46526280Y-135232100D01*
X46524215Y-135254680D01*
G37*
X46524215Y-135254680D02*
X46512889Y-135312878D01*
X46493523Y-135401297D01*
X46467337Y-135514540D01*
X46435554Y-135647209D01*
X46399392Y-135793908D01*
X46397409Y-135801844D01*
X46345671Y-136004736D01*
X46300000Y-136172072D01*
X46257670Y-136309703D01*
X46215954Y-136423482D01*
X46172126Y-136519261D01*
X46123460Y-136602894D01*
X46067230Y-136680232D01*
X46000709Y-136757129D01*
X45921171Y-136839438D01*
X45907936Y-136852625D01*
X45727217Y-137032075D01*
X45729879Y-136207509D01*
X45936138Y-135827342D01*
X46142397Y-135447174D01*
X46328887Y-135334186D01*
X46407236Y-135288304D01*
X46471597Y-135253596D01*
X46513934Y-135234216D01*
X46526280Y-135232100D01*
X46524215Y-135254680D01*
G36*
X58496666Y-84342477D02*
G01*
X58209854Y-84627091D01*
X57596148Y-84627091D01*
X57421768Y-84451800D01*
X57247387Y-84276509D01*
X57338370Y-84187217D01*
X57429352Y-84097925D01*
X58496666Y-84097925D01*
X58496666Y-84342477D01*
G37*
X58496666Y-84342477D02*
X58209854Y-84627091D01*
X57596148Y-84627091D01*
X57421768Y-84451800D01*
X57247387Y-84276509D01*
X57338370Y-84187217D01*
X57429352Y-84097925D01*
X58496666Y-84097925D01*
X58496666Y-84342477D01*
G36*
X63576399Y-89061240D02*
G01*
X63755115Y-89240888D01*
X63589241Y-89410758D01*
X62518333Y-89410758D01*
X62518333Y-89166206D01*
X62661739Y-89023898D01*
X62805145Y-88881591D01*
X63397684Y-88881591D01*
X63576399Y-89061240D01*
G37*
X63576399Y-89061240D02*
X63755115Y-89240888D01*
X63589241Y-89410758D01*
X62518333Y-89410758D01*
X62518333Y-89166206D01*
X62661739Y-89023898D01*
X62805145Y-88881591D01*
X63397684Y-88881591D01*
X63576399Y-89061240D01*
G36*
X63519120Y-86612080D02*
G01*
X63575423Y-86671427D01*
X63617780Y-86720741D01*
X63638995Y-86751489D01*
X63640166Y-86755618D01*
X63626040Y-86779463D01*
X63588509Y-86824026D01*
X63534846Y-86880849D01*
X63517844Y-86897879D01*
X63395522Y-87018925D01*
X63195052Y-87018256D01*
X62994583Y-87017588D01*
X62795703Y-86896362D01*
X62715418Y-86845644D01*
X62650655Y-86801345D01*
X62608823Y-86768753D01*
X62596823Y-86754341D01*
X62613848Y-86735570D01*
X62659985Y-86700676D01*
X62727826Y-86654949D01*
X62795703Y-86612321D01*
X62994583Y-86491094D01*
X63398075Y-86489758D01*
X63519120Y-86612080D01*
G37*
X63519120Y-86612080D02*
X63575423Y-86671427D01*
X63617780Y-86720741D01*
X63638995Y-86751489D01*
X63640166Y-86755618D01*
X63626040Y-86779463D01*
X63588509Y-86824026D01*
X63534846Y-86880849D01*
X63517844Y-86897879D01*
X63395522Y-87018925D01*
X63195052Y-87018256D01*
X62994583Y-87017588D01*
X62795703Y-86896362D01*
X62715418Y-86845644D01*
X62650655Y-86801345D01*
X62608823Y-86768753D01*
X62596823Y-86754341D01*
X62613848Y-86735570D01*
X62659985Y-86700676D01*
X62727826Y-86654949D01*
X62795703Y-86612321D01*
X62994583Y-86491094D01*
X63398075Y-86489758D01*
X63519120Y-86612080D01*
G36*
X62136348Y-86618221D02*
G01*
X62219423Y-86669018D01*
X62287299Y-86711688D01*
X62332859Y-86741673D01*
X62349000Y-86754341D01*
X62332004Y-86767599D01*
X62285764Y-86797978D01*
X62217395Y-86840920D01*
X62136348Y-86890461D01*
X61923697Y-87018925D01*
X61511591Y-87018925D01*
X61390545Y-86896602D01*
X61334243Y-86837256D01*
X61291885Y-86787941D01*
X61270671Y-86757194D01*
X61269500Y-86753065D01*
X61283626Y-86729219D01*
X61321156Y-86684656D01*
X61374820Y-86627833D01*
X61391822Y-86610804D01*
X61514144Y-86489758D01*
X61923697Y-86489758D01*
X62136348Y-86618221D01*
G37*
X62136348Y-86618221D02*
X62219423Y-86669018D01*
X62287299Y-86711688D01*
X62332859Y-86741673D01*
X62349000Y-86754341D01*
X62332004Y-86767599D01*
X62285764Y-86797978D01*
X62217395Y-86840920D01*
X62136348Y-86890461D01*
X61923697Y-87018925D01*
X61511591Y-87018925D01*
X61390545Y-86896602D01*
X61334243Y-86837256D01*
X61291885Y-86787941D01*
X61270671Y-86757194D01*
X61269500Y-86753065D01*
X61283626Y-86729219D01*
X61321156Y-86684656D01*
X61374820Y-86627833D01*
X61391822Y-86610804D01*
X61514144Y-86489758D01*
X61923697Y-86489758D01*
X62136348Y-86618221D01*
G36*
X58548922Y-87038561D02*
G01*
X58566018Y-87093814D01*
X58590209Y-87179197D01*
X58619976Y-87289225D01*
X58653798Y-87418413D01*
X58683774Y-87535924D01*
X58814166Y-88052924D01*
X58814166Y-88808731D01*
X58681284Y-88940432D01*
X58548401Y-89072133D01*
X58416700Y-88939251D01*
X58285000Y-88806369D01*
X58283974Y-88003175D01*
X58405739Y-87511050D01*
X58440248Y-87373664D01*
X58472035Y-87251054D01*
X58499558Y-87148854D01*
X58521275Y-87072695D01*
X58535646Y-87028209D01*
X58540443Y-87018925D01*
X58548922Y-87038561D01*
G37*
X58548922Y-87038561D02*
X58566018Y-87093814D01*
X58590209Y-87179197D01*
X58619976Y-87289225D01*
X58653798Y-87418413D01*
X58683774Y-87535924D01*
X58814166Y-88052924D01*
X58814166Y-88808731D01*
X58681284Y-88940432D01*
X58548401Y-89072133D01*
X58416700Y-88939251D01*
X58285000Y-88806369D01*
X58283974Y-88003175D01*
X58405739Y-87511050D01*
X58440248Y-87373664D01*
X58472035Y-87251054D01*
X58499558Y-87148854D01*
X58521275Y-87072695D01*
X58535646Y-87028209D01*
X58540443Y-87018925D01*
X58548922Y-87038561D01*
G36*
X62270192Y-89024997D02*
G01*
X62412500Y-89168404D01*
X62412500Y-89410758D01*
X61341591Y-89410758D01*
X61263212Y-89330490D01*
X61219030Y-89281605D01*
X61190605Y-89243166D01*
X61184833Y-89229452D01*
X61199023Y-89206930D01*
X61237459Y-89161942D01*
X61293941Y-89101432D01*
X61349343Y-89045136D01*
X61513853Y-88881591D01*
X62127885Y-88881591D01*
X62270192Y-89024997D01*
G37*
X62270192Y-89024997D02*
X62412500Y-89168404D01*
X62412500Y-89410758D01*
X61341591Y-89410758D01*
X61263212Y-89330490D01*
X61219030Y-89281605D01*
X61190605Y-89243166D01*
X61184833Y-89229452D01*
X61199023Y-89206930D01*
X61237459Y-89161942D01*
X61293941Y-89101432D01*
X61349343Y-89045136D01*
X61513853Y-88881591D01*
X62127885Y-88881591D01*
X62270192Y-89024997D01*
G36*
X59654933Y-89055584D02*
G01*
X59829835Y-89229577D01*
X59740927Y-89320167D01*
X59652019Y-89410758D01*
X58602500Y-89410758D01*
X58602500Y-89144952D01*
X58735361Y-89013271D01*
X58868222Y-88881591D01*
X59480032Y-88881591D01*
X59654933Y-89055584D01*
G37*
X59654933Y-89055584D02*
X59829835Y-89229577D01*
X59740927Y-89320167D01*
X59652019Y-89410758D01*
X58602500Y-89410758D01*
X58602500Y-89144952D01*
X58735361Y-89013271D01*
X58868222Y-88881591D01*
X59480032Y-88881591D01*
X59654933Y-89055584D01*
G36*
X58814166Y-84702313D02*
G01*
X58814166Y-85453198D01*
X58684530Y-85971478D01*
X58648713Y-86112594D01*
X58615612Y-86239089D01*
X58586744Y-86345478D01*
X58563623Y-86426279D01*
X58547768Y-86476008D01*
X58541198Y-86489758D01*
X58532516Y-86470120D01*
X58515457Y-86414963D01*
X58491571Y-86329919D01*
X58462408Y-86220620D01*
X58429520Y-86092701D01*
X58405739Y-85997633D01*
X58283974Y-85505508D01*
X58285000Y-84699952D01*
X58417882Y-84568250D01*
X58550764Y-84436549D01*
X58814166Y-84702313D01*
G37*
X58814166Y-84702313D02*
X58814166Y-85453198D01*
X58684530Y-85971478D01*
X58648713Y-86112594D01*
X58615612Y-86239089D01*
X58586744Y-86345478D01*
X58563623Y-86426279D01*
X58547768Y-86476008D01*
X58541198Y-86489758D01*
X58532516Y-86470120D01*
X58515457Y-86414963D01*
X58491571Y-86329919D01*
X58462408Y-86220620D01*
X58429520Y-86092701D01*
X58405739Y-85997633D01*
X58283974Y-85505508D01*
X58285000Y-84699952D01*
X58417882Y-84568250D01*
X58550764Y-84436549D01*
X58814166Y-84702313D01*
G36*
X64000000Y-89000000D02*
G01*
X63919732Y-89078379D01*
X63873022Y-89122277D01*
X63839389Y-89150720D01*
X63829306Y-89156758D01*
X63811282Y-89142645D01*
X63769850Y-89104264D01*
X63711264Y-89047556D01*
X63644991Y-88981691D01*
X63470833Y-88806624D01*
X63470833Y-87091872D01*
X63757645Y-86807258D01*
X64000000Y-86807258D01*
X64000000Y-89000000D01*
G37*
X64000000Y-89000000D02*
X63919732Y-89078379D01*
X63873022Y-89122277D01*
X63839389Y-89150720D01*
X63829306Y-89156758D01*
X63811282Y-89142645D01*
X63769850Y-89104264D01*
X63711264Y-89047556D01*
X63644991Y-88981691D01*
X63470833Y-88806624D01*
X63470833Y-87091872D01*
X63757645Y-86807258D01*
X64000000Y-86807258D01*
X64000000Y-89000000D01*
G36*
X61105158Y-86808315D02*
G01*
X61146841Y-86815160D01*
X61184695Y-86833305D01*
X61229060Y-86868263D01*
X61290275Y-86925546D01*
X61313891Y-86948314D01*
X61460000Y-87089370D01*
X61460000Y-88808442D01*
X61284932Y-88982600D01*
X61215337Y-89050940D01*
X61156860Y-89106683D01*
X61115822Y-89143917D01*
X61098728Y-89156758D01*
X61078937Y-89142881D01*
X61040111Y-89107258D01*
X61009212Y-89076490D01*
X60930833Y-88996223D01*
X60930833Y-86807258D01*
X61049308Y-86807258D01*
X61105158Y-86808315D01*
G37*
X61105158Y-86808315D02*
X61146841Y-86815160D01*
X61184695Y-86833305D01*
X61229060Y-86868263D01*
X61290275Y-86925546D01*
X61313891Y-86948314D01*
X61460000Y-87089370D01*
X61460000Y-88808442D01*
X61284932Y-88982600D01*
X61215337Y-89050940D01*
X61156860Y-89106683D01*
X61115822Y-89143917D01*
X61098728Y-89156758D01*
X61078937Y-89142881D01*
X61040111Y-89107258D01*
X61009212Y-89076490D01*
X60930833Y-88996223D01*
X60930833Y-86807258D01*
X61049308Y-86807258D01*
X61105158Y-86808315D01*
%LPC*%
D11*
X38752498Y-105400000D02*
G75*
G03*
X38752498Y-105400000I-2052498J0D01*
G01*
X38752498Y-105400000D02*
G75*
G03*
X38752498Y-105400000I-2052498J0D01*
G01*
X38752498Y-41900000D02*
G75*
G03*
X38752498Y-41900000I-2052498J0D01*
G01*
X66652498Y-41900000D02*
G75*
G03*
X66652498Y-41900000I-2052498J0D01*
G01*
X52752498Y-72400000D02*
G75*
G03*
X52752498Y-72400000I-2052498J0D01*
G01*
X66652498Y-105400000D02*
G75*
G03*
X66652498Y-105400000I-2052498J0D01*
G01*
X59052498Y-125800000D02*
G75*
G03*
X59052498Y-125800000I-2052498J0D01*
G01*
X46352498Y-125800000D02*
G75*
G03*
X46352498Y-125800000I-2052498J0D01*
G01*
X33652498Y-125800000D02*
G75*
G03*
X33652498Y-125800000I-2052498J0D01*
G01*
D12*
X28550000Y-23000000D02*
G75*
G03*
X28550000Y-23000000I-1050000J0D01*
G01*
X74250000Y-23300000D02*
G75*
G03*
X74250000Y-23300000I-1050000J0D01*
G01*
X74250000Y-145500000D02*
G75*
G03*
X74250000Y-145500000I-1050000J0D01*
G01*
X28550000Y-145500000D02*
G75*
G03*
X28550000Y-145500000I-1050000J0D01*
G01*
G36*
X36709317Y-95592329D02*
G01*
X36749693Y-95608614D01*
X36825314Y-95640244D01*
X36933790Y-95686185D01*
X37072731Y-95745400D01*
X37239746Y-95816855D01*
X37432446Y-95899514D01*
X37648442Y-95992343D01*
X37885342Y-96094305D01*
X38140758Y-96204367D01*
X38412299Y-96321492D01*
X38697575Y-96444645D01*
X38994197Y-96572792D01*
X39299774Y-96704897D01*
X39611917Y-96839924D01*
X39928235Y-96976840D01*
X40246340Y-97114607D01*
X40563840Y-97252192D01*
X40878346Y-97388559D01*
X41187468Y-97522673D01*
X41488816Y-97653498D01*
X41780000Y-97780000D01*
X42058631Y-97901143D01*
X42322317Y-98015892D01*
X42568671Y-98123212D01*
X42795300Y-98222068D01*
X42999817Y-98311424D01*
X43179829Y-98390245D01*
X43332949Y-98457496D01*
X43456785Y-98512142D01*
X43548949Y-98553148D01*
X43607049Y-98579478D01*
X43628696Y-98590098D01*
X43635807Y-98602329D01*
X43661022Y-98650493D01*
X43703336Y-98733315D01*
X43761807Y-98848905D01*
X43835492Y-98995372D01*
X43923449Y-99170827D01*
X44024736Y-99373378D01*
X44138409Y-99601136D01*
X44263527Y-99852211D01*
X44399146Y-100124712D01*
X44544326Y-100416749D01*
X44698122Y-100726432D01*
X44859593Y-101051870D01*
X45027796Y-101391174D01*
X45201789Y-101742453D01*
X45380628Y-102103817D01*
X47107380Y-105594322D01*
X45376614Y-109094638D01*
X45372288Y-109103386D01*
X45149387Y-109553988D01*
X44944477Y-109967807D01*
X44756945Y-110346057D01*
X44586179Y-110689953D01*
X44431564Y-111000708D01*
X44292488Y-111279537D01*
X44168337Y-111527655D01*
X44058497Y-111746276D01*
X43962356Y-111936614D01*
X43879300Y-112099884D01*
X43808716Y-112237299D01*
X43749991Y-112350075D01*
X43702510Y-112439425D01*
X43665661Y-112506564D01*
X43638830Y-112552707D01*
X43621405Y-112579067D01*
X43612771Y-112586859D01*
X43608698Y-112585352D01*
X43572703Y-112567230D01*
X43505468Y-112530667D01*
X43410571Y-112477741D01*
X43291589Y-112410529D01*
X43152101Y-112331110D01*
X42995684Y-112241561D01*
X42825915Y-112143960D01*
X42646372Y-112040386D01*
X42460633Y-111932915D01*
X42272275Y-111823626D01*
X42084877Y-111714596D01*
X41902015Y-111607904D01*
X41727268Y-111505627D01*
X41564213Y-111409843D01*
X41416427Y-111322630D01*
X41287489Y-111246066D01*
X41180976Y-111182228D01*
X41100466Y-111133195D01*
X41049537Y-111101044D01*
X41031765Y-111087854D01*
X41038657Y-111071190D01*
X41062632Y-111018154D01*
X41102808Y-110930920D01*
X41158168Y-110811651D01*
X41227700Y-110662510D01*
X41310388Y-110485662D01*
X41405217Y-110283270D01*
X41511172Y-110057498D01*
X41627240Y-109810508D01*
X41752405Y-109544465D01*
X41885653Y-109261533D01*
X42025969Y-108963874D01*
X42172337Y-108653652D01*
X42323745Y-108333031D01*
X43615725Y-105598311D01*
X43577870Y-105514277D01*
X43570920Y-105499262D01*
X43546078Y-105446243D01*
X43504917Y-105358716D01*
X43448505Y-105238944D01*
X43377910Y-105089190D01*
X43294202Y-104911717D01*
X43198447Y-104708790D01*
X43091714Y-104482670D01*
X42975071Y-104235621D01*
X42849587Y-103969907D01*
X42716329Y-103687791D01*
X42576367Y-103391535D01*
X42430767Y-103083404D01*
X42280598Y-102765660D01*
X41021182Y-100101076D01*
X38859353Y-99353107D01*
X36697523Y-98605137D01*
X34107436Y-99103509D01*
X33793088Y-99164013D01*
X33479821Y-99224346D01*
X33180658Y-99282002D01*
X32898096Y-99336496D01*
X32634631Y-99387346D01*
X32392761Y-99434069D01*
X32174983Y-99476182D01*
X31983794Y-99513203D01*
X31821691Y-99544648D01*
X31691173Y-99570034D01*
X31594735Y-99588879D01*
X31534875Y-99600700D01*
X31514091Y-99605013D01*
X31506297Y-99618279D01*
X31478474Y-99666206D01*
X31431543Y-99747244D01*
X31366613Y-99859471D01*
X31284795Y-100000963D01*
X31187203Y-100169797D01*
X31074945Y-100364050D01*
X30949133Y-100581800D01*
X30810879Y-100821122D01*
X30661294Y-101080094D01*
X30501488Y-101356792D01*
X30332573Y-101649295D01*
X30155660Y-101955677D01*
X29971860Y-102274017D01*
X29782284Y-102602392D01*
X28053735Y-105596640D01*
X28914978Y-109079392D01*
X28926102Y-109124373D01*
X29018642Y-109498439D01*
X29108440Y-109861172D01*
X29194965Y-110210446D01*
X29277689Y-110544135D01*
X29356084Y-110860113D01*
X29429619Y-111156253D01*
X29497766Y-111430429D01*
X29559997Y-111680516D01*
X29615781Y-111904388D01*
X29664590Y-112099917D01*
X29705894Y-112264978D01*
X29739166Y-112397445D01*
X29763876Y-112495191D01*
X29779494Y-112556092D01*
X29785493Y-112578019D01*
X29787025Y-112581306D01*
X29776945Y-112593894D01*
X29774513Y-112591007D01*
X29755841Y-112558277D01*
X29720297Y-112491172D01*
X29669189Y-112392285D01*
X29603824Y-112264211D01*
X29525509Y-112109542D01*
X29435550Y-111930871D01*
X29335255Y-111730793D01*
X29225931Y-111511900D01*
X29108885Y-111276786D01*
X28985424Y-111028045D01*
X28856855Y-110768269D01*
X28831865Y-110717705D01*
X28675402Y-110401192D01*
X28506570Y-110059746D01*
X28328824Y-109700354D01*
X28145624Y-109330004D01*
X27960426Y-108955684D01*
X27776687Y-108584381D01*
X27597866Y-108223084D01*
X27427420Y-107878779D01*
X27268806Y-107558455D01*
X27125482Y-107269098D01*
X26296379Y-105595553D01*
X28023878Y-102104466D01*
X28157929Y-101833648D01*
X28333305Y-101479604D01*
X28503134Y-101137051D01*
X28666473Y-100807881D01*
X28822380Y-100493982D01*
X28969910Y-100197246D01*
X29108122Y-99919563D01*
X29236073Y-99662823D01*
X29352819Y-99428917D01*
X29457418Y-99219734D01*
X29548926Y-99037164D01*
X29626401Y-98883099D01*
X29688901Y-98759429D01*
X29735481Y-98668043D01*
X29765199Y-98610833D01*
X29777112Y-98589688D01*
X29783199Y-98586403D01*
X29823327Y-98567778D01*
X29898714Y-98533966D01*
X30006968Y-98486002D01*
X30145701Y-98424920D01*
X30312523Y-98351755D01*
X30505044Y-98267543D01*
X30720875Y-98173317D01*
X30957627Y-98070113D01*
X31212910Y-97958966D01*
X31484334Y-97840910D01*
X31769510Y-97716980D01*
X32066049Y-97588212D01*
X32371560Y-97455639D01*
X32683656Y-97320296D01*
X32999945Y-97183219D01*
X33318038Y-97045443D01*
X33635547Y-96908001D01*
X33950081Y-96771930D01*
X34259251Y-96638263D01*
X34560667Y-96508036D01*
X34851940Y-96382282D01*
X35130681Y-96262039D01*
X35394500Y-96148339D01*
X35641007Y-96042218D01*
X35867813Y-95944710D01*
X36072529Y-95856851D01*
X36252764Y-95779675D01*
X36406130Y-95714218D01*
X36530237Y-95661513D01*
X36622695Y-95622596D01*
X36681116Y-95598501D01*
X36703108Y-95590264D01*
X36709317Y-95592329D01*
G37*
D10*
X36709317Y-95592329D02*
X36749693Y-95608614D01*
X36825314Y-95640244D01*
X36933790Y-95686185D01*
X37072731Y-95745400D01*
X37239746Y-95816855D01*
X37432446Y-95899514D01*
X37648442Y-95992343D01*
X37885342Y-96094305D01*
X38140758Y-96204367D01*
X38412299Y-96321492D01*
X38697575Y-96444645D01*
X38994197Y-96572792D01*
X39299774Y-96704897D01*
X39611917Y-96839924D01*
X39928235Y-96976840D01*
X40246340Y-97114607D01*
X40563840Y-97252192D01*
X40878346Y-97388559D01*
X41187468Y-97522673D01*
X41488816Y-97653498D01*
X41780000Y-97780000D01*
X42058631Y-97901143D01*
X42322317Y-98015892D01*
X42568671Y-98123212D01*
X42795300Y-98222068D01*
X42999817Y-98311424D01*
X43179829Y-98390245D01*
X43332949Y-98457496D01*
X43456785Y-98512142D01*
X43548949Y-98553148D01*
X43607049Y-98579478D01*
X43628696Y-98590098D01*
X43635807Y-98602329D01*
X43661022Y-98650493D01*
X43703336Y-98733315D01*
X43761807Y-98848905D01*
X43835492Y-98995372D01*
X43923449Y-99170827D01*
X44024736Y-99373378D01*
X44138409Y-99601136D01*
X44263527Y-99852211D01*
X44399146Y-100124712D01*
X44544326Y-100416749D01*
X44698122Y-100726432D01*
X44859593Y-101051870D01*
X45027796Y-101391174D01*
X45201789Y-101742453D01*
X45380628Y-102103817D01*
X47107380Y-105594322D01*
X45376614Y-109094638D01*
X45372288Y-109103386D01*
X45149387Y-109553988D01*
X44944477Y-109967807D01*
X44756945Y-110346057D01*
X44586179Y-110689953D01*
X44431564Y-111000708D01*
X44292488Y-111279537D01*
X44168337Y-111527655D01*
X44058497Y-111746276D01*
X43962356Y-111936614D01*
X43879300Y-112099884D01*
X43808716Y-112237299D01*
X43749991Y-112350075D01*
X43702510Y-112439425D01*
X43665661Y-112506564D01*
X43638830Y-112552707D01*
X43621405Y-112579067D01*
X43612771Y-112586859D01*
X43608698Y-112585352D01*
X43572703Y-112567230D01*
X43505468Y-112530667D01*
X43410571Y-112477741D01*
X43291589Y-112410529D01*
X43152101Y-112331110D01*
X42995684Y-112241561D01*
X42825915Y-112143960D01*
X42646372Y-112040386D01*
X42460633Y-111932915D01*
X42272275Y-111823626D01*
X42084877Y-111714596D01*
X41902015Y-111607904D01*
X41727268Y-111505627D01*
X41564213Y-111409843D01*
X41416427Y-111322630D01*
X41287489Y-111246066D01*
X41180976Y-111182228D01*
X41100466Y-111133195D01*
X41049537Y-111101044D01*
X41031765Y-111087854D01*
X41038657Y-111071190D01*
X41062632Y-111018154D01*
X41102808Y-110930920D01*
X41158168Y-110811651D01*
X41227700Y-110662510D01*
X41310388Y-110485662D01*
X41405217Y-110283270D01*
X41511172Y-110057498D01*
X41627240Y-109810508D01*
X41752405Y-109544465D01*
X41885653Y-109261533D01*
X42025969Y-108963874D01*
X42172337Y-108653652D01*
X42323745Y-108333031D01*
X43615725Y-105598311D01*
X43577870Y-105514277D01*
X43570920Y-105499262D01*
X43546078Y-105446243D01*
X43504917Y-105358716D01*
X43448505Y-105238944D01*
X43377910Y-105089190D01*
X43294202Y-104911717D01*
X43198447Y-104708790D01*
X43091714Y-104482670D01*
X42975071Y-104235621D01*
X42849587Y-103969907D01*
X42716329Y-103687791D01*
X42576367Y-103391535D01*
X42430767Y-103083404D01*
X42280598Y-102765660D01*
X41021182Y-100101076D01*
X38859353Y-99353107D01*
X36697523Y-98605137D01*
X34107436Y-99103509D01*
X33793088Y-99164013D01*
X33479821Y-99224346D01*
X33180658Y-99282002D01*
X32898096Y-99336496D01*
X32634631Y-99387346D01*
X32392761Y-99434069D01*
X32174983Y-99476182D01*
X31983794Y-99513203D01*
X31821691Y-99544648D01*
X31691173Y-99570034D01*
X31594735Y-99588879D01*
X31534875Y-99600700D01*
X31514091Y-99605013D01*
X31506297Y-99618279D01*
X31478474Y-99666206D01*
X31431543Y-99747244D01*
X31366613Y-99859471D01*
X31284795Y-100000963D01*
X31187203Y-100169797D01*
X31074945Y-100364050D01*
X30949133Y-100581800D01*
X30810879Y-100821122D01*
X30661294Y-101080094D01*
X30501488Y-101356792D01*
X30332573Y-101649295D01*
X30155660Y-101955677D01*
X29971860Y-102274017D01*
X29782284Y-102602392D01*
X28053735Y-105596640D01*
X28914978Y-109079392D01*
X28926102Y-109124373D01*
X29018642Y-109498439D01*
X29108440Y-109861172D01*
X29194965Y-110210446D01*
X29277689Y-110544135D01*
X29356084Y-110860113D01*
X29429619Y-111156253D01*
X29497766Y-111430429D01*
X29559997Y-111680516D01*
X29615781Y-111904388D01*
X29664590Y-112099917D01*
X29705894Y-112264978D01*
X29739166Y-112397445D01*
X29763876Y-112495191D01*
X29779494Y-112556092D01*
X29785493Y-112578019D01*
X29787025Y-112581306D01*
X29776945Y-112593894D01*
X29774513Y-112591007D01*
X29755841Y-112558277D01*
X29720297Y-112491172D01*
X29669189Y-112392285D01*
X29603824Y-112264211D01*
X29525509Y-112109542D01*
X29435550Y-111930871D01*
X29335255Y-111730793D01*
X29225931Y-111511900D01*
X29108885Y-111276786D01*
X28985424Y-111028045D01*
X28856855Y-110768269D01*
X28831865Y-110717705D01*
X28675402Y-110401192D01*
X28506570Y-110059746D01*
X28328824Y-109700354D01*
X28145624Y-109330004D01*
X27960426Y-108955684D01*
X27776687Y-108584381D01*
X27597866Y-108223084D01*
X27427420Y-107878779D01*
X27268806Y-107558455D01*
X27125482Y-107269098D01*
X26296379Y-105595553D01*
X28023878Y-102104466D01*
X28157929Y-101833648D01*
X28333305Y-101479604D01*
X28503134Y-101137051D01*
X28666473Y-100807881D01*
X28822380Y-100493982D01*
X28969910Y-100197246D01*
X29108122Y-99919563D01*
X29236073Y-99662823D01*
X29352819Y-99428917D01*
X29457418Y-99219734D01*
X29548926Y-99037164D01*
X29626401Y-98883099D01*
X29688901Y-98759429D01*
X29735481Y-98668043D01*
X29765199Y-98610833D01*
X29777112Y-98589688D01*
X29783199Y-98586403D01*
X29823327Y-98567778D01*
X29898714Y-98533966D01*
X30006968Y-98486002D01*
X30145701Y-98424920D01*
X30312523Y-98351755D01*
X30505044Y-98267543D01*
X30720875Y-98173317D01*
X30957627Y-98070113D01*
X31212910Y-97958966D01*
X31484334Y-97840910D01*
X31769510Y-97716980D01*
X32066049Y-97588212D01*
X32371560Y-97455639D01*
X32683656Y-97320296D01*
X32999945Y-97183219D01*
X33318038Y-97045443D01*
X33635547Y-96908001D01*
X33950081Y-96771930D01*
X34259251Y-96638263D01*
X34560667Y-96508036D01*
X34851940Y-96382282D01*
X35130681Y-96262039D01*
X35394500Y-96148339D01*
X35641007Y-96042218D01*
X35867813Y-95944710D01*
X36072529Y-95856851D01*
X36252764Y-95779675D01*
X36406130Y-95714218D01*
X36530237Y-95661513D01*
X36622695Y-95622596D01*
X36681116Y-95598501D01*
X36703108Y-95590264D01*
X36709317Y-95592329D01*
G36*
X55905559Y-59625786D02*
G01*
X56352551Y-59819404D01*
X56789356Y-60008712D01*
X57214382Y-60193016D01*
X57626037Y-60371622D01*
X58022731Y-60543836D01*
X58402870Y-60708966D01*
X58764864Y-60866317D01*
X59107122Y-61015196D01*
X59428050Y-61154910D01*
X59726059Y-61284764D01*
X59999555Y-61404066D01*
X60246948Y-61512122D01*
X60466646Y-61608238D01*
X60657058Y-61691721D01*
X60816591Y-61761877D01*
X60943654Y-61818013D01*
X61036656Y-61859435D01*
X61094004Y-61885450D01*
X61114108Y-61895364D01*
X61114117Y-61895383D01*
X61123851Y-61915501D01*
X61151611Y-61972023D01*
X61196636Y-62063411D01*
X61258169Y-62188131D01*
X61335449Y-62344648D01*
X61427717Y-62531426D01*
X61534215Y-62746930D01*
X61654183Y-62989626D01*
X61786861Y-63257977D01*
X61931492Y-63550449D01*
X62087314Y-63865506D01*
X62253570Y-64201613D01*
X62429500Y-64557235D01*
X62614345Y-64930837D01*
X62807345Y-65320884D01*
X63007742Y-65725839D01*
X63214776Y-66144169D01*
X63427688Y-66574338D01*
X63645719Y-67014810D01*
X63710659Y-67145995D01*
X66301721Y-72380167D01*
X65999226Y-72998100D01*
X65942294Y-73114171D01*
X65870129Y-73260920D01*
X65783678Y-73436435D01*
X65683887Y-73638806D01*
X65571703Y-73866123D01*
X65448073Y-74116476D01*
X65313943Y-74387955D01*
X65170259Y-74678648D01*
X65017968Y-74986646D01*
X64858016Y-75310039D01*
X64691351Y-75646916D01*
X64518919Y-75995367D01*
X64341666Y-76353481D01*
X64160538Y-76719349D01*
X63976483Y-77091060D01*
X63790447Y-77466704D01*
X63603377Y-77844370D01*
X63416218Y-78222148D01*
X63229918Y-78598129D01*
X63045424Y-78970400D01*
X62863681Y-79337053D01*
X62685636Y-79696178D01*
X62512236Y-80045862D01*
X62344427Y-80384198D01*
X62183156Y-80709273D01*
X62029370Y-81019178D01*
X61884014Y-81312003D01*
X61748037Y-81585837D01*
X61622383Y-81838770D01*
X61508000Y-82068891D01*
X61405834Y-82274291D01*
X61316832Y-82453060D01*
X61241940Y-82603285D01*
X61182105Y-82723059D01*
X61138274Y-82810469D01*
X61111392Y-82863607D01*
X61102443Y-82880584D01*
X61083346Y-82871539D01*
X61030471Y-82843040D01*
X60946729Y-82796750D01*
X60835030Y-82734333D01*
X60698286Y-82657452D01*
X60539408Y-82567771D01*
X60361308Y-82466952D01*
X60166897Y-82356658D01*
X59959087Y-82238554D01*
X59740788Y-82114303D01*
X59514912Y-81985567D01*
X59284371Y-81854010D01*
X59052076Y-81721295D01*
X58820937Y-81589086D01*
X58593867Y-81459045D01*
X58373776Y-81332837D01*
X58163577Y-81212124D01*
X57966180Y-81098569D01*
X57784496Y-80993837D01*
X57621438Y-80899590D01*
X57479916Y-80817491D01*
X57362842Y-80749204D01*
X57273127Y-80696392D01*
X57213682Y-80660719D01*
X57187585Y-80643977D01*
X57195985Y-80624735D01*
X57221656Y-80568969D01*
X57263776Y-80478426D01*
X57321522Y-80354853D01*
X57394073Y-80199999D01*
X57480606Y-80015610D01*
X57580298Y-79803433D01*
X57692327Y-79565218D01*
X57815870Y-79302709D01*
X57950106Y-79017657D01*
X58094212Y-78711806D01*
X58247365Y-78386906D01*
X58408743Y-78044704D01*
X58577523Y-77686946D01*
X58752884Y-77315381D01*
X58934002Y-76931755D01*
X59120056Y-76537817D01*
X59130484Y-76515741D01*
X59320862Y-76112466D01*
X59505611Y-75720601D01*
X59683944Y-75341836D01*
X59855074Y-74977859D01*
X60018215Y-74630358D01*
X60172581Y-74301022D01*
X60317383Y-73991540D01*
X60451836Y-73703598D01*
X60575154Y-73438888D01*
X60686548Y-73199095D01*
X60785233Y-72985910D01*
X60870423Y-72801021D01*
X60941329Y-72646116D01*
X60997166Y-72522883D01*
X61037147Y-72433011D01*
X61060485Y-72378189D01*
X61066613Y-72360222D01*
X61056950Y-72339361D01*
X61030235Y-72282381D01*
X60987479Y-72191424D01*
X60929694Y-72068631D01*
X60857889Y-71916146D01*
X60773076Y-71736110D01*
X60676266Y-71530667D01*
X60568468Y-71301958D01*
X60450695Y-71052126D01*
X60323956Y-70783314D01*
X60189263Y-70497663D01*
X60047625Y-70197316D01*
X59900055Y-69884416D01*
X59747563Y-69561105D01*
X59591160Y-69229525D01*
X59431855Y-68891819D01*
X59270661Y-68550129D01*
X59108588Y-68206598D01*
X58946646Y-67863367D01*
X58785847Y-67522580D01*
X58627201Y-67186379D01*
X58471719Y-66856905D01*
X58320412Y-66536302D01*
X58174291Y-66226712D01*
X58034366Y-65930277D01*
X57901648Y-65649140D01*
X57777147Y-65385443D01*
X57661876Y-65141328D01*
X57556844Y-64918939D01*
X57463062Y-64720416D01*
X57381541Y-64547903D01*
X57313292Y-64403543D01*
X57259325Y-64289476D01*
X57220652Y-64207847D01*
X57198283Y-64160797D01*
X57192827Y-64149513D01*
X57172847Y-64142151D01*
X57114969Y-64121671D01*
X57021297Y-64088807D01*
X56893937Y-64044290D01*
X56734994Y-63988852D01*
X56546573Y-63923225D01*
X56330780Y-63848141D01*
X56089721Y-63764332D01*
X55825499Y-63672530D01*
X55540221Y-63573467D01*
X55235992Y-63467875D01*
X54914917Y-63356486D01*
X54579102Y-63240032D01*
X54230651Y-63119245D01*
X53945829Y-63020549D01*
X50701780Y-61896604D01*
X46818280Y-62644039D01*
X46419499Y-62720833D01*
X46031844Y-62795568D01*
X45657363Y-62867846D01*
X45298103Y-62937268D01*
X44956111Y-63003438D01*
X44633433Y-63065955D01*
X44332118Y-63124422D01*
X44054211Y-63178441D01*
X43801759Y-63227614D01*
X43576811Y-63271541D01*
X43381412Y-63309826D01*
X43217610Y-63342070D01*
X43087452Y-63367874D01*
X42992984Y-63386841D01*
X42936254Y-63398572D01*
X42919183Y-63402586D01*
X42907080Y-63421839D01*
X42874976Y-63475847D01*
X42823979Y-63562693D01*
X42755194Y-63680460D01*
X42669727Y-63827231D01*
X42568686Y-64001088D01*
X42453174Y-64200116D01*
X42324300Y-64422395D01*
X42183169Y-64666011D01*
X42030888Y-64929045D01*
X41868561Y-65209580D01*
X41697296Y-65505699D01*
X41518199Y-65815485D01*
X41332376Y-66137022D01*
X41140932Y-66468391D01*
X40944975Y-66807676D01*
X40745610Y-67152960D01*
X40543943Y-67502325D01*
X40341081Y-67853855D01*
X40138130Y-68205632D01*
X39936195Y-68555740D01*
X39736383Y-68902260D01*
X39539801Y-69243277D01*
X39347553Y-69576873D01*
X39160748Y-69901131D01*
X38980489Y-70214133D01*
X38807885Y-70513964D01*
X38644040Y-70798704D01*
X38490061Y-71066439D01*
X38347055Y-71315250D01*
X38216127Y-71543220D01*
X38098383Y-71748432D01*
X37994929Y-71928969D01*
X37906873Y-72082914D01*
X37835319Y-72208351D01*
X37781375Y-72303361D01*
X37746145Y-72366028D01*
X37730737Y-72394434D01*
X37730111Y-72395947D01*
X37735127Y-72417862D01*
X37749891Y-72479137D01*
X37773974Y-72578036D01*
X37806949Y-72712828D01*
X37848390Y-72881778D01*
X37897869Y-73083153D01*
X37954958Y-73315219D01*
X38019230Y-73576243D01*
X38090258Y-73864492D01*
X38167614Y-74178231D01*
X38250871Y-74515727D01*
X38339601Y-74875248D01*
X38433378Y-75255058D01*
X38531774Y-75653425D01*
X38634362Y-76068616D01*
X38740713Y-76498896D01*
X38850402Y-76942532D01*
X38963000Y-77397791D01*
X39022250Y-77637295D01*
X39136157Y-78097874D01*
X39247330Y-78547728D01*
X39355341Y-78985125D01*
X39459767Y-79408330D01*
X39560181Y-79815612D01*
X39656159Y-80205235D01*
X39747275Y-80575467D01*
X39833104Y-80924574D01*
X39913221Y-81250823D01*
X39987201Y-81552481D01*
X40054618Y-81827813D01*
X40115047Y-82075087D01*
X40168062Y-82292570D01*
X40213239Y-82478527D01*
X40250153Y-82631226D01*
X40278377Y-82748933D01*
X40297487Y-82829914D01*
X40307058Y-82872436D01*
X40308125Y-82878770D01*
X40298338Y-82861648D01*
X40270553Y-82808096D01*
X40225528Y-82719636D01*
X40164020Y-82597788D01*
X40086786Y-82444074D01*
X39994584Y-82260017D01*
X39888172Y-82047137D01*
X39768306Y-81806956D01*
X39635745Y-81540996D01*
X39491245Y-81250779D01*
X39335565Y-80937825D01*
X39169461Y-80603657D01*
X38993692Y-80249795D01*
X38809014Y-79877763D01*
X38616186Y-79489080D01*
X38415964Y-79085269D01*
X38209107Y-78667852D01*
X37996371Y-78238349D01*
X37778514Y-77798283D01*
X37708945Y-77657708D01*
X37489477Y-77214149D01*
X37274912Y-76780383D01*
X37066007Y-76357948D01*
X36863521Y-75948383D01*
X36668213Y-75553224D01*
X36480842Y-75174010D01*
X36302165Y-74812279D01*
X36132943Y-74469569D01*
X35973932Y-74147416D01*
X35825893Y-73847360D01*
X35689584Y-73570937D01*
X35565763Y-73319687D01*
X35455189Y-73095145D01*
X35358620Y-72898851D01*
X35276816Y-72732343D01*
X35210536Y-72597157D01*
X35160536Y-72494832D01*
X35127578Y-72426906D01*
X35112418Y-72394916D01*
X35111454Y-72392554D01*
X35120341Y-72371681D01*
X35147280Y-72314418D01*
X35191515Y-72222302D01*
X35252290Y-72096869D01*
X35328850Y-71939654D01*
X35420439Y-71752195D01*
X35526301Y-71536028D01*
X35645680Y-71292689D01*
X35777821Y-71023714D01*
X35921968Y-70730640D01*
X36077364Y-70415003D01*
X36243256Y-70078340D01*
X36418886Y-69722185D01*
X36603498Y-69348077D01*
X36796338Y-68957551D01*
X36996649Y-68552143D01*
X37203676Y-68133390D01*
X37416663Y-67702828D01*
X37634854Y-67261994D01*
X37704371Y-67121594D01*
X40301861Y-61875989D01*
X45502171Y-59624309D01*
X50702480Y-57372628D01*
X55905559Y-59625786D01*
G37*
X55905559Y-59625786D02*
X56352551Y-59819404D01*
X56789356Y-60008712D01*
X57214382Y-60193016D01*
X57626037Y-60371622D01*
X58022731Y-60543836D01*
X58402870Y-60708966D01*
X58764864Y-60866317D01*
X59107122Y-61015196D01*
X59428050Y-61154910D01*
X59726059Y-61284764D01*
X59999555Y-61404066D01*
X60246948Y-61512122D01*
X60466646Y-61608238D01*
X60657058Y-61691721D01*
X60816591Y-61761877D01*
X60943654Y-61818013D01*
X61036656Y-61859435D01*
X61094004Y-61885450D01*
X61114108Y-61895364D01*
X61114117Y-61895383D01*
X61123851Y-61915501D01*
X61151611Y-61972023D01*
X61196636Y-62063411D01*
X61258169Y-62188131D01*
X61335449Y-62344648D01*
X61427717Y-62531426D01*
X61534215Y-62746930D01*
X61654183Y-62989626D01*
X61786861Y-63257977D01*
X61931492Y-63550449D01*
X62087314Y-63865506D01*
X62253570Y-64201613D01*
X62429500Y-64557235D01*
X62614345Y-64930837D01*
X62807345Y-65320884D01*
X63007742Y-65725839D01*
X63214776Y-66144169D01*
X63427688Y-66574338D01*
X63645719Y-67014810D01*
X63710659Y-67145995D01*
X66301721Y-72380167D01*
X65999226Y-72998100D01*
X65942294Y-73114171D01*
X65870129Y-73260920D01*
X65783678Y-73436435D01*
X65683887Y-73638806D01*
X65571703Y-73866123D01*
X65448073Y-74116476D01*
X65313943Y-74387955D01*
X65170259Y-74678648D01*
X65017968Y-74986646D01*
X64858016Y-75310039D01*
X64691351Y-75646916D01*
X64518919Y-75995367D01*
X64341666Y-76353481D01*
X64160538Y-76719349D01*
X63976483Y-77091060D01*
X63790447Y-77466704D01*
X63603377Y-77844370D01*
X63416218Y-78222148D01*
X63229918Y-78598129D01*
X63045424Y-78970400D01*
X62863681Y-79337053D01*
X62685636Y-79696178D01*
X62512236Y-80045862D01*
X62344427Y-80384198D01*
X62183156Y-80709273D01*
X62029370Y-81019178D01*
X61884014Y-81312003D01*
X61748037Y-81585837D01*
X61622383Y-81838770D01*
X61508000Y-82068891D01*
X61405834Y-82274291D01*
X61316832Y-82453060D01*
X61241940Y-82603285D01*
X61182105Y-82723059D01*
X61138274Y-82810469D01*
X61111392Y-82863607D01*
X61102443Y-82880584D01*
X61083346Y-82871539D01*
X61030471Y-82843040D01*
X60946729Y-82796750D01*
X60835030Y-82734333D01*
X60698286Y-82657452D01*
X60539408Y-82567771D01*
X60361308Y-82466952D01*
X60166897Y-82356658D01*
X59959087Y-82238554D01*
X59740788Y-82114303D01*
X59514912Y-81985567D01*
X59284371Y-81854010D01*
X59052076Y-81721295D01*
X58820937Y-81589086D01*
X58593867Y-81459045D01*
X58373776Y-81332837D01*
X58163577Y-81212124D01*
X57966180Y-81098569D01*
X57784496Y-80993837D01*
X57621438Y-80899590D01*
X57479916Y-80817491D01*
X57362842Y-80749204D01*
X57273127Y-80696392D01*
X57213682Y-80660719D01*
X57187585Y-80643977D01*
X57195985Y-80624735D01*
X57221656Y-80568969D01*
X57263776Y-80478426D01*
X57321522Y-80354853D01*
X57394073Y-80199999D01*
X57480606Y-80015610D01*
X57580298Y-79803433D01*
X57692327Y-79565218D01*
X57815870Y-79302709D01*
X57950106Y-79017657D01*
X58094212Y-78711806D01*
X58247365Y-78386906D01*
X58408743Y-78044704D01*
X58577523Y-77686946D01*
X58752884Y-77315381D01*
X58934002Y-76931755D01*
X59120056Y-76537817D01*
X59130484Y-76515741D01*
X59320862Y-76112466D01*
X59505611Y-75720601D01*
X59683944Y-75341836D01*
X59855074Y-74977859D01*
X60018215Y-74630358D01*
X60172581Y-74301022D01*
X60317383Y-73991540D01*
X60451836Y-73703598D01*
X60575154Y-73438888D01*
X60686548Y-73199095D01*
X60785233Y-72985910D01*
X60870423Y-72801021D01*
X60941329Y-72646116D01*
X60997166Y-72522883D01*
X61037147Y-72433011D01*
X61060485Y-72378189D01*
X61066613Y-72360222D01*
X61056950Y-72339361D01*
X61030235Y-72282381D01*
X60987479Y-72191424D01*
X60929694Y-72068631D01*
X60857889Y-71916146D01*
X60773076Y-71736110D01*
X60676266Y-71530667D01*
X60568468Y-71301958D01*
X60450695Y-71052126D01*
X60323956Y-70783314D01*
X60189263Y-70497663D01*
X60047625Y-70197316D01*
X59900055Y-69884416D01*
X59747563Y-69561105D01*
X59591160Y-69229525D01*
X59431855Y-68891819D01*
X59270661Y-68550129D01*
X59108588Y-68206598D01*
X58946646Y-67863367D01*
X58785847Y-67522580D01*
X58627201Y-67186379D01*
X58471719Y-66856905D01*
X58320412Y-66536302D01*
X58174291Y-66226712D01*
X58034366Y-65930277D01*
X57901648Y-65649140D01*
X57777147Y-65385443D01*
X57661876Y-65141328D01*
X57556844Y-64918939D01*
X57463062Y-64720416D01*
X57381541Y-64547903D01*
X57313292Y-64403543D01*
X57259325Y-64289476D01*
X57220652Y-64207847D01*
X57198283Y-64160797D01*
X57192827Y-64149513D01*
X57172847Y-64142151D01*
X57114969Y-64121671D01*
X57021297Y-64088807D01*
X56893937Y-64044290D01*
X56734994Y-63988852D01*
X56546573Y-63923225D01*
X56330780Y-63848141D01*
X56089721Y-63764332D01*
X55825499Y-63672530D01*
X55540221Y-63573467D01*
X55235992Y-63467875D01*
X54914917Y-63356486D01*
X54579102Y-63240032D01*
X54230651Y-63119245D01*
X53945829Y-63020549D01*
X50701780Y-61896604D01*
X46818280Y-62644039D01*
X46419499Y-62720833D01*
X46031844Y-62795568D01*
X45657363Y-62867846D01*
X45298103Y-62937268D01*
X44956111Y-63003438D01*
X44633433Y-63065955D01*
X44332118Y-63124422D01*
X44054211Y-63178441D01*
X43801759Y-63227614D01*
X43576811Y-63271541D01*
X43381412Y-63309826D01*
X43217610Y-63342070D01*
X43087452Y-63367874D01*
X42992984Y-63386841D01*
X42936254Y-63398572D01*
X42919183Y-63402586D01*
X42907080Y-63421839D01*
X42874976Y-63475847D01*
X42823979Y-63562693D01*
X42755194Y-63680460D01*
X42669727Y-63827231D01*
X42568686Y-64001088D01*
X42453174Y-64200116D01*
X42324300Y-64422395D01*
X42183169Y-64666011D01*
X42030888Y-64929045D01*
X41868561Y-65209580D01*
X41697296Y-65505699D01*
X41518199Y-65815485D01*
X41332376Y-66137022D01*
X41140932Y-66468391D01*
X40944975Y-66807676D01*
X40745610Y-67152960D01*
X40543943Y-67502325D01*
X40341081Y-67853855D01*
X40138130Y-68205632D01*
X39936195Y-68555740D01*
X39736383Y-68902260D01*
X39539801Y-69243277D01*
X39347553Y-69576873D01*
X39160748Y-69901131D01*
X38980489Y-70214133D01*
X38807885Y-70513964D01*
X38644040Y-70798704D01*
X38490061Y-71066439D01*
X38347055Y-71315250D01*
X38216127Y-71543220D01*
X38098383Y-71748432D01*
X37994929Y-71928969D01*
X37906873Y-72082914D01*
X37835319Y-72208351D01*
X37781375Y-72303361D01*
X37746145Y-72366028D01*
X37730737Y-72394434D01*
X37730111Y-72395947D01*
X37735127Y-72417862D01*
X37749891Y-72479137D01*
X37773974Y-72578036D01*
X37806949Y-72712828D01*
X37848390Y-72881778D01*
X37897869Y-73083153D01*
X37954958Y-73315219D01*
X38019230Y-73576243D01*
X38090258Y-73864492D01*
X38167614Y-74178231D01*
X38250871Y-74515727D01*
X38339601Y-74875248D01*
X38433378Y-75255058D01*
X38531774Y-75653425D01*
X38634362Y-76068616D01*
X38740713Y-76498896D01*
X38850402Y-76942532D01*
X38963000Y-77397791D01*
X39022250Y-77637295D01*
X39136157Y-78097874D01*
X39247330Y-78547728D01*
X39355341Y-78985125D01*
X39459767Y-79408330D01*
X39560181Y-79815612D01*
X39656159Y-80205235D01*
X39747275Y-80575467D01*
X39833104Y-80924574D01*
X39913221Y-81250823D01*
X39987201Y-81552481D01*
X40054618Y-81827813D01*
X40115047Y-82075087D01*
X40168062Y-82292570D01*
X40213239Y-82478527D01*
X40250153Y-82631226D01*
X40278377Y-82748933D01*
X40297487Y-82829914D01*
X40307058Y-82872436D01*
X40308125Y-82878770D01*
X40298338Y-82861648D01*
X40270553Y-82808096D01*
X40225528Y-82719636D01*
X40164020Y-82597788D01*
X40086786Y-82444074D01*
X39994584Y-82260017D01*
X39888172Y-82047137D01*
X39768306Y-81806956D01*
X39635745Y-81540996D01*
X39491245Y-81250779D01*
X39335565Y-80937825D01*
X39169461Y-80603657D01*
X38993692Y-80249795D01*
X38809014Y-79877763D01*
X38616186Y-79489080D01*
X38415964Y-79085269D01*
X38209107Y-78667852D01*
X37996371Y-78238349D01*
X37778514Y-77798283D01*
X37708945Y-77657708D01*
X37489477Y-77214149D01*
X37274912Y-76780383D01*
X37066007Y-76357948D01*
X36863521Y-75948383D01*
X36668213Y-75553224D01*
X36480842Y-75174010D01*
X36302165Y-74812279D01*
X36132943Y-74469569D01*
X35973932Y-74147416D01*
X35825893Y-73847360D01*
X35689584Y-73570937D01*
X35565763Y-73319687D01*
X35455189Y-73095145D01*
X35358620Y-72898851D01*
X35276816Y-72732343D01*
X35210536Y-72597157D01*
X35160536Y-72494832D01*
X35127578Y-72426906D01*
X35112418Y-72394916D01*
X35111454Y-72392554D01*
X35120341Y-72371681D01*
X35147280Y-72314418D01*
X35191515Y-72222302D01*
X35252290Y-72096869D01*
X35328850Y-71939654D01*
X35420439Y-71752195D01*
X35526301Y-71536028D01*
X35645680Y-71292689D01*
X35777821Y-71023714D01*
X35921968Y-70730640D01*
X36077364Y-70415003D01*
X36243256Y-70078340D01*
X36418886Y-69722185D01*
X36603498Y-69348077D01*
X36796338Y-68957551D01*
X36996649Y-68552143D01*
X37203676Y-68133390D01*
X37416663Y-67702828D01*
X37634854Y-67261994D01*
X37704371Y-67121594D01*
X40301861Y-61875989D01*
X45502171Y-59624309D01*
X50702480Y-57372628D01*
X55905559Y-59625786D01*
G36*
X64609317Y-95592329D02*
G01*
X64649693Y-95608614D01*
X64725314Y-95640244D01*
X64833790Y-95686185D01*
X64972731Y-95745400D01*
X65139746Y-95816855D01*
X65332446Y-95899514D01*
X65548442Y-95992343D01*
X65785342Y-96094305D01*
X66040758Y-96204367D01*
X66312299Y-96321492D01*
X66597575Y-96444645D01*
X66894197Y-96572792D01*
X67199774Y-96704897D01*
X67511917Y-96839924D01*
X67828235Y-96976840D01*
X68146340Y-97114607D01*
X68463840Y-97252192D01*
X68778346Y-97388559D01*
X69087468Y-97522673D01*
X69388816Y-97653498D01*
X69680000Y-97780000D01*
X69958631Y-97901143D01*
X70222317Y-98015892D01*
X70468671Y-98123212D01*
X70695300Y-98222068D01*
X70899817Y-98311424D01*
X71079829Y-98390245D01*
X71232949Y-98457496D01*
X71356785Y-98512142D01*
X71448949Y-98553148D01*
X71507049Y-98579478D01*
X71528696Y-98590098D01*
X71535807Y-98602329D01*
X71561022Y-98650493D01*
X71603336Y-98733315D01*
X71661807Y-98848905D01*
X71735492Y-98995372D01*
X71823449Y-99170827D01*
X71924736Y-99373378D01*
X72038409Y-99601136D01*
X72163527Y-99852211D01*
X72299146Y-100124712D01*
X72444326Y-100416749D01*
X72598122Y-100726432D01*
X72759593Y-101051870D01*
X72927796Y-101391174D01*
X73101789Y-101742453D01*
X73280628Y-102103817D01*
X75007380Y-105594322D01*
X73276614Y-109094638D01*
X73272288Y-109103386D01*
X73049387Y-109553988D01*
X72844477Y-109967807D01*
X72656945Y-110346057D01*
X72486179Y-110689953D01*
X72331564Y-111000708D01*
X72192488Y-111279537D01*
X72068337Y-111527655D01*
X71958497Y-111746276D01*
X71862356Y-111936614D01*
X71779300Y-112099884D01*
X71708716Y-112237299D01*
X71649991Y-112350075D01*
X71602510Y-112439425D01*
X71565661Y-112506564D01*
X71538830Y-112552707D01*
X71521405Y-112579067D01*
X71512771Y-112586859D01*
X71508698Y-112585352D01*
X71472703Y-112567230D01*
X71405468Y-112530667D01*
X71310571Y-112477741D01*
X71191589Y-112410529D01*
X71052101Y-112331110D01*
X70895684Y-112241561D01*
X70725915Y-112143960D01*
X70546372Y-112040386D01*
X70360633Y-111932915D01*
X70172275Y-111823626D01*
X69984877Y-111714596D01*
X69802015Y-111607904D01*
X69627268Y-111505627D01*
X69464213Y-111409843D01*
X69316427Y-111322630D01*
X69187489Y-111246066D01*
X69080976Y-111182228D01*
X69000466Y-111133195D01*
X68949537Y-111101044D01*
X68931765Y-111087854D01*
X68938657Y-111071190D01*
X68962632Y-111018154D01*
X69002808Y-110930920D01*
X69058168Y-110811651D01*
X69127700Y-110662510D01*
X69210388Y-110485662D01*
X69305217Y-110283270D01*
X69411172Y-110057498D01*
X69527240Y-109810508D01*
X69652405Y-109544465D01*
X69785653Y-109261533D01*
X69925969Y-108963874D01*
X70072337Y-108653652D01*
X70223745Y-108333031D01*
X71515725Y-105598311D01*
X71477870Y-105514277D01*
X71470920Y-105499262D01*
X71446078Y-105446243D01*
X71404917Y-105358716D01*
X71348505Y-105238944D01*
X71277910Y-105089190D01*
X71194202Y-104911717D01*
X71098447Y-104708790D01*
X70991714Y-104482670D01*
X70875071Y-104235621D01*
X70749587Y-103969907D01*
X70616329Y-103687791D01*
X70476367Y-103391535D01*
X70330767Y-103083404D01*
X70180598Y-102765660D01*
X68921182Y-100101076D01*
X66759353Y-99353107D01*
X64597523Y-98605137D01*
X62007436Y-99103509D01*
X61693088Y-99164013D01*
X61379821Y-99224346D01*
X61080658Y-99282002D01*
X60798096Y-99336496D01*
X60534631Y-99387346D01*
X60292761Y-99434069D01*
X60074983Y-99476182D01*
X59883794Y-99513203D01*
X59721691Y-99544648D01*
X59591173Y-99570034D01*
X59494735Y-99588879D01*
X59434875Y-99600700D01*
X59414091Y-99605013D01*
X59406297Y-99618279D01*
X59378474Y-99666206D01*
X59331543Y-99747244D01*
X59266613Y-99859471D01*
X59184795Y-100000963D01*
X59087203Y-100169797D01*
X58974945Y-100364050D01*
X58849133Y-100581800D01*
X58710879Y-100821122D01*
X58561294Y-101080094D01*
X58401488Y-101356792D01*
X58232573Y-101649295D01*
X58055660Y-101955677D01*
X57871860Y-102274017D01*
X57682284Y-102602392D01*
X55953735Y-105596640D01*
X56814978Y-109079392D01*
X56826102Y-109124373D01*
X56918642Y-109498439D01*
X57008440Y-109861172D01*
X57094965Y-110210446D01*
X57177689Y-110544135D01*
X57256084Y-110860113D01*
X57329619Y-111156253D01*
X57397766Y-111430429D01*
X57459997Y-111680516D01*
X57515781Y-111904388D01*
X57564590Y-112099917D01*
X57605894Y-112264978D01*
X57639166Y-112397445D01*
X57663876Y-112495191D01*
X57679494Y-112556092D01*
X57685493Y-112578019D01*
X57687025Y-112581306D01*
X57676945Y-112593894D01*
X57674513Y-112591007D01*
X57655841Y-112558277D01*
X57620297Y-112491172D01*
X57569189Y-112392285D01*
X57503824Y-112264211D01*
X57425509Y-112109542D01*
X57335550Y-111930871D01*
X57235255Y-111730793D01*
X57125931Y-111511900D01*
X57008885Y-111276786D01*
X56885424Y-111028045D01*
X56756855Y-110768269D01*
X56731865Y-110717705D01*
X56575402Y-110401192D01*
X56406570Y-110059746D01*
X56228824Y-109700354D01*
X56045624Y-109330004D01*
X55860426Y-108955684D01*
X55676687Y-108584381D01*
X55497866Y-108223084D01*
X55327420Y-107878779D01*
X55168806Y-107558455D01*
X55025482Y-107269098D01*
X54196379Y-105595553D01*
X55923878Y-102104466D01*
X56057929Y-101833648D01*
X56233305Y-101479604D01*
X56403134Y-101137051D01*
X56566473Y-100807881D01*
X56722380Y-100493982D01*
X56869910Y-100197246D01*
X57008122Y-99919563D01*
X57136073Y-99662823D01*
X57252819Y-99428917D01*
X57357418Y-99219734D01*
X57448926Y-99037164D01*
X57526401Y-98883099D01*
X57588901Y-98759429D01*
X57635481Y-98668043D01*
X57665199Y-98610833D01*
X57677112Y-98589688D01*
X57683199Y-98586403D01*
X57723327Y-98567778D01*
X57798714Y-98533966D01*
X57906968Y-98486002D01*
X58045701Y-98424920D01*
X58212523Y-98351755D01*
X58405044Y-98267543D01*
X58620875Y-98173317D01*
X58857627Y-98070113D01*
X59112910Y-97958966D01*
X59384334Y-97840910D01*
X59669510Y-97716980D01*
X59966049Y-97588212D01*
X60271560Y-97455639D01*
X60583656Y-97320296D01*
X60899945Y-97183219D01*
X61218038Y-97045443D01*
X61535547Y-96908001D01*
X61850081Y-96771930D01*
X62159251Y-96638263D01*
X62460667Y-96508036D01*
X62751940Y-96382282D01*
X63030681Y-96262039D01*
X63294500Y-96148339D01*
X63541007Y-96042218D01*
X63767813Y-95944710D01*
X63972529Y-95856851D01*
X64152764Y-95779675D01*
X64306130Y-95714218D01*
X64430237Y-95661513D01*
X64522695Y-95622596D01*
X64581116Y-95598501D01*
X64603108Y-95590264D01*
X64609317Y-95592329D01*
G37*
X64609317Y-95592329D02*
X64649693Y-95608614D01*
X64725314Y-95640244D01*
X64833790Y-95686185D01*
X64972731Y-95745400D01*
X65139746Y-95816855D01*
X65332446Y-95899514D01*
X65548442Y-95992343D01*
X65785342Y-96094305D01*
X66040758Y-96204367D01*
X66312299Y-96321492D01*
X66597575Y-96444645D01*
X66894197Y-96572792D01*
X67199774Y-96704897D01*
X67511917Y-96839924D01*
X67828235Y-96976840D01*
X68146340Y-97114607D01*
X68463840Y-97252192D01*
X68778346Y-97388559D01*
X69087468Y-97522673D01*
X69388816Y-97653498D01*
X69680000Y-97780000D01*
X69958631Y-97901143D01*
X70222317Y-98015892D01*
X70468671Y-98123212D01*
X70695300Y-98222068D01*
X70899817Y-98311424D01*
X71079829Y-98390245D01*
X71232949Y-98457496D01*
X71356785Y-98512142D01*
X71448949Y-98553148D01*
X71507049Y-98579478D01*
X71528696Y-98590098D01*
X71535807Y-98602329D01*
X71561022Y-98650493D01*
X71603336Y-98733315D01*
X71661807Y-98848905D01*
X71735492Y-98995372D01*
X71823449Y-99170827D01*
X71924736Y-99373378D01*
X72038409Y-99601136D01*
X72163527Y-99852211D01*
X72299146Y-100124712D01*
X72444326Y-100416749D01*
X72598122Y-100726432D01*
X72759593Y-101051870D01*
X72927796Y-101391174D01*
X73101789Y-101742453D01*
X73280628Y-102103817D01*
X75007380Y-105594322D01*
X73276614Y-109094638D01*
X73272288Y-109103386D01*
X73049387Y-109553988D01*
X72844477Y-109967807D01*
X72656945Y-110346057D01*
X72486179Y-110689953D01*
X72331564Y-111000708D01*
X72192488Y-111279537D01*
X72068337Y-111527655D01*
X71958497Y-111746276D01*
X71862356Y-111936614D01*
X71779300Y-112099884D01*
X71708716Y-112237299D01*
X71649991Y-112350075D01*
X71602510Y-112439425D01*
X71565661Y-112506564D01*
X71538830Y-112552707D01*
X71521405Y-112579067D01*
X71512771Y-112586859D01*
X71508698Y-112585352D01*
X71472703Y-112567230D01*
X71405468Y-112530667D01*
X71310571Y-112477741D01*
X71191589Y-112410529D01*
X71052101Y-112331110D01*
X70895684Y-112241561D01*
X70725915Y-112143960D01*
X70546372Y-112040386D01*
X70360633Y-111932915D01*
X70172275Y-111823626D01*
X69984877Y-111714596D01*
X69802015Y-111607904D01*
X69627268Y-111505627D01*
X69464213Y-111409843D01*
X69316427Y-111322630D01*
X69187489Y-111246066D01*
X69080976Y-111182228D01*
X69000466Y-111133195D01*
X68949537Y-111101044D01*
X68931765Y-111087854D01*
X68938657Y-111071190D01*
X68962632Y-111018154D01*
X69002808Y-110930920D01*
X69058168Y-110811651D01*
X69127700Y-110662510D01*
X69210388Y-110485662D01*
X69305217Y-110283270D01*
X69411172Y-110057498D01*
X69527240Y-109810508D01*
X69652405Y-109544465D01*
X69785653Y-109261533D01*
X69925969Y-108963874D01*
X70072337Y-108653652D01*
X70223745Y-108333031D01*
X71515725Y-105598311D01*
X71477870Y-105514277D01*
X71470920Y-105499262D01*
X71446078Y-105446243D01*
X71404917Y-105358716D01*
X71348505Y-105238944D01*
X71277910Y-105089190D01*
X71194202Y-104911717D01*
X71098447Y-104708790D01*
X70991714Y-104482670D01*
X70875071Y-104235621D01*
X70749587Y-103969907D01*
X70616329Y-103687791D01*
X70476367Y-103391535D01*
X70330767Y-103083404D01*
X70180598Y-102765660D01*
X68921182Y-100101076D01*
X66759353Y-99353107D01*
X64597523Y-98605137D01*
X62007436Y-99103509D01*
X61693088Y-99164013D01*
X61379821Y-99224346D01*
X61080658Y-99282002D01*
X60798096Y-99336496D01*
X60534631Y-99387346D01*
X60292761Y-99434069D01*
X60074983Y-99476182D01*
X59883794Y-99513203D01*
X59721691Y-99544648D01*
X59591173Y-99570034D01*
X59494735Y-99588879D01*
X59434875Y-99600700D01*
X59414091Y-99605013D01*
X59406297Y-99618279D01*
X59378474Y-99666206D01*
X59331543Y-99747244D01*
X59266613Y-99859471D01*
X59184795Y-100000963D01*
X59087203Y-100169797D01*
X58974945Y-100364050D01*
X58849133Y-100581800D01*
X58710879Y-100821122D01*
X58561294Y-101080094D01*
X58401488Y-101356792D01*
X58232573Y-101649295D01*
X58055660Y-101955677D01*
X57871860Y-102274017D01*
X57682284Y-102602392D01*
X55953735Y-105596640D01*
X56814978Y-109079392D01*
X56826102Y-109124373D01*
X56918642Y-109498439D01*
X57008440Y-109861172D01*
X57094965Y-110210446D01*
X57177689Y-110544135D01*
X57256084Y-110860113D01*
X57329619Y-111156253D01*
X57397766Y-111430429D01*
X57459997Y-111680516D01*
X57515781Y-111904388D01*
X57564590Y-112099917D01*
X57605894Y-112264978D01*
X57639166Y-112397445D01*
X57663876Y-112495191D01*
X57679494Y-112556092D01*
X57685493Y-112578019D01*
X57687025Y-112581306D01*
X57676945Y-112593894D01*
X57674513Y-112591007D01*
X57655841Y-112558277D01*
X57620297Y-112491172D01*
X57569189Y-112392285D01*
X57503824Y-112264211D01*
X57425509Y-112109542D01*
X57335550Y-111930871D01*
X57235255Y-111730793D01*
X57125931Y-111511900D01*
X57008885Y-111276786D01*
X56885424Y-111028045D01*
X56756855Y-110768269D01*
X56731865Y-110717705D01*
X56575402Y-110401192D01*
X56406570Y-110059746D01*
X56228824Y-109700354D01*
X56045624Y-109330004D01*
X55860426Y-108955684D01*
X55676687Y-108584381D01*
X55497866Y-108223084D01*
X55327420Y-107878779D01*
X55168806Y-107558455D01*
X55025482Y-107269098D01*
X54196379Y-105595553D01*
X55923878Y-102104466D01*
X56057929Y-101833648D01*
X56233305Y-101479604D01*
X56403134Y-101137051D01*
X56566473Y-100807881D01*
X56722380Y-100493982D01*
X56869910Y-100197246D01*
X57008122Y-99919563D01*
X57136073Y-99662823D01*
X57252819Y-99428917D01*
X57357418Y-99219734D01*
X57448926Y-99037164D01*
X57526401Y-98883099D01*
X57588901Y-98759429D01*
X57635481Y-98668043D01*
X57665199Y-98610833D01*
X57677112Y-98589688D01*
X57683199Y-98586403D01*
X57723327Y-98567778D01*
X57798714Y-98533966D01*
X57906968Y-98486002D01*
X58045701Y-98424920D01*
X58212523Y-98351755D01*
X58405044Y-98267543D01*
X58620875Y-98173317D01*
X58857627Y-98070113D01*
X59112910Y-97958966D01*
X59384334Y-97840910D01*
X59669510Y-97716980D01*
X59966049Y-97588212D01*
X60271560Y-97455639D01*
X60583656Y-97320296D01*
X60899945Y-97183219D01*
X61218038Y-97045443D01*
X61535547Y-96908001D01*
X61850081Y-96771930D01*
X62159251Y-96638263D01*
X62460667Y-96508036D01*
X62751940Y-96382282D01*
X63030681Y-96262039D01*
X63294500Y-96148339D01*
X63541007Y-96042218D01*
X63767813Y-95944710D01*
X63972529Y-95856851D01*
X64152764Y-95779675D01*
X64306130Y-95714218D01*
X64430237Y-95661513D01*
X64522695Y-95622596D01*
X64581116Y-95598501D01*
X64603108Y-95590264D01*
X64609317Y-95592329D01*
G36*
X64618884Y-32098501D02*
G01*
X64677305Y-32122596D01*
X64769763Y-32161513D01*
X64893870Y-32214218D01*
X65047236Y-32279675D01*
X65227471Y-32356851D01*
X65432187Y-32444710D01*
X65658993Y-32542218D01*
X65905500Y-32648339D01*
X66169319Y-32762039D01*
X66448060Y-32882282D01*
X66739333Y-33008036D01*
X67040749Y-33138263D01*
X67349919Y-33271930D01*
X67664453Y-33408001D01*
X67981962Y-33545443D01*
X68300055Y-33683219D01*
X68616344Y-33820296D01*
X68928440Y-33955639D01*
X69233951Y-34088212D01*
X69530490Y-34216980D01*
X69815666Y-34340910D01*
X70087090Y-34458966D01*
X70342373Y-34570113D01*
X70579125Y-34673317D01*
X70794956Y-34767543D01*
X70987477Y-34851755D01*
X71154299Y-34924920D01*
X71293032Y-34986002D01*
X71401286Y-35033966D01*
X71476673Y-35067778D01*
X71516801Y-35086403D01*
X71522888Y-35089688D01*
X71534801Y-35110833D01*
X71564519Y-35168043D01*
X71611099Y-35259429D01*
X71673599Y-35383099D01*
X71751074Y-35537164D01*
X71842582Y-35719734D01*
X71947181Y-35928917D01*
X72063927Y-36162823D01*
X72191878Y-36419563D01*
X72330090Y-36697246D01*
X72477620Y-36993982D01*
X72633527Y-37307881D01*
X72796866Y-37637051D01*
X72966695Y-37979604D01*
X73142071Y-38333648D01*
X73276122Y-38604466D01*
X75003621Y-42095553D01*
X74174518Y-43769098D01*
X74031194Y-44058455D01*
X73872580Y-44378779D01*
X73702134Y-44723084D01*
X73523313Y-45084381D01*
X73339574Y-45455684D01*
X73154376Y-45830004D01*
X72971176Y-46200354D01*
X72793430Y-46559746D01*
X72624598Y-46901192D01*
X72468135Y-47217705D01*
X72443145Y-47268269D01*
X72314576Y-47528045D01*
X72191115Y-47776786D01*
X72074069Y-48011900D01*
X71964745Y-48230793D01*
X71864450Y-48430871D01*
X71774491Y-48609542D01*
X71696176Y-48764211D01*
X71630811Y-48892285D01*
X71579703Y-48991172D01*
X71544159Y-49058277D01*
X71525487Y-49091007D01*
X71523055Y-49093894D01*
X71512975Y-49081306D01*
X71514507Y-49078019D01*
X71520506Y-49056092D01*
X71536124Y-48995191D01*
X71560834Y-48897445D01*
X71594106Y-48764978D01*
X71635410Y-48599917D01*
X71684219Y-48404388D01*
X71740003Y-48180516D01*
X71802234Y-47930429D01*
X71870381Y-47656253D01*
X71943916Y-47360113D01*
X72022311Y-47044135D01*
X72105035Y-46710446D01*
X72191560Y-46361172D01*
X72281358Y-45998439D01*
X72373898Y-45624373D01*
X72385022Y-45579392D01*
X73246265Y-42096640D01*
X71517716Y-39102392D01*
X71328140Y-38774017D01*
X71144340Y-38455677D01*
X70967427Y-38149295D01*
X70798512Y-37856792D01*
X70638706Y-37580094D01*
X70489121Y-37321122D01*
X70350867Y-37081800D01*
X70225055Y-36864050D01*
X70112797Y-36669797D01*
X70015205Y-36500963D01*
X69933387Y-36359471D01*
X69868457Y-36247244D01*
X69821526Y-36166206D01*
X69793703Y-36118279D01*
X69785909Y-36105013D01*
X69765125Y-36100700D01*
X69705265Y-36088879D01*
X69608827Y-36070034D01*
X69478309Y-36044648D01*
X69316206Y-36013203D01*
X69125017Y-35976182D01*
X68907239Y-35934069D01*
X68665369Y-35887346D01*
X68401904Y-35836496D01*
X68119342Y-35782002D01*
X67820179Y-35724346D01*
X67506912Y-35664013D01*
X67192564Y-35603509D01*
X64602477Y-35105137D01*
X62440647Y-35853107D01*
X60278818Y-36601076D01*
X59019402Y-39265660D01*
X58869233Y-39583404D01*
X58723633Y-39891535D01*
X58583671Y-40187791D01*
X58450413Y-40469907D01*
X58324929Y-40735621D01*
X58208286Y-40982670D01*
X58101553Y-41208790D01*
X58005798Y-41411717D01*
X57922090Y-41589190D01*
X57851495Y-41738944D01*
X57795083Y-41858716D01*
X57753922Y-41946243D01*
X57729080Y-41999262D01*
X57722130Y-42014277D01*
X57684275Y-42098311D01*
X58976255Y-44833031D01*
X59127663Y-45153652D01*
X59274031Y-45463874D01*
X59414347Y-45761533D01*
X59547595Y-46044465D01*
X59672760Y-46310508D01*
X59788828Y-46557498D01*
X59894783Y-46783270D01*
X59989612Y-46985662D01*
X60072300Y-47162510D01*
X60141832Y-47311651D01*
X60197192Y-47430920D01*
X60237368Y-47518154D01*
X60261343Y-47571190D01*
X60268235Y-47587854D01*
X60250463Y-47601044D01*
X60199534Y-47633195D01*
X60119024Y-47682228D01*
X60012511Y-47746066D01*
X59883573Y-47822630D01*
X59735787Y-47909843D01*
X59572732Y-48005627D01*
X59397985Y-48107904D01*
X59215123Y-48214596D01*
X59027725Y-48323626D01*
X58839367Y-48432915D01*
X58653628Y-48540386D01*
X58474085Y-48643960D01*
X58304316Y-48741561D01*
X58147899Y-48831110D01*
X58008411Y-48910529D01*
X57889429Y-48977741D01*
X57794532Y-49030667D01*
X57727297Y-49067230D01*
X57691302Y-49085352D01*
X57687229Y-49086859D01*
X57678595Y-49079067D01*
X57661170Y-49052707D01*
X57634339Y-49006564D01*
X57597490Y-48939425D01*
X57550009Y-48850075D01*
X57491284Y-48737299D01*
X57420700Y-48599884D01*
X57337644Y-48436614D01*
X57241503Y-48246276D01*
X57131663Y-48027655D01*
X57007512Y-47779537D01*
X56868436Y-47500708D01*
X56713821Y-47189953D01*
X56543055Y-46846057D01*
X56355523Y-46467807D01*
X56150613Y-46053988D01*
X55927712Y-45603386D01*
X55923386Y-45594638D01*
X54192620Y-42094322D01*
X55919372Y-38603817D01*
X56098211Y-38242453D01*
X56272204Y-37891174D01*
X56440407Y-37551870D01*
X56601878Y-37226432D01*
X56755674Y-36916749D01*
X56900854Y-36624712D01*
X57036473Y-36352211D01*
X57161591Y-36101136D01*
X57275264Y-35873378D01*
X57376551Y-35670827D01*
X57464508Y-35495372D01*
X57538193Y-35348905D01*
X57596664Y-35233315D01*
X57638978Y-35150493D01*
X57664193Y-35102329D01*
X57671304Y-35090098D01*
X57692951Y-35079478D01*
X57751051Y-35053148D01*
X57843215Y-35012142D01*
X57967051Y-34957496D01*
X58120171Y-34890245D01*
X58300183Y-34811424D01*
X58504700Y-34722068D01*
X58731329Y-34623212D01*
X58977683Y-34515892D01*
X59241369Y-34401143D01*
X59520000Y-34280000D01*
X59811184Y-34153498D01*
X60112532Y-34022673D01*
X60421654Y-33888559D01*
X60736160Y-33752192D01*
X61053660Y-33614607D01*
X61371765Y-33476840D01*
X61688083Y-33339924D01*
X62000226Y-33204897D01*
X62305803Y-33072792D01*
X62602425Y-32944645D01*
X62887701Y-32821492D01*
X63159242Y-32704367D01*
X63414658Y-32594305D01*
X63651558Y-32492343D01*
X63867554Y-32399514D01*
X64060254Y-32316855D01*
X64227269Y-32245400D01*
X64366210Y-32186185D01*
X64474686Y-32140244D01*
X64550307Y-32108614D01*
X64590683Y-32092329D01*
X64596892Y-32090264D01*
X64618884Y-32098501D01*
G37*
X64618884Y-32098501D02*
X64677305Y-32122596D01*
X64769763Y-32161513D01*
X64893870Y-32214218D01*
X65047236Y-32279675D01*
X65227471Y-32356851D01*
X65432187Y-32444710D01*
X65658993Y-32542218D01*
X65905500Y-32648339D01*
X66169319Y-32762039D01*
X66448060Y-32882282D01*
X66739333Y-33008036D01*
X67040749Y-33138263D01*
X67349919Y-33271930D01*
X67664453Y-33408001D01*
X67981962Y-33545443D01*
X68300055Y-33683219D01*
X68616344Y-33820296D01*
X68928440Y-33955639D01*
X69233951Y-34088212D01*
X69530490Y-34216980D01*
X69815666Y-34340910D01*
X70087090Y-34458966D01*
X70342373Y-34570113D01*
X70579125Y-34673317D01*
X70794956Y-34767543D01*
X70987477Y-34851755D01*
X71154299Y-34924920D01*
X71293032Y-34986002D01*
X71401286Y-35033966D01*
X71476673Y-35067778D01*
X71516801Y-35086403D01*
X71522888Y-35089688D01*
X71534801Y-35110833D01*
X71564519Y-35168043D01*
X71611099Y-35259429D01*
X71673599Y-35383099D01*
X71751074Y-35537164D01*
X71842582Y-35719734D01*
X71947181Y-35928917D01*
X72063927Y-36162823D01*
X72191878Y-36419563D01*
X72330090Y-36697246D01*
X72477620Y-36993982D01*
X72633527Y-37307881D01*
X72796866Y-37637051D01*
X72966695Y-37979604D01*
X73142071Y-38333648D01*
X73276122Y-38604466D01*
X75003621Y-42095553D01*
X74174518Y-43769098D01*
X74031194Y-44058455D01*
X73872580Y-44378779D01*
X73702134Y-44723084D01*
X73523313Y-45084381D01*
X73339574Y-45455684D01*
X73154376Y-45830004D01*
X72971176Y-46200354D01*
X72793430Y-46559746D01*
X72624598Y-46901192D01*
X72468135Y-47217705D01*
X72443145Y-47268269D01*
X72314576Y-47528045D01*
X72191115Y-47776786D01*
X72074069Y-48011900D01*
X71964745Y-48230793D01*
X71864450Y-48430871D01*
X71774491Y-48609542D01*
X71696176Y-48764211D01*
X71630811Y-48892285D01*
X71579703Y-48991172D01*
X71544159Y-49058277D01*
X71525487Y-49091007D01*
X71523055Y-49093894D01*
X71512975Y-49081306D01*
X71514507Y-49078019D01*
X71520506Y-49056092D01*
X71536124Y-48995191D01*
X71560834Y-48897445D01*
X71594106Y-48764978D01*
X71635410Y-48599917D01*
X71684219Y-48404388D01*
X71740003Y-48180516D01*
X71802234Y-47930429D01*
X71870381Y-47656253D01*
X71943916Y-47360113D01*
X72022311Y-47044135D01*
X72105035Y-46710446D01*
X72191560Y-46361172D01*
X72281358Y-45998439D01*
X72373898Y-45624373D01*
X72385022Y-45579392D01*
X73246265Y-42096640D01*
X71517716Y-39102392D01*
X71328140Y-38774017D01*
X71144340Y-38455677D01*
X70967427Y-38149295D01*
X70798512Y-37856792D01*
X70638706Y-37580094D01*
X70489121Y-37321122D01*
X70350867Y-37081800D01*
X70225055Y-36864050D01*
X70112797Y-36669797D01*
X70015205Y-36500963D01*
X69933387Y-36359471D01*
X69868457Y-36247244D01*
X69821526Y-36166206D01*
X69793703Y-36118279D01*
X69785909Y-36105013D01*
X69765125Y-36100700D01*
X69705265Y-36088879D01*
X69608827Y-36070034D01*
X69478309Y-36044648D01*
X69316206Y-36013203D01*
X69125017Y-35976182D01*
X68907239Y-35934069D01*
X68665369Y-35887346D01*
X68401904Y-35836496D01*
X68119342Y-35782002D01*
X67820179Y-35724346D01*
X67506912Y-35664013D01*
X67192564Y-35603509D01*
X64602477Y-35105137D01*
X62440647Y-35853107D01*
X60278818Y-36601076D01*
X59019402Y-39265660D01*
X58869233Y-39583404D01*
X58723633Y-39891535D01*
X58583671Y-40187791D01*
X58450413Y-40469907D01*
X58324929Y-40735621D01*
X58208286Y-40982670D01*
X58101553Y-41208790D01*
X58005798Y-41411717D01*
X57922090Y-41589190D01*
X57851495Y-41738944D01*
X57795083Y-41858716D01*
X57753922Y-41946243D01*
X57729080Y-41999262D01*
X57722130Y-42014277D01*
X57684275Y-42098311D01*
X58976255Y-44833031D01*
X59127663Y-45153652D01*
X59274031Y-45463874D01*
X59414347Y-45761533D01*
X59547595Y-46044465D01*
X59672760Y-46310508D01*
X59788828Y-46557498D01*
X59894783Y-46783270D01*
X59989612Y-46985662D01*
X60072300Y-47162510D01*
X60141832Y-47311651D01*
X60197192Y-47430920D01*
X60237368Y-47518154D01*
X60261343Y-47571190D01*
X60268235Y-47587854D01*
X60250463Y-47601044D01*
X60199534Y-47633195D01*
X60119024Y-47682228D01*
X60012511Y-47746066D01*
X59883573Y-47822630D01*
X59735787Y-47909843D01*
X59572732Y-48005627D01*
X59397985Y-48107904D01*
X59215123Y-48214596D01*
X59027725Y-48323626D01*
X58839367Y-48432915D01*
X58653628Y-48540386D01*
X58474085Y-48643960D01*
X58304316Y-48741561D01*
X58147899Y-48831110D01*
X58008411Y-48910529D01*
X57889429Y-48977741D01*
X57794532Y-49030667D01*
X57727297Y-49067230D01*
X57691302Y-49085352D01*
X57687229Y-49086859D01*
X57678595Y-49079067D01*
X57661170Y-49052707D01*
X57634339Y-49006564D01*
X57597490Y-48939425D01*
X57550009Y-48850075D01*
X57491284Y-48737299D01*
X57420700Y-48599884D01*
X57337644Y-48436614D01*
X57241503Y-48246276D01*
X57131663Y-48027655D01*
X57007512Y-47779537D01*
X56868436Y-47500708D01*
X56713821Y-47189953D01*
X56543055Y-46846057D01*
X56355523Y-46467807D01*
X56150613Y-46053988D01*
X55927712Y-45603386D01*
X55923386Y-45594638D01*
X54192620Y-42094322D01*
X55919372Y-38603817D01*
X56098211Y-38242453D01*
X56272204Y-37891174D01*
X56440407Y-37551870D01*
X56601878Y-37226432D01*
X56755674Y-36916749D01*
X56900854Y-36624712D01*
X57036473Y-36352211D01*
X57161591Y-36101136D01*
X57275264Y-35873378D01*
X57376551Y-35670827D01*
X57464508Y-35495372D01*
X57538193Y-35348905D01*
X57596664Y-35233315D01*
X57638978Y-35150493D01*
X57664193Y-35102329D01*
X57671304Y-35090098D01*
X57692951Y-35079478D01*
X57751051Y-35053148D01*
X57843215Y-35012142D01*
X57967051Y-34957496D01*
X58120171Y-34890245D01*
X58300183Y-34811424D01*
X58504700Y-34722068D01*
X58731329Y-34623212D01*
X58977683Y-34515892D01*
X59241369Y-34401143D01*
X59520000Y-34280000D01*
X59811184Y-34153498D01*
X60112532Y-34022673D01*
X60421654Y-33888559D01*
X60736160Y-33752192D01*
X61053660Y-33614607D01*
X61371765Y-33476840D01*
X61688083Y-33339924D01*
X62000226Y-33204897D01*
X62305803Y-33072792D01*
X62602425Y-32944645D01*
X62887701Y-32821492D01*
X63159242Y-32704367D01*
X63414658Y-32594305D01*
X63651558Y-32492343D01*
X63867554Y-32399514D01*
X64060254Y-32316855D01*
X64227269Y-32245400D01*
X64366210Y-32186185D01*
X64474686Y-32140244D01*
X64550307Y-32108614D01*
X64590683Y-32092329D01*
X64596892Y-32090264D01*
X64618884Y-32098501D01*
G36*
X69731608Y-119799682D02*
G01*
X73263168Y-119800733D01*
X74131001Y-120303689D01*
X74998834Y-120806646D01*
X74998834Y-130828863D01*
X73284334Y-131820271D01*
X66299334Y-131817093D01*
X65452668Y-131324978D01*
X64606001Y-130832862D01*
X64601313Y-125818455D01*
X64596625Y-120804049D01*
X65398336Y-120301340D01*
X66200048Y-119798632D01*
X69731608Y-119799682D01*
G37*
X69731608Y-119799682D02*
X73263168Y-119800733D01*
X74131001Y-120303689D01*
X74998834Y-120806646D01*
X74998834Y-130828863D01*
X73284334Y-131820271D01*
X66299334Y-131817093D01*
X65452668Y-131324978D01*
X64606001Y-130832862D01*
X64601313Y-125818455D01*
X64596625Y-120804049D01*
X65398336Y-120301340D01*
X66200048Y-119798632D01*
X69731608Y-119799682D01*
G36*
X36718884Y-32098501D02*
G01*
X36777305Y-32122596D01*
X36869763Y-32161513D01*
X36993870Y-32214218D01*
X37147236Y-32279675D01*
X37327471Y-32356851D01*
X37532187Y-32444710D01*
X37758993Y-32542218D01*
X38005500Y-32648339D01*
X38269319Y-32762039D01*
X38548060Y-32882282D01*
X38839333Y-33008036D01*
X39140749Y-33138263D01*
X39449919Y-33271930D01*
X39764453Y-33408001D01*
X40081962Y-33545443D01*
X40400055Y-33683219D01*
X40716344Y-33820296D01*
X41028440Y-33955639D01*
X41333951Y-34088212D01*
X41630490Y-34216980D01*
X41915666Y-34340910D01*
X42187090Y-34458966D01*
X42442373Y-34570113D01*
X42679125Y-34673317D01*
X42894956Y-34767543D01*
X43087477Y-34851755D01*
X43254299Y-34924920D01*
X43393032Y-34986002D01*
X43501286Y-35033966D01*
X43576673Y-35067778D01*
X43616801Y-35086403D01*
X43622888Y-35089688D01*
X43634801Y-35110833D01*
X43664519Y-35168043D01*
X43711099Y-35259429D01*
X43773599Y-35383099D01*
X43851074Y-35537164D01*
X43942582Y-35719734D01*
X44047181Y-35928917D01*
X44163927Y-36162823D01*
X44291878Y-36419563D01*
X44430090Y-36697246D01*
X44577620Y-36993982D01*
X44733527Y-37307881D01*
X44896866Y-37637051D01*
X45066695Y-37979604D01*
X45242071Y-38333648D01*
X45376122Y-38604466D01*
X47103621Y-42095553D01*
X46274518Y-43769098D01*
X46131194Y-44058455D01*
X45972580Y-44378779D01*
X45802134Y-44723084D01*
X45623313Y-45084381D01*
X45439574Y-45455684D01*
X45254376Y-45830004D01*
X45071176Y-46200354D01*
X44893430Y-46559746D01*
X44724598Y-46901192D01*
X44568135Y-47217705D01*
X44543145Y-47268269D01*
X44414576Y-47528045D01*
X44291115Y-47776786D01*
X44174069Y-48011900D01*
X44064745Y-48230793D01*
X43964450Y-48430871D01*
X43874491Y-48609542D01*
X43796176Y-48764211D01*
X43730811Y-48892285D01*
X43679703Y-48991172D01*
X43644159Y-49058277D01*
X43625487Y-49091007D01*
X43623055Y-49093894D01*
X43612975Y-49081306D01*
X43614507Y-49078019D01*
X43620506Y-49056092D01*
X43636124Y-48995191D01*
X43660834Y-48897445D01*
X43694106Y-48764978D01*
X43735410Y-48599917D01*
X43784219Y-48404388D01*
X43840003Y-48180516D01*
X43902234Y-47930429D01*
X43970381Y-47656253D01*
X44043916Y-47360113D01*
X44122311Y-47044135D01*
X44205035Y-46710446D01*
X44291560Y-46361172D01*
X44381358Y-45998439D01*
X44473898Y-45624373D01*
X44485022Y-45579392D01*
X45346265Y-42096640D01*
X43617716Y-39102392D01*
X43428140Y-38774017D01*
X43244340Y-38455677D01*
X43067427Y-38149295D01*
X42898512Y-37856792D01*
X42738706Y-37580094D01*
X42589121Y-37321122D01*
X42450867Y-37081800D01*
X42325055Y-36864050D01*
X42212797Y-36669797D01*
X42115205Y-36500963D01*
X42033387Y-36359471D01*
X41968457Y-36247244D01*
X41921526Y-36166206D01*
X41893703Y-36118279D01*
X41885909Y-36105013D01*
X41865125Y-36100700D01*
X41805265Y-36088879D01*
X41708827Y-36070034D01*
X41578309Y-36044648D01*
X41416206Y-36013203D01*
X41225017Y-35976182D01*
X41007239Y-35934069D01*
X40765369Y-35887346D01*
X40501904Y-35836496D01*
X40219342Y-35782002D01*
X39920179Y-35724346D01*
X39606912Y-35664013D01*
X39292564Y-35603509D01*
X36702477Y-35105137D01*
X34540647Y-35853107D01*
X32378818Y-36601076D01*
X31119402Y-39265660D01*
X30969233Y-39583404D01*
X30823633Y-39891535D01*
X30683671Y-40187791D01*
X30550413Y-40469907D01*
X30424929Y-40735621D01*
X30308286Y-40982670D01*
X30201553Y-41208790D01*
X30105798Y-41411717D01*
X30022090Y-41589190D01*
X29951495Y-41738944D01*
X29895083Y-41858716D01*
X29853922Y-41946243D01*
X29829080Y-41999262D01*
X29822130Y-42014277D01*
X29784275Y-42098311D01*
X31076255Y-44833031D01*
X31227663Y-45153652D01*
X31374031Y-45463874D01*
X31514347Y-45761533D01*
X31647595Y-46044465D01*
X31772760Y-46310508D01*
X31888828Y-46557498D01*
X31994783Y-46783270D01*
X32089612Y-46985662D01*
X32172300Y-47162510D01*
X32241832Y-47311651D01*
X32297192Y-47430920D01*
X32337368Y-47518154D01*
X32361343Y-47571190D01*
X32368235Y-47587854D01*
X32350463Y-47601044D01*
X32299534Y-47633195D01*
X32219024Y-47682228D01*
X32112511Y-47746066D01*
X31983573Y-47822630D01*
X31835787Y-47909843D01*
X31672732Y-48005627D01*
X31497985Y-48107904D01*
X31315123Y-48214596D01*
X31127725Y-48323626D01*
X30939367Y-48432915D01*
X30753628Y-48540386D01*
X30574085Y-48643960D01*
X30404316Y-48741561D01*
X30247899Y-48831110D01*
X30108411Y-48910529D01*
X29989429Y-48977741D01*
X29894532Y-49030667D01*
X29827297Y-49067230D01*
X29791302Y-49085352D01*
X29787229Y-49086859D01*
X29778595Y-49079067D01*
X29761170Y-49052707D01*
X29734339Y-49006564D01*
X29697490Y-48939425D01*
X29650009Y-48850075D01*
X29591284Y-48737299D01*
X29520700Y-48599884D01*
X29437644Y-48436614D01*
X29341503Y-48246276D01*
X29231663Y-48027655D01*
X29107512Y-47779537D01*
X28968436Y-47500708D01*
X28813821Y-47189953D01*
X28643055Y-46846057D01*
X28455523Y-46467807D01*
X28250613Y-46053988D01*
X28027712Y-45603386D01*
X28023386Y-45594638D01*
X26292620Y-42094322D01*
X28019372Y-38603817D01*
X28198211Y-38242453D01*
X28372204Y-37891174D01*
X28540407Y-37551870D01*
X28701878Y-37226432D01*
X28855674Y-36916749D01*
X29000854Y-36624712D01*
X29136473Y-36352211D01*
X29261591Y-36101136D01*
X29375264Y-35873378D01*
X29476551Y-35670827D01*
X29564508Y-35495372D01*
X29638193Y-35348905D01*
X29696664Y-35233315D01*
X29738978Y-35150493D01*
X29764193Y-35102329D01*
X29771304Y-35090098D01*
X29792951Y-35079478D01*
X29851051Y-35053148D01*
X29943215Y-35012142D01*
X30067051Y-34957496D01*
X30220171Y-34890245D01*
X30400183Y-34811424D01*
X30604700Y-34722068D01*
X30831329Y-34623212D01*
X31077683Y-34515892D01*
X31341369Y-34401143D01*
X31620000Y-34280000D01*
X31911184Y-34153498D01*
X32212532Y-34022673D01*
X32521654Y-33888559D01*
X32836160Y-33752192D01*
X33153660Y-33614607D01*
X33471765Y-33476840D01*
X33788083Y-33339924D01*
X34100226Y-33204897D01*
X34405803Y-33072792D01*
X34702425Y-32944645D01*
X34987701Y-32821492D01*
X35259242Y-32704367D01*
X35514658Y-32594305D01*
X35751558Y-32492343D01*
X35967554Y-32399514D01*
X36160254Y-32316855D01*
X36327269Y-32245400D01*
X36466210Y-32186185D01*
X36574686Y-32140244D01*
X36650307Y-32108614D01*
X36690683Y-32092329D01*
X36696892Y-32090264D01*
X36718884Y-32098501D01*
G37*
X36718884Y-32098501D02*
X36777305Y-32122596D01*
X36869763Y-32161513D01*
X36993870Y-32214218D01*
X37147236Y-32279675D01*
X37327471Y-32356851D01*
X37532187Y-32444710D01*
X37758993Y-32542218D01*
X38005500Y-32648339D01*
X38269319Y-32762039D01*
X38548060Y-32882282D01*
X38839333Y-33008036D01*
X39140749Y-33138263D01*
X39449919Y-33271930D01*
X39764453Y-33408001D01*
X40081962Y-33545443D01*
X40400055Y-33683219D01*
X40716344Y-33820296D01*
X41028440Y-33955639D01*
X41333951Y-34088212D01*
X41630490Y-34216980D01*
X41915666Y-34340910D01*
X42187090Y-34458966D01*
X42442373Y-34570113D01*
X42679125Y-34673317D01*
X42894956Y-34767543D01*
X43087477Y-34851755D01*
X43254299Y-34924920D01*
X43393032Y-34986002D01*
X43501286Y-35033966D01*
X43576673Y-35067778D01*
X43616801Y-35086403D01*
X43622888Y-35089688D01*
X43634801Y-35110833D01*
X43664519Y-35168043D01*
X43711099Y-35259429D01*
X43773599Y-35383099D01*
X43851074Y-35537164D01*
X43942582Y-35719734D01*
X44047181Y-35928917D01*
X44163927Y-36162823D01*
X44291878Y-36419563D01*
X44430090Y-36697246D01*
X44577620Y-36993982D01*
X44733527Y-37307881D01*
X44896866Y-37637051D01*
X45066695Y-37979604D01*
X45242071Y-38333648D01*
X45376122Y-38604466D01*
X47103621Y-42095553D01*
X46274518Y-43769098D01*
X46131194Y-44058455D01*
X45972580Y-44378779D01*
X45802134Y-44723084D01*
X45623313Y-45084381D01*
X45439574Y-45455684D01*
X45254376Y-45830004D01*
X45071176Y-46200354D01*
X44893430Y-46559746D01*
X44724598Y-46901192D01*
X44568135Y-47217705D01*
X44543145Y-47268269D01*
X44414576Y-47528045D01*
X44291115Y-47776786D01*
X44174069Y-48011900D01*
X44064745Y-48230793D01*
X43964450Y-48430871D01*
X43874491Y-48609542D01*
X43796176Y-48764211D01*
X43730811Y-48892285D01*
X43679703Y-48991172D01*
X43644159Y-49058277D01*
X43625487Y-49091007D01*
X43623055Y-49093894D01*
X43612975Y-49081306D01*
X43614507Y-49078019D01*
X43620506Y-49056092D01*
X43636124Y-48995191D01*
X43660834Y-48897445D01*
X43694106Y-48764978D01*
X43735410Y-48599917D01*
X43784219Y-48404388D01*
X43840003Y-48180516D01*
X43902234Y-47930429D01*
X43970381Y-47656253D01*
X44043916Y-47360113D01*
X44122311Y-47044135D01*
X44205035Y-46710446D01*
X44291560Y-46361172D01*
X44381358Y-45998439D01*
X44473898Y-45624373D01*
X44485022Y-45579392D01*
X45346265Y-42096640D01*
X43617716Y-39102392D01*
X43428140Y-38774017D01*
X43244340Y-38455677D01*
X43067427Y-38149295D01*
X42898512Y-37856792D01*
X42738706Y-37580094D01*
X42589121Y-37321122D01*
X42450867Y-37081800D01*
X42325055Y-36864050D01*
X42212797Y-36669797D01*
X42115205Y-36500963D01*
X42033387Y-36359471D01*
X41968457Y-36247244D01*
X41921526Y-36166206D01*
X41893703Y-36118279D01*
X41885909Y-36105013D01*
X41865125Y-36100700D01*
X41805265Y-36088879D01*
X41708827Y-36070034D01*
X41578309Y-36044648D01*
X41416206Y-36013203D01*
X41225017Y-35976182D01*
X41007239Y-35934069D01*
X40765369Y-35887346D01*
X40501904Y-35836496D01*
X40219342Y-35782002D01*
X39920179Y-35724346D01*
X39606912Y-35664013D01*
X39292564Y-35603509D01*
X36702477Y-35105137D01*
X34540647Y-35853107D01*
X32378818Y-36601076D01*
X31119402Y-39265660D01*
X30969233Y-39583404D01*
X30823633Y-39891535D01*
X30683671Y-40187791D01*
X30550413Y-40469907D01*
X30424929Y-40735621D01*
X30308286Y-40982670D01*
X30201553Y-41208790D01*
X30105798Y-41411717D01*
X30022090Y-41589190D01*
X29951495Y-41738944D01*
X29895083Y-41858716D01*
X29853922Y-41946243D01*
X29829080Y-41999262D01*
X29822130Y-42014277D01*
X29784275Y-42098311D01*
X31076255Y-44833031D01*
X31227663Y-45153652D01*
X31374031Y-45463874D01*
X31514347Y-45761533D01*
X31647595Y-46044465D01*
X31772760Y-46310508D01*
X31888828Y-46557498D01*
X31994783Y-46783270D01*
X32089612Y-46985662D01*
X32172300Y-47162510D01*
X32241832Y-47311651D01*
X32297192Y-47430920D01*
X32337368Y-47518154D01*
X32361343Y-47571190D01*
X32368235Y-47587854D01*
X32350463Y-47601044D01*
X32299534Y-47633195D01*
X32219024Y-47682228D01*
X32112511Y-47746066D01*
X31983573Y-47822630D01*
X31835787Y-47909843D01*
X31672732Y-48005627D01*
X31497985Y-48107904D01*
X31315123Y-48214596D01*
X31127725Y-48323626D01*
X30939367Y-48432915D01*
X30753628Y-48540386D01*
X30574085Y-48643960D01*
X30404316Y-48741561D01*
X30247899Y-48831110D01*
X30108411Y-48910529D01*
X29989429Y-48977741D01*
X29894532Y-49030667D01*
X29827297Y-49067230D01*
X29791302Y-49085352D01*
X29787229Y-49086859D01*
X29778595Y-49079067D01*
X29761170Y-49052707D01*
X29734339Y-49006564D01*
X29697490Y-48939425D01*
X29650009Y-48850075D01*
X29591284Y-48737299D01*
X29520700Y-48599884D01*
X29437644Y-48436614D01*
X29341503Y-48246276D01*
X29231663Y-48027655D01*
X29107512Y-47779537D01*
X28968436Y-47500708D01*
X28813821Y-47189953D01*
X28643055Y-46846057D01*
X28455523Y-46467807D01*
X28250613Y-46053988D01*
X28027712Y-45603386D01*
X28023386Y-45594638D01*
X26292620Y-42094322D01*
X28019372Y-38603817D01*
X28198211Y-38242453D01*
X28372204Y-37891174D01*
X28540407Y-37551870D01*
X28701878Y-37226432D01*
X28855674Y-36916749D01*
X29000854Y-36624712D01*
X29136473Y-36352211D01*
X29261591Y-36101136D01*
X29375264Y-35873378D01*
X29476551Y-35670827D01*
X29564508Y-35495372D01*
X29638193Y-35348905D01*
X29696664Y-35233315D01*
X29738978Y-35150493D01*
X29764193Y-35102329D01*
X29771304Y-35090098D01*
X29792951Y-35079478D01*
X29851051Y-35053148D01*
X29943215Y-35012142D01*
X30067051Y-34957496D01*
X30220171Y-34890245D01*
X30400183Y-34811424D01*
X30604700Y-34722068D01*
X30831329Y-34623212D01*
X31077683Y-34515892D01*
X31341369Y-34401143D01*
X31620000Y-34280000D01*
X31911184Y-34153498D01*
X32212532Y-34022673D01*
X32521654Y-33888559D01*
X32836160Y-33752192D01*
X33153660Y-33614607D01*
X33471765Y-33476840D01*
X33788083Y-33339924D01*
X34100226Y-33204897D01*
X34405803Y-33072792D01*
X34702425Y-32944645D01*
X34987701Y-32821492D01*
X35259242Y-32704367D01*
X35514658Y-32594305D01*
X35751558Y-32492343D01*
X35967554Y-32399514D01*
X36160254Y-32316855D01*
X36327269Y-32245400D01*
X36466210Y-32186185D01*
X36574686Y-32140244D01*
X36650307Y-32108614D01*
X36690683Y-32092329D01*
X36696892Y-32090264D01*
X36718884Y-32098501D01*
M02*
